<?xml version="1.0" standalone="no"?>
<!DOCTYPE svg PUBLIC "-//W3C//DTD SVG 1.1//EN" "http://www.w3.org/Graphics/SVG/1.1/DTD/svg11.dtd" >
<svg xmlns="http://www.w3.org/2000/svg" xmlns:xlink="http://www.w3.org/1999/xlink" version="1.1">
<metadata>
Created by FontForge 20190801 at Thu Jan 11 09:16:30 2007
 By root
Copyright (c) by (URW)++ Design &#38; Development, 1999. All rights reserved. Designed by Hermann Zapf. Diacritics added by Ulrich Stiehl.
</metadata>
<defs>
<font id="URWPalladioITU-Bold" horiz-adv-x="500" >
  <font-face 
    font-family="URW Palladio ITU"
    font-weight="700"
    font-stretch="normal"
    units-per-em="1000"
    panose-1="2 0 8 3 7 0 0 2 0 4"
    ascent="800"
    descent="-200"
    x-height="459"
    cap-height="681"
    bbox="-399 -266 1494 1050"
    underline-thickness="50"
    underline-position="-100"
    unicode-range="U+0020-F157"
  />
<missing-glyph horiz-adv-x="606" 
d="M497 425h-388v-388h388v388v0zM72 0v463h462v-463h-462v0z" />
    <glyph glyph-name=".notdef" horiz-adv-x="606" 
d="M497 425h-388v-388h388v388v0zM72 0v463h462v-463h-462v0z" />
    <glyph glyph-name=".null" horiz-adv-x="0" 
 />
    <glyph glyph-name="nonmarkingreturn" horiz-adv-x="250" 
 />
    <glyph glyph-name="space" unicode=" " horiz-adv-x="250" 
 />
    <glyph glyph-name="space" unicode="&#xa0;" horiz-adv-x="250" 
 />
    <glyph glyph-name="numbersign" unicode="#" 
d="M470 290v-75h-105l-32 -215h-75l32 215h-108l-32 -215h-75l32 215h-103v75h115l16 106h-103v75h114l30 202h75l-30 -202h107l29 202h75l-29 -202h93v-75h-104l-16 -106h94v0zM317 396h-107l-16 -106h107l16 106v0z" />
    <glyph glyph-name="dollar" unicode="$" 
d="M221 277q-61 8 -94 20t-55 35q-44 43 -44 130q0 94 60 147q13 11 25.5 19.5t28 15.5t34.5 12.5t45 11.5l-2 53h50l-2 -53q49 -1 88 -8.5t77 -24.5l2 -7q-8 -26 -11 -59t-3 -81h-39q0 44 -3.5 64.5t-11.5 26.5q-19 15 -45.5 24.5t-53.5 10.5v-212q67 -13 103 -27t59 -38
q43 -44 43 -123q0 -63 -27.5 -113.5t-76.5 -81.5q-11 -7 -21.5 -11.5t-22 -8.5t-25.5 -6.5t-32 -5.5l2 -101h-51l3 97q-60 2 -104 11.5t-84 28.5l-3 9q2 17 3.5 32t2.5 32t1.5 37.5t1.5 47.5h41v-40q0 -44 29 -66q26 -18 52 -27t60 -11v240zM267 40q98 29 98 121
q0 89 -98 106v-227zM221 614q-39 -3 -65 -34t-26 -75q0 -82 91 -97v206z" />
    <glyph glyph-name="percent" unicode="%" horiz-adv-x="889" 
d="M226 700q34 0 63.5 -12.5t51.5 -34.5t34 -52t12 -65t-12.5 -65t-34 -52t-51.5 -34.5t-65 -12.5t-64.5 12.5t-51.5 34.5t-34.5 51.5t-12.5 64.5q0 36 12 66.5t34 52.5t52.5 34t66.5 12zM225 668q-64 0 -64 -129q0 -70 15.5 -102.5t47.5 -32.5t47.5 32t15.5 100
q0 132 -62 132zM667 328q34 0 63.5 -12.5t51.5 -34.5t34 -52t12 -65t-12.5 -65t-34 -52t-51.5 -34.5t-65 -12.5t-64.5 12.5t-51.5 34.5t-34.5 51.5t-12.5 64.5q0 36 12 66.5t34 52.5t52.5 34t66.5 12zM666 296q-64 0 -64 -129q0 -70 15.5 -102.5t47.5 -32.5t47.5 32
t15.5 100q0 132 -62 132zM234 -9l366 723h49l-366 -723h-49z" />
    <glyph glyph-name="ampersand" unicode="&#x26;" horiz-adv-x="833" 
d="M447 328q15 28 20.5 40.5t8.5 25.5l118 -4q14 -1 27 -1h22h27.5t30 1t37.5 2t50 3l3 -9q-8 -20 -12.5 -35t-7.5 -35q-19 2 -35.5 3.5t-33 2t-34 1t-38.5 0.5q3 -24 3 -37q0 -35 -15 -70.5t-50 -82.5q40 -25 76.5 -37t74.5 -12q14 0 24.5 4t27.5 16q3 2 6 3.5t5 3.5l17 11
l14 -32q-31 -26 -54 -50.5t-39 -48.5l-66 -3q-48 0 -88 15t-83 50q-51 -38 -97.5 -54t-103.5 -16q-51 0 -93 14.5t-72.5 40t-47.5 61t-17 77.5q0 32 8 58.5t26.5 50t48 45t72.5 43.5q-18 45 -25.5 74t-7.5 56q0 29 11 51t40 54l35 38q17 17 44 27.5t58 10.5q53 0 84 -28
t31 -76q0 -26 -8 -49t-26.5 -46t-48.5 -47t-75 -53q46 -68 94.5 -121.5t111.5 -105.5q18 28 25 48.5t7 43.5q0 35 -20 78h-90zM222 336q-29 -28 -40 -49.5t-11 -53.5q0 -36 14.5 -68.5t39 -57.5t57 -39.5t68.5 -14.5q26 0 47 7t44 23q-36 31 -66 60.5t-56 59.5t-49.5 62.5
t-47.5 70.5zM299 426q5 3 8 5.5t7 4.5q76 55 76 121q0 29 -16.5 47t-42.5 18q-32 0 -49 -20t-17 -58q0 -12 1.5 -24t5.5 -25.5t10.5 -30t16.5 -38.5z" />
    <glyph glyph-name="quotesingle" unicode="'" horiz-adv-x="227" 
d="M90 376l-44 239q-1 4 -1 9q0 13 6 26t15.5 23t21.5 16t25 6t25.5 -6t22 -16t15 -23t5.5 -26q0 -6 -1 -9l-44 -239h-46z" />
    <glyph glyph-name="parenleft" unicode="(" horiz-adv-x="333" 
d="M305 701q-17 -20 -28.5 -36.5t-20.5 -32.5t-16 -32.5t-14 -37.5q-14 -43 -21 -107.5t-7 -146.5q0 -77 4.5 -131.5t16.5 -98t32.5 -80.5t53.5 -78l-24 -24q-38 28 -65 52.5t-47 48t-35.5 49t-28.5 57.5q-40 90 -40 204q0 112 39 204q13 31 28 57t35 50.5t47 49.5t65 55z
" />
    <glyph glyph-name="parenright" unicode=")" horiz-adv-x="333" 
d="M54 723q37 -30 64.5 -55t47.5 -49.5t35 -50.5t28 -57q39 -92 39 -204q0 -114 -40 -204q-14 -32 -29 -57.5t-35 -49t-47.5 -48t-64.5 -52.5l-24 24q33 42 53.5 79t32.5 80t16.5 97.5t4.5 131.5q0 172 -31 262q-7 19 -13.5 34.5t-15.5 30.5t-20 30.5t-27 35.5z" />
    <glyph glyph-name="asterisk" unicode="*" horiz-adv-x="444" 
d="M324 659q-18 -18 -40 -51.5t-42 -75.5q17 4 25.5 5.5t19.5 3.5q43 7 62.5 12t33.5 10l6 -3q-1 -7 -1 -11.5v-8.5q0 -26 11 -67l-9 -11q-34 14 -70 21.5t-84 12.5l7 -12q15 -24 24.5 -39.5t17 -26.5t15 -20t16.5 -20l-2 -12q-16 -3 -39 -12t-46 -22l-15 7q0 22 -0.5 40.5
t-2 35.5t-3.5 33.5t-5 35.5q-24 -17 -51.5 -45.5t-49.5 -59.5l-19 8q-7 20 -17.5 38.5t-21.5 31.5l4 7q32 8 66 21t71 32q-26 17 -61 32t-77 27l-3 7q17 27 26.5 43.5t17.5 33.5h16q11 -13 20.5 -24t20.5 -23.5t25.5 -28.5t35.5 -38q7 38 10 69.5t3 72.5l8 7q25 -9 45 -13.5
t47 -8.5z" />
    <glyph glyph-name="plus" unicode="+" horiz-adv-x="606" 
d="M260 298v207h86v-207h209v-86h-209v-212h-86v212h-209v86h209v0z" />
    <glyph glyph-name="comma" unicode="," horiz-adv-x="250" 
d="M9 -166l-15 13q33 67 54.5 134.5t27.5 121.5q40 10 69.5 18.5t64.5 19.5l17 -16q-14 -29 -27.5 -56t-30.5 -57t-38.5 -65.5t-50.5 -82.5z" />
    <glyph glyph-name="hyphen" unicode="-" horiz-adv-x="333" 
d="M308 305l9 -10q-12 -27 -20 -53t-12 -47h-261l-8 8q4 11 7 20t8 23q4 13 7 21.5t5 14.5t3.5 11t3.5 12h258z" />
    <glyph glyph-name="hyphen" unicode="&#xad;" horiz-adv-x="333" 
d="M308 305l9 -10q-12 -27 -20 -53t-12 -47h-261l-8 8q4 11 7 20t8 23q4 13 7 21.5t5 14.5t3.5 11t3.5 12h258z" />
    <glyph glyph-name="period" unicode="." horiz-adv-x="250" 
d="M126 144q15 0 29 -6.5t24.5 -17.5t17 -25.5t6.5 -29.5q0 -31 -23.5 -54t-55.5 -23q-31 0 -54 22.5t-23 54.5t23.5 55.5t55.5 23.5z" />
    <glyph glyph-name="slash" unicode="/" horiz-adv-x="296" 
d="M215 720h90l-224 -737h-90l224 737v0z" />
    <glyph glyph-name="zero" unicode="0" 
d="M266 660q112 0 161 -87q22 -38 31.5 -91t9.5 -134q0 -189 -54.5 -277t-171.5 -88q-55 0 -94.5 18.5t-65 57.5t-37.5 99t-12 144q0 92 11 153t37 106q29 51 74 75t111 24zM245 610q-43 0 -65 -40q-8 -14 -13 -31t-8 -40.5t-4.5 -54.5t-1.5 -72q0 -50 2 -95t6.5 -82.5
t10 -65.5t13.5 -44q24 -52 70 -52q45 0 69 56t24 163q0 50 -2.5 98t-7 89t-11 72t-13.5 47q-24 52 -69 52z" />
    <glyph glyph-name="one" unicode="1" 
d="M49 499q-8 20 -11 35.5t-3 34.5q47 11 127 38t172 63l12 -10q-3 -42 -5 -76t-3 -63.5t-1.5 -57t-0.5 -57.5v-322q0 -44 57 -47l62 -3v-37q-37 1 -67.5 1.5t-40.5 0.5q-25 1 -42.5 1h-26.5h-24.5t-38.5 -1q-14 0 -54 -0.5t-86 -1.5v37l72 3q57 3 57 47v443q0 23 -2 30
t-8 8q-3 0 -5 -1z" />
    <glyph glyph-name="two" unicode="2" 
d="M25 48l167 166q117 117 117 229q0 51 -29 81.5t-79 30.5q-33 0 -62 -16t-35 -39l-18 -68l-37 3l18 165q43 32 79.5 46t81.5 14q46 0 85.5 -13t67.5 -36t44 -54.5t16 -69.5q0 -48 -26.5 -100.5t-76.5 -101.5l-174 -171l2 -8l302 11l4 -5q-2 -20 -2.5 -32.5t-0.5 -29.5
v-23.5t2 -29.5l-230 3h-44l-172 -3v51z" />
    <glyph glyph-name="three" unicode="3" 
d="M56 165q17 -37 29.5 -56t29.5 -35q41 -35 95 -35q55 0 89.5 37t34.5 96q0 57 -34.5 90.5t-91.5 33.5q-17 0 -31.5 -1.5t-29.5 -6.5l-7 5l19 74h35q51 0 82 28.5t31 76.5q0 42 -27 66t-75 24q-89 0 -117 -101h-35l31 154q43 25 77.5 35t75.5 10q39 0 72.5 -10.5
t57.5 -29.5t37.5 -44.5t13.5 -56.5q0 -46 -27 -81t-85 -65q34 -4 53 -9.5t38 -17.5q61 -41 61 -121q0 -50 -22.5 -94t-61.5 -77t-91 -52t-112 -19q-37 0 -64.5 5t-59.5 19q-5 30 -8 50.5t-6 37t-5.5 30.5t-5.5 31z" />
    <glyph glyph-name="four" unicode="4" 
d="M12 204q21 53 45.5 104.5t54.5 105t65.5 110.5t79.5 121l122 27l7 -12q-2 -55 -3 -96.5t-2 -74.5t-1 -61v-56v-125h88l1 -3v-79h-89v-54q0 -70 57 -74l36 -3v-37q-52 1 -80.5 1.5t-43 1t-19.5 0.5h-11h-25t-40 -1q-12 0 -43 -0.5t-69 -1.5v37l64 3q57 3 57 74v54h-244z
M263 247v332q-8 -11 -16 -24.5t-17 -28.5q-15 -25 -28.5 -46.5t-13.5 -23.5l-62 -116q-4 -7 -11.5 -22t-15.5 -35q-7 -15 -9.5 -21t-7.5 -15h181z" />
    <glyph glyph-name="five" unicode="5" 
d="M145 384q21 10 38 16.5t32 10.5t29.5 5.5t30.5 1.5q91 0 144 -48.5t53 -132.5q0 -53 -22.5 -99t-61 -80.5t-90.5 -54.5t-112 -20q-34 0 -59.5 5t-53.5 17q-2 12 -4.5 23.5t-6 26.5t-8.5 35t-12 49l30 18q53 -116 155 -116q58 0 92.5 36.5t34.5 99.5t-36 100.5t-97 37.5
q-33 0 -60 -9.5t-52 -30.5l-19 11q2 30 3 50t2 34t1 23v17v102v25.5t-1 28t-2 35.5t-3 47l7 8q22 -1 38.5 -2t34.5 -1.5t40.5 -1t56.5 -1.5l177 6l4 -8q-4 -17 -5.5 -29t-1.5 -27v-19.5t1 -22.5l-6 -11q-128 3 -143 3l-144 -3z" />
    <glyph glyph-name="six" unicode="6" 
d="M435 633l-15 -16q-7 1 -12.5 1h-8.5q-54 0 -101 -24.5t-77 -69.5q-12 -17 -20.5 -36t-14.5 -42.5t-10.5 -53t-7.5 -66.5q36 46 69 64.5t77 18.5q72 0 113.5 -50.5t41.5 -137.5q0 -53 -16 -97t-44.5 -75.5t-68.5 -48.5t-88 -17q-109 0 -163 77q-24 35 -38 88.5t-14 115.5
q0 211 149 326q24 19 47 32t47.5 21t52.5 12t63 5zM254 323q-89 0 -89 -125q0 -76 26.5 -120.5t71.5 -44.5q42 0 65 36t23 102q0 69 -26.5 110.5t-70.5 41.5z" />
    <glyph glyph-name="seven" unicode="7" 
d="M493 608q-13 -20 -23.5 -38t-21 -37.5t-22 -43t-26.5 -53.5l-110 -224q-10 -21 -22.5 -50t-24.5 -59.5t-22.5 -59t-16.5 -46.5q-6 1 -11.5 1h-7.5q-13 1 -22 1.5t-14 0.5h-5.5t-8 -0.5t-15 -1t-26.5 -1.5l-6 11l300 518l-4 6h-225q-18 0 -29 -2t-18 -7.5t-10.5 -16
t-5.5 -26.5l-8 -64h-39q0 29 0.5 45t0.5 24.5v12v8.5v33.5t-0.5 31.5t-1.5 34.5t-2 42.5l10 8q33 -1 60.5 -1.5t38.5 -0.5q66 -2 107.5 -3t60.5 -1h29l141 3v-45z" />
    <glyph glyph-name="eight" unicode="8" 
d="M151 320q-54 32 -77 67t-23 89q0 42 15 76t42.5 58t66 37t85.5 13q81 0 129 -38.5t48 -104.5q0 -42 -21 -74t-73 -67q31 -13 47.5 -24t33.5 -30q43 -49 43 -119q0 -47 -17.5 -87.5t-49 -70t-74 -46t-92.5 -16.5q-44 0 -81 12.5t-63.5 35.5t-41 54.5t-14.5 69.5
q0 106 117 165zM192 302q-20 -17 -33 -32.5t-21 -30.5t-11.5 -31.5t-3.5 -36.5q0 -29 9.5 -54t26 -43t39.5 -28.5t50 -10.5q47 0 78 32.5t31 82.5q0 43 -24 71.5t-80 53.5zM294 393q32 28 45.5 52t13.5 56q0 48 -28.5 77.5t-75.5 29.5q-43 0 -69 -24t-26 -65q0 -36 21.5 -60
t74.5 -47z" />
    <glyph glyph-name="nine" unicode="9" 
d="M67 12l9 18q21 -3 31 -3q20 0 50 8t52 20q35 19 61 54.5t40 83.5q4 13 7 25.5t5.5 26.5t4.5 30.5t4 39.5l-63 -55q-15 -13 -31.5 -18.5t-41.5 -5.5q-79 0 -121.5 49.5t-42.5 141.5q0 54 15 97t43 73.5t68.5 46.5t90.5 16q106 0 160.5 -69t54.5 -201q0 -66 -15 -125
t-43.5 -108t-69.5 -86.5t-92 -59.5q-17 -8 -31 -12.5t-29.5 -7.5t-34 -5t-43.5 -3zM241 608q-44 0 -68 -34.5t-24 -97.5q0 -72 26.5 -112.5t74.5 -40.5q45 0 65.5 29t20.5 92q0 79 -24.5 121.5t-70.5 42.5z" />
    <glyph glyph-name="colon" unicode=":" horiz-adv-x="250" 
d="M126 144q15 0 29 -6.5t24.5 -17.5t17 -25.5t6.5 -29.5q0 -31 -23.5 -54t-55.5 -23q-31 0 -54 22.5t-23 54.5t23.5 55.5t55.5 23.5zM126 454q15 0 29 -6.5t24.5 -17.5t17 -25.5t6.5 -29.5q0 -31 -23.5 -54t-55.5 -23q-31 0 -54 22.5t-23 54.5t23.5 55.5t55.5 23.5z" />
    <glyph glyph-name="semicolon" unicode=";" horiz-adv-x="250" 
d="M9 -166l-15 13q33 67 54.5 134.5t27.5 121.5q40 10 69.5 18.5t64.5 19.5l17 -16q-14 -29 -27.5 -56t-30.5 -57t-38.5 -65.5t-50.5 -82.5zM149 454q15 0 29 -6.5t24.5 -17.5t17 -25.5t6.5 -29.5q0 -31 -23.5 -54t-55.5 -23q-31 0 -54 22.5t-23 54.5t23.5 55.5t55.5 23.5z
" />
    <glyph glyph-name="less" unicode="&#x3c;" horiz-adv-x="606" 
d="M170 252l388 -179v-92l-509 230v82l509 230v-92l-388 -179v0z" />
    <glyph glyph-name="equal" unicode="=" horiz-adv-x="606" 
d="M555 396v-86h-504v86h504v0zM555 200v-86h-504v86h504v0z" />
    <glyph glyph-name="greater" unicode="&#x3e;" horiz-adv-x="606" 
d="M437 252l-388 179v92l509 -230v-82l-509 -230v92l388 179v0z" />
    <glyph glyph-name="question" unicode="?" horiz-adv-x="444" 
d="M43 506q16 50 23 78.5t9 54.5q40 27 73 37.5t77 10.5q85 0 135.5 -42.5t50.5 -114.5q0 -42 -15.5 -71.5t-55.5 -62.5l-77 -64q-62 -51 -62 -91q0 -18 9 -37l1 -2l-34 -14q-26 33 -26 74q0 26 14 54t49 70t49 69t14 53q0 35 -27.5 59t-68.5 24q-26 0 -46.5 -6.5
t-25.5 -16.5l-31 -71zM195 144q15 0 29 -6.5t24.5 -17.5t17 -25.5t6.5 -29.5q0 -31 -23.5 -54t-54.5 -23q-32 0 -55 22.5t-23 53.5q0 32 23.5 56t55.5 24z" />
    <glyph glyph-name="at" unicode="@" horiz-adv-x="747" 
d="M699 173q-11 -19 -20 -32.5t-17.5 -25t-17.5 -21t-21 -19.5q-99 -87 -231 -87q-74 0 -138 26.5t-111 72t-74 108t-27 134.5q0 74 27 138.5t74 112t110.5 74.5t137.5 27q66 0 123 -21.5t99.5 -59.5t66.5 -89.5t24 -111.5q0 -53 -19 -101.5t-54 -84.5q-34 -34 -75 -55
t-75 -21q-60 0 -69 82q-17 -23 -30.5 -37.5t-27 -23t-28 -12t-32.5 -3.5q-56 0 -90 37.5t-34 97.5q0 44 17 84.5t45.5 71t65.5 49t78 18.5q66 0 81 -72l16 64h94l-74 -274q-2 -7 -3 -13.5t-1 -11.5q0 -11 5.5 -17.5t13.5 -6.5q17 0 37.5 14.5t42.5 40.5q31 37 48 83.5
t17 94.5q0 47 -20 87.5t-54.5 70.5t-81.5 47t-101 17q-64 0 -118.5 -22t-94.5 -61t-62.5 -92t-22.5 -115q0 -63 23 -116.5t63.5 -92t96.5 -60.5t122 -22q59 0 107 22q19 9 35 18t30 21.5t28.5 28.5t31.5 39h64zM392 471q-22 1 -44.5 -19t-41 -53.5t-30 -75t-11.5 -81.5
q0 -31 13.5 -50.5t35.5 -19.5q42 0 80 68q20 34 32 79.5t12 83.5q0 29 -12.5 47.5t-33.5 20.5z" />
    <glyph glyph-name="A" unicode="A" horiz-adv-x="778" 
d="M218 206l-42 -112q-5 -13 -5 -25q0 -13 8 -22t21 -10l50 -3v-37q-20 1 -35 1t-22 1q-21 1 -35 1h-21h-21t-35 -1q-6 -1 -21.5 -1t-35.5 -1v37l30 3q31 3 56 60l181 438q8 18 29 76q3 8 10 27.5t18 47.5h71l259 -605q10 -22 22 -31.5t33 -12.5l24 -3v-37q-55 1 -85 1.5
t-45 1t-19.5 0.5h-8.5h-9.5t-18.5 -0.5t-43 -1t-81 -1.5v37l53 3q8 1 14 8.5t6 18.5q0 13 -6 28l-45 114h-251zM242 262h204l-104 254z" />
    <glyph glyph-name="B" unicode="B" horiz-adv-x="667" 
d="M399 681q189 0 189 -135q0 -29 -10 -54t-28 -42q-12 -11 -24 -19.5t-28 -16.5t-38.5 -17t-53.5 -20q30 -2 52 -5t39.5 -7.5t31 -11t27.5 -15.5q26 -19 40.5 -50.5t14.5 -71.5q0 -48 -20 -88.5t-55.5 -69.5t-85.5 -45t-110 -16q-2 0 -22.5 0.5t-59.5 1.5q-18 1 -33.5 1
h-26.5h-21.5t-25 -0.5t-33.5 -1t-46 -1.5v23l32 18q11 6 15.5 18.5t4.5 38.5v448q0 33 -1 52t-6 28.5t-14.5 12.5t-26.5 5l-37 3v37l79 -2q35 -1 56.5 -1h32.5h20.5t31 0.5t32.5 1t25 0.5zM265 56q23 -4 43 -4q80 0 116.5 36t36.5 114q0 77 -39 111.5t-127 34.5h-30v-292z
M265 400h30q76 0 110.5 29t34.5 95q0 56 -28 81.5t-89 25.5q-14 0 -27 -1t-31 -3v-227z" />
    <glyph glyph-name="C" unicode="C" horiz-adv-x="722" 
d="M670 38q-28 -15 -53.5 -25.5t-52 -17t-56 -9.5t-63.5 -3q-93 0 -167 25.5t-126 72.5t-80 114.5t-28 151.5q0 80 28.5 144.5t82 109.5t129.5 69.5t171 24.5q33 0 60.5 -2.5t55 -7.5t56 -14.5t62.5 -22.5l6 -11q-3 -14 -5.5 -26.5t-5 -28.5t-5.5 -39t-7 -59h-39l-5 86
q-41 37 -81.5 53t-96.5 16q-59 0 -106.5 -19.5t-80.5 -55.5t-51 -87.5t-18 -115.5q0 -71 21 -128.5t59 -98.5t91.5 -63.5t119.5 -22.5q97 0 195 51l12 -12z" />
    <glyph glyph-name="D" unicode="D" horiz-adv-x="833" 
d="M100 38q11 6 15.5 19t4.5 38v448q0 33 -1 52t-6 28.5t-14.5 12.5t-26.5 5l-37 3v37q56 -1 86.5 -1.5t45.5 -1t20 -0.5h10t239 3q51 0 91.5 -5t73.5 -15t59.5 -25.5t48.5 -37.5q38 -37 57.5 -93.5t19.5 -128.5q0 -162 -104 -263q-57 -56 -135 -86t-168 -30l-59 1
q-9 0 -23 0.5l-28 1t-26.5 0.5h-19.5h-13t-20.5 -0.5t-42.5 -1t-79 -1.5v23zM261 57q19 -3 34 -4t34 -1q85 0 140.5 17t93.5 54q73 73 73 225q0 146 -66 211q-37 36 -97.5 54t-148.5 18q-17 0 -31 -1t-32 -3v-570z" />
    <glyph glyph-name="E" unicode="E" horiz-adv-x="611" 
d="M265 380q15 -2 28.5 -2h38.5h66q32 0 43.5 4.5t13.5 16.5l6 57h40q-1 -36 -1.5 -55.5t-1 -29.5t-0.5 -14v-8l3 -108h-40l-6 50q-2 20 -15 28.5t-42 8.5h-66q-17 0 -31.5 -0.5t-35.5 -2.5v-267q38 -2 69 -2.5t62 -0.5q42 0 67.5 3t48.5 11q3 1 3 3l23 94h39l-11 -158
l-5 -8q-22 -1 -39.5 -2t-33.5 -1.5t-32.5 -0.5h-35.5h-37.5t-40 0.5t-49 1.5t-65.5 2h-34h-15t-17.5 -0.5t-32 -1t-57.5 -1.5v23l32 18q11 6 15.5 18.5t4.5 38.5v448q0 33 -1 52t-6 28.5t-14.5 12.5t-26.5 5l-37 3v37q41 -1 70.5 -1.5t51.5 -1t37.5 -0.5h28.5h22.5h26
t34.5 0.5t47 1.5q42 1 66.5 1.5t41.5 0.5h26.5t22 -0.5t21.5 -1.5t25 -2l6 -7l-14 -142h-36l-8 75q-1 8 -29 14t-69 6h-38t-34 -0.5t-34.5 -1.5t-38.5 -2v-240z" />
    <glyph glyph-name="F" unicode="F" horiz-adv-x="556" 
d="M254 377q15 -2 28.5 -2h38.5h51q32 0 43.5 4.5t13.5 16.5l6 53h40q-1 -29 -1.5 -47.5t-1 -29.5t-0.5 -16.5v-9.5l3 -108h-40l-6 50q-2 20 -15 28.5t-42 8.5h-51q-17 0 -31.5 -0.5t-35.5 -2.5v-187q0 -33 1 -51.5t5.5 -28t14.5 -12t27 -3.5l47 -3v-40q-50 1 -78 1.5
t-43.5 1t-24 0.5h-20.5h-21.5t-23 -0.5t-40 -1t-70.5 -1.5v40l37 3q18 1 27.5 4t14 12t5.5 27.5t1 51.5v408q0 33 -1 52t-6 28.5t-14.5 12.5t-26.5 5l-37 3v37q56 -1 86.5 -1.5t47.5 -1t25 -0.5h19h35.5t55.5 1q60 2 92 2.5t49 0.5h26t21.5 -0.5t22 -1.5t25.5 -2l6 -7
l-14 -142h-36l-8 75q-1 9 -30.5 14t-80.5 5q-26 0 -52.5 -0.5t-63.5 -2.5v-243z" />
    <glyph glyph-name="G" unicode="G" horiz-adv-x="833" 
d="M776 242q-28 -6 -34.5 -12t-6.5 -24v-163q-45 -17 -83 -28.5t-73 -18.5t-69 -10t-72 -3q-89 0 -161 26t-123 73t-79 114t-28 150q0 81 28.5 145.5t82.5 110t130.5 69.5t172.5 24q73 0 133 -11t128 -36l6 -11q-3 -14 -5.5 -26.5t-5 -28.5t-5.5 -39t-7 -59h-39l-5 86
q-9 9 -15.5 14.5t-13 10t-13.5 8t-16 7.5q-32 14 -70.5 21.5t-76.5 7.5q-123 0 -191 -74t-68 -207q0 -71 19.5 -130t54.5 -101t85 -65t110 -23q32 0 60.5 5.5t66.5 19.5v132q0 20 -12.5 27.5t-44.5 9.5l-53 2v41q61 -2 93.5 -2.5t49.5 -0.5h17t21 0.5t39.5 1t72.5 1.5v-34z
" />
    <glyph glyph-name="H" unicode="H" horiz-adv-x="833" 
d="M262 385q17 -2 34.5 -2h46.5h146h46t35 2v158q0 33 -1 51.5t-5.5 27.5t-14 11.5t-27.5 4.5l-37 3v40q45 -1 70 -1.5t39.5 -1t23.5 -0.5h22h21.5t23.5 0.5t40 1t71 1.5v-40l-37 -3q-18 -2 -27.5 -4.5t-14 -11.5t-5.5 -27.5t-1 -51.5v-408q0 -33 1 -51.5t5.5 -27.5t14 -12
t27.5 -4l37 -3v-40q-45 1 -70.5 1.5t-40 1t-23.5 0.5h-22h-21.5t-23 -0.5t-40 -1t-70.5 -1.5v40l37 3q18 1 27.5 4t14 12t5.5 27.5t1 51.5v190q-20 1 -37.5 1.5t-43.5 0.5h-146q-26 0 -43.5 -0.5t-37.5 -1.5v-190q0 -33 1 -51.5t5.5 -27.5t14 -12t27.5 -4l37 -3v-40
q-45 1 -70.5 1.5t-40 1t-23.5 0.5h-22h-21.5t-23 -0.5t-40 -1t-70.5 -1.5v40l37 3q18 1 27.5 4t14 12t5.5 27.5t1 51.5v408q0 33 -1 51.5t-5.5 27.5t-14 11.5t-27.5 4.5l-37 3v40q45 -1 70 -1.5t39.5 -1t23.5 -0.5h22h21.5t23.5 0.5t40 1t71 1.5v-40l-37 -3
q-18 -2 -27.5 -4.5t-14 -11.5t-5.5 -27.5t-1 -51.5v-158z" />
    <glyph glyph-name="I" unicode="I" horiz-adv-x="389" 
d="M265 135q0 -33 1 -51.5t5.5 -27.5t14 -12t27.5 -4l37 -3v-40q-45 1 -70.5 1.5t-40 1t-23.5 0.5h-22h-21.5t-23 -0.5t-40 -1t-70.5 -1.5v40l37 3q18 1 27.5 4t14 12t5.5 27.5t1 51.5v408q0 33 -1 51.5t-5.5 27.5t-14 11.5t-27.5 4.5l-37 3v40q45 -1 70 -1.5t39.5 -1
t23.5 -0.5h22h21.5t23.5 0.5t40 1t71 1.5v-40l-37 -3q-18 -2 -27.5 -4.5t-14 -11.5t-5.5 -27.5t-1 -51.5v-408z" />
    <glyph glyph-name="J" unicode="J" horiz-adv-x="389" 
d="M-11 -119l11 6l4.5 -3t6.5 -5q20 -15 32.5 -21t25.5 -6q30 0 42.5 29t12.5 101v561q0 33 -1 51.5t-5.5 27.5t-14 11.5t-27.5 4.5l-37 3v40q45 -1 70 -1.5t39.5 -1t23.5 -0.5h22h21.5t23.5 0.5t40 1t71 1.5v-40l-37 -3q-18 -2 -27.5 -4.5t-14 -11.5t-5.5 -27.5t-1 -51.5
v-406q0 -39 -1.5 -67.5t-4.5 -50t-8.5 -39t-13.5 -35.5q-16 -33 -40.5 -62t-54 -50.5t-61.5 -33.5t-62 -12q-6 0 -13 1t-17 4v89z" />
    <glyph glyph-name="K" unicode="K" horiz-adv-x="778" 
d="M462 536q7 7 23 24t35 38q8 8 10 12q16 17 21 26t5 20v25q43 -2 61.5 -2.5t29.5 -0.5h12.5t17 0.5t25 1t36.5 1.5v-39q-47 -4 -69.5 -11t-40.5 -23l-222 -207l266 -313q23 -27 43 -38t48 -12v-41q-13 1 -21.5 1h-12.5q-38 2 -50 2h-17l-102 -3l-208 249q-21 25 -34 39.5
t-21.5 23t-15 13t-16.5 10.5v-197q0 -33 1 -51.5t5.5 -27.5t14 -12t27.5 -4l37 -3v-40q-45 1 -70.5 1.5t-40 1t-23.5 0.5h-22h-21.5t-23 -0.5t-40 -1t-70.5 -1.5v40l37 3q18 1 27.5 4t14 12t5.5 27.5t1 51.5v408q0 33 -1 51.5t-5.5 27.5t-14 11.5t-27.5 4.5l-37 3v40
q45 -1 70 -1.5t39.5 -1t23.5 -0.5h22h21.5t23.5 0.5t40 1t71 1.5v-40l-37 -3q-18 -2 -27.5 -4.5t-14 -11.5t-5.5 -27.5t-1 -51.5v-200z" />
    <glyph glyph-name="L" unicode="L" horiz-adv-x="611" 
d="M265 58q39 -2 69 -2.5t62 -0.5q47 0 82 5t37 12l23 102h39l-11 -166l-5 -8q-22 -1 -39.5 -2t-33.5 -1.5t-32.5 -0.5h-35.5h-37.5t-40 0.5t-49 1.5t-65.5 2h-34h-15t-17.5 -0.5t-32 -1t-57.5 -1.5v23l32 18q11 6 15.5 18.5t4.5 38.5v448q0 33 -1 51.5t-5.5 27.5t-14 11.5
t-27.5 4.5l-37 3v40q45 -1 70 -1.5t39.5 -1t23.5 -0.5h22h21.5t23.5 0.5t40 1t71 1.5v-40l-37 -3q-18 -2 -27.5 -4.5t-14 -11.5t-5.5 -27.5t-1 -51.5v-485z" />
    <glyph glyph-name="M" unicode="M" horiz-adv-x="1000" 
d="M536 122q-14 -29 -22.5 -46.5t-14.5 -31t-11 -25.5t-12 -29h-34q-14 33 -22.5 52.5t-13.5 30.5l-230 479v-417q0 -33 1 -52t6 -29t14.5 -13t26.5 -4l37 -3v-37q-36 2 -67.5 2.5t-46.5 0.5h-12.5t-16 -0.5t-30.5 -1t-56 -1.5v37l37 3q17 1 26.5 4.5t14.5 13t6 28.5t1 52
v408q0 33 -1 52t-6 28.5t-14.5 12.5t-26.5 5l-37 3v37q26 -1 33 -1h18q23 -1 40 -1.5t29 -0.5l120 3q16 -35 28 -61t21 -45t15 -32.5t11 -22.5l158 -330l183 378l8 18t9.5 21.5t13 30t18.5 43.5q39 -1 60.5 -1.5t32 -1t14.5 -0.5h8h8t15 0.5t32.5 1t60.5 1.5v-37l-37 -3
q-17 -2 -26.5 -5t-14.5 -12.5t-6 -28.5t-1 -52v-408q0 -33 1 -51.5t5.5 -27.5t14 -12t27.5 -4l37 -3v-40q-45 1 -70.5 1.5t-40 1t-23.5 0.5h-22h-21.5t-23 -0.5t-40 -1t-70.5 -1.5v40l37 3q18 1 27.5 4t14 12t5.5 27.5t1 51.5v416z" />
    <glyph glyph-name="N" unicode="N" horiz-adv-x="833" 
d="M239 681q24 -32 40 -53.5t27.5 -36t19.5 -24.5t16 -19l312 -364v359q0 33 -1 52t-6 28.5t-14.5 12.5t-26.5 5l-37 3v37q33 -1 53.5 -1.5t33 -1t18.5 -0.5h10l114 3v-37l-37 -3q-17 -2 -26.5 -5t-14.5 -12.5t-6 -28.5t-1 -52v-454q0 -17 0.5 -38t2.5 -63l-7 -4l-82 13
q-27 30 -45.5 50.5t-32 36.5t-24 28t-20.5 24l-326 392v-393q0 -33 1 -52t6 -29t14.5 -13t26.5 -4l37 -3v-37q-36 2 -67.5 2.5t-46.5 0.5h-12.5t-16 -0.5t-30.5 -1t-56 -1.5v37l37 3q17 1 26.5 4.5t14.5 13t6 28.5t1 52v408q0 33 -1 52t-6 28.5t-14.5 12.5t-26.5 5l-37 3v37
q85 -3 99 -3h21z" />
    <glyph glyph-name="O" unicode="O" horiz-adv-x="833" 
d="M430 695q85 0 151 -23.5t112 -68.5t70 -110t24 -147q0 -86 -26 -153t-74.5 -114t-119 -71.5t-160.5 -24.5q-173 0 -266.5 90.5t-93.5 258.5q0 86 26 153.5t75 114t120 71t162 24.5zM421 639q-96 0 -154 -57q-34 -34 -52 -92t-18 -135q0 -87 22 -155.5t63 -108.5
q27 -27 58.5 -39.5t73.5 -12.5q110 0 166.5 72t56.5 214q0 85 -22 153.5t-64 109.5q-53 51 -130 51z" />
    <glyph glyph-name="P" unicode="P" horiz-adv-x="611" 
d="M294 361l10 10q4 -1 8 -1q19 -4 24 -4.5t11 -0.5q48 0 75.5 36t27.5 96q0 134 -125 134q-38 0 -60 -9v-487q0 -33 1 -51.5t5.5 -28t14.5 -12t27 -3.5l47 -3v-40q-50 1 -78 1.5t-43.5 1t-23.5 0.5h-20h-22t-23.5 -0.5t-40 -1t-70.5 -1.5v40l37 3q18 1 27.5 4t14 12
t5.5 27.5t1 51.5v408q0 33 -1 52t-6 28.5t-14.5 12.5t-26.5 5l-37 3v37q57 -1 88 -1.5t47.5 -1t23 -0.5h14.5q17 0 181 3h12q189 0 189 -150q0 -45 -17 -84t-47 -67.5t-71.5 -44.5t-89.5 -16q-11 0 -18 1t-25 3q-2 1 -4.5 1t-10.5 2z" />
    <glyph glyph-name="Q" unicode="Q" horiz-adv-x="833" 
d="M678 -184q-20 0 -36 2.5t-36 7.5l-199 54q-22 6 -37 9.5t-25.5 6t-19 3t-17.5 0.5q-18 0 -39.5 -10t-57.5 -35l-11 31q27 22 48.5 37.5t39.5 27t35.5 19.5t37.5 16q-33 4 -58 9t-46 11.5t-39 15t-36 20.5q-66 44 -100.5 117t-34.5 173q0 86 26 153.5t74.5 114.5t119 71.5
t160.5 24.5q173 0 266.5 -90.5t93.5 -258.5q0 -195 -132 -292q-45 -34 -111 -51.5t-149 -17.5q-6 -1 -9.5 -1h-11.5q35 -8 57 -13t43 -13l120 -42q28 -10 57.5 -16t49.5 -6q14 0 29 4t40 15l11 4v-37zM421 639q-96 0 -154 -57q-34 -34 -52 -92t-18 -135q0 -87 22 -155.5
t63 -108.5q27 -27 58.5 -39.5t73.5 -12.5q110 0 166.5 72t56.5 214q0 85 -22 153.5t-64 109.5q-53 51 -130 51z" />
    <glyph glyph-name="R" unicode="R" horiz-adv-x="722" 
d="M638 82q9 -12 16 -19.5t14.5 -12.5t16.5 -7.5t23 -5.5v-40q-14 1 -23.5 1.5t-19.5 0.5t-22.5 0.5t-31.5 0.5l-90 -3l-224 347l7 18q33 -1 54 3.5t40 15.5q31 18 48.5 50t17.5 72q0 61 -36.5 94.5t-103.5 33.5q-38 0 -59 -9v-487q0 -33 1 -51.5t5.5 -27.5t14 -12t27.5 -4
l37 -3v-40q-45 1 -70.5 1.5t-40 1t-23.5 0.5h-22h-21.5t-23 -0.5t-40 -1t-70.5 -1.5v40l37 3q18 1 27.5 4t14 12t5.5 27.5t1 51.5v408q0 33 -1 52t-6 28.5t-14.5 12.5t-26.5 5l-37 3v37q56 -1 87 -1.5t47.5 -1t24.5 -0.5h19h26t37.5 0.5t38 1t28.5 0.5q26 1 43.5 1h25.5
q190 0 190 -147q0 -64 -43 -110q-10 -11 -20 -20t-22 -16.5t-27.5 -15t-36.5 -16.5z" />
    <glyph glyph-name="S" unicode="S" horiz-adv-x="611" 
d="M112 202l7 -88q23 -35 68 -56t96 -21q32 0 59.5 9.5t47.5 27t31.5 41t11.5 51.5q0 71 -83 96l-140 42q-71 21 -108.5 66.5t-37.5 110.5q0 101 70 157.5t195 56.5q50 0 92 -8t93 -26l5 -12q-14 -45 -14 -142h-41l-6 82q-56 55 -136 55q-60 0 -97 -32.5t-37 -84.5
q0 -38 25 -62.5t81 -38.5l114 -30q151 -40 151 -176q0 -54 -21 -98t-59 -74.5t-92.5 -47.5t-121.5 -17q-57 0 -105 10.5t-103 35.5q4 21 7 40.5t4.5 39.5t2.5 42.5t1 50.5h40z" />
    <glyph glyph-name="T" unicode="T" horiz-adv-x="667" 
d="M404 135q0 -33 1 -51.5t5.5 -27.5t14 -12t27.5 -4l37 -3v-40q-45 1 -70.5 1.5t-40 1t-23.5 0.5h-22h-21.5t-23 -0.5t-40 -1t-70.5 -1.5v40l37 3q18 1 27.5 4t14 12t5.5 27.5t1 51.5v484h-117q-32 0 -45.5 -2.5t-17.5 -7.5q-2 -4 -5 -11t-3 -12l-5 -69h-40q-1 28 -2 50
t-2.5 40t-3.5 34.5t-5 34.5l6 5q103 -1 160 -1.5t86 -1t40.5 -0.5h24.5h15.5h19t30 0.5t50 0.5t79 0.5t116.5 1.5l6 -5q-3 -18 -5 -34.5t-3.5 -34.5t-2.5 -40t-2 -50h-40l-5 69l-9 24q-7 5 -18.5 7t-43.5 2h-117v-484z" />
    <glyph glyph-name="U" unicode="U" horiz-adv-x="778" 
d="M675 251q0 -137 -70 -202.5t-214 -65.5q-65 0 -116.5 13.5t-88 39t-56 61t-19.5 80.5v366q0 33 -1 52t-6 28.5t-14.5 12.5t-26.5 5l-37 3v37q45 -1 70 -1.5t39.5 -1t23.5 -0.5h22h21.5t23.5 0.5t40 1t71 1.5v-37l-37 -3q-17 -2 -26.5 -5t-14.5 -12.5t-6 -28.5t-1 -52
v-248q0 -38 2 -66.5t6 -50t10.5 -37t16.5 -27.5q40 -49 141 -49q99 0 141 43q13 13 22 30t14.5 40.5t8 53.5t2.5 70v241q0 33 -1 52t-6 28.5t-14.5 12.5t-26.5 5l-37 3v37q33 -1 53.5 -1.5t33 -1t18.5 -0.5h10l114 3v-37l-37 -3q-17 -2 -26.5 -5t-14.5 -12.5t-6 -28.5
t-1 -52v-292z" />
    <glyph glyph-name="V" unicode="V" horiz-adv-x="778" 
d="M290 641q-11 -1 -18.5 -6.5t-7.5 -12.5t0.5 -12t2.5 -12t6 -18t12 -30l157 -387l142 353q31 78 31 99q0 23 -37 26l-46 3v37q20 -1 36.5 -1t22.5 -1q21 -1 34.5 -1h21.5h7.5t14.5 0.5t32.5 1t61.5 1.5v-37l-32 -3q-16 -2 -26.5 -12.5t-20.5 -34.5l-208 -498
q-6 -14 -8 -21q-3 -4 -11 -29q-4 -9 -7.5 -19t-11.5 -30h-76l-239 572q-17 38 -30 54t-32 18l-41 3v37q54 -1 83.5 -1.5t44.5 -1t20 -0.5h10h27t43 1q8 1 34 1t58 1v-37z" />
    <glyph glyph-name="W" unicode="W" horiz-adv-x="1000" 
d="M470 562q8 17 14.5 35t14.5 36l22 53h45q16 -45 26.5 -74.5t22.5 -58.5l137 -343l97 378q4 15 4 30q0 21 -35 23l-46 3v37q18 -1 33 -1t20 -1q20 -1 32.5 -1h20.5h7.5t14 0.5t30.5 1t58 1.5v-37l-33 -3q-13 -2 -23 -18t-20 -51l-122 -432q-3 -10 -5.5 -20.5t-6 -26.5
t-9 -39t-12.5 -57h-73q-3 8 -5 13t-3.5 9.5l-3.5 10.5l-5 15q-6 18 -11 30.5t-10 26.5l-149 375l-155 -355q-3 -8 -6.5 -17t-9 -22.5t-13 -34t-18.5 -51.5h-70l-139 602q-5 21 -14 30.5t-23 11.5l-32 3v37l156 -3h8.5t17 0.5t37.5 1t71 1.5v-37l-42 -3q-12 -1 -21 -8.5
t-9 -16.5q0 -13 3 -26l82 -383z" />
    <glyph glyph-name="X" unicode="X" horiz-adv-x="667" 
d="M205 695q11 -8 20 -16.5t17 -19t16.5 -24t19.5 -31.5l95 -169l165 243h111v-34l-28 -3q-15 -2 -23.5 -8.5t-24.5 -27.5l-170 -224l159 -275l1 -3q10 -18 18 -30t15 -19.5t14 -11.5t15 -5l25 -3v-37q-14 1 -23.5 1.5t-19 0.5t-22 0.5t-30.5 0.5l-96 -3l-149 266l-140 -201
q-4 -5 -14.5 -23.5t-21.5 -38.5h-117v34l31 3q9 1 18.5 6t14.5 12l199 261l-94 166q-20 35 -44.5 70t-41.5 53q-18 18 -41 18q-7 0 -13.5 -1t-18.5 -5l-5 41z" />
    <glyph glyph-name="Y" unicode="Y" horiz-adv-x="667" 
d="M583 678h77v-19l-176 -261q-14 -20 -26.5 -44t-26.5 -56v-163q0 -33 1 -51.5t5.5 -27.5t14 -12t27.5 -4l37 -3v-40q-45 1 -70.5 1.5t-40 1t-23.5 0.5h-22h-21.5t-23 -0.5t-40 -1t-70.5 -1.5v40l37 3q18 1 27.5 4t14 12t5.5 27.5t1 51.5v139q-12 27 -22 46t-22 39
l-101 163q-22 32 -38 51.5t-30 30.5t-28.5 14.5t-33.5 3.5v37l159 36q17 -10 31.5 -22t27.5 -27.5t26.5 -37t28.5 -49.5l107 -203z" />
    <glyph glyph-name="Z" unicode="Z" horiz-adv-x="667" 
d="M623 646q-24 -29 -43 -54.5t-40 -55.5l-325 -479h276q74 0 81 39l15 78h40q-7 -38 -11 -84.5t-5 -92.5q-49 1 -86.5 1.5t-70 1t-63 0.5h-64.5h-66.5t-66 -0.5t-75.5 -1t-95 -1.5v38q37 46 60 77.5t44 61.5l306 446h-222q-27 0 -43 -1.5t-25 -6t-13 -14t-6 -24.5l-8 -55
h-37v162l272 -3h15t33.5 0.5t76.5 1t146 1.5v-35z" />
    <glyph glyph-name="bracketleft" unicode="[" horiz-adv-x="333" 
d="M291 -104q-47 1 -68 2t-31 1h-19.5t-30.5 -1q-6 -1 -26 -1t-43 -1q1 50 1.5 88.5t1.5 54.5q2 58 2.5 96.5t0.5 52.5v219q0 20 -0.5 60t-2.5 99q0 22 -0.5 59.5t-2.5 94.5q24 -1 43 -1t26 -1q18 -1 31 -1h20h19t25 1l54 2v-38h-49q-17 0 -32.5 -6t-23.5 -16q-2 -3 -3.5 -8
t-2.5 -16t-1 -29v-46v-513v-45t0.5 -25t1.5 -12.5t3 -6.5q6 -11 22.5 -18t35.5 -7h49v-38z" />
    <glyph glyph-name="backslash" unicode="\" horiz-adv-x="606" 
d="M72 720h90l372 -720h-90l-372 720v0z" />
    <glyph glyph-name="bracketright" unicode="]" horiz-adv-x="333" 
d="M96 718q14 -1 25 -1h19h20t31 1q7 1 26 1t43 1q-3 -114 -3 -154q-2 -59 -2.5 -99t-0.5 -60v-219q0 -14 0.5 -52.5t2.5 -96.5q1 -16 1.5 -54.5t1.5 -88.5q-23 1 -42.5 1t-26.5 1q-18 1 -30.5 1h-19.5q-10 0 -31 -1t-68 -2v38h49q19 0 35.5 7t22.5 18q2 3 3 6.5t1.5 12.5
t0.5 25v45v513q0 30 -0.5 48t-1 28.5t-2 15.5t-4.5 8q-9 10 -23.5 15.5t-31.5 5.5h-49v38z" />
    <glyph glyph-name="asciicircum" unicode="^" horiz-adv-x="606" 
d="M147 275h-95l206 403h90l206 -403h-95l-156 294l-156 -294v0z" />
    <glyph glyph-name="underscore" unicode="_" 
d="M500 -125h-500v50h500v-50v0z" />
    <glyph glyph-name="grave" unicode="`" horiz-adv-x="333" 
d="M69 587q-5 2 -11 7q-23 13 -31.5 24.5t-8.5 28.5q0 20 12 32t32 12q32 0 65 -37l129 -148h-56z" />
    <glyph glyph-name="a" unicode="a" 
d="M206 -5q-15 -12 -49 -12q-57 0 -87 31.5t-30 92.5q0 32 9 55.5t29 41.5t53 30.5t80 22.5l88 18q-2 62 -26.5 90t-75.5 28q-20 0 -38 -4.5t-20 -9.5l-22 -50l-30 7v69l53 32q55 34 120 34q76 0 118.5 -37.5t42.5 -104.5v-12t-1 -17q-1 -29 -1.5 -53t-0.5 -44
q0 -18 0.5 -39t1.5 -45v-21q1 -35 6 -46.5t22 -14.5l30 -3v-37q-45 2 -62 2.5t-26 0.5t-27 -1t-64 -2l-5 8l5 62zM299 233l-45 -12q-27 -7 -44.5 -15t-28 -18t-15 -23.5t-4.5 -31.5q0 -29 13.5 -46t37.5 -17q23 0 47.5 12.5t38.5 32.5v118z" />
    <glyph glyph-name="b" unicode="b" horiz-adv-x="611" 
d="M211 383l61 49q26 21 50 30t53 9q40 0 73 -14t57 -39.5t37.5 -60t13.5 -76.5q0 -58 -22.5 -111t-60.5 -84q-21 -17 -52.5 -38.5t-61.5 -39.5q-43 -25 -87 -25q-63 0 -131 37l-39 -32l-22 8q5 40 7 83t2 83v406q0 22 -1 35.5t-4 21t-8 10.5t-13 3l-53 3v36q44 5 71.5 9.5
t49.5 11.5l72 22l8 -6v-331zM211 106q39 -55 101 -55q55 0 86.5 46t31.5 124q0 75 -32.5 117.5t-90.5 42.5q-63 0 -96 -50v-225z" />
    <glyph glyph-name="c" unicode="c" horiz-adv-x="444" 
d="M354 297l-7 60q-1 9 -8.5 16.5t-19.5 13.5t-27.5 9.5t-32.5 3.5q-48 0 -73 -35.5t-25 -104.5q0 -96 42.5 -151t116.5 -55q22 0 40.5 4t44.5 15l9 -10l-21 -46q-35 -19 -65.5 -26.5t-68.5 -7.5q-108 0 -165 63t-57 183q0 33 6.5 59t20.5 48.5t37.5 42.5t56.5 40l52 31
q18 11 39.5 16t50.5 5q13 0 24.5 -1t23 -3t25 -6t30.5 -10l7 -13q-7 -33 -11 -63t-9 -78h-36z" />
    <glyph glyph-name="d" unicode="d" horiz-adv-x="611" 
d="M508 100q0 -20 1.5 -32.5t5 -19t10.5 -9t19 -3.5l33 -2v-37q-16 1 -29 1h-18q-21 1 -34.5 1.5t-19.5 0.5q-8 0 -26.5 -0.5t-63.5 -2.5l-5 8l5 75l-104 -85q-15 -12 -49 -12q-44 0 -79.5 16.5t-60 47t-38 73.5t-13.5 97q0 65 20.5 108.5t63.5 72.5l72 47q41 26 88 26
q37 0 80 -17l20 -8v122q0 22 -1 35.5t-4 21t-8 10.5t-13 3l-53 3v36q44 5 71.5 9.5t49.5 11.5l72 22l8 -6v-614zM386 344q-48 63 -112 63q-106 0 -106 -152q0 -81 31 -129t85 -48q21 0 39.5 6.5t32.5 17.5t22 26t8 32v184z" />
    <glyph glyph-name="e" unicode="e" 
d="M461 243q-42 -11 -78.5 -15.5t-79.5 -4.5h-131q2 -35 7 -56t17 -42q19 -32 53 -51.5t73 -19.5q30 0 56 7.5t61 27.5l12 -15l-22 -48q-24 -12 -43.5 -20.5t-38 -13.5t-37 -7t-39.5 -2q-112 0 -170.5 61.5t-58.5 181.5q0 72 22.5 118.5t72.5 75.5l47 28q20 12 41 17.5
t47 5.5q86 0 137.5 -47.5t51.5 -128.5v-52zM334 276q-2 75 -21 107t-62 32q-44 0 -63.5 -32t-21.5 -107l32 -1q11 -1 27 -1.5t21 -0.5h4z" />
    <glyph glyph-name="f" unicode="f" horiz-adv-x="389" 
d="M239 434h28.5t28 0.5t32.5 1.5t42 2l4 -8l-11 -58h-124v-272q0 -18 0.5 -28t2.5 -17q5 -17 47 -19l45 -2v-37q-54 1 -84 1.5t-45 1t-20 0.5h-10h-13t-19 -0.5t-38 -1t-71 -1.5v37l41 2q14 1 22 3t12.5 9t6 19t1.5 33v272l-79 -5v24q25 12 42 21.5t37 23.5v43q0 30 2 49.5
t7.5 34t16.5 26.5t29 27l74 62q29 24 49 33t44 9q11 0 20 -1.5t22 -4.5v-97l-16 -7q-23 14 -37 19t-30 5q-37 0 -49 -23q-5 -10 -7.5 -25t-2.5 -44v-108z" />
    <glyph glyph-name="g" unicode="g" horiz-adv-x="556" 
d="M452 372q3 -14 4 -24.5t1 -22.5q0 -38 -10.5 -65.5t-33.5 -50.5q-31 -31 -76.5 -47.5t-97.5 -16.5q-9 0 -17.5 0.5t-22.5 1.5q-29 -17 -29 -39q0 -30 47 -30q8 0 40 1t106 3h24q76 0 112 -30.5t36 -93.5q0 -50 -21 -91t-59.5 -70.5t-92.5 -46t-120 -16.5q-100 0 -158 38
t-58 104q0 20 7.5 37.5t18.5 24.5l81 48q-38 10 -53 25t-15 42q0 15 4.5 29t12.5 19l71 54q-26 9 -40.5 17.5t-28.5 23.5q-37 40 -37 96q0 39 16 72t44.5 57t68.5 37t88 13t84.5 -10t67.5 -33q12 -1 21 -1h15q17 0 34 1t48 4l-5 -64zM252 421q-82 0 -82 -110
q0 -57 22.5 -88.5t61.5 -31.5q80 0 80 108q0 60 -21 91t-61 31zM272 -15q-76 0 -101 -11q-23 -11 -37 -34.5t-14 -51.5q0 -47 40.5 -75.5t107.5 -28.5q33 0 61.5 9t49.5 25.5t33 38.5t12 48q0 24 -6.5 39.5t-23.5 24.5t-46.5 12.5t-75.5 3.5z" />
    <glyph glyph-name="h" unicode="h" horiz-adv-x="611" 
d="M217 714v-324l80 62q23 19 70 19q76 0 116 -42q20 -21 27.5 -53t7.5 -90v-186q0 -20 1.5 -32.5t5 -19t10.5 -9t19 -3.5l33 -2v-37q-33 1 -50.5 1.5t-27 1t-14 0.5h-9.5h-13t-17 -0.5t-24.5 -1t-35.5 -1.5v272q0 61 -22 88.5t-72 27.5q-17 0 -32 -5.5t-27 -15t-19 -22
t-7 -25.5v-217q0 -20 1.5 -32.5t5 -19t10.5 -9t19 -3.5l35 -2v-37q-51 2 -85.5 2.5t-49.5 0.5l-129 -3v37l35 2q12 1 19 3.5t10.5 9t5 19t1.5 32.5v468q0 22 -1 35.5t-3.5 21t-7.5 10t-14 3.5l-45 3v36q41 5 67 10t46 11l72 22z" />
    <glyph glyph-name="i" unicode="i" horiz-adv-x="333" 
d="M227 465v-365q0 -20 1.5 -32.5t5 -19t10.5 -9t19 -3.5l35 -2v-37q-51 2 -85.5 2.5t-49.5 0.5l-129 -3v37l35 2q12 1 19 3.5t10.5 9t5 19t1.5 32.5v219q0 22 -1 35.5t-3.5 21t-7.5 10t-14 3.5l-45 3v36q5 1 9 1.5t6 0.5q32 4 53 7.5t45 11.5l70 22zM163 706q31 0 52.5 -22
t21.5 -53t-22 -53t-53 -22q-32 0 -53.5 22t-21.5 54t22 53t54 21z" />
    <glyph glyph-name="j" unicode="j" horiz-adv-x="333" 
d="M30 -223q40 0 57.5 43t17.5 142v357q0 22 -1 35.5t-3.5 21t-7.5 10t-14 3.5l-45 3v36l18 2q58 8 95 19l70 22l10 -6v-367q0 -57 -2.5 -100t-8.5 -75.5t-16 -57t-25 -46.5q-27 -41 -61 -63t-69 -22q-2 0 -11 0.5t-21 1.5l-10 35l4 6h23zM167 706q31 0 52.5 -22t21.5 -53
t-22 -53t-53 -22q-32 0 -53.5 22t-21.5 54t22 53t54 21z" />
    <glyph glyph-name="k" unicode="k" horiz-adv-x="611" 
d="M222 714v-465q42 36 65.5 57.5t40.5 39.5l107 113h130v-38h-31q-24 0 -48 -18l-62 -45q-8 -5 -27.5 -23t-42.5 -41l-8 -8l196 -220q26 -29 55 -32v-34h-172q-6 7 -18 22t-25.5 31.5t-25.5 31.5t-18 21l-106 120h-10v-126q0 -20 1.5 -32.5t5 -19t10.5 -9t19 -3.5l35 -2
v-37q-51 2 -85.5 2.5t-49.5 0.5l-129 -3v37l35 2q12 1 19 3.5t10.5 9t5 19t1.5 32.5v468q0 22 -1 35.5t-4 21t-8 10.5t-13 3l-53 3v36q44 5 71.5 9.5t49.5 11.5l72 22z" />
    <glyph glyph-name="l" unicode="l" horiz-adv-x="333" 
d="M225 714v-614q0 -20 1.5 -32.5t5 -19t10.5 -9t19 -3.5l35 -2v-37q-51 2 -85.5 2.5t-49.5 0.5l-129 -3v37l35 2q12 1 19 3.5t10.5 9t5 19t1.5 32.5v468q0 22 -1 35.5t-4 21t-8 10.5t-13 3l-53 3v36q44 5 71.5 9.5t49.5 11.5l72 22z" />
    <glyph glyph-name="m" unicode="m" horiz-adv-x="889" 
d="M24 428q21 1 38 3t37 6.5t46.5 12.5t65.5 21l6 -6v-75l80 62q25 19 71 19q52 0 83.5 -19t48.5 -62l80 62q25 19 72 19q40 0 67.5 -9.5t44 -31.5t24 -57t7.5 -87v-186q0 -20 1.5 -32.5t5 -19t10.5 -9t19 -3.5l33 -2v-37q-15 1 -25.5 1.5t-20 0.5t-21.5 0.5t-31 0.5l-93 -3
v272q0 116 -86 116q-15 0 -29.5 -6t-26 -15.5t-18.5 -22t-7 -24.5v-217q0 -20 1.5 -32.5t5 -19t10.5 -9t19 -3.5l35 -2v-37q-40 1 -62 1.5t-34.5 1t-19 0.5h-15.5h-16t-19 -0.5t-33.5 -1t-60.5 -1.5v37l31 2q12 1 19 3.5t11 9t5 19t1 32.5v169q0 116 -86 116q-15 0 -29.5 -6
t-26 -15.5t-18.5 -22t-7 -24.5v-217q0 -20 1 -32.5t5 -19t11 -9t19 -3.5l27 -2v-37q-92 3 -127 3l-129 -3v37l35 2q12 1 19 3.5t10.5 9t5 19t1.5 32.5v219q0 22 -1 35.5t-3.5 21t-7.5 10t-14 3.5l-45 3v36z" />
    <glyph glyph-name="n" unicode="n" horiz-adv-x="611" 
d="M24 428q21 1 38 3t37 6.5t46.5 12.5t65.5 21l6 -6v-75l80 62q23 19 70 19q76 0 116 -42q20 -21 27.5 -53t7.5 -90v-186q0 -20 1.5 -32.5t5 -19t10.5 -9t19 -3.5l33 -2v-37q-33 1 -50.5 1.5t-27 1t-14 0.5h-9.5h-13t-17 -0.5t-24.5 -1t-35.5 -1.5v273q0 60 -22 87.5
t-72 27.5q-17 0 -32 -5.5t-27 -15t-19 -22t-7 -25.5v-217q0 -20 1.5 -32.5t5 -19t10.5 -9t19 -3.5l35 -2v-37q-51 2 -85.5 2.5t-49.5 0.5l-129 -3v37l35 2q12 1 19 3.5t10.5 9t5 19t1.5 32.5v219q0 22 -1 35.5t-3.5 21t-7.5 10t-14 3.5l-45 3v36z" />
    <glyph glyph-name="o" unicode="o" horiz-adv-x="556" 
d="M287 471q112 0 171 -60t59 -175q0 -122 -64.5 -187.5t-185.5 -65.5q-109 0 -168 62.5t-59 178.5q0 120 63.5 183.5t183.5 63.5zM275 423q-52 0 -75.5 -42t-23.5 -133q0 -217 109 -217q51 0 73.5 41t22.5 133q0 218 -106 218z" />
    <glyph glyph-name="p" unicode="p" horiz-adv-x="611" 
d="M222 465v-82l61 49q26 21 50 30t53 9q39 0 72 -14t57.5 -39t38 -58.5t13.5 -73.5q0 -68 -26 -124t-76 -94q-4 -3 -8 -6.5t-9 -6.5q-26 -20 -45.5 -34t-35.5 -22.5t-29.5 -12t-26.5 -3.5q-9 0 -17 0.5t-18 2.5t-23 5.5t-31 8.5v-155q0 -20 1.5 -32.5t5 -19.5t10.5 -9.5
t19 -2.5l45 -2v-37q-49 1 -76 1.5t-40.5 1t-18.5 0.5h-10l-129 -3v37l35 2q12 1 19 3.5t10.5 9t5 19t1.5 32.5v474q0 22 -1 35.5t-3.5 21t-7.5 10t-14 3.5l-45 3v36l11 1q19 3 32.5 5t25 4t21.5 4.5t23 6.5l70 22zM222 106q39 -55 101 -55q55 0 86.5 46t31.5 124
q0 75 -32.5 117.5t-90.5 42.5q-63 0 -96 -50v-225z" />
    <glyph glyph-name="q" unicode="q" horiz-adv-x="611" 
d="M300 -2q-18 -15 -60 -15q-44 0 -78.5 16t-59 45.5t-37.5 72t-13 95.5q0 37 6 66t20 52.5t36 43t55 37.5q60 34 94 47t60 13q23 0 53.5 -9t62.5 -25l22 -11l52 42l21 -14q-9 -45 -12.5 -73t-3.5 -57v-479q0 -20 1.5 -32.5t5 -19t10.5 -9t19 -3.5l35 -2v-37
q-51 2 -85.5 2.5t-49.5 0.5l-129 -3v37l35 2q12 1 19 3.5t10.5 9t5 19t1.5 32.5v230zM396 344q-48 63 -112 63q-106 0 -106 -152q0 -81 31 -129t85 -48q21 0 39.5 6.5t32.5 17.5t22 26t8 32v184z" />
    <glyph glyph-name="r" unicode="r" horiz-adv-x="389" 
d="M223 465v-95l44 48q28 31 46 42t39 11q22 0 37 -6l-5 -129l-24 -10q-21 36 -57 36q-15 0 -29 -5.5t-25.5 -14.5t-18.5 -20.5t-7 -23.5v-198q0 -21 1.5 -33.5t6.5 -19t14.5 -8.5t25.5 -3l39 -2v-37q-51 1 -79 1.5t-42.5 1t-19.5 0.5h-10l-129 -3v37l35 2q12 1 19 3.5
t10.5 9t5 19t1.5 32.5v219q0 22 -1 35.5t-3.5 21t-7.5 10t-14 3.5l-45 3v36l40 5t28 4.5t22.5 5t22.5 6.5l70 22z" />
    <glyph glyph-name="s" unicode="s" horiz-adv-x="444" 
d="M326 326l-10 58q-1 7 -9 14.5t-20.5 12.5t-27.5 8.5t-30 3.5q-41 0 -64.5 -17.5t-23.5 -47.5q0 -23 13 -36t42 -20l82 -18q68 -15 97.5 -45t29.5 -84q0 -39 -15.5 -70.5t-43 -54t-66.5 -35t-86 -12.5q-40 0 -76 6.5t-79 21.5l7 141h39l5 -69q24 -28 50.5 -40t61.5 -12
q42 0 67 21t25 56q0 26 -14 40.5t-49 22.5l-86 21q-106 26 -106 125q0 75 53 114.5t155 39.5q40 0 67 -5t56 -18l-8 -122h-36z" />
    <glyph glyph-name="t" unicode="t" horiz-adv-x="333" 
d="M275 1q-7 -8 -24.5 -13t-40.5 -5q-66 0 -95 30t-29 97v259l-64 -4v22l66 43v60q0 16 -1 34.5t-3 57.5q38 14 65 25t57 25l14 -10q-3 -19 -5.5 -35t-4 -32t-2 -32.5t-0.5 -36.5v-58l114 6l-8 -65h-106v-238q0 -37 13.5 -51t48.5 -14q12 0 21.5 2.5t24.5 10.5l8 -19z" />
    <glyph glyph-name="u" unicode="u" horiz-adv-x="611" 
d="M316 6q-11 -11 -29.5 -17t-40.5 -6q-72 0 -111 40.5t-39 116.5v179q0 22 -1 35.5t-3.5 21t-7.5 10t-14 3.5l-45 3v36l40 5t28 4.5t22.5 5t22.5 6.5l70 22l10 -6v-261q0 -72 17.5 -101.5t60.5 -29.5q40 0 68 26.5t28 63.5v156q0 22 -1 35.5t-3.5 21t-7.5 10t-14 3.5l-45 3
v36q23 3 39 5t28.5 4.5t23 5t22.5 6.5l70 22l10 -6v-365q0 -20 1.5 -32.5t5 -19t10.5 -9t19 -3.5l33 -2v-37q-16 1 -29 1h-18q-21 2 -34 2h-21h-7.5t-12.5 -0.5t-26 -1t-48 -1.5l5 83z" />
    <glyph glyph-name="v" unicode="v" horiz-adv-x="556" 
d="M84 357q-14 32 -24.5 46t-23.5 16l-25 2v38q38 -1 61 -1.5t37 -1t20.5 -0.5h11.5l129 3v-38l-41 -2q-23 -2 -23 -17q0 -16 14 -51l88 -221q13 28 20.5 45.5t14.5 34.5l61 151q9 22 9 41q0 15 -23 17l-38 2v38q14 -1 23.5 -1.5t19.5 -0.5t22.5 -0.5t31.5 -0.5l96 3v-38
l-30 -5q-13 -2 -21 -9.5t-15 -24.5l-128 -288q-9 -20 -17.5 -41.5t-20.5 -55.5h-86z" />
    <glyph glyph-name="w" unicode="w" horiz-adv-x="833" 
d="M87 381q-6 20 -15 28t-26 10l-33 2v38q40 -1 64 -1.5t38.5 -1t21.5 -0.5h12l135 3v-38l-47 -2q-19 0 -19 -22q0 -4 0.5 -10t1.5 -9l59 -227q7 18 17 37q3 7 5.5 13t5.5 12q8 17 15 32.5t14 30.5l87 195h50l138 -317q13 34 21.5 58.5t17.5 53.5l36 113q1 3 2 9.5t1 9.5
q0 9 -8 14.5t-21 6.5l-42 2v38q31 -1 48.5 -1.5t27 -1t14.5 -0.5h11h11t14.5 0.5t26.5 1t49 1.5v-38l-34 -2q-11 -1 -19 -11.5t-17 -35.5l-92 -260q-3 -9 -8 -26t-13 -42q-1 -3 -4 -14t-10 -33h-81l-132 307q-29 -56 -46.5 -92.5t-31.5 -67.5t-27 -64t-32 -83h-79z" />
    <glyph glyph-name="x" unicode="x" 
d="M120 346q-20 33 -36 45.5t-41 12.5h-6.5t-8.5 -1l-8 36q14 3 33.5 7t40 8.5t40 9l32.5 7.5q15 -12 29.5 -30t32.5 -47l52 -85l108 150h95v-37q-14 0 -23.5 -2t-18 -6.5t-16.5 -13t-20 -21.5l-97 -114l89 -152q26 -43 44.5 -60t41.5 -19v-37q-11 1 -18.5 1.5t-15.5 0.5
t-18 0.5t-25 0.5l-78 -3l-100 169l-64 -88q-9 -13 -19.5 -28.5t-32.5 -49.5h-91v34q23 2 38.5 10t30.5 26l110 140z" />
    <glyph glyph-name="y" unicode="y" horiz-adv-x="556" 
d="M240 419q-11 -1 -18.5 -7t-7.5 -16q0 -8 2.5 -16t8.5 -22q2 -5 4 -9.5t2 -5.5l84 -218l101 252q2 4 3 10.5t1 11.5q0 8 -7.5 13.5t-19.5 6.5l-33 2v38q88 -3 93 -3l93 3v-38l-26 -5q-22 -5 -41 -47l-199 -463q-38 -89 -80.5 -130.5t-95.5 -41.5q-35 0 -73 17l18 95l11 4
q33 -37 70 -37q26 0 50.5 24t41.5 67l23 56l-158 404q-11 29 -21 41.5t-21 13.5l-35 2v38q39 -1 63 -1.5t38 -1t20.5 -0.5h11.5l132 3v-38z" />
    <glyph glyph-name="z" unicode="z" 
d="M186 55h163q18 0 30 3t19.5 10.5t12.5 21t8 34.5l5 31h40q-5 -36 -8.5 -78t-3.5 -75l-5 -5l-273 3h-25t-25 -0.5t-39.5 -1t-68.5 -1.5v33q24 31 40.5 52t28 36t19.5 26l16 22l170 238h-118q-21 0 -34.5 -2.5t-22 -9t-13 -18t-6.5 -29.5l-3 -25h-38l3 134l7 5
q54 -2 93 -2.5t67 -1.5t46 -1h30h32.5t33.5 1t39 1.5t48 2.5v-35z" />
    <glyph glyph-name="braceleft" unicode="{" horiz-adv-x="310" 
d="M5 303q28 7 46 15.5t28 20.5t13.5 30t3.5 45v178q0 80 48 110q10 6 22.5 10.5t29 7.5t39 4t53.5 1v-2q-29 -8 -47 -17t-29 -22.5t-15 -32t-4 -45.5v-177q0 -30 -4.5 -51t-16 -35.5t-31.5 -24t-50 -16.5q30 -7 50 -16.5t31.5 -24.5t16 -37t4.5 -55v-167q0 -27 4 -45.5
t15 -32t29 -22.5t47 -17v-2q-31 0 -53.5 1t-39 4t-29 7.5t-22.5 10.5q-48 30 -48 110v174q0 27 -3.5 45t-13.5 30t-28 20t-46 16v2z" />
    <glyph glyph-name="bar" unicode="|" horiz-adv-x="400" 
d="M157 0v720h86v-720h-86v0z" />
    <glyph glyph-name="braceright" unicode="}" horiz-adv-x="310" 
d="M305 301q-29 -8 -46.5 -16t-27.5 -20t-13.5 -30t-3.5 -45v-174q0 -80 -48 -110q-11 -6 -23 -10.5t-28.5 -7.5t-39 -4t-53.5 -1v2q28 8 46.5 17t29.5 22.5t15 32t4 45.5v167q0 33 4.5 55.5t16 37.5t31.5 24t50 16q-30 7 -50 16.5t-31.5 24t-16 35.5t-4.5 51v177
q0 27 -4 45.5t-15 32t-29.5 22.5t-46.5 17v2q33 0 58 -1.5t43 -5.5t31 -9.5t23 -14.5q37 -31 37 -102v-178q0 -27 3.5 -45t13.5 -30t27.5 -20.5t46.5 -15.5v-2z" />
    <glyph glyph-name="asciitilde" unicode="~" horiz-adv-x="606" 
d="M555 287q-35 -60 -68 -86.5t-74 -26.5q-11 0 -20.5 1.5t-21.5 5t-28 10t-39 16.5q-25 11 -42.5 18t-29.5 11t-20.5 5.5t-16.5 1.5q-24 0 -42 -14.5t-41 -51.5l-61 39q35 60 68 86.5t74 26.5q10 0 20 -1.5t22 -5t28 -10t39 -16.5q25 -11 42.5 -18t29.5 -11t20.5 -5.5
t16.5 -1.5q24 0 42 14.5t41 51.5z" />
    <glyph glyph-name="exclamdown" unicode="&#xa1;" horiz-adv-x="278" 
d="M64 -227q0 26 1.5 46t5.5 50l50 372l38 21l5 -8l47 -358q1 -1 2 -20t1 -40l1 -19l-100 -44h-51zM138 471q15 0 29 -6.5t24.5 -17.5t17 -25.5t6.5 -29.5q0 -31 -23.5 -54t-55.5 -23q-31 0 -54 22.5t-23 54.5t23.5 55.5t55.5 23.5z" />
    <glyph glyph-name="cent" unicode="&#xa2;" 
d="M378 473q25 -6 38.5 -10.5t24.5 -9.5l5 -9q-7 -30 -11.5 -68t-6.5 -80h-38l-6 60q-1 10 -10.5 20t-20.5 13l-91 -302q21 -17 43 -24.5t53 -7.5q25 0 42.5 4.5t40.5 15.5l9 -11l-21 -47l-4 -4q-35 -16 -64.5 -23t-61.5 -7q-11 0 -23 1t-36 4l-10 1l-32 -95h-42l36 106
q-63 32 -91 82.5t-28 131.5q0 77 29 129q8 15 21.5 27.5t42.5 30.5l52 33q32 20 62.5 30.5t55.5 11.5l26 78h41zM313 400q-6 1 -11.5 1h-9.5q-96 0 -96 -138q0 -41 7.5 -71t26.5 -68z" />
    <glyph glyph-name="sterling" unicode="&#xa3;" 
d="M106 363v43q0 82 55 144q22 26 53 49t64 40t66 27t60 10q43 0 76 -27l-10 -136h-31l-3 35q-2 29 -24 45.5t-57 16.5q-54 0 -79 -33.5t-32 -113.5l-8 -100h168v-43h-173q-14 -73 -40.5 -126t-73.5 -101q38 11 59.5 15t44.5 4h12.5t15 -1t25.5 -3.5t44 -6.5q20 -3 33 -5
t22.5 -2.5t17 -1t15.5 -0.5q20 0 33.5 8t16.5 22l11 56h34l-10 -179q-22 -8 -41.5 -11.5t-41.5 -3.5q-67 0 -162 26q-38 11 -72 16.5t-61 5.5q-11 0 -22.5 -5.5t-28.5 -19.5q-13 -11 -23 -17t-21 -9l-20 59l64 52q13 12 21.5 25t13 37t6.5 63t3 103h-90v43h90z" />
    <glyph glyph-name="currency" unicode="&#xa4;" 
d="M81 190q-23 29 -32.5 57t-9.5 66q0 39 9.5 67.5t32.5 54.5l-49 49l47 47l48 -48q54 41 124 41q35 0 63.5 -9.5t56.5 -30.5l48 49l49 -49l-46 -48q39 -51 39 -122q0 -37 -9.5 -66.5t-30.5 -58.5l46 -48l-45 -45l-47 49q-28 -23 -57.5 -33t-67.5 -10t-67.5 9.5t-57.5 32.5
l-48 -48l-45 45zM251 447q-28 0 -52.5 -10.5t-43 -29t-29 -43t-10.5 -52.5q0 -27 10.5 -51.5t29 -42.5t42.5 -29t51 -11q28 0 52.5 10.5t43 29t29 43.5t10.5 53q0 27 -10.5 51t-28.5 42.5t-42.5 29t-51.5 10.5z" />
    <glyph glyph-name="yen" unicode="&#xa5;" 
d="M66 206v40h149v40q0 16 -19 48q-4 6 -5 8h-125v40h108l-63 140q-15 30 -27 49.5t-22.5 31t-21 15.5t-23.5 4v37l115 36q12 -10 22 -21.5t19.5 -27t19 -37t21.5 -50.5l80 -203l133 322h56v-19l-135 -277h118v-40h-134q-8 -18 -11.5 -31t-3.5 -27v-38h149v-40h-149v-71
q0 -34 0.5 -52.5t4 -27.5t10.5 -11.5t20 -3.5l26 -3v-40q-29 1 -45.5 1.5t-27.5 1t-18.5 0.5h-17.5q-18 0 -41.5 -1t-73.5 -2v40l26 3q13 1 20 4t10.5 12t4 27.5t0.5 51.5v71h-149z" />
    <glyph glyph-name="brokenbar" unicode="&#xa6;" horiz-adv-x="606" 
d="M260 720h86v-288h-86v288v0zM260 0v288h86v-288h-86v0z" />
    <glyph glyph-name="section" unicode="&#xa7;" 
d="M369 515q0 51 -7 80q-14 14 -41 22.5t-60 8.5q-57 0 -93.5 -26.5t-36.5 -67.5q0 -18 6 -32t20.5 -25.5t39 -21.5t60.5 -21l53 -16q6 -2 9.5 -3t4.5 -1l4 -1q77 -20 110 -54.5t33 -95.5q0 -22 -3.5 -39.5t-11.5 -34t-21.5 -34t-34.5 -38.5q30 -23 42.5 -46.5t12.5 -57.5
q0 -45 -20 -86.5t-54 -73t-79 -50t-94 -18.5q-25 0 -45 2t-39 7.5t-37 14t-38 21.5q3 30 5 49t3.5 35t2.5 32t3 39h39q-1 -7 -1 -12v-8q0 -31 9 -64q51 -55 131 -55q26 0 50.5 9t43 24t29.5 34.5t11 40.5q0 15 -7 30.5t-21 27.5t-37.5 23t-69.5 26l-61 20q-41 13 -69.5 28
t-46 33.5t-25.5 41t-8 51.5q0 36 13 62.5t46 58.5l19 18q-47 41 -47 98q0 21 5.5 43.5t15.5 45t24 42.5t30 35q29 27 72 43t86 16q32 0 63 -8t67 -25q-6 -29 -9.5 -60.5t-7.5 -86.5h-38zM368 131q16 21 22.5 36.5t6.5 32.5q0 37 -26.5 61.5t-88.5 45.5l-143 48
q-35 -42 -35 -75q0 -27 31 -50.5t100 -49.5z" />
    <glyph glyph-name="dieresis" unicode="&#xa8;" horiz-adv-x="333" 
d="M275 671q27 0 46.5 -20t19.5 -47q0 -28 -19.5 -47.5t-47.5 -19.5t-47.5 19.5t-19.5 48.5q0 27 19.5 46.5t48.5 19.5zM60 671q27 0 46.5 -20t19.5 -47q0 -28 -19.5 -47.5t-47.5 -19.5t-47.5 19.5t-19.5 47.5t19.5 47.5t48.5 19.5z" />
    <glyph glyph-name="copyright" unicode="&#xa9;" horiz-adv-x="747" 
d="M519 403h-32q-19 97 -97 97q-53 0 -85 -42t-32 -111q0 -38 9.5 -69t26.5 -54t40.5 -35.5t51.5 -12.5q30 0 56.5 13.5t39.5 36.5l8 14l26 -11q-8 -16 -13.5 -24.5t-14.5 -17.5q-24 -24 -58.5 -37t-72.5 -13q-41 0 -75 14.5t-58 40t-37.5 61.5t-13.5 80q0 45 14.5 82
t40 63.5t61.5 41.5t80 15q14 0 28 -1.5t32 -6.5l5 -1l2 -1h2l3 -1l4 -1q24 -5 37 -8.5t22 -7.5v-104zM378 695q70 0 132 -28.5t108.5 -77t74 -113t27.5 -137.5q0 -74 -27.5 -139t-74.5 -113t-110.5 -76t-135.5 -28t-135 28t-110 76.5t-74 113.5t-27 140q0 74 27.5 138.5
t75 112.5t111.5 75.5t138 27.5zM377 639q-131 0 -218 -96q-37 -42 -57 -94t-20 -107q0 -63 22.5 -118t62 -96.5t92.5 -65t113 -23.5t113.5 23.5t93 64.5t62.5 96t23 117q0 61 -23 115.5t-62 95t-91 64.5t-111 24z" />
    <glyph glyph-name="ordfeminine" unicode="&#xaa;" horiz-adv-x="438" 
d="M185 374q-11 -7 -31 -7q-77 0 -77 75q0 29 12.5 46t41.5 28q11 5 28 9.5t29 6.5l57 10q-1 16 -3 25t-7 18q-7 12 -22.5 21t-29.5 8q-3 0 -6 -1l-36 -8l-14 -30l-22 4v39l77 37q12 5 33 5q53 0 81 -23t28 -65v-148q0 -23 18 -24l19 -2v-22h-29q-11 1 -18.5 1h-9.5h-26
q-3 -1 -12.5 -1h-20.5l-3 4l3 38zM245 517l-29 -7q-34 -8 -47 -19.5t-13 -33.5q0 -17 9 -27.5t24 -10.5q31 0 56 27v71z" />
    <glyph glyph-name="guillemotleft" unicode="&#xab;" 
d="M261 416l-110 -173l110 -179l-27 -20q-68 69 -114 112.5t-84 74.5v25q40 35 68.5 60.5t51 46t41 38t37.5 37.5zM463 416l-110 -173l110 -179l-27 -20q-68 69 -114 112.5t-84 74.5v25q40 35 68.5 60.5t51 46t41 38t37.5 37.5z" />
    <glyph glyph-name="logicalnot" unicode="&#xac;" horiz-adv-x="606" 
d="M469 114v196h-418v86h504v-282h-86v0z" />
    <glyph glyph-name="registered" unicode="&#xae;" horiz-adv-x="747" 
d="M324 209q0 -17 5.5 -23.5t20.5 -6.5h17v-21h-156v20h14q19 0 24.5 5t5.5 22v285q0 20 -4.5 24.5t-23.5 4.5h-15v21h152q42 0 62 -2t35 -9q23 -10 37.5 -33.5t14.5 -50.5q0 -23 -11.5 -44t-32.5 -35q-12 -8 -24 -12.5t-33 -9.5q13 -3 23 -8t19 -15t18 -26t21 -40
q13 -27 20.5 -42.5t14 -23t13 -9.5t16.5 -2v-20h-68q-9 0 -15.5 3t-13.5 11t-14 22t-16 36q-2 4 -4 8.5t-4 9.5q-3 7 -5 11.5t-3 6.5q-9 22 -16 35t-14.5 20t-18 8.5t-26.5 1.5h-15v-122zM343 356h3.5t6.5 -1q40 -5 65 18t25 65q0 80 -81 80h-21q-10 0 -13.5 -8t-3.5 -31
v-123h19zM378 695q70 0 132 -28.5t108.5 -77t74 -113t27.5 -137.5q0 -74 -27.5 -139t-74.5 -113t-110.5 -76t-135.5 -28t-135 28t-110 76.5t-74 113.5t-27 140q0 74 27.5 138.5t75 112.5t111.5 75.5t138 27.5zM377 639q-131 0 -218 -96q-37 -42 -57 -94t-20 -107
q0 -63 22.5 -118t62 -96.5t92.5 -65t113 -23.5t113.5 23.5t93 64.5t62.5 96t23 117q0 61 -23 115.5t-62 95t-91 64.5t-111 24z" />
    <glyph glyph-name="macron" unicode="&#xaf;" horiz-adv-x="333" 
d="M332 538h-331v71h331v-71v0z" />
    <glyph glyph-name="macron" unicode="&#x2c9;" horiz-adv-x="333" 
d="M332 538h-331v71h331v-71v0z" />
    <glyph glyph-name="degree" unicode="&#xb0;" horiz-adv-x="400" 
d="M202 660q30 0 57 -12t47 -32.5t32 -48t12 -57.5q0 -31 -12 -58.5t-32.5 -47.5t-47.5 -32t-58 -12t-58.5 12t-47.5 32t-32 47.5t-12 58.5t12 58.5t32.5 48t48 32t59.5 11.5zM200 599q-38 0 -63.5 -25.5t-25.5 -62.5q0 -38 26 -64t63 -26t63 26t26 63q0 18 -7 34
t-19.5 28.5t-28.5 19.5t-34 7z" />
    <glyph glyph-name="plusminus" unicode="&#xb1;" horiz-adv-x="606" 
d="M260 358v210h86v-210h209v-86h-209v-147h-86v147h-209v86h209v0zM51 0v86h504v-86h-504v0z" />
    <glyph glyph-name="twosuperior" unicode="&#xb2;" horiz-adv-x="300" 
d="M12 294l101 99q69 67 69 133q0 29 -16.5 45.5t-44.5 16.5q-19 0 -35.5 -9t-19.5 -21l-12 -42l-28 2l11 102q28 20 50.5 28.5t49.5 8.5q57 0 94 -29.5t37 -75.5q0 -29 -16.5 -61t-46.5 -61l-103 -99l181 6l4 -6q-2 -15 -2 -20.5v-16.5v-12t1 -15l1 -8q-20 1 -41.5 1h-45.5
q-26 1 -39 1h-14h-29l-106 -2v35z" />
    <glyph glyph-name="threesuperior" unicode="&#xb3;" horiz-adv-x="300" 
d="M35 365q19 -41 39.5 -57.5t51.5 -16.5q32 0 51.5 21t19.5 54q0 32 -19.5 51t-52.5 19q-19 0 -38 -6l-7 6l12 48h24q29 0 47 16t18 42q0 23 -15.5 36.5t-42.5 13.5t-43 -13.5t-25 -45.5h-28l20 96q29 16 49 22t46 6q49 0 80.5 -24t31.5 -62q0 -52 -60 -85q41 -5 62.5 -28
t21.5 -61q0 -30 -14 -57t-37.5 -46.5t-55.5 -31t-68 -11.5q-24 0 -41 3.5t-37 11.5q-3 20 -5.5 33t-4 23t-3 18t-3.5 19z" />
    <glyph glyph-name="acute" unicode="&#xb4;" horiz-adv-x="333" 
d="M207 654q17 20 32 28.5t33 8.5q20 0 32 -12t12 -32q0 -17 -9 -29t-34 -26l-8 -5l-131 -81h-56z" />
    <glyph glyph-name="mu" unicode="&#xb5;" horiz-adv-x="611" 
d="M514 100q0 -20 1.5 -32.5t5 -19t10.5 -9t19 -3.5l33 -2v-37q-16 1 -29 1h-18q-21 2 -34 2h-21h-7.5t-12.5 -0.5t-26 -1t-48 -1.5l5 83l-85 -85q-12 -12 -52 -12q-27 0 -46 5t-39 18q8 -53 12 -91t4 -60q0 -32 -25 -54.5t-65 -25.5v544q0 22 -1 35.5t-3.5 21t-7.5 10
t-14 3.5l-45 3v36l40 5t28 4.5t22.5 5t22.5 6.5l70 22l10 -6v-261q0 -72 17.5 -101.5t60.5 -29.5q40 0 68 26.5t28 63.5v156q0 22 -1 35.5t-3.5 21t-7.5 10t-14 3.5l-45 3v36l40 5t28 4.5t22.5 5t22.5 6.5l70 22l10 -6v-365z" />
    <glyph glyph-name="mu" unicode="&#x3bc;" horiz-adv-x="611" 
d="M514 100q0 -20 1.5 -32.5t5 -19t10.5 -9t19 -3.5l33 -2v-37q-16 1 -29 1h-18q-21 2 -34 2h-21h-7.5t-12.5 -0.5t-26 -1t-48 -1.5l5 83l-85 -85q-12 -12 -52 -12q-27 0 -46 5t-39 18q8 -53 12 -91t4 -60q0 -32 -25 -54.5t-65 -25.5v544q0 22 -1 35.5t-3.5 21t-7.5 10
t-14 3.5l-45 3v36l40 5t28 4.5t22.5 5t22.5 6.5l70 22l10 -6v-261q0 -72 17.5 -101.5t60.5 -29.5q40 0 68 26.5t28 63.5v156q0 22 -1 35.5t-3.5 21t-7.5 10t-14 3.5l-45 3v36l40 5t28 4.5t22.5 5t22.5 6.5l70 22l10 -6v-365z" />
    <glyph glyph-name="paragraph" unicode="&#xb6;" horiz-adv-x="641" 
d="M244 -118q12 0 19 2.5t10.5 9.5t5 19.5t1.5 32.5v378q-30 2 -55 6.5t-46.5 12t-41.5 18.5t-40 26q-78 58 -78 142q0 34 15 62.5t43 48.5t66 31.5t85 11.5q8 0 22 -0.5t34 -1.5q29 -2 68 -2.5t84 -0.5h16.5t22.5 1l124 2v-41h-47q-21 0 -29.5 -17t-8.5 -60v-617
q0 -20 1.5 -32.5t5 -19.5t10.5 -9.5t19 -2.5l49 -2v-41q-63 1 -97.5 1.5t-53.5 1t-28.5 0.5h-22.5h-22.5t-28.5 -0.5t-53.5 -1t-97.5 -1.5v41zM368 634v-745h58v745h-58zM280 634q-5 1 -9 1h-6q-50 0 -82.5 -34.5t-32.5 -87.5q0 -54 33.5 -91t96.5 -51v263z" />
    <glyph glyph-name="periodcentered" unicode="&#xb7;" horiz-adv-x="250" 
d="M126 335q15 0 29 -6.5t24.5 -17.5t17 -25.5t6.5 -29.5q0 -31 -23.5 -54t-55.5 -23q-31 0 -54 22.5t-23 54.5t23.5 55.5t55.5 23.5z" />
    <glyph glyph-name="periodcentered" unicode="&#x2219;" horiz-adv-x="250" 
d="M126 335q15 0 29 -6.5t24.5 -17.5t17 -25.5t6.5 -29.5q0 -31 -23.5 -54t-55.5 -23q-31 0 -54 22.5t-23 54.5t23.5 55.5t55.5 23.5z" />
    <glyph glyph-name="cedilla" unicode="&#xb8;" horiz-adv-x="333" 
d="M165 -7h41l-28 -64q14 4 24 5t21 1q35 0 56 -19.5t21 -53.5q0 -40 -36 -63.5t-97 -23.5q-22 0 -44.5 4.5t-49.5 13.5l16 37q26 -5 39.5 -7t27.5 -2q50 0 50 37q0 35 -38 35q-5 0 -11.5 -1t-24.5 -3l-10 8z" />
    <glyph glyph-name="onesuperior" unicode="&#xb9;" horiz-adv-x="300" 
d="M88 289q31 1 31 25v261q0 15 -1 18q0 2 -2 2l-1 -1l-87 -40q-6 14 -8 23t-2 20v1v5q29 7 77 22.5t106 37.5l10 -8q-2 -30 -3 -50t-2 -35.5t-1 -30.5v-35v-190q0 -24 31 -25l41 -1v-29q-30 1 -42.5 1h-26.5q-17 1 -26 1h-14l-39 -1l-87 -1v29z" />
    <glyph glyph-name="ordmasculine" unicode="&#xba;" horiz-adv-x="488" 
d="M250 660q72 0 110.5 -37t38.5 -106q0 -72 -42.5 -111t-120.5 -39q-72 0 -109.5 37.5t-37.5 109.5q0 71 41.5 108.5t119.5 37.5zM241 631q-33 0 -48.5 -24.5t-15.5 -78.5q0 -132 71 -132q33 0 48 24.5t15 79.5q0 131 -70 131z" />
    <glyph glyph-name="guillemotright" unicode="&#xbb;" 
d="M64 438q31 -32 80 -77t118 -105v-25q-37 -30 -84.5 -74.5t-113.5 -112.5l-27 20l110 179l-110 173zM266 438q31 -32 80 -77t118 -105v-25q-37 -30 -84.5 -74.5t-113.5 -112.5l-27 20l110 179l-110 173z" />
    <glyph glyph-name="onequarter" unicode="&#xbc;" horiz-adv-x="750" 
d="M436 122q5 13 9 20q8 19 12.5 29t9.5 19l78 129q11 17 22.5 33t27.5 35l76 16l8 -7v-244h54v-53h-54v-24q0 -41 37 -45l19 -2v-30q-32 1 -50 1.5t-27 0.5h-13h-8h-6h-14t-33.5 -0.5t-63.5 -1.5v30l38 2q37 2 37 45v24h-155zM595 152v179l-106 -179h106zM87 293
q38 2 38 45v235q0 23 -6 23l-6 -2l-85 -38q-5 18 -7 28.5t-2 19.5q20 5 37.5 10t39 11.5t50 16t71.5 23.5l8 -5q-2 -16 -2.5 -24.5t-1.5 -18.5q-2 -19 -2.5 -27.5t-0.5 -19.5v-232q0 -43 37 -45l37 -2v-30q-40 1 -62 1.5t-33 0.5h-14.5h-6.5h-19t-31 -1l-81 -1v30zM188 0
l403 660h69l-403 -660h-69z" />
    <glyph glyph-name="onehalf" unicode="&#xbd;" horiz-adv-x="750" 
d="M155 0l403 660h69l-403 -660h-69zM77 293q38 2 38 45v235q0 23 -6 23q-3 0 -4 -1l-87 -39q-5 18 -7 28.5t-2 19.5q20 5 37.5 10t39 11.5t50 16t71.5 23.5l8 -5q-2 -16 -2.5 -24.5t-1.5 -18.5q-2 -19 -2.5 -27.5t-0.5 -19.5v-232q0 -43 37 -45l37 -2v-30q-40 1 -62 1.5
t-33 0.5h-14.5h-6.5h-19t-31 -1l-81 -1v30zM455 35l108 101q70 66 70 128q0 30 -18.5 47.5t-50.5 17.5q-24 0 -36.5 -9t-19.5 -32l-10 -33l-28 4l12 101q29 20 52.5 28.5t51.5 8.5q61 0 100 -29.5t39 -75.5q0 -31 -17.5 -64t-49.5 -63l-96 -90v-8l178 9l5 -5
q-2 -14 -2 -21.5v-17.5v-16t2 -18l-112 2h-32h-18l-89 -2h-39v37z" />
    <glyph glyph-name="threequarters" unicode="&#xbe;" horiz-adv-x="750" 
d="M160 0l403 660h69l-403 -660h-69zM37 370q19 -38 41.5 -55t54.5 -17q35 0 59.5 22.5t24.5 55.5q0 32 -22.5 52.5t-57.5 20.5q-11 0 -19.5 -1t-21.5 -4l-5 3l13 44h22q34 0 54 17t20 46q0 25 -17 38.5t-48 13.5q-57 0 -74 -58h-26l20 92q29 15 51 21t49 6q51 0 84 -24
t33 -61q0 -52 -74 -88q100 -9 100 -89q0 -30 -14.5 -56.5t-40 -46t-59.5 -30.5t-73 -11q-23 0 -41.5 3t-38.5 11l-5 30t-3.5 21.5t-3.5 18t-4 20.5zM436 122q5 13 9 20q8 19 12.5 29t9.5 19l78 129q11 17 22.5 33t27.5 35l76 16l8 -7v-244h54v-53h-54v-24q0 -41 37 -45
l19 -2v-30q-32 1 -50 1.5t-27 0.5h-13h-8h-6h-14t-33.5 -0.5t-63.5 -1.5v30l38 2q37 2 37 45v24h-155zM595 152v179l-106 -179h106z" />
    <glyph glyph-name="questiondown" unicode="&#xbf;" horiz-adv-x="444" 
d="M401 -50q-17 -50 -24 -78.5t-8 -54.5q-40 -27 -73 -37.5t-77 -10.5q-85 0 -135.5 42.5t-50.5 114.5q0 42 15.5 71.5t55.5 62.5l77 64q62 51 62 92q0 16 -9 36l-1 2l34 14q26 -33 26 -74q0 -26 -14 -54t-49 -70t-49 -69t-14 -53q0 -35 27.5 -59t68.5 -24q26 0 46.5 6.5
t25.5 16.5l31 71zM251 471q15 0 29 -6.5t24.5 -17.5t17 -25.5t6.5 -29.5q0 -31 -23.5 -54t-55.5 -23q-31 0 -54 22.5t-23 53.5q0 32 23.5 56t55.5 24z" />
    <glyph glyph-name="Agrave" unicode="&#xc0;" horiz-adv-x="778" 
d="M218 206l-42 -112q-5 -13 -5 -25q0 -13 8 -22t21 -10l50 -3v-37q-20 1 -35 1t-22 1q-21 1 -35 1h-21h-21t-35 -1q-6 -1 -21.5 -1t-35.5 -1v37l30 3q31 3 56 60l181 438q8 18 29 76q3 8 10 27.5t18 47.5h71l259 -605q10 -22 22 -31.5t33 -12.5l24 -3v-37q-55 1 -85 1.5
t-45 1t-19.5 0.5h-8.5h-9.5t-18.5 -0.5t-43 -1t-81 -1.5v37l53 3q8 1 14 8.5t6 18.5q0 13 -6 28l-45 114h-251zM242 262h204l-104 254zM284 811q-5 2 -11 7q-23 13 -31.5 24.5t-8.5 28.5q0 20 12 32t32 12q32 0 65 -37l129 -148h-56z" />
    <glyph glyph-name="Aacute" unicode="&#xc1;" horiz-adv-x="778" 
d="M218 206l-42 -112q-5 -13 -5 -25q0 -13 8 -22t21 -10l50 -3v-37q-20 1 -35 1t-22 1q-21 1 -35 1h-21h-21t-35 -1q-6 -1 -21.5 -1t-35.5 -1v37l30 3q31 3 56 60l181 438q8 18 29 76q3 8 10 27.5t18 47.5h71l259 -605q10 -22 22 -31.5t33 -12.5l24 -3v-37q-55 1 -85 1.5
t-45 1t-19.5 0.5h-8.5h-9.5t-18.5 -0.5t-43 -1t-81 -1.5v37l53 3q8 1 14 8.5t6 18.5q0 13 -6 28l-45 114h-251zM242 262h204l-104 254zM430 878q17 20 32 28.5t33 8.5q20 0 32 -12t12 -32q0 -17 -9 -29t-34 -26l-8 -5l-131 -81h-56z" />
    <glyph glyph-name="Acircumflex" unicode="&#xc2;" horiz-adv-x="778" 
d="M218 206l-42 -112q-5 -13 -5 -25q0 -13 8 -22t21 -10l50 -3v-37q-20 1 -35 1t-22 1q-21 1 -35 1h-21h-21t-35 -1q-6 -1 -21.5 -1t-35.5 -1v37l30 3q31 3 56 60l181 438q8 18 29 76q3 8 10 27.5t18 47.5h71l259 -605q10 -22 22 -31.5t33 -12.5l24 -3v-37q-55 1 -85 1.5
t-45 1t-19.5 0.5h-8.5h-9.5t-18.5 -0.5t-43 -1t-81 -1.5v37l53 3q8 1 14 8.5t6 18.5q0 13 -6 28l-45 114h-251zM242 262h204l-104 254zM430 905l123 -175h-57l-112 98l-113 -98h-55l121 175h93z" />
    <glyph glyph-name="Atilde" unicode="&#xc3;" horiz-adv-x="778" 
d="M218 206l-42 -112q-5 -13 -5 -25q0 -13 8 -22t21 -10l50 -3v-37q-20 1 -35 1t-22 1q-21 1 -35 1h-21h-21t-35 -1q-6 -1 -21.5 -1t-35.5 -1v37l30 3q31 3 56 60l181 438q8 18 29 76q3 8 10 27.5t18 47.5h71l259 -605q10 -22 22 -31.5t33 -12.5l24 -3v-37q-55 1 -85 1.5
t-45 1t-19.5 0.5h-8.5h-9.5t-18.5 -0.5t-43 -1t-81 -1.5v37l53 3q8 1 14 8.5t6 18.5q0 13 -6 28l-45 114h-251zM242 262h204l-104 254zM572 885q-18 -66 -46 -96t-72 -30q-17 0 -35.5 5.5t-48.5 19.5q-28 14 -45.5 19t-31.5 5q-31 0 -46 -48h-40q6 56 38.5 90.5t77.5 34.5
q17 0 34 -5t46 -19t45 -19t30 -5q18 0 27.5 9.5t23.5 38.5h43z" />
    <glyph glyph-name="Adieresis" unicode="&#xc4;" horiz-adv-x="778" 
d="M218 206l-42 -112q-5 -13 -5 -25q0 -13 8 -22t21 -10l50 -3v-37q-20 1 -35 1t-22 1q-21 1 -35 1h-21h-21t-35 -1q-6 -1 -21.5 -1t-35.5 -1v37l30 3q31 3 56 60l181 438q8 18 29 76q3 8 10 27.5t18 47.5h71l259 -605q10 -22 22 -31.5t33 -12.5l24 -3v-37q-55 1 -85 1.5
t-45 1t-19.5 0.5h-8.5h-9.5t-18.5 -0.5t-43 -1t-81 -1.5v37l53 3q8 1 14 8.5t6 18.5q0 13 -6 28l-45 114h-251zM242 262h204l-104 254zM498 895q27 0 46.5 -20t19.5 -47q0 -28 -19.5 -47.5t-47.5 -19.5t-47.5 19.5t-19.5 48.5q0 27 19.5 46.5t48.5 19.5zM283 895
q27 0 46.5 -20t19.5 -47q0 -28 -19.5 -47.5t-47.5 -19.5t-47.5 19.5t-19.5 47.5t19.5 47.5t48.5 19.5z" />
    <glyph glyph-name="Aring" unicode="&#xc5;" horiz-adv-x="778" 
d="M218 206l-42 -112q-5 -13 -5 -25q0 -13 8 -22t21 -10l50 -3v-37q-20 1 -35 1t-22 1q-21 1 -35 1h-21h-21t-35 -1q-6 -1 -21.5 -1t-35.5 -1v37l30 3q31 3 56 60l181 438q8 18 29 76q3 8 10 27.5t18 47.5h71l259 -605q10 -22 22 -31.5t33 -12.5l24 -3v-37q-55 1 -85 1.5
t-45 1t-19.5 0.5h-8.5h-9.5t-18.5 -0.5t-43 -1t-81 -1.5v37l53 3q8 1 14 8.5t6 18.5q0 13 -6 28l-45 114h-251zM242 262h204l-104 254zM387 934q20 0 37.5 -8t31 -21.5t21.5 -32t8 -38.5q0 -42 -29 -71t-71 -29q-21 0 -39 8t-31.5 21.5t-21.5 32t-8 39.5t8 39t21.5 31.5
t32.5 21t40 7.5zM386 884q-22 0 -36.5 -14.5t-14.5 -35.5t14.5 -35.5t35.5 -14.5t35.5 14.5t14.5 35.5q0 20 -14.5 35t-34.5 15z" />
    <glyph glyph-name="AE" unicode="&#xc6;" horiz-adv-x="1000" 
d="M481 38q11 6 15.5 19t4.5 38v119h-260l-62 -107q-11 -20 -15 -30.5t-4 -24.5q10 -15 24 -15l54 -3v-37q-50 2 -77 2.5t-41 0.5h-13.5t-15.5 -0.5t-28 -1t-51 -1.5v37l38 3q11 2 23 14.5t31 42.5l290 490q17 28 17 40q0 6 -12 11t-31 6l-52 3v37q183 -3 262 -3h38.5h28
t30 0.5t45.5 1.5q35 1 55 1t28 1h39h26.5t22 -0.5t21.5 -1.5t25 -2l6 -7l-14 -142h-36l-8 75q-1 8 -29 14t-69 6h-38t-34 -0.5t-34.5 -1.5t-38.5 -2v-240q15 -2 28.5 -2h38.5h66q32 0 43.5 4.5t13.5 16.5l6 57h40q-1 -36 -1.5 -55.5t-1 -29.5t-0.5 -14v-8l3 -108h-40l-6 50
q-2 20 -15 28.5t-42 8.5h-66q-17 0 -31.5 -0.5t-35.5 -2.5v-267q38 -2 69 -2.5t62 -0.5q42 0 67.5 3t48.5 11q3 1 3 3l23 94h39l-11 -158l-5 -8q-22 -1 -39.5 -2t-33.5 -1.5t-32.5 -0.5h-35.5q-35 0 -74 0.5t-87 2.5q-26 1 -38.5 1h-26.5h-19t-23.5 -0.5t-33 -1t-46.5 -1.5
v23zM501 267v339l-7 17h-7l-216 -356h230z" />
    <glyph glyph-name="Ccedilla" unicode="&#xc7;" horiz-adv-x="722" 
d="M373 -71q15 4 25 5t21 1q35 0 55.5 -19.5t20.5 -53.5q0 -38 -31 -60q-16 -11 -45 -19t-57 -8q-42 0 -94 18l16 37q26 -5 39.5 -7t27.5 -2q50 0 50 37q0 35 -38 35q-7 0 -14 -1t-22 -3l-10 8l41 93q-48 8 -82.5 19.5t-65.5 28.5q-80 46 -123 126t-43 183q0 80 28.5 144.5
t82 109.5t129.5 69.5t171 24.5q33 0 60.5 -2.5t55 -7.5t56 -14.5t62.5 -22.5l6 -11q-3 -14 -5.5 -26.5t-5 -28.5t-5.5 -39t-7 -59h-39l-5 86q-20 19 -40 32t-41 21t-45 12t-52 4q-60 0 -107.5 -19.5t-80.5 -55.5t-50.5 -87.5t-17.5 -115.5q0 -71 21 -128.5t59 -98.5
t91.5 -63.5t119.5 -22.5q97 0 195 51l12 -12l-22 -49q-27 -15 -53 -25.5t-52.5 -17t-55.5 -9.5t-63 -3h-23.5t-25.5 2z" />
    <glyph glyph-name="Egrave" unicode="&#xc8;" horiz-adv-x="611" 
d="M265 380q15 -2 28.5 -2h38.5h66q32 0 43.5 4.5t13.5 16.5l6 57h40q-1 -36 -1.5 -55.5t-1 -29.5t-0.5 -14v-8l3 -108h-40l-6 50q-2 20 -15 28.5t-42 8.5h-66q-17 0 -31.5 -0.5t-35.5 -2.5v-267q38 -2 69 -2.5t62 -0.5q42 0 67.5 3t48.5 11q3 1 3 3l23 94h39l-11 -158
l-5 -8q-22 -1 -39.5 -2t-33.5 -1.5t-32.5 -0.5h-35.5h-37.5t-40 0.5t-49 1.5t-65.5 2h-34h-15t-17.5 -0.5t-32 -1t-57.5 -1.5v23l32 18q11 6 15.5 18.5t4.5 38.5v448q0 33 -1 52t-6 28.5t-14.5 12.5t-26.5 5l-37 3v37q41 -1 70.5 -1.5t51.5 -1t37.5 -0.5h28.5h22.5h26
t34.5 0.5t47 1.5q42 1 66.5 1.5t41.5 0.5h26.5t22 -0.5t21.5 -1.5t25 -2l6 -7l-14 -142h-36l-8 75q-1 8 -29 14t-69 6h-38t-34 -0.5t-34.5 -1.5t-38.5 -2v-240zM211 811q-5 2 -11 7q-23 13 -31.5 24.5t-8.5 28.5q0 20 12 32t32 12q32 0 65 -37l129 -148h-56z" />
    <glyph glyph-name="Eacute" unicode="&#xc9;" horiz-adv-x="611" 
d="M265 380q15 -2 28.5 -2h38.5h66q32 0 43.5 4.5t13.5 16.5l6 57h40q-1 -36 -1.5 -55.5t-1 -29.5t-0.5 -14v-8l3 -108h-40l-6 50q-2 20 -15 28.5t-42 8.5h-66q-17 0 -31.5 -0.5t-35.5 -2.5v-267q38 -2 69 -2.5t62 -0.5q42 0 67.5 3t48.5 11q3 1 3 3l23 94h39l-11 -158
l-5 -8q-22 -1 -39.5 -2t-33.5 -1.5t-32.5 -0.5h-35.5h-37.5t-40 0.5t-49 1.5t-65.5 2h-34h-15t-17.5 -0.5t-32 -1t-57.5 -1.5v23l32 18q11 6 15.5 18.5t4.5 38.5v448q0 33 -1 52t-6 28.5t-14.5 12.5t-26.5 5l-37 3v37q41 -1 70.5 -1.5t51.5 -1t37.5 -0.5h28.5h22.5h26
t34.5 0.5t47 1.5q42 1 66.5 1.5t41.5 0.5h26.5t22 -0.5t21.5 -1.5t25 -2l6 -7l-14 -142h-36l-8 75q-1 8 -29 14t-69 6h-38t-34 -0.5t-34.5 -1.5t-38.5 -2v-240zM347 878q17 20 32 28.5t33 8.5q20 0 32 -12t12 -32q0 -17 -9 -29t-34 -26l-8 -5l-131 -81h-56z" />
    <glyph glyph-name="Ecircumflex" unicode="&#xca;" horiz-adv-x="611" 
d="M265 380q15 -2 28.5 -2h38.5h66q32 0 43.5 4.5t13.5 16.5l6 57h40q-1 -36 -1.5 -55.5t-1 -29.5t-0.5 -14v-8l3 -108h-40l-6 50q-2 20 -15 28.5t-42 8.5h-66q-17 0 -31.5 -0.5t-35.5 -2.5v-267q38 -2 69 -2.5t62 -0.5q42 0 67.5 3t48.5 11q3 1 3 3l23 94h39l-11 -158
l-5 -8q-22 -1 -39.5 -2t-33.5 -1.5t-32.5 -0.5h-35.5h-37.5t-40 0.5t-49 1.5t-65.5 2h-34h-15t-17.5 -0.5t-32 -1t-57.5 -1.5v23l32 18q11 6 15.5 18.5t4.5 38.5v448q0 33 -1 52t-6 28.5t-14.5 12.5t-26.5 5l-37 3v37q41 -1 70.5 -1.5t51.5 -1t37.5 -0.5h28.5h22.5h26
t34.5 0.5t47 1.5q42 1 66.5 1.5t41.5 0.5h26.5t22 -0.5t21.5 -1.5t25 -2l6 -7l-14 -142h-36l-8 75q-1 8 -29 14t-69 6h-38t-34 -0.5t-34.5 -1.5t-38.5 -2v-240zM362 905l123 -175h-57l-112 98l-113 -98h-55l121 175h93z" />
    <glyph glyph-name="Edieresis" unicode="&#xcb;" horiz-adv-x="611" 
d="M265 380q15 -2 28.5 -2h38.5h66q32 0 43.5 4.5t13.5 16.5l6 57h40q-1 -36 -1.5 -55.5t-1 -29.5t-0.5 -14v-8l3 -108h-40l-6 50q-2 20 -15 28.5t-42 8.5h-66q-17 0 -31.5 -0.5t-35.5 -2.5v-267q38 -2 69 -2.5t62 -0.5q42 0 67.5 3t48.5 11q3 1 3 3l23 94h39l-11 -158
l-5 -8q-22 -1 -39.5 -2t-33.5 -1.5t-32.5 -0.5h-35.5h-37.5t-40 0.5t-49 1.5t-65.5 2h-34h-15t-17.5 -0.5t-32 -1t-57.5 -1.5v23l32 18q11 6 15.5 18.5t4.5 38.5v448q0 33 -1 52t-6 28.5t-14.5 12.5t-26.5 5l-37 3v37q41 -1 70.5 -1.5t51.5 -1t37.5 -0.5h28.5h22.5h26
t34.5 0.5t47 1.5q42 1 66.5 1.5t41.5 0.5h26.5t22 -0.5t21.5 -1.5t25 -2l6 -7l-14 -142h-36l-8 75q-1 8 -29 14t-69 6h-38t-34 -0.5t-34.5 -1.5t-38.5 -2v-240zM414 895q27 0 46.5 -20t19.5 -47q0 -28 -19.5 -47.5t-47.5 -19.5t-47.5 19.5t-19.5 48.5q0 27 19.5 46.5
t48.5 19.5zM199 895q27 0 46.5 -20t19.5 -47q0 -28 -19.5 -47.5t-47.5 -19.5t-47.5 19.5t-19.5 47.5t19.5 47.5t48.5 19.5z" />
    <glyph glyph-name="Igrave" unicode="&#xcc;" horiz-adv-x="389" 
d="M265 135q0 -33 1 -51.5t5.5 -27.5t14 -12t27.5 -4l37 -3v-40q-45 1 -70.5 1.5t-40 1t-23.5 0.5h-22h-21.5t-23 -0.5t-40 -1t-70.5 -1.5v40l37 3q18 1 27.5 4t14 12t5.5 27.5t1 51.5v408q0 33 -1 51.5t-5.5 27.5t-14 11.5t-27.5 4.5l-37 3v40q45 -1 70 -1.5t39.5 -1
t23.5 -0.5h22h21.5t23.5 0.5t40 1t71 1.5v-40l-37 -3q-18 -2 -27.5 -4.5t-14 -11.5t-5.5 -27.5t-1 -51.5v-408zM90 811q-5 2 -11 7q-23 13 -31.5 24.5t-8.5 28.5q0 20 12 32t32 12q32 0 65 -37l129 -148h-56z" />
    <glyph glyph-name="Iacute" unicode="&#xcd;" horiz-adv-x="389" 
d="M265 135q0 -33 1 -51.5t5.5 -27.5t14 -12t27.5 -4l37 -3v-40q-45 1 -70.5 1.5t-40 1t-23.5 0.5h-22h-21.5t-23 -0.5t-40 -1t-70.5 -1.5v40l37 3q18 1 27.5 4t14 12t5.5 27.5t1 51.5v408q0 33 -1 51.5t-5.5 27.5t-14 11.5t-27.5 4.5l-37 3v40q45 -1 70 -1.5t39.5 -1
t23.5 -0.5h22h21.5t23.5 0.5t40 1t71 1.5v-40l-37 -3q-18 -2 -27.5 -4.5t-14 -11.5t-5.5 -27.5t-1 -51.5v-408zM235 878q17 20 32 28.5t33 8.5q20 0 32 -12t12 -32q0 -17 -9 -29t-34 -26l-8 -5l-131 -81h-56z" />
    <glyph glyph-name="Icircumflex" unicode="&#xce;" horiz-adv-x="389" 
d="M265 135q0 -33 1 -51.5t5.5 -27.5t14 -12t27.5 -4l37 -3v-40q-45 1 -70.5 1.5t-40 1t-23.5 0.5h-22h-21.5t-23 -0.5t-40 -1t-70.5 -1.5v40l37 3q18 1 27.5 4t14 12t5.5 27.5t1 51.5v408q0 33 -1 51.5t-5.5 27.5t-14 11.5t-27.5 4.5l-37 3v40q45 -1 70 -1.5t39.5 -1
t23.5 -0.5h22h21.5t23.5 0.5t40 1t71 1.5v-40l-37 -3q-18 -2 -27.5 -4.5t-14 -11.5t-5.5 -27.5t-1 -51.5v-408zM240 905l123 -175h-57l-112 98l-113 -98h-55l121 175h93z" />
    <glyph glyph-name="Idieresis" unicode="&#xcf;" horiz-adv-x="389" 
d="M265 135q0 -33 1 -51.5t5.5 -27.5t14 -12t27.5 -4l37 -3v-40q-45 1 -70.5 1.5t-40 1t-23.5 0.5h-22h-21.5t-23 -0.5t-40 -1t-70.5 -1.5v40l37 3q18 1 27.5 4t14 12t5.5 27.5t1 51.5v408q0 33 -1 51.5t-5.5 27.5t-14 11.5t-27.5 4.5l-37 3v40q45 -1 70 -1.5t39.5 -1
t23.5 -0.5h22h21.5t23.5 0.5t40 1t71 1.5v-40l-37 -3q-18 -2 -27.5 -4.5t-14 -11.5t-5.5 -27.5t-1 -51.5v-408zM303 895q27 0 46.5 -20t19.5 -47q0 -28 -19.5 -47.5t-47.5 -19.5t-47.5 19.5t-19.5 48.5q0 27 19.5 46.5t48.5 19.5zM88 895q27 0 46.5 -20t19.5 -47
q0 -28 -19.5 -47.5t-47.5 -19.5t-47.5 19.5t-19.5 48.5q0 27 19.5 46.5t48.5 19.5z" />
    <glyph glyph-name="Eth" unicode="&#xd0;" horiz-adv-x="833" 
d="M120 543q0 33 -1 52t-6 28.5t-14.5 12.5t-26.5 5l-37 3v37q56 -1 86.5 -1.5t45.5 -1t20 -0.5h10t239 3q51 0 91.5 -5t73.5 -15t59.5 -25.5t48.5 -37.5q38 -37 57.5 -93.5t19.5 -128.5q0 -162 -104 -263q-57 -56 -135 -86t-168 -30l-59 1q-9 0 -23 0.5l-28 1t-26.5 0.5
h-19.5h-13t-20.5 -0.5t-42.5 -1t-79 -1.5v23l32 18q11 6 15.5 19t4.5 38v243h-110v42h110v163zM412 380v-42h-151v-281q19 -3 34 -4t34 -1q85 0 140.5 17t93.5 54q73 73 73 225q0 146 -66 211q-37 36 -97.5 54t-148.5 18q-17 0 -31 -1t-32 -3v-247h151z" />
    <glyph glyph-name="Ntilde" unicode="&#xd1;" horiz-adv-x="833" 
d="M239 681q24 -32 40 -53.5t27.5 -36t19.5 -24.5t16 -19l312 -364v359q0 33 -1 52t-6 28.5t-14.5 12.5t-26.5 5l-37 3v37q33 -1 53.5 -1.5t33 -1t18.5 -0.5h10l114 3v-37l-37 -3q-17 -2 -26.5 -5t-14.5 -12.5t-6 -28.5t-1 -52v-454q0 -17 0.5 -38t2.5 -63l-7 -4l-82 13
q-27 30 -45.5 50.5t-32 36.5t-24 28t-20.5 24l-326 392v-393q0 -33 1 -52t6 -29t14.5 -13t26.5 -4l37 -3v-37q-36 2 -67.5 2.5t-46.5 0.5h-12.5t-16 -0.5t-30.5 -1t-56 -1.5v37l37 3q17 1 26.5 4.5t14.5 13t6 28.5t1 52v408q0 33 -1 52t-6 28.5t-14.5 12.5t-26.5 5l-37 3v37
q85 -3 99 -3h21zM600 885q-18 -66 -46 -96t-72 -30q-17 0 -35.5 5.5t-48.5 19.5q-28 14 -45.5 19t-31.5 5q-31 0 -46 -48h-40q6 56 38.5 90.5t77.5 34.5q17 0 34 -5t46 -19t45 -19t30 -5q18 0 27.5 9.5t23.5 38.5h43z" />
    <glyph glyph-name="Ograve" unicode="&#xd2;" horiz-adv-x="833" 
d="M430 695q85 0 151 -23.5t112 -68.5t70 -110t24 -147q0 -86 -26 -153t-74.5 -114t-119 -71.5t-160.5 -24.5q-173 0 -266.5 90.5t-93.5 258.5q0 86 26 153.5t75 114t120 71t162 24.5zM421 639q-96 0 -154 -57q-34 -34 -52 -92t-18 -135q0 -87 22 -155.5t63 -108.5
q27 -27 58.5 -39.5t73.5 -12.5q110 0 166.5 72t56.5 214q0 85 -22 153.5t-64 109.5q-53 51 -130 51zM311 811q-5 2 -11 7q-23 13 -31.5 24.5t-8.5 28.5q0 20 12 32t32 12q32 0 65 -37l129 -148h-56z" />
    <glyph glyph-name="Oacute" unicode="&#xd3;" horiz-adv-x="833" 
d="M430 695q85 0 151 -23.5t112 -68.5t70 -110t24 -147q0 -86 -26 -153t-74.5 -114t-119 -71.5t-160.5 -24.5q-173 0 -266.5 90.5t-93.5 258.5q0 86 26 153.5t75 114t120 71t162 24.5zM421 639q-96 0 -154 -57q-34 -34 -52 -92t-18 -135q0 -87 22 -155.5t63 -108.5
q27 -27 58.5 -39.5t73.5 -12.5q110 0 166.5 72t56.5 214q0 85 -22 153.5t-64 109.5q-53 51 -130 51zM458 878q17 20 32 28.5t33 8.5q20 0 32 -12t12 -32q0 -17 -9 -29t-34 -26l-8 -5l-131 -81h-56z" />
    <glyph glyph-name="Ocircumflex" unicode="&#xd4;" horiz-adv-x="833" 
d="M430 695q85 0 151 -23.5t112 -68.5t70 -110t24 -147q0 -86 -26 -153t-74.5 -114t-119 -71.5t-160.5 -24.5q-173 0 -266.5 90.5t-93.5 258.5q0 86 26 153.5t75 114t120 71t162 24.5zM421 639q-96 0 -154 -57q-34 -34 -52 -92t-18 -135q0 -87 22 -155.5t63 -108.5
q27 -27 58.5 -39.5t73.5 -12.5q110 0 166.5 72t56.5 214q0 85 -22 153.5t-64 109.5q-53 51 -130 51zM451 905l123 -175h-57l-112 98l-113 -98h-55l121 175h93z" />
    <glyph glyph-name="Otilde" unicode="&#xd5;" horiz-adv-x="833" 
d="M430 695q85 0 151 -23.5t112 -68.5t70 -110t24 -147q0 -86 -26 -153t-74.5 -114t-119 -71.5t-160.5 -24.5q-173 0 -266.5 90.5t-93.5 258.5q0 86 26 153.5t75 114t120 71t162 24.5zM421 639q-96 0 -154 -57q-34 -34 -52 -92t-18 -135q0 -87 22 -155.5t63 -108.5
q27 -27 58.5 -39.5t73.5 -12.5q110 0 166.5 72t56.5 214q0 85 -22 153.5t-64 109.5q-53 51 -130 51zM600 885q-18 -66 -46 -96t-72 -30q-17 0 -35.5 5.5t-48.5 19.5q-28 14 -45.5 19t-31.5 5q-31 0 -46 -48h-40q6 56 38.5 90.5t77.5 34.5q17 0 34 -5t46 -19t45 -19t30 -5
q18 0 27.5 9.5t23.5 38.5h43z" />
    <glyph glyph-name="Odieresis" unicode="&#xd6;" horiz-adv-x="833" 
d="M430 695q85 0 151 -23.5t112 -68.5t70 -110t24 -147q0 -86 -26 -153t-74.5 -114t-119 -71.5t-160.5 -24.5q-173 0 -266.5 90.5t-93.5 258.5q0 86 26 153.5t75 114t120 71t162 24.5zM421 639q-96 0 -154 -57q-34 -34 -52 -92t-18 -135q0 -87 22 -155.5t63 -108.5
q27 -27 58.5 -39.5t73.5 -12.5q110 0 166.5 72t56.5 214q0 85 -22 153.5t-64 109.5q-53 51 -130 51zM522 895q27 0 46.5 -20t19.5 -47q0 -28 -19.5 -47.5t-47.5 -19.5t-47.5 19.5t-19.5 48.5q0 27 19.5 46.5t48.5 19.5zM307 895q27 0 46.5 -20t19.5 -47q0 -28 -19.5 -47.5
t-47.5 -19.5t-47.5 19.5t-19.5 47.5t19.5 47.5t48.5 19.5z" />
    <glyph glyph-name="multiply" unicode="&#xd7;" horiz-adv-x="606" 
d="M241 253l-168 169l61 61l168 -169l169 169l61 -61l-169 -169l171 -171l-61 -61l-171 171l-169 -171l-61 61l169 171v0z" />
    <glyph glyph-name="Oslash" unicode="&#xd8;" horiz-adv-x="833" 
d="M70 -20l-38 40l91 83q-21 25 -35.5 49t-23.5 50.5t-13 56.5t-4 67q0 88 25.5 156.5t74 116t119.5 72t162 24.5q71 0 136 -18q18 -5 32.5 -10.5t28 -12t27 -15.5t30.5 -22l89 81l37 -39l-89 -82q19 -27 32 -52.5t21 -51.5t11.5 -55t3.5 -65q0 -178 -99 -274t-283 -96
q-77 0 -146 21q-17 5 -29.5 10.5t-23.5 12t-22 15t-24 20.5zM592 534q-33 58 -71.5 81.5t-96.5 23.5q-227 0 -227 -290q0 -51 6 -88.5t19 -68.5zM242 138q19 -27 37.5 -46t38.5 -31t42.5 -17t49.5 -5q115 0 171 72.5t56 221.5q0 49 -5.5 84.5t-16.5 63.5z" />
    <glyph glyph-name="Ugrave" unicode="&#xd9;" horiz-adv-x="778" 
d="M675 251q0 -137 -70 -202.5t-214 -65.5q-65 0 -116.5 13.5t-88 39t-56 61t-19.5 80.5v366q0 33 -1 52t-6 28.5t-14.5 12.5t-26.5 5l-37 3v37q45 -1 70 -1.5t39.5 -1t23.5 -0.5h22h21.5t23.5 0.5t40 1t71 1.5v-37l-37 -3q-17 -2 -26.5 -5t-14.5 -12.5t-6 -28.5t-1 -52
v-248q0 -38 2 -66.5t6 -50t10.5 -37t16.5 -27.5q40 -49 141 -49q99 0 141 43q13 13 22 30t14.5 40.5t8 53.5t2.5 70v241q0 33 -1 52t-6 28.5t-14.5 12.5t-26.5 5l-37 3v37q33 -1 53.5 -1.5t33 -1t18.5 -0.5h10l114 3v-37l-37 -3q-17 -2 -26.5 -5t-14.5 -12.5t-6 -28.5
t-1 -52v-292zM315 811q-5 2 -11 7q-23 13 -31.5 24.5t-8.5 28.5q0 20 12 32t32 12q32 0 65 -37l129 -148h-56z" />
    <glyph glyph-name="Uacute" unicode="&#xda;" horiz-adv-x="778" 
d="M675 251q0 -137 -70 -202.5t-214 -65.5q-65 0 -116.5 13.5t-88 39t-56 61t-19.5 80.5v366q0 33 -1 52t-6 28.5t-14.5 12.5t-26.5 5l-37 3v37q45 -1 70 -1.5t39.5 -1t23.5 -0.5h22h21.5t23.5 0.5t40 1t71 1.5v-37l-37 -3q-17 -2 -26.5 -5t-14.5 -12.5t-6 -28.5t-1 -52
v-248q0 -38 2 -66.5t6 -50t10.5 -37t16.5 -27.5q40 -49 141 -49q99 0 141 43q13 13 22 30t14.5 40.5t8 53.5t2.5 70v241q0 33 -1 52t-6 28.5t-14.5 12.5t-26.5 5l-37 3v37q33 -1 53.5 -1.5t33 -1t18.5 -0.5h10l114 3v-37l-37 -3q-17 -2 -26.5 -5t-14.5 -12.5t-6 -28.5
t-1 -52v-292zM456 878q17 20 32 28.5t33 8.5q20 0 32 -12t12 -32q0 -17 -9 -29t-34 -26l-8 -5l-131 -81h-56z" />
    <glyph glyph-name="Ucircumflex" unicode="&#xdb;" horiz-adv-x="778" 
d="M675 251q0 -137 -70 -202.5t-214 -65.5q-65 0 -116.5 13.5t-88 39t-56 61t-19.5 80.5v366q0 33 -1 52t-6 28.5t-14.5 12.5t-26.5 5l-37 3v37q45 -1 70 -1.5t39.5 -1t23.5 -0.5h22h21.5t23.5 0.5t40 1t71 1.5v-37l-37 -3q-17 -2 -26.5 -5t-14.5 -12.5t-6 -28.5t-1 -52
v-248q0 -38 2 -66.5t6 -50t10.5 -37t16.5 -27.5q40 -49 141 -49q99 0 141 43q13 13 22 30t14.5 40.5t8 53.5t2.5 70v241q0 33 -1 52t-6 28.5t-14.5 12.5t-26.5 5l-37 3v37q33 -1 53.5 -1.5t33 -1t18.5 -0.5h10l114 3v-37l-37 -3q-17 -2 -26.5 -5t-14.5 -12.5t-6 -28.5
t-1 -52v-292zM451 905l123 -175h-57l-112 98l-113 -98h-55l121 175h93z" />
    <glyph glyph-name="Udieresis" unicode="&#xdc;" horiz-adv-x="778" 
d="M675 251q0 -137 -70 -202.5t-214 -65.5q-65 0 -116.5 13.5t-88 39t-56 61t-19.5 80.5v366q0 33 -1 52t-6 28.5t-14.5 12.5t-26.5 5l-37 3v37q45 -1 70 -1.5t39.5 -1t23.5 -0.5h22h21.5t23.5 0.5t40 1t71 1.5v-37l-37 -3q-17 -2 -26.5 -5t-14.5 -12.5t-6 -28.5t-1 -52
v-248q0 -38 2 -66.5t6 -50t10.5 -37t16.5 -27.5q40 -49 141 -49q99 0 141 43q13 13 22 30t14.5 40.5t8 53.5t2.5 70v241q0 33 -1 52t-6 28.5t-14.5 12.5t-26.5 5l-37 3v37q33 -1 53.5 -1.5t33 -1t18.5 -0.5h10l114 3v-37l-37 -3q-17 -2 -26.5 -5t-14.5 -12.5t-6 -28.5
t-1 -52v-292zM521 895q27 0 46.5 -20t19.5 -47q0 -28 -19.5 -47.5t-47.5 -19.5t-47.5 19.5t-19.5 48.5q0 27 19.5 46.5t48.5 19.5zM306 895q27 0 46.5 -20t19.5 -47q0 -28 -19.5 -47.5t-47.5 -19.5t-47.5 19.5t-19.5 47.5t19.5 47.5t48.5 19.5z" />
    <glyph glyph-name="Yacute" unicode="&#xdd;" horiz-adv-x="667" 
d="M583 678h77v-19l-176 -261q-14 -20 -26.5 -44t-26.5 -56v-163q0 -33 1 -51.5t5.5 -27.5t14 -12t27.5 -4l37 -3v-40q-45 1 -70.5 1.5t-40 1t-23.5 0.5h-22h-21.5t-23 -0.5t-40 -1t-70.5 -1.5v40l37 3q18 1 27.5 4t14 12t5.5 27.5t1 51.5v139q-12 27 -22 46t-22 39
l-101 163q-22 32 -38 51.5t-30 30.5t-28.5 14.5t-33.5 3.5v37l159 36q17 -10 31.5 -22t27.5 -27.5t26.5 -37t28.5 -49.5l107 -203zM417 878q17 20 32 28.5t33 8.5q20 0 32 -12t12 -32q0 -17 -9 -29t-34 -26l-8 -5l-131 -81h-56z" />
    <glyph glyph-name="Thorn" unicode="&#xde;" horiz-adv-x="611" 
d="M265 135q0 -34 1 -53t5.5 -28t14 -11t27.5 -3l47 -3v-40q-50 1 -78 1.5t-43.5 1t-23.5 0.5h-20h-22t-23.5 -0.5t-40 -1t-70.5 -1.5v40l37 3q18 1 27.5 4t14 12t5.5 27.5t1 51.5v408q0 33 -1 52t-6 28.5t-14.5 12.5t-26.5 5l-37 3v37q45 -1 70 -1.5t39.5 -1t23.5 -0.5h22
h21.5t23.5 0.5t40 1t71 1.5v-37l-37 -3q-16 -2 -25 -4.5t-14 -9.5t-7 -20t-2 -35v-8v-15q15 -2 26 -2.5t23 -0.5h12h11q64 0 103.5 -5.5t65.5 -19.5q68 -34 68 -125q0 -44 -16 -83t-43 -67.5t-64 -45t-79 -16.5q-19 0 -47 5q-4 0 -6 1l-8 1l-17 35l10 10q21 -7 50 -7
q76 0 76 123q0 39 -7 70t-21 48q-11 14 -26 20t-41 6q-48 0 -70 -9v-352z" />
    <glyph glyph-name="germandbls" unicode="&#xdf;" horiz-adv-x="611" 
d="M34 368v23l69 45v73q0 28 16.5 54.5t54.5 61.5q57 51 102 73t95 22q69 0 109.5 -38.5t40.5 -104.5q0 -13 -1 -25.5t-3.5 -28.5t-7.5 -38t-12 -54l-6 -26l-13 -9q-25 19 -54 19q-23 0 -36 -10.5t-13 -28.5t11.5 -31.5t40.5 -28.5q3 -2 5 -3l79 -46q29 -17 41.5 -39.5
t12.5 -60.5q0 -32 -11.5 -56t-40.5 -51l-45 -42q-11 -11 -15.5 -14t-12.5 -6q-17 -6 -39 -10.5t-39 -4.5q-33 0 -73 21v-7q-36 1 -55.5 1.5t-30.5 1t-17.5 0.5h-15.5h-13t-19 -0.5t-38 -1t-70 -1.5v37l39 2q12 1 19 3.5t10.5 9t5 19t1.5 32.5v268h-71zM334 64q20 -14 34 -19
t30 -5q29 0 48 17t19 43q0 12 -3.5 22.5t-13 20.5t-25.5 21.5t-41 26.5q-28 17 -46.5 31t-29 27t-14.5 27.5t-4 33.5q0 74 92 138q15 11 28 14.5t33 3.5q5 29 6 42t1 24q0 54 -31 87.5t-81 33.5q-29 0 -54.5 -12.5t-37.5 -34.5q-17 -27 -17 -113v-394q0 -35 6 -47.5
t26 -14.5l29 -3l9 78l33 6z" />
    <glyph glyph-name="agrave" unicode="&#xe0;" 
d="M206 -5q-15 -12 -49 -12q-57 0 -87 31.5t-30 92.5q0 32 9 55.5t29 41.5t53 30.5t80 22.5l88 18q-2 62 -26.5 90t-75.5 28q-20 0 -38 -4.5t-20 -9.5l-22 -50l-30 7v69l53 32q55 34 120 34q76 0 118.5 -37.5t42.5 -104.5v-12t-1 -17q-1 -29 -1.5 -53t-0.5 -44
q0 -18 0.5 -39t1.5 -45v-21q1 -35 6 -46.5t22 -14.5l30 -3v-37q-45 2 -62 2.5t-26 0.5t-27 -1t-64 -2l-5 8l5 62zM299 233l-45 -12q-27 -7 -44.5 -15t-28 -18t-15 -23.5t-4.5 -31.5q0 -29 13.5 -46t37.5 -17q23 0 47.5 12.5t38.5 32.5v118zM152 587q-5 2 -11 7
q-23 13 -31.5 24.5t-8.5 28.5q0 20 12 32t32 12q32 0 65 -37l129 -148h-56z" />
    <glyph glyph-name="aacute" unicode="&#xe1;" 
d="M206 -5q-15 -12 -49 -12q-57 0 -87 31.5t-30 92.5q0 32 9 55.5t29 41.5t53 30.5t80 22.5l88 18q-2 62 -26.5 90t-75.5 28q-20 0 -38 -4.5t-20 -9.5l-22 -50l-30 7v69l53 32q55 34 120 34q76 0 118.5 -37.5t42.5 -104.5v-12t-1 -17q-1 -29 -1.5 -53t-0.5 -44
q0 -18 0.5 -39t1.5 -45v-21q1 -35 6 -46.5t22 -14.5l30 -3v-37q-45 2 -62 2.5t-26 0.5t-27 -1t-64 -2l-5 8l5 62zM299 233l-45 -12q-27 -7 -44.5 -15t-28 -18t-15 -23.5t-4.5 -31.5q0 -29 13.5 -46t37.5 -17q23 0 47.5 12.5t38.5 32.5v118zM291 654q17 20 32 28.5t33 8.5
q20 0 32 -12t12 -32q0 -17 -9 -29t-34 -26l-8 -5l-131 -81h-56z" />
    <glyph glyph-name="acircumflex" unicode="&#xe2;" 
d="M206 -5q-15 -12 -49 -12q-57 0 -87 31.5t-30 92.5q0 32 9 55.5t29 41.5t53 30.5t80 22.5l88 18q-2 62 -26.5 90t-75.5 28q-20 0 -38 -4.5t-20 -9.5l-22 -50l-30 7v69l53 32q55 34 120 34q76 0 118.5 -37.5t42.5 -104.5v-12t-1 -17q-1 -29 -1.5 -53t-0.5 -44
q0 -18 0.5 -39t1.5 -45v-21q1 -35 6 -46.5t22 -14.5l30 -3v-37q-45 2 -62 2.5t-26 0.5t-27 -1t-64 -2l-5 8l5 62zM299 233l-45 -12q-27 -7 -44.5 -15t-28 -18t-15 -23.5t-4.5 -31.5q0 -29 13.5 -46t37.5 -17q23 0 47.5 12.5t38.5 32.5v118zM296 681l123 -175h-57l-112 98
l-113 -98h-55l121 175h93z" />
    <glyph glyph-name="atilde" unicode="&#xe3;" 
d="M206 -5q-15 -12 -49 -12q-57 0 -87 31.5t-30 92.5q0 32 9 55.5t29 41.5t53 30.5t80 22.5l88 18q-2 62 -26.5 90t-75.5 28q-20 0 -38 -4.5t-20 -9.5l-22 -50l-30 7v69l53 32q55 34 120 34q76 0 118.5 -37.5t42.5 -104.5v-12t-1 -17q-1 -29 -1.5 -53t-0.5 -44
q0 -18 0.5 -39t1.5 -45v-21q1 -35 6 -46.5t22 -14.5l30 -3v-37q-45 2 -62 2.5t-26 0.5t-27 -1t-64 -2l-5 8l5 62zM299 233l-45 -12q-27 -7 -44.5 -15t-28 -18t-15 -23.5t-4.5 -31.5q0 -29 13.5 -46t37.5 -17q23 0 47.5 12.5t38.5 32.5v118zM433 661q-18 -66 -46 -96t-72 -30
q-17 0 -35.5 5.5t-48.5 19.5q-28 14 -45.5 19t-31.5 5q-31 0 -46 -48h-40q6 56 38.5 90.5t77.5 34.5q17 0 34 -5t46 -19t45 -19t30 -5q18 0 27.5 9.5t23.5 38.5h43z" />
    <glyph glyph-name="adieresis" unicode="&#xe4;" 
d="M206 -5q-15 -12 -49 -12q-57 0 -87 31.5t-30 92.5q0 32 9 55.5t29 41.5t53 30.5t80 22.5l88 18q-2 62 -26.5 90t-75.5 28q-20 0 -38 -4.5t-20 -9.5l-22 -50l-30 7v69l53 32q55 34 120 34q76 0 118.5 -37.5t42.5 -104.5v-12t-1 -17q-1 -29 -1.5 -53t-0.5 -44
q0 -18 0.5 -39t1.5 -45v-21q1 -35 6 -46.5t22 -14.5l30 -3v-37q-45 2 -62 2.5t-26 0.5t-27 -1t-64 -2l-5 8l5 62zM299 233l-45 -12q-27 -7 -44.5 -15t-28 -18t-15 -23.5t-4.5 -31.5q0 -29 13.5 -46t37.5 -17q23 0 47.5 12.5t38.5 32.5v118zM358 671q27 0 46.5 -20t19.5 -47
q0 -28 -19.5 -47.5t-47.5 -19.5t-47.5 19.5t-19.5 48.5q0 27 19.5 46.5t48.5 19.5zM143 671q27 0 46.5 -20t19.5 -47q0 -28 -19.5 -47.5t-47.5 -19.5t-47.5 19.5t-19.5 47.5t19.5 47.5t48.5 19.5z" />
    <glyph glyph-name="aring" unicode="&#xe5;" 
d="M206 -5q-15 -12 -49 -12q-57 0 -87 31.5t-30 92.5q0 32 9 55.5t29 41.5t53 30.5t80 22.5l88 18q-2 62 -26.5 90t-75.5 28q-20 0 -38 -4.5t-20 -9.5l-22 -50l-30 7v69l53 32q55 34 120 34q76 0 118.5 -37.5t42.5 -104.5v-12t-1 -17q-1 -29 -1.5 -53t-0.5 -44
q0 -18 0.5 -39t1.5 -45v-21q1 -35 6 -46.5t22 -14.5l30 -3v-37q-45 2 -62 2.5t-26 0.5t-27 -1t-64 -2l-5 8l5 62zM299 233l-45 -12q-27 -7 -44.5 -15t-28 -18t-15 -23.5t-4.5 -31.5q0 -29 13.5 -46t37.5 -17q23 0 47.5 12.5t38.5 32.5v118zM256 700q20 0 37.5 -8t31 -21.5
t21.5 -32t8 -38.5q0 -42 -29 -71t-71 -29q-21 0 -39 8t-31.5 21.5t-21.5 32t-8 39.5t8 39t21.5 31.5t32.5 21t40 7.5zM255 650q-22 0 -36.5 -14.5t-14.5 -35.5t14.5 -35.5t35.5 -14.5t35.5 14.5t14.5 35.5q0 20 -14.5 35t-34.5 15z" />
    <glyph glyph-name="ae" unicode="&#xe6;" horiz-adv-x="778" 
d="M731 243q-42 -11 -78.5 -15.5t-79.5 -4.5h-131q2 -35 7 -56t17 -42q19 -32 53 -51.5t72 -19.5q31 0 57 7.5t61 27.5l12 -15l-22 -48q-24 -12 -43.5 -20.5t-38 -13.5t-37.5 -7t-41 -2q-68 0 -114 22t-81 73l-114 -82q-7 -5 -26.5 -9t-36.5 -4q-26 0 -48.5 9t-38.5 25.5
t-25 39.5t-9 50t7.5 50.5t21.5 39.5q16 17 56 32.5t100 27.5l88 18q-2 33 -6.5 51t-15.5 35q-28 39 -85 39q-20 0 -36 -5t-36 -19l-16 -42l-32 4v67l53 32q56 34 122 34q46 0 76 -11.5t62 -40.5q34 28 67 40t75 12q41 0 75 -12.5t58 -35.5t37.5 -55.5t13.5 -72.5v-52z
M604 276q-2 75 -21 107t-62 32q-44 0 -63.5 -32t-21.5 -107l32 -1q11 -1 27 -1.5t21 -0.5h4zM319 229l-55 -13q-48 -11 -70 -32t-22 -56q0 -58 58 -58q25 0 49.5 12.5t39.5 32.5v114z" />
    <glyph glyph-name="ccedilla" unicode="&#xe7;" horiz-adv-x="444" 
d="M234 -71q14 4 24 5t21 1q35 0 56 -19.5t21 -53.5q0 -40 -36 -63.5t-97 -23.5q-22 0 -44.5 4.5t-49.5 13.5l16 37q26 -5 39.5 -7t27.5 -2q50 0 50 37q0 35 -38 35q-6 0 -13 -1t-23 -3l-10 8l40 89q-90 12 -135.5 73.5t-45.5 169.5q0 33 6.5 59t20.5 48.5t37.5 42.5
t56.5 40l52 31q18 11 39.5 16t50.5 5q13 0 24.5 -1t23 -3t25 -6t30.5 -10l7 -13q-7 -33 -11 -63t-9 -78h-36l-7 60q-1 9 -8.5 16.5t-19.5 13.5t-27.5 9.5t-32.5 3.5q-48 0 -73 -35.5t-25 -104.5q0 -96 42.5 -151t116.5 -55q22 0 40.5 4t44.5 15l9 -10l-21 -46
q-62 -34 -135 -34z" />
    <glyph glyph-name="egrave" unicode="&#xe8;" 
d="M461 243q-42 -11 -78.5 -15.5t-79.5 -4.5h-131q2 -35 7 -56t17 -42q19 -32 53 -51.5t73 -19.5q30 0 56 7.5t61 27.5l12 -15l-22 -48q-24 -12 -43.5 -20.5t-38 -13.5t-37 -7t-39.5 -2q-112 0 -170.5 61.5t-58.5 181.5q0 72 22.5 118.5t72.5 75.5l47 28q20 12 41 17.5
t47 5.5q86 0 137.5 -47.5t51.5 -128.5v-52zM334 276q-2 75 -21 107t-62 32q-44 0 -63.5 -32t-21.5 -107l32 -1q11 -1 27 -1.5t21 -0.5h4zM159 587q-5 2 -11 7q-23 13 -31.5 24.5t-8.5 28.5q0 20 12 32t32 12q32 0 65 -37l129 -148h-56z" />
    <glyph glyph-name="eacute" unicode="&#xe9;" 
d="M461 243q-42 -11 -78.5 -15.5t-79.5 -4.5h-131q2 -35 7 -56t17 -42q19 -32 53 -51.5t73 -19.5q30 0 56 7.5t61 27.5l12 -15l-22 -48q-24 -12 -43.5 -20.5t-38 -13.5t-37 -7t-39.5 -2q-112 0 -170.5 61.5t-58.5 181.5q0 72 22.5 118.5t72.5 75.5l47 28q20 12 41 17.5
t47 5.5q86 0 137.5 -47.5t51.5 -128.5v-52zM334 276q-2 75 -21 107t-62 32q-44 0 -63.5 -32t-21.5 -107l32 -1q11 -1 27 -1.5t21 -0.5h4zM296 654q17 20 32 28.5t33 8.5q20 0 32 -12t12 -32q0 -17 -9 -29t-34 -26l-8 -5l-131 -81h-56z" />
    <glyph glyph-name="ecircumflex" unicode="&#xea;" 
d="M461 243q-42 -11 -78.5 -15.5t-79.5 -4.5h-131q2 -35 7 -56t17 -42q19 -32 53 -51.5t73 -19.5q30 0 56 7.5t61 27.5l12 -15l-22 -48q-24 -12 -43.5 -20.5t-38 -13.5t-37 -7t-39.5 -2q-112 0 -170.5 61.5t-58.5 181.5q0 72 22.5 118.5t72.5 75.5l47 28q20 12 41 17.5
t47 5.5q86 0 137.5 -47.5t51.5 -128.5v-52zM334 276q-2 75 -21 107t-62 32q-44 0 -63.5 -32t-21.5 -107l32 -1q11 -1 27 -1.5t21 -0.5h4zM303 681l123 -175h-57l-112 98l-113 -98h-55l121 175h93z" />
    <glyph glyph-name="edieresis" unicode="&#xeb;" 
d="M461 243q-42 -11 -78.5 -15.5t-79.5 -4.5h-131q2 -35 7 -56t17 -42q19 -32 53 -51.5t73 -19.5q30 0 56 7.5t61 27.5l12 -15l-22 -48q-24 -12 -43.5 -20.5t-38 -13.5t-37 -7t-39.5 -2q-112 0 -170.5 61.5t-58.5 181.5q0 72 22.5 118.5t72.5 75.5l47 28q20 12 41 17.5
t47 5.5q86 0 137.5 -47.5t51.5 -128.5v-52zM334 276q-2 75 -21 107t-62 32q-44 0 -63.5 -32t-21.5 -107l32 -1q11 -1 27 -1.5t21 -0.5h4zM358 671q27 0 46.5 -20t19.5 -47q0 -28 -19.5 -47.5t-47.5 -19.5t-47.5 19.5t-19.5 48.5q0 27 19.5 46.5t48.5 19.5zM143 671
q27 0 46.5 -20t19.5 -47q0 -28 -19.5 -47.5t-47.5 -19.5t-47.5 19.5t-19.5 47.5t19.5 47.5t48.5 19.5z" />
    <glyph glyph-name="igrave" unicode="&#xec;" horiz-adv-x="333" 
d="M227 465v-365q0 -20 1.5 -32.5t5 -19t10.5 -9t19 -3.5l35 -2v-37q-51 2 -85.5 2.5t-49.5 0.5l-129 -3v37l35 2q12 1 19 3.5t10.5 9t5 19t1.5 32.5v219q0 22 -1 35.5t-3.5 21t-7.5 10t-14 3.5l-45 3v36q5 1 9 1.5t6 0.5q32 4 53 7.5t45 11.5l70 22zM69 587q-5 2 -11 7
q-23 13 -31.5 24.5t-8.5 28.5q0 20 12 32t32 12q32 0 65 -37l129 -148h-56z" />
    <glyph glyph-name="iacute" unicode="&#xed;" horiz-adv-x="333" 
d="M227 465v-365q0 -20 1.5 -32.5t5 -19t10.5 -9t19 -3.5l35 -2v-37q-51 2 -85.5 2.5t-49.5 0.5l-129 -3v37l35 2q12 1 19 3.5t10.5 9t5 19t1.5 32.5v219q0 22 -1 35.5t-3.5 21t-7.5 10t-14 3.5l-45 3v36q5 1 9 1.5t6 0.5q32 4 53 7.5t45 11.5l70 22zM207 654q17 20 32 28.5
t33 8.5q20 0 32 -12t12 -32q0 -17 -9 -29t-34 -26l-8 -5l-131 -81h-56z" />
    <glyph glyph-name="icircumflex" unicode="&#xee;" horiz-adv-x="333" 
d="M227 465v-365q0 -20 1.5 -32.5t5 -19t10.5 -9t19 -3.5l35 -2v-37q-51 2 -85.5 2.5t-49.5 0.5l-129 -3v37l35 2q12 1 19 3.5t10.5 9t5 19t1.5 32.5v219q0 22 -1 35.5t-3.5 21t-7.5 10t-14 3.5l-45 3v36q5 1 9 1.5t6 0.5q32 4 53 7.5t45 11.5l70 22zM212 681l123 -175h-57
l-112 98l-113 -98h-55l121 175h93z" />
    <glyph glyph-name="idieresis" unicode="&#xef;" horiz-adv-x="333" 
d="M227 465v-365q0 -20 1.5 -32.5t5 -19t10.5 -9t19 -3.5l35 -2v-37q-51 2 -85.5 2.5t-49.5 0.5l-129 -3v37l35 2q12 1 19 3.5t10.5 9t5 19t1.5 32.5v219q0 22 -1 35.5t-3.5 21t-7.5 10t-14 3.5l-45 3v36q5 1 9 1.5t6 0.5q32 4 53 7.5t45 11.5l70 22zM275 691q27 0 46.5 -20
t19.5 -47q0 -28 -19.5 -47.5t-47.5 -19.5t-47.5 19.5t-19.5 48.5q0 27 19.5 46.5t48.5 19.5zM60 691q27 0 46.5 -20t19.5 -47q0 -28 -19.5 -47.5t-47.5 -19.5t-47.5 19.5t-19.5 47.5t19.5 47.5t48.5 19.5z" />
    <glyph glyph-name="eth" unicode="&#xf0;" horiz-adv-x="556" 
d="M358 609q28 -28 48.5 -51.5t36 -46t27 -45.5t21.5 -51q26 -73 26 -146q0 -66 -17.5 -119t-50.5 -90t-80 -57t-106 -20q-106 0 -164.5 63t-58.5 178q0 116 62 181.5t173 65.5q15 0 27 -2t28 -7q-7 26 -21.5 51.5t-39.5 54.5l-133 -62l-18 38l121 56q-23 23 -46 39t-49 29
l40 52q25 -12 44.5 -22t35.5 -19.5t29.5 -19t28.5 -20.5l134 62l18 -38zM274 423q-52 0 -75 -41t-23 -135q0 -107 26.5 -161.5t79.5 -54.5q51 0 75 47t24 147q0 101 -26 149.5t-81 48.5z" />
    <glyph glyph-name="ntilde" unicode="&#xf1;" horiz-adv-x="611" 
d="M24 428q21 1 38 3t37 6.5t46.5 12.5t65.5 21l6 -6v-75l80 62q23 19 70 19q76 0 116 -42q20 -21 27.5 -53t7.5 -90v-186q0 -20 1.5 -32.5t5 -19t10.5 -9t19 -3.5l33 -2v-37q-33 1 -50.5 1.5t-27 1t-14 0.5h-9.5h-13t-17 -0.5t-24.5 -1t-35.5 -1.5v273q0 60 -22 87.5
t-72 27.5q-17 0 -32 -5.5t-27 -15t-19 -22t-7 -25.5v-217q0 -20 1.5 -32.5t5 -19t10.5 -9t19 -3.5l35 -2v-37q-51 2 -85.5 2.5t-49.5 0.5l-129 -3v37l35 2q12 1 19 3.5t10.5 9t5 19t1.5 32.5v219q0 22 -1 35.5t-3.5 21t-7.5 10t-14 3.5l-45 3v36zM488 661q-18 -66 -46 -96
t-72 -30q-17 0 -35.5 5.5t-48.5 19.5q-28 14 -45.5 19t-31.5 5q-31 0 -46 -48h-40q6 56 38.5 90.5t77.5 34.5q17 0 34 -5t46 -19t45 -19t30 -5q18 0 27.5 9.5t23.5 38.5h43z" />
    <glyph glyph-name="ograve" unicode="&#xf2;" horiz-adv-x="556" 
d="M287 471q112 0 171 -60t59 -175q0 -122 -64.5 -187.5t-185.5 -65.5q-109 0 -168 62.5t-59 178.5q0 120 63.5 183.5t183.5 63.5zM275 423q-52 0 -75.5 -42t-23.5 -133q0 -217 109 -217q51 0 73.5 41t22.5 133q0 218 -106 218zM180 587q-5 2 -11 7q-23 13 -31.5 24.5
t-8.5 28.5q0 20 12 32t32 12q32 0 65 -37l129 -148h-56z" />
    <glyph glyph-name="oacute" unicode="&#xf3;" horiz-adv-x="556" 
d="M287 471q112 0 171 -60t59 -175q0 -122 -64.5 -187.5t-185.5 -65.5q-109 0 -168 62.5t-59 178.5q0 120 63.5 183.5t183.5 63.5zM275 423q-52 0 -75.5 -42t-23.5 -133q0 -217 109 -217q51 0 73.5 41t22.5 133q0 218 -106 218zM319 654q17 20 32 28.5t33 8.5q20 0 32 -12
t12 -32q0 -17 -9 -29t-34 -26l-8 -5l-131 -81h-56z" />
    <glyph glyph-name="ocircumflex" unicode="&#xf4;" horiz-adv-x="556" 
d="M287 471q112 0 171 -60t59 -175q0 -122 -64.5 -187.5t-185.5 -65.5q-109 0 -168 62.5t-59 178.5q0 120 63.5 183.5t183.5 63.5zM275 423q-52 0 -75.5 -42t-23.5 -133q0 -217 109 -217q51 0 73.5 41t22.5 133q0 218 -106 218zM324 681l123 -175h-57l-112 98l-113 -98h-55
l121 175h93z" />
    <glyph glyph-name="otilde" unicode="&#xf5;" horiz-adv-x="556" 
d="M287 471q112 0 171 -60t59 -175q0 -122 -64.5 -187.5t-185.5 -65.5q-109 0 -168 62.5t-59 178.5q0 120 63.5 183.5t183.5 63.5zM275 423q-52 0 -75.5 -42t-23.5 -133q0 -217 109 -217q51 0 73.5 41t22.5 133q0 218 -106 218zM461 661q-18 -66 -46 -96t-72 -30
q-17 0 -35.5 5.5t-48.5 19.5q-28 14 -45.5 19t-31.5 5q-31 0 -46 -48h-40q6 56 38.5 90.5t77.5 34.5q17 0 34 -5t46 -19t45 -19t30 -5q18 0 27.5 9.5t23.5 38.5h43z" />
    <glyph glyph-name="odieresis" unicode="&#xf6;" horiz-adv-x="556" 
d="M287 471q112 0 171 -60t59 -175q0 -122 -64.5 -187.5t-185.5 -65.5q-109 0 -168 62.5t-59 178.5q0 120 63.5 183.5t183.5 63.5zM275 423q-52 0 -75.5 -42t-23.5 -133q0 -217 109 -217q51 0 73.5 41t22.5 133q0 218 -106 218zM386 671q27 0 46.5 -20t19.5 -47
q0 -28 -19.5 -47.5t-47.5 -19.5t-47.5 19.5t-19.5 48.5q0 27 19.5 46.5t48.5 19.5zM171 671q27 0 46.5 -20t19.5 -47q0 -28 -19.5 -47.5t-47.5 -19.5t-47.5 19.5t-19.5 47.5t19.5 47.5t48.5 19.5z" />
    <glyph glyph-name="divide" unicode="&#xf7;" horiz-adv-x="606" 
d="M51 298h504v-86h-504v86zM303 510q28 0 47.5 -19.5t19.5 -48.5q0 -27 -19.5 -46.5t-48.5 -19.5q-27 0 -46.5 20t-19.5 47q0 28 19.5 47.5t47.5 19.5zM303 134q28 0 47.5 -19.5t19.5 -48.5q0 -27 -19.5 -46.5t-48.5 -19.5q-27 0 -46.5 20t-19.5 47q0 28 19.5 47.5
t47.5 19.5z" />
    <glyph glyph-name="oslash" unicode="&#xf8;" horiz-adv-x="556" 
d="M534 446l-60 -56q24 -35 33.5 -67t9.5 -80q0 -127 -64 -193.5t-186 -66.5q-48 0 -84 12.5t-76 44.5l-61 -58l-23 23l63 59q-46 59 -46 160q0 120 63.5 183.5t182.5 63.5q56 0 95.5 -13.5t72.5 -43.5l56 54zM368 333q-15 49 -36 69.5t-56 20.5q-100 0 -100 -165
q0 -26 1.5 -47t6.5 -53zM190 119q18 -48 40 -68t56 -20q51 0 73 41t22 135q0 31 -1.5 49.5t-5.5 37.5z" />
    <glyph glyph-name="ugrave" unicode="&#xf9;" horiz-adv-x="611" 
d="M316 6q-11 -11 -29.5 -17t-40.5 -6q-72 0 -111 40.5t-39 116.5v179q0 22 -1 35.5t-3.5 21t-7.5 10t-14 3.5l-45 3v36l40 5t28 4.5t22.5 5t22.5 6.5l70 22l10 -6v-261q0 -72 17.5 -101.5t60.5 -29.5q40 0 68 26.5t28 63.5v156q0 22 -1 35.5t-3.5 21t-7.5 10t-14 3.5l-45 3
v36q23 3 39 5t28.5 4.5t23 5t22.5 6.5l70 22l10 -6v-365q0 -20 1.5 -32.5t5 -19t10.5 -9t19 -3.5l33 -2v-37q-16 1 -29 1h-18q-21 2 -34 2h-21h-7.5t-12.5 -0.5t-26 -1t-48 -1.5l5 83zM208 587q-5 2 -11 7q-23 13 -31.5 24.5t-8.5 28.5q0 20 12 32t32 12q32 0 65 -37
l129 -148h-56z" />
    <glyph glyph-name="uacute" unicode="&#xfa;" horiz-adv-x="611" 
d="M316 6q-11 -11 -29.5 -17t-40.5 -6q-72 0 -111 40.5t-39 116.5v179q0 22 -1 35.5t-3.5 21t-7.5 10t-14 3.5l-45 3v36l40 5t28 4.5t22.5 5t22.5 6.5l70 22l10 -6v-261q0 -72 17.5 -101.5t60.5 -29.5q40 0 68 26.5t28 63.5v156q0 22 -1 35.5t-3.5 21t-7.5 10t-14 3.5l-45 3
v36q23 3 39 5t28.5 4.5t23 5t22.5 6.5l70 22l10 -6v-365q0 -20 1.5 -32.5t5 -19t10.5 -9t19 -3.5l33 -2v-37q-16 1 -29 1h-18q-21 2 -34 2h-21h-7.5t-12.5 -0.5t-26 -1t-48 -1.5l5 83zM346 654q17 20 32 28.5t33 8.5q20 0 32 -12t12 -32q0 -17 -9 -29t-34 -26l-8 -5
l-131 -81h-56z" />
    <glyph glyph-name="ucircumflex" unicode="&#xfb;" horiz-adv-x="611" 
d="M316 6q-11 -11 -29.5 -17t-40.5 -6q-72 0 -111 40.5t-39 116.5v179q0 22 -1 35.5t-3.5 21t-7.5 10t-14 3.5l-45 3v36l40 5t28 4.5t22.5 5t22.5 6.5l70 22l10 -6v-261q0 -72 17.5 -101.5t60.5 -29.5q40 0 68 26.5t28 63.5v156q0 22 -1 35.5t-3.5 21t-7.5 10t-14 3.5l-45 3
v36q23 3 39 5t28.5 4.5t23 5t22.5 6.5l70 22l10 -6v-365q0 -20 1.5 -32.5t5 -19t10.5 -9t19 -3.5l33 -2v-37q-16 1 -29 1h-18q-21 2 -34 2h-21h-7.5t-12.5 -0.5t-26 -1t-48 -1.5l5 83zM335 681l123 -175h-57l-112 98l-113 -98h-55l121 175h93z" />
    <glyph glyph-name="udieresis" unicode="&#xfc;" horiz-adv-x="611" 
d="M316 6q-11 -11 -29.5 -17t-40.5 -6q-72 0 -111 40.5t-39 116.5v179q0 22 -1 35.5t-3.5 21t-7.5 10t-14 3.5l-45 3v36l40 5t28 4.5t22.5 5t22.5 6.5l70 22l10 -6v-261q0 -72 17.5 -101.5t60.5 -29.5q40 0 68 26.5t28 63.5v156q0 22 -1 35.5t-3.5 21t-7.5 10t-14 3.5l-45 3
v36q23 3 39 5t28.5 4.5t23 5t22.5 6.5l70 22l10 -6v-365q0 -20 1.5 -32.5t5 -19t10.5 -9t19 -3.5l33 -2v-37q-16 1 -29 1h-18q-21 2 -34 2h-21h-7.5t-12.5 -0.5t-26 -1t-48 -1.5l5 83zM402 671q27 0 46.5 -20t19.5 -47q0 -28 -19.5 -47.5t-47.5 -19.5t-47.5 19.5t-19.5 48.5
q0 27 19.5 46.5t48.5 19.5zM187 671q27 0 46.5 -20t19.5 -47q0 -28 -19.5 -47.5t-47.5 -19.5t-47.5 19.5t-19.5 47.5t19.5 47.5t48.5 19.5z" />
    <glyph glyph-name="yacute" unicode="&#xfd;" horiz-adv-x="556" 
d="M240 419q-11 -1 -18.5 -7t-7.5 -16q0 -8 2.5 -16t8.5 -22q2 -5 4 -9.5t2 -5.5l84 -218l101 252q2 4 3 10.5t1 11.5q0 8 -7.5 13.5t-19.5 6.5l-33 2v38q88 -3 93 -3l93 3v-38l-26 -5q-22 -5 -41 -47l-199 -463q-38 -89 -80.5 -130.5t-95.5 -41.5q-35 0 -73 17l18 95l11 4
q33 -37 70 -37q26 0 50.5 24t41.5 67l23 56l-158 404q-11 29 -21 41.5t-21 13.5l-35 2v38q39 -1 63 -1.5t38 -1t20.5 -0.5h11.5l132 3v-38zM359 654q17 20 32 28.5t33 8.5q20 0 32 -12t12 -32q0 -17 -9 -29t-34 -26l-8 -5l-131 -81h-56z" />
    <glyph glyph-name="thorn" unicode="&#xfe;" horiz-adv-x="611" 
d="M218 714v-331l61 49q26 21 50 30t53 9q39 0 72 -14t57.5 -39t38 -58.5t13.5 -73.5q0 -68 -26 -124t-76 -94q-4 -3 -6.5 -5t-10.5 -8q-26 -20 -45.5 -34t-35.5 -22.5t-29.5 -12t-26.5 -3.5q-9 0 -17 0.5t-18 2.5t-23 5.5t-31 8.5v-155q0 -20 1.5 -32.5t5 -19.5t10.5 -9.5
t19 -2.5l45 -2v-37q-49 1 -76 1.5t-40.5 1t-18.5 0.5h-10l-129 -3v37l35 2q12 1 19 3.5t10.5 9t5 19t1.5 32.5v723q0 22 -1 35.5t-4 21t-8 10.5t-13 3l-53 3v36q44 5 71.5 9.5t49.5 11.5l72 22zM218 106q39 -55 101 -55q55 0 86.5 46t31.5 124q0 75 -32.5 117.5t-90.5 42.5
q-63 0 -96 -50v-225z" />
    <glyph glyph-name="ydieresis" unicode="&#xff;" horiz-adv-x="556" 
d="M240 419q-11 -1 -18.5 -7t-7.5 -16q0 -8 2.5 -16t8.5 -22q2 -5 4 -9.5t2 -5.5l84 -218l101 252q2 4 3 10.5t1 11.5q0 8 -7.5 13.5t-19.5 6.5l-33 2v38q88 -3 93 -3l93 3v-38l-26 -5q-22 -5 -41 -47l-199 -463q-38 -89 -80.5 -130.5t-95.5 -41.5q-35 0 -73 17l18 95l11 4
q33 -37 70 -37q26 0 50.5 24t41.5 67l23 56l-158 404q-11 29 -21 41.5t-21 13.5l-35 2v38q39 -1 63 -1.5t38 -1t20.5 -0.5h11.5l132 3v-38zM402 671q27 0 46.5 -20t19.5 -47q0 -28 -19.5 -47.5t-47.5 -19.5t-47.5 19.5t-19.5 48.5q0 27 19.5 46.5t48.5 19.5zM187 671
q27 0 46.5 -20t19.5 -47q0 -28 -19.5 -47.5t-47.5 -19.5t-47.5 19.5t-19.5 47.5t19.5 47.5t48.5 19.5z" />
    <glyph glyph-name="Amacron" unicode="&#x100;" horiz-adv-x="778" 
d="M218 206l-42 -112q-5 -13 -5 -25q0 -13 8 -22t21 -10l50 -3v-37q-20 1 -35 1t-22 1q-21 1 -35 1h-21h-21t-35 -1q-6 -1 -21.5 -1t-35.5 -1v37l30 3q31 3 56 60l181 438q8 18 29 76q3 8 10 27.5t18 47.5h71l259 -605q10 -22 22 -31.5t33 -12.5l24 -3v-37q-55 1 -85 1.5
t-45 1t-19.5 0.5h-8.5h-9.5t-18.5 -0.5t-43 -1t-81 -1.5v37l53 3q8 1 14 8.5t6 18.5q0 13 -6 28l-45 114h-251zM242 262h204l-104 254zM224 762v71h331v-71h-331z" />
    <glyph glyph-name="amacron" unicode="&#x101;" 
d="M206 -5q-15 -12 -49 -12q-57 0 -87 31.5t-30 92.5q0 32 9 55.5t29 41.5t53 30.5t80 22.5l88 18q-2 62 -26.5 90t-75.5 28q-20 0 -38 -4.5t-20 -9.5l-22 -50l-30 7v69l53 32q55 34 120 34q76 0 118.5 -37.5t42.5 -104.5v-12t-1 -17q-1 -29 -1.5 -53t-0.5 -44
q0 -18 0.5 -39t1.5 -45v-21q1 -35 6 -46.5t22 -14.5l30 -3v-37q-45 2 -62 2.5t-26 0.5t-27 -1t-64 -2l-5 8l5 62zM299 233l-45 -12q-27 -7 -44.5 -15t-28 -18t-15 -23.5t-4.5 -31.5q0 -29 13.5 -46t37.5 -17q23 0 47.5 12.5t38.5 32.5v118zM85 538v71h331v-71h-331z" />
    <glyph glyph-name="Imacron" unicode="&#x12a;" horiz-adv-x="389" 
d="M265 135q0 -33 1 -51.5t5.5 -27.5t14 -12t27.5 -4l37 -3v-40q-45 1 -70.5 1.5t-40 1t-23.5 0.5h-22h-21.5t-23 -0.5t-40 -1t-70.5 -1.5v40l37 3q18 1 27.5 4t14 12t5.5 27.5t1 51.5v408q0 33 -1 51.5t-5.5 27.5t-14 11.5t-27.5 4.5l-37 3v40q45 -1 70 -1.5t39.5 -1
t23.5 -0.5h22h21.5t23.5 0.5t40 1t71 1.5v-40l-37 -3q-18 -2 -27.5 -4.5t-14 -11.5t-5.5 -27.5t-1 -51.5v-408zM29 762v71h331v-71h-331z" />
    <glyph glyph-name="imacron" unicode="&#x12b;" horiz-adv-x="333" 
d="M227 465v-365q0 -20 1.5 -32.5t5 -19t10.5 -9t19 -3.5l35 -2v-37q-51 2 -85.5 2.5t-49.5 0.5l-129 -3v37l35 2q12 1 19 3.5t10.5 9t5 19t1.5 32.5v219q0 22 -1 35.5t-3.5 21t-7.5 10t-14 3.5l-45 3v36q5 1 9 1.5t6 0.5q32 4 53 7.5t45 11.5l70 22zM16 538v71h286v-71
h-286z" />
    <glyph glyph-name="OE" unicode="&#x152;" horiz-adv-x="1000" 
d="M969 0q-22 -1 -39.5 -2t-33.5 -1.5t-32.5 -0.5h-35.5q-35 0 -74 0.5t-87 2.5q-27 1 -39 1h-27q-19 0 -33.5 -0.5t-27.5 -1.5t-27 -2.5t-32 -4.5q-29 -5 -48 -6.5t-39 -1.5q-82 0 -147 25t-110.5 71.5t-69.5 113.5t-24 151q0 168 89 257q46 46 116 70t161 24q21 0 43 -2
t64 -7q19 -3 32.5 -4.5t26.5 -2l26 -1t31 -0.5h22.5t27 0.5t49 1t88.5 1.5q14 1 28.5 1h26.5h25.5t22 -0.5t21.5 -1.5t25 -2l6 -7l-14 -142h-36l-8 75q-1 8 -29 14t-69 6h-38t-34 -0.5t-34.5 -1.5t-38.5 -2v-240q15 -2 28.5 -2h38.5h66q32 0 43.5 4.5t13.5 16.5l6 57h40
q-1 -36 -1.5 -55.5t-1 -29.5t-0.5 -14v-8l3 -108h-40l-6 50q-2 20 -15 28.5t-42 8.5h-66q-17 0 -31.5 -0.5t-35.5 -2.5v-267q38 -2 69 -2.5t62 -0.5q42 0 67.5 3t48.5 11q3 1 3 3l23 94h39l-11 -158zM532 594q-38 26 -65.5 35.5t-63.5 9.5q-210 0 -210 -282
q0 -152 57.5 -235t163.5 -83q36 0 61.5 8t56.5 28v519z" />
    <glyph glyph-name="oe" unicode="&#x153;" horiz-adv-x="833" 
d="M799 243q-42 -11 -78.5 -15.5t-79.5 -4.5h-131q2 -35 7 -56t17 -42q19 -32 53 -51.5t72 -19.5q31 0 57 7.5t61 27.5l12 -15l-22 -48q-47 -25 -81 -34t-75 -9q-54 0 -92.5 15t-70.5 49q-38 -35 -78.5 -49.5t-97.5 -14.5q-107 0 -165.5 63t-58.5 179q0 120 63.5 183
t184.5 63q27 0 49.5 -3t42 -10t37.5 -17.5t37 -26.5q42 31 77 44t77 13q41 0 74.5 -12.5t57.5 -36t37.5 -56t13.5 -71.5v-52zM672 276q-2 75 -21 107t-62 32q-44 0 -63.5 -32t-21.5 -107l32 -1q11 -1 27 -1.5t21 -0.5h4zM283 423q-52 0 -75.5 -42t-23.5 -133
q0 -217 109 -217q51 0 73.5 41t22.5 133q0 218 -106 218z" />
    <glyph glyph-name="Sacute" unicode="&#x15a;" horiz-adv-x="611" 
d="M112 202l7 -88q23 -35 68 -56t96 -21q32 0 59.5 9.5t47.5 27t31.5 41t11.5 51.5q0 71 -83 96l-140 42q-71 21 -108.5 66.5t-37.5 110.5q0 101 70 157.5t195 56.5q50 0 92 -8t93 -26l5 -12q-14 -45 -14 -142h-41l-6 82q-56 55 -136 55q-60 0 -97 -32.5t-37 -84.5
q0 -38 25 -62.5t81 -38.5l114 -30q151 -40 151 -176q0 -54 -21 -98t-59 -74.5t-92.5 -47.5t-121.5 -17q-57 0 -105 10.5t-103 35.5q4 21 7 40.5t4.5 39.5t2.5 42.5t1 50.5h40zM386 878q17 20 32 28.5t33 8.5q20 0 32 -12t12 -32q0 -17 -9 -29t-34 -26l-8 -5l-131 -81h-56z
" />
    <glyph glyph-name="sacute" unicode="&#x15b;" horiz-adv-x="444" 
d="M326 326l-10 58q-1 7 -9 14.5t-20.5 12.5t-27.5 8.5t-30 3.5q-41 0 -64.5 -17.5t-23.5 -47.5q0 -23 13 -36t42 -20l82 -18q68 -15 97.5 -45t29.5 -84q0 -39 -15.5 -70.5t-43 -54t-66.5 -35t-86 -12.5q-40 0 -76 6.5t-79 21.5l7 141h39l5 -69q24 -28 50.5 -40t61.5 -12
q42 0 67 21t25 56q0 26 -14 40.5t-49 22.5l-86 21q-106 26 -106 125q0 75 53 114.5t155 39.5q40 0 67 -5t56 -18l-8 -122h-36zM303 654q17 20 32 28.5t33 8.5q20 0 32 -12t12 -32q0 -17 -9 -29t-34 -26l-8 -5l-131 -81h-56z" />
    <glyph glyph-name="Scaron" unicode="&#x160;" horiz-adv-x="611" 
d="M112 202l7 -88q23 -35 68 -56t96 -21q32 0 59.5 9.5t47.5 27t31.5 41t11.5 51.5q0 71 -83 96l-140 42q-71 21 -108.5 66.5t-37.5 110.5q0 101 70 157.5t195 56.5q50 0 92 -8t93 -26l5 -12q-14 -45 -14 -142h-41l-6 82q-56 55 -136 55q-60 0 -97 -32.5t-37 -84.5
q0 -38 25 -62.5t81 -38.5l114 -30q151 -40 151 -176q0 -54 -21 -98t-59 -74.5t-92.5 -47.5t-121.5 -17q-57 0 -105 10.5t-103 35.5q4 21 7 40.5t4.5 39.5t2.5 42.5t1 50.5h40zM282 734l-121 175h55l113 -98l112 98h57l-123 -175h-93z" />
    <glyph glyph-name="scaron" unicode="&#x161;" horiz-adv-x="444" 
d="M326 326l-10 58q-1 7 -9 14.5t-20.5 12.5t-27.5 8.5t-30 3.5q-41 0 -64.5 -17.5t-23.5 -47.5q0 -23 13 -36t42 -20l82 -18q68 -15 97.5 -45t29.5 -84q0 -39 -15.5 -70.5t-43 -54t-66.5 -35t-86 -12.5q-40 0 -76 6.5t-79 21.5l7 141h39l5 -69q24 -28 50.5 -40t61.5 -12
q42 0 67 21t25 56q0 26 -14 40.5t-49 22.5l-86 21q-106 26 -106 125q0 75 53 114.5t155 39.5q40 0 67 -5t56 -18l-8 -122h-36zM175 510l-121 175h55l113 -98l112 98h57l-123 -175h-93z" />
    <glyph glyph-name="Umacron" unicode="&#x16a;" horiz-adv-x="778" 
d="M675 251q0 -137 -70 -202.5t-214 -65.5q-65 0 -116.5 13.5t-88 39t-56 61t-19.5 80.5v366q0 33 -1 52t-6 28.5t-14.5 12.5t-26.5 5l-37 3v37q45 -1 70 -1.5t39.5 -1t23.5 -0.5h22h21.5t23.5 0.5t40 1t71 1.5v-37l-37 -3q-17 -2 -26.5 -5t-14.5 -12.5t-6 -28.5t-1 -52
v-248q0 -38 2 -66.5t6 -50t10.5 -37t16.5 -27.5q40 -49 141 -49q99 0 141 43q13 13 22 30t14.5 40.5t8 53.5t2.5 70v241q0 33 -1 52t-6 28.5t-14.5 12.5t-26.5 5l-37 3v37q33 -1 53.5 -1.5t33 -1t18.5 -0.5h10l114 3v-37l-37 -3q-17 -2 -26.5 -5t-14.5 -12.5t-6 -28.5
t-1 -52v-292zM224 762v71h331v-71h-331z" />
    <glyph glyph-name="umacron" unicode="&#x16b;" horiz-adv-x="611" 
d="M316 6q-11 -11 -29.5 -17t-40.5 -6q-72 0 -111 40.5t-39 116.5v179q0 22 -1 35.5t-3.5 21t-7.5 10t-14 3.5l-45 3v36l40 5t28 4.5t22.5 5t22.5 6.5l70 22l10 -6v-261q0 -72 17.5 -101.5t60.5 -29.5q40 0 68 26.5t28 63.5v156q0 22 -1 35.5t-3.5 21t-7.5 10t-14 3.5l-45 3
v36q23 3 39 5t28.5 4.5t23 5t22.5 6.5l70 22l10 -6v-365q0 -20 1.5 -32.5t5 -19t10.5 -9t19 -3.5l33 -2v-37q-16 1 -29 1h-18q-21 2 -34 2h-21h-7.5t-12.5 -0.5t-26 -1t-48 -1.5l5 83zM140 538v71h331v-71h-331z" />
    <glyph glyph-name="Ydieresis" unicode="&#x178;" horiz-adv-x="667" 
d="M583 678h77v-19l-176 -261q-14 -20 -26.5 -44t-26.5 -56v-163q0 -33 1 -51.5t5.5 -27.5t14 -12t27.5 -4l37 -3v-40q-45 1 -70.5 1.5t-40 1t-23.5 0.5h-22h-21.5t-23 -0.5t-40 -1t-70.5 -1.5v40l37 3q18 1 27.5 4t14 12t5.5 27.5t1 51.5v139q-12 27 -22 46t-22 39
l-101 163q-22 32 -38 51.5t-30 30.5t-28.5 14.5t-33.5 3.5v37l159 36q17 -10 31.5 -22t27.5 -27.5t26.5 -37t28.5 -49.5l107 -203zM470 895q27 0 46.5 -20t19.5 -47q0 -28 -19.5 -47.5t-47.5 -19.5t-47.5 19.5t-19.5 48.5q0 27 19.5 46.5t48.5 19.5zM255 895q27 0 46.5 -20
t19.5 -47q0 -28 -19.5 -47.5t-47.5 -19.5t-47.5 19.5t-19.5 47.5t19.5 47.5t48.5 19.5z" />
    <glyph glyph-name="Zcaron" unicode="&#x17d;" horiz-adv-x="667" 
d="M623 646q-24 -29 -43 -54.5t-40 -55.5l-325 -479h276q74 0 81 39l15 78h40q-7 -38 -11 -84.5t-5 -92.5q-49 1 -86.5 1.5t-70 1t-63 0.5h-64.5h-66.5t-66 -0.5t-75.5 -1t-95 -1.5v38q37 46 60 77.5t44 61.5l306 446h-222q-27 0 -43 -1.5t-25 -6t-13 -14t-6 -24.5l-8 -55
h-37v162l272 -3h15t33.5 0.5t76.5 1t146 1.5v-35zM297 734l-121 175h55l113 -98l112 98h57l-123 -175h-93z" />
    <glyph glyph-name="zcaron" unicode="&#x17e;" 
d="M186 55h163q18 0 30 3t19.5 10.5t12.5 21t8 34.5l5 31h40q-5 -36 -8.5 -78t-3.5 -75l-5 -5l-273 3h-25t-25 -0.5t-39.5 -1t-68.5 -1.5v33q24 31 40.5 52t28 36t19.5 26l16 22l170 238h-118q-21 0 -34.5 -2.5t-22 -9t-13 -18t-6.5 -29.5l-3 -25h-38l3 134l7 5
q54 -2 93 -2.5t67 -1.5t46 -1h30h32.5t33.5 1t39 1.5t48 2.5v-35zM208 510l-121 175h55l113 -98l112 98h57l-123 -175h-93z" />
    <glyph glyph-name="florin" unicode="&#x192;" 
d="M108 412h105q12 53 32.5 100.5t43.5 79.5q42 53 93 81t108 30l-7 -83h-10q-16 11 -27 15.5t-22 4.5q-50 0 -61 -70l-25 -158h114l-13 -44h-110l-52 -310q-12 -65 -36.5 -119t-59.5 -93.5t-78.5 -62t-91.5 -25.5q4 21 5.5 39.5t2.5 48.5l14 8q7 -11 20.5 -18t28.5 -7
q18 0 33 16.5t19 40.5l73 482h-112z" />
    <glyph glyph-name="circumflex" unicode="&#x2c6;" horiz-adv-x="333" 
d="M119 681h93l123 -175h-57l-112 98l-113 -98h-55l121 175v0z" />
    <glyph glyph-name="tilde" unicode="&#x2dc;" horiz-adv-x="333" 
d="M349 661q-18 -66 -46 -96t-72 -30q-17 0 -35.5 5.5t-48.5 19.5q-28 14 -45.5 19t-31.5 5q-31 0 -46 -48h-40q6 56 38.5 90.5t77.5 34.5q17 0 34 -5t46 -19t45 -19t30 -5q18 0 27.5 9.5t23.5 38.5h43z" />
    <glyph glyph-name="verticallineabovecmb" unicode="&#x30d;" horiz-adv-x="1" 
d="M-143 800h-70v250h70v-250v0z" />
    <glyph glyph-name="dblverticallineabovecmb" unicode="&#x30e;" horiz-adv-x="1" 
d="M-93 800h-70v250h70v-250v0zM-283 800h-70v250h70v-250v0z" />
    <glyph glyph-name="macronbelowcmb" unicode="&#x331;" horiz-adv-x="1" 
d="M-68 -258h-331v71h331v-71v0z" />
    <glyph glyph-name="Dunderdot" unicode="&#x1e0c;" horiz-adv-x="833" 
d="M393 -78q27 0 46.5 -20t19.5 -47q0 -28 -19.5 -47.5t-47.5 -19.5t-47.5 19.5t-19.5 48.5q0 27 19.5 46.5t48.5 19.5zM100 38q11 6 15.5 19t4.5 38v448q0 33 -1 52t-6 28.5t-14.5 12.5t-26.5 5l-37 3v37q56 -1 86.5 -1.5t45.5 -1t20 -0.5h10t239 3q51 0 91.5 -5t73.5 -15
t59.5 -25.5t48.5 -37.5q38 -37 57.5 -93.5t19.5 -128.5q0 -162 -104 -263q-57 -56 -135 -86t-168 -30l-59 1q-9 0 -23 0.5l-28 1t-26.5 0.5h-19.5h-13t-20.5 -0.5t-42.5 -1t-79 -1.5v23zM261 57q19 -3 34 -4t34 -1q85 0 140.5 17t93.5 54q73 73 73 225q0 146 -66 211
q-37 36 -97.5 54t-148.5 18q-17 0 -31 -1t-32 -3v-570z" />
    <glyph glyph-name="dunderdot" unicode="&#x1e0d;" horiz-adv-x="611" 
d="M288 -78q27 0 46.5 -20t19.5 -47q0 -28 -19.5 -47.5t-47.5 -19.5t-47.5 19.5t-19.5 48.5q0 27 19.5 46.5t48.5 19.5zM508 100q0 -20 1.5 -32.5t5 -19t10.5 -9t19 -3.5l33 -2v-37q-16 1 -29 1h-18q-21 1 -34.5 1.5t-19.5 0.5q-8 0 -26.5 -0.5t-63.5 -2.5l-5 8l5 75
l-104 -85q-15 -12 -49 -12q-44 0 -79.5 16.5t-60 47t-38 73.5t-13.5 97q0 65 20.5 108.5t63.5 72.5l72 47q41 26 88 26q37 0 80 -17l20 -8v122q0 22 -1 35.5t-4 21t-8 10.5t-13 3l-53 3v36q44 5 71.5 9.5t49.5 11.5l72 22l8 -6v-614zM386 344q-48 63 -112 63
q-106 0 -106 -152q0 -81 31 -129t85 -48q21 0 39.5 6.5t32.5 17.5t22 26t8 32v184z" />
    <glyph glyph-name="Hunderdot" unicode="&#x1e24;" horiz-adv-x="833" 
d="M413 -78q27 0 46.5 -20t19.5 -47q0 -28 -19.5 -47.5t-47.5 -19.5t-47.5 19.5t-19.5 48.5q0 27 19.5 46.5t48.5 19.5zM262 385q17 -2 34.5 -2h46.5h146h46t35 2v158q0 33 -1 51.5t-5.5 27.5t-14 11.5t-27.5 4.5l-37 3v40q45 -1 70 -1.5t39.5 -1t23.5 -0.5h22h21.5
t23.5 0.5t40 1t71 1.5v-40l-37 -3q-18 -2 -27.5 -4.5t-14 -11.5t-5.5 -27.5t-1 -51.5v-408q0 -33 1 -51.5t5.5 -27.5t14 -12t27.5 -4l37 -3v-40q-45 1 -70.5 1.5t-40 1t-23.5 0.5h-22h-21.5t-23 -0.5t-40 -1t-70.5 -1.5v40l37 3q18 1 27.5 4t14 12t5.5 27.5t1 51.5v190
q-20 1 -37.5 1.5t-43.5 0.5h-146q-26 0 -43.5 -0.5t-37.5 -1.5v-190q0 -33 1 -51.5t5.5 -27.5t14 -12t27.5 -4l37 -3v-40q-45 1 -70.5 1.5t-40 1t-23.5 0.5h-22h-21.5t-23 -0.5t-40 -1t-70.5 -1.5v40l37 3q18 1 27.5 4t14 12t5.5 27.5t1 51.5v408q0 33 -1 51.5t-5.5 27.5
t-14 11.5t-27.5 4.5l-37 3v40q45 -1 70 -1.5t39.5 -1t23.5 -0.5h22h21.5t23.5 0.5t40 1t71 1.5v-40l-37 -3q-18 -2 -27.5 -4.5t-14 -11.5t-5.5 -27.5t-1 -51.5v-158z" />
    <glyph glyph-name="hunderdot" unicode="&#x1e25;" horiz-adv-x="611" 
d="M306 -78q27 0 46.5 -20t19.5 -47q0 -28 -19.5 -47.5t-47.5 -19.5t-47.5 19.5t-19.5 48.5q0 27 19.5 46.5t48.5 19.5zM217 714v-324l80 62q23 19 70 19q76 0 116 -42q20 -21 27.5 -53t7.5 -90v-186q0 -20 1.5 -32.5t5 -19t10.5 -9t19 -3.5l33 -2v-37q-33 1 -50.5 1.5
t-27 1t-14 0.5h-9.5h-13t-17 -0.5t-24.5 -1t-35.5 -1.5v272q0 61 -22 88.5t-72 27.5q-17 0 -32 -5.5t-27 -15t-19 -22t-7 -25.5v-217q0 -20 1.5 -32.5t5 -19t10.5 -9t19 -3.5l35 -2v-37q-51 2 -85.5 2.5t-49.5 0.5l-129 -3v37l35 2q12 1 19 3.5t10.5 9t5 19t1.5 32.5v468
q0 22 -1 35.5t-3.5 21t-7.5 10t-14 3.5l-45 3v36q41 5 67 10t46 11l72 22z" />
    <glyph glyph-name="Lunderdot" unicode="&#x1e36;" horiz-adv-x="611" 
d="M189 -78q27 0 46.5 -20t19.5 -47q0 -28 -19.5 -47.5t-47.5 -19.5t-47.5 19.5t-19.5 48.5q0 27 19.5 46.5t48.5 19.5zM265 58q39 -2 69 -2.5t62 -0.5q47 0 82 5t37 12l23 102h39l-11 -166l-5 -8q-22 -1 -39.5 -2t-33.5 -1.5t-32.5 -0.5h-35.5h-37.5t-40 0.5t-49 1.5
t-65.5 2h-34h-15t-17.5 -0.5t-32 -1t-57.5 -1.5v23l32 18q11 6 15.5 18.5t4.5 38.5v448q0 33 -1 51.5t-5.5 27.5t-14 11.5t-27.5 4.5l-37 3v40q45 -1 70 -1.5t39.5 -1t23.5 -0.5h22h21.5t23.5 0.5t40 1t71 1.5v-40l-37 -3q-18 -2 -27.5 -4.5t-14 -11.5t-5.5 -27.5t-1 -51.5
v-485z" />
    <glyph glyph-name="lunderdot" unicode="&#x1e37;" horiz-adv-x="333" 
d="M165 -78q27 0 46.5 -20t19.5 -47q0 -28 -19.5 -47.5t-47.5 -19.5t-47.5 19.5t-19.5 48.5q0 27 19.5 46.5t48.5 19.5zM225 714v-614q0 -20 1.5 -32.5t5 -19t10.5 -9t19 -3.5l35 -2v-37q-51 2 -85.5 2.5t-49.5 0.5l-129 -3v37l35 2q12 1 19 3.5t10.5 9t5 19t1.5 32.5v468
q0 22 -1 35.5t-4 21t-8 10.5t-13 3l-53 3v36q44 5 71.5 9.5t49.5 11.5l72 22z" />
    <glyph glyph-name="Moverdot" unicode="&#x1e40;" horiz-adv-x="1000" 
d="M505 895q27 0 46.5 -20t19.5 -47q0 -28 -19.5 -47.5t-47.5 -19.5t-47.5 19.5t-19.5 48.5q0 27 19.5 46.5t48.5 19.5zM536 122q-14 -29 -22.5 -46.5t-14.5 -31t-11 -25.5t-12 -29h-34q-14 33 -22.5 52.5t-13.5 30.5l-230 479v-417q0 -33 1 -52t6 -29t14.5 -13t26.5 -4
l37 -3v-37q-36 2 -67.5 2.5t-46.5 0.5h-12.5t-16 -0.5t-30.5 -1t-56 -1.5v37l37 3q17 1 26.5 4.5t14.5 13t6 28.5t1 52v408q0 33 -1 52t-6 28.5t-14.5 12.5t-26.5 5l-37 3v37q26 -1 33 -1h18q23 -1 40 -1.5t29 -0.5l120 3q16 -35 28 -61t21 -45t15 -32.5t11 -22.5l158 -330
l183 378l8 18t9.5 21.5t13 30t18.5 43.5q39 -1 60.5 -1.5t32 -1t14.5 -0.5h8h8t15 0.5t32.5 1t60.5 1.5v-37l-37 -3q-17 -2 -26.5 -5t-14.5 -12.5t-6 -28.5t-1 -52v-408q0 -33 1 -51.5t5.5 -27.5t14 -12t27.5 -4l37 -3v-40q-45 1 -70.5 1.5t-40 1t-23.5 0.5h-22h-21.5
t-23 -0.5t-40 -1t-70.5 -1.5v40l37 3q18 1 27.5 4t14 12t5.5 27.5t1 51.5v416z" />
    <glyph glyph-name="moverdot" unicode="&#x1e41;" horiz-adv-x="889" 
d="M465 671q27 0 46.5 -20t19.5 -47q0 -28 -19.5 -47.5t-47.5 -19.5t-47.5 19.5t-19.5 48.5q0 27 19.5 46.5t48.5 19.5zM24 428q21 1 38 3t37 6.5t46.5 12.5t65.5 21l6 -6v-75l80 62q25 19 71 19q52 0 83.5 -19t48.5 -62l80 62q25 19 72 19q40 0 67.5 -9.5t44 -31.5t24 -57
t7.5 -87v-186q0 -20 1.5 -32.5t5 -19t10.5 -9t19 -3.5l33 -2v-37q-15 1 -25.5 1.5t-20 0.5t-21.5 0.5t-31 0.5l-93 -3v272q0 116 -86 116q-15 0 -29.5 -6t-26 -15.5t-18.5 -22t-7 -24.5v-217q0 -20 1.5 -32.5t5 -19t10.5 -9t19 -3.5l35 -2v-37q-40 1 -62 1.5t-34.5 1
t-19 0.5h-15.5h-16t-19 -0.5t-33.5 -1t-60.5 -1.5v37l31 2q12 1 19 3.5t11 9t5 19t1 32.5v169q0 116 -86 116q-15 0 -29.5 -6t-26 -15.5t-18.5 -22t-7 -24.5v-217q0 -20 1 -32.5t5 -19t11 -9t19 -3.5l27 -2v-37q-92 3 -127 3l-129 -3v37l35 2q12 1 19 3.5t10.5 9t5 19
t1.5 32.5v219q0 22 -1 35.5t-3.5 21t-7.5 10t-14 3.5l-45 3v36z" />
    <glyph glyph-name="Munderdot" unicode="&#x1e42;" horiz-adv-x="1000" 
d="M457 -78q27 0 46.5 -20t19.5 -47q0 -28 -19.5 -47.5t-47.5 -19.5t-47.5 19.5t-19.5 48.5q0 27 19.5 46.5t48.5 19.5zM536 122q-14 -29 -22.5 -46.5t-14.5 -31t-11 -25.5t-12 -29h-34q-14 33 -22.5 52.5t-13.5 30.5l-230 479v-417q0 -33 1 -52t6 -29t14.5 -13t26.5 -4
l37 -3v-37q-36 2 -67.5 2.5t-46.5 0.5h-12.5t-16 -0.5t-30.5 -1t-56 -1.5v37l37 3q17 1 26.5 4.5t14.5 13t6 28.5t1 52v408q0 33 -1 52t-6 28.5t-14.5 12.5t-26.5 5l-37 3v37q26 -1 33 -1h18q23 -1 40 -1.5t29 -0.5l120 3q16 -35 28 -61t21 -45t15 -32.5t11 -22.5l158 -330
l183 378l8 18t9.5 21.5t13 30t18.5 43.5q39 -1 60.5 -1.5t32 -1t14.5 -0.5h8h8t15 0.5t32.5 1t60.5 1.5v-37l-37 -3q-17 -2 -26.5 -5t-14.5 -12.5t-6 -28.5t-1 -52v-408q0 -33 1 -51.5t5.5 -27.5t14 -12t27.5 -4l37 -3v-40q-45 1 -70.5 1.5t-40 1t-23.5 0.5h-22h-21.5
t-23 -0.5t-40 -1t-70.5 -1.5v40l37 3q18 1 27.5 4t14 12t5.5 27.5t1 51.5v416z" />
    <glyph glyph-name="munderdot" unicode="&#x1e43;" horiz-adv-x="889" 
d="M446 -78q27 0 46.5 -20t19.5 -47q0 -28 -19.5 -47.5t-47.5 -19.5t-47.5 19.5t-19.5 48.5q0 27 19.5 46.5t48.5 19.5zM24 428q21 1 38 3t37 6.5t46.5 12.5t65.5 21l6 -6v-75l80 62q25 19 71 19q52 0 83.5 -19t48.5 -62l80 62q25 19 72 19q40 0 67.5 -9.5t44 -31.5t24 -57
t7.5 -87v-186q0 -20 1.5 -32.5t5 -19t10.5 -9t19 -3.5l33 -2v-37q-15 1 -25.5 1.5t-20 0.5t-21.5 0.5t-31 0.5l-93 -3v272q0 116 -86 116q-15 0 -29.5 -6t-26 -15.5t-18.5 -22t-7 -24.5v-217q0 -20 1.5 -32.5t5 -19t10.5 -9t19 -3.5l35 -2v-37q-40 1 -62 1.5t-34.5 1
t-19 0.5h-15.5h-16t-19 -0.5t-33.5 -1t-60.5 -1.5v37l31 2q12 1 19 3.5t11 9t5 19t1 32.5v169q0 116 -86 116q-15 0 -29.5 -6t-26 -15.5t-18.5 -22t-7 -24.5v-217q0 -20 1 -32.5t5 -19t11 -9t19 -3.5l27 -2v-37q-92 3 -127 3l-129 -3v37l35 2q12 1 19 3.5t10.5 9t5 19
t1.5 32.5v219q0 22 -1 35.5t-3.5 21t-7.5 10t-14 3.5l-45 3v36z" />
    <glyph glyph-name="Noverdot" unicode="&#x1e44;" horiz-adv-x="833" 
d="M436 895q27 0 46.5 -20t19.5 -47q0 -28 -19.5 -47.5t-47.5 -19.5t-47.5 19.5t-19.5 48.5q0 27 19.5 46.5t48.5 19.5zM239 681q24 -32 40 -53.5t27.5 -36t19.5 -24.5t16 -19l312 -364v359q0 33 -1 52t-6 28.5t-14.5 12.5t-26.5 5l-37 3v37q33 -1 53.5 -1.5t33 -1
t18.5 -0.5h10l114 3v-37l-37 -3q-17 -2 -26.5 -5t-14.5 -12.5t-6 -28.5t-1 -52v-454q0 -17 0.5 -38t2.5 -63l-7 -4l-82 13q-27 30 -45.5 50.5t-32 36.5t-24 28t-20.5 24l-326 392v-393q0 -33 1 -52t6 -29t14.5 -13t26.5 -4l37 -3v-37q-36 2 -67.5 2.5t-46.5 0.5h-12.5
t-16 -0.5t-30.5 -1t-56 -1.5v37l37 3q17 1 26.5 4.5t14.5 13t6 28.5t1 52v408q0 33 -1 52t-6 28.5t-14.5 12.5t-26.5 5l-37 3v37q85 -3 99 -3h21z" />
    <glyph glyph-name="noverdot" unicode="&#x1e45;" horiz-adv-x="611" 
d="M285 671q27 0 46.5 -20t19.5 -47q0 -28 -19.5 -47.5t-47.5 -19.5t-47.5 19.5t-19.5 48.5q0 27 19.5 46.5t48.5 19.5zM24 428q21 1 38 3t37 6.5t46.5 12.5t65.5 21l6 -6v-75l80 62q23 19 70 19q76 0 116 -42q20 -21 27.5 -53t7.5 -90v-186q0 -20 1.5 -32.5t5 -19t10.5 -9
t19 -3.5l33 -2v-37q-33 1 -50.5 1.5t-27 1t-14 0.5h-9.5h-13t-17 -0.5t-24.5 -1t-35.5 -1.5v273q0 60 -22 87.5t-72 27.5q-17 0 -32 -5.5t-27 -15t-19 -22t-7 -25.5v-217q0 -20 1.5 -32.5t5 -19t10.5 -9t19 -3.5l35 -2v-37q-51 2 -85.5 2.5t-49.5 0.5l-129 -3v37l35 2
q12 1 19 3.5t10.5 9t5 19t1.5 32.5v219q0 22 -1 35.5t-3.5 21t-7.5 10t-14 3.5l-45 3v36z" />
    <glyph glyph-name="Nunderdot" unicode="&#x1e46;" horiz-adv-x="833" 
d="M404 -78q27 0 46.5 -20t19.5 -47q0 -28 -19.5 -47.5t-47.5 -19.5t-47.5 19.5t-19.5 48.5q0 27 19.5 46.5t48.5 19.5zM239 681q24 -32 40 -53.5t27.5 -36t19.5 -24.5t16 -19l312 -364v359q0 33 -1 52t-6 28.5t-14.5 12.5t-26.5 5l-37 3v37q33 -1 53.5 -1.5t33 -1
t18.5 -0.5h10l114 3v-37l-37 -3q-17 -2 -26.5 -5t-14.5 -12.5t-6 -28.5t-1 -52v-454q0 -17 0.5 -38t2.5 -63l-7 -4l-82 13q-27 30 -45.5 50.5t-32 36.5t-24 28t-20.5 24l-326 392v-393q0 -33 1 -52t6 -29t14.5 -13t26.5 -4l37 -3v-37q-36 2 -67.5 2.5t-46.5 0.5h-12.5
t-16 -0.5t-30.5 -1t-56 -1.5v37l37 3q17 1 26.5 4.5t14.5 13t6 28.5t1 52v408q0 33 -1 52t-6 28.5t-14.5 12.5t-26.5 5l-37 3v37q85 -3 99 -3h21z" />
    <glyph glyph-name="nunderdot" unicode="&#x1e47;" horiz-adv-x="611" 
d="M311 -78q27 0 46.5 -20t19.5 -47q0 -28 -19.5 -47.5t-47.5 -19.5t-47.5 19.5t-19.5 48.5q0 27 19.5 46.5t48.5 19.5zM24 428q21 1 38 3t37 6.5t46.5 12.5t65.5 21l6 -6v-75l80 62q23 19 70 19q76 0 116 -42q20 -21 27.5 -53t7.5 -90v-186q0 -20 1.5 -32.5t5 -19t10.5 -9
t19 -3.5l33 -2v-37q-33 1 -50.5 1.5t-27 1t-14 0.5h-9.5h-13t-17 -0.5t-24.5 -1t-35.5 -1.5v273q0 60 -22 87.5t-72 27.5q-17 0 -32 -5.5t-27 -15t-19 -22t-7 -25.5v-217q0 -20 1.5 -32.5t5 -19t10.5 -9t19 -3.5l35 -2v-37q-51 2 -85.5 2.5t-49.5 0.5l-129 -3v37l35 2
q12 1 19 3.5t10.5 9t5 19t1.5 32.5v219q0 22 -1 35.5t-3.5 21t-7.5 10t-14 3.5l-45 3v36z" />
    <glyph glyph-name="Runderdot" unicode="&#x1e5a;" horiz-adv-x="722" 
d="M367 -78q27 0 46.5 -20t19.5 -47q0 -28 -19.5 -47.5t-47.5 -19.5t-47.5 19.5t-19.5 48.5q0 27 19.5 46.5t48.5 19.5zM638 82q9 -12 16 -19.5t14.5 -12.5t16.5 -7.5t23 -5.5v-40q-14 1 -23.5 1.5t-19.5 0.5t-22.5 0.5t-31.5 0.5l-90 -3l-224 347l7 18q33 -1 54 3.5
t40 15.5q31 18 48.5 50t17.5 72q0 61 -36.5 94.5t-103.5 33.5q-38 0 -59 -9v-487q0 -33 1 -51.5t5.5 -27.5t14 -12t27.5 -4l37 -3v-40q-45 1 -70.5 1.5t-40 1t-23.5 0.5h-22h-21.5t-23 -0.5t-40 -1t-70.5 -1.5v40l37 3q18 1 27.5 4t14 12t5.5 27.5t1 51.5v408q0 33 -1 52
t-6 28.5t-14.5 12.5t-26.5 5l-37 3v37q56 -1 87 -1.5t47.5 -1t24.5 -0.5h19h26t37.5 0.5t38 1t28.5 0.5q26 1 43.5 1h25.5q190 0 190 -147q0 -64 -43 -110q-10 -11 -20 -20t-22 -16.5t-27.5 -15t-36.5 -16.5z" />
    <glyph glyph-name="runderdot" unicode="&#x1e5b;" horiz-adv-x="389" 
d="M168 -78q27 0 46.5 -20t19.5 -47q0 -28 -19.5 -47.5t-47.5 -19.5t-47.5 19.5t-19.5 48.5q0 27 19.5 46.5t48.5 19.5zM223 465v-95l44 48q28 31 46 42t39 11q22 0 37 -6l-5 -129l-24 -10q-21 36 -57 36q-15 0 -29 -5.5t-25.5 -14.5t-18.5 -20.5t-7 -23.5v-198
q0 -21 1.5 -33.5t6.5 -19t14.5 -8.5t25.5 -3l39 -2v-37q-51 1 -79 1.5t-42.5 1t-19.5 0.5h-10l-129 -3v37l35 2q12 1 19 3.5t10.5 9t5 19t1.5 32.5v219q0 22 -1 35.5t-3.5 21t-7.5 10t-14 3.5l-45 3v36l40 5t28 4.5t22.5 5t22.5 6.5l70 22z" />
    <glyph glyph-name="Rmacronunderdot" unicode="&#x1e5c;" horiz-adv-x="722" 
d="M167 762v71h331v-71h-331zM360 -78q27 0 46.5 -20t19.5 -47q0 -28 -19.5 -47.5t-47.5 -19.5t-47.5 19.5t-19.5 48.5q0 27 19.5 46.5t48.5 19.5zM638 82q9 -12 16 -19.5t14.5 -12.5t16.5 -7.5t23 -5.5v-40q-14 1 -23.5 1.5t-19.5 0.5t-22.5 0.5t-31.5 0.5l-90 -3l-224 347
l7 18q33 -1 54 3.5t40 15.5q31 18 48.5 50t17.5 72q0 61 -36.5 94.5t-103.5 33.5q-38 0 -59 -9v-487q0 -33 1 -51.5t5.5 -27.5t14 -12t27.5 -4l37 -3v-40q-45 1 -70.5 1.5t-40 1t-23.5 0.5h-22h-21.5t-23 -0.5t-40 -1t-70.5 -1.5v40l37 3q18 1 27.5 4t14 12t5.5 27.5t1 51.5
v408q0 33 -1 52t-6 28.5t-14.5 12.5t-26.5 5l-37 3v37q56 -1 87 -1.5t47.5 -1t24.5 -0.5h19h26t37.5 0.5t38 1t28.5 0.5q26 1 43.5 1h25.5q190 0 190 -147q0 -64 -43 -110q-10 -11 -20 -20t-22 -16.5t-27.5 -15t-36.5 -16.5z" />
    <glyph glyph-name="rmacronunderdot" unicode="&#x1e5d;" horiz-adv-x="389" 
d="M30 538v71h331v-71h-331zM168 -78q27 0 46.5 -20t19.5 -47q0 -28 -19.5 -47.5t-47.5 -19.5t-47.5 19.5t-19.5 48.5q0 27 19.5 46.5t48.5 19.5zM223 465v-95l44 48q28 31 46 42t39 11q22 0 37 -6l-5 -129l-24 -10q-21 36 -57 36q-15 0 -29 -5.5t-25.5 -14.5t-18.5 -20.5
t-7 -23.5v-198q0 -21 1.5 -33.5t6.5 -19t14.5 -8.5t25.5 -3l39 -2v-37q-51 1 -79 1.5t-42.5 1t-19.5 0.5h-10l-129 -3v37l35 2q12 1 19 3.5t10.5 9t5 19t1.5 32.5v219q0 22 -1 35.5t-3.5 21t-7.5 10t-14 3.5l-45 3v36l40 5t28 4.5t22.5 5t22.5 6.5l70 22z" />
    <glyph glyph-name="Sunderdot" unicode="&#x1e62;" horiz-adv-x="611" 
d="M266 -78q27 0 46.5 -20t19.5 -47q0 -28 -19.5 -47.5t-47.5 -19.5t-47.5 19.5t-19.5 48.5q0 27 19.5 46.5t48.5 19.5zM112 202l7 -88q23 -35 68 -56t96 -21q32 0 59.5 9.5t47.5 27t31.5 41t11.5 51.5q0 71 -83 96l-140 42q-71 21 -108.5 66.5t-37.5 110.5q0 101 70 157.5
t195 56.5q50 0 92 -8t93 -26l5 -12q-14 -45 -14 -142h-41l-6 82q-56 55 -136 55q-60 0 -97 -32.5t-37 -84.5q0 -38 25 -62.5t81 -38.5l114 -30q151 -40 151 -176q0 -54 -21 -98t-59 -74.5t-92.5 -47.5t-121.5 -17q-57 0 -105 10.5t-103 35.5q4 21 7 40.5t4.5 39.5t2.5 42.5
t1 50.5h40z" />
    <glyph glyph-name="sunderdot" unicode="&#x1e63;" horiz-adv-x="444" 
d="M194 -78q27 0 46.5 -20t19.5 -47q0 -28 -19.5 -47.5t-47.5 -19.5t-47.5 19.5t-19.5 48.5q0 27 19.5 46.5t48.5 19.5zM326 326l-10 58q-1 7 -9 14.5t-20.5 12.5t-27.5 8.5t-30 3.5q-41 0 -64.5 -17.5t-23.5 -47.5q0 -23 13 -36t42 -20l82 -18q68 -15 97.5 -45t29.5 -84
q0 -39 -15.5 -70.5t-43 -54t-66.5 -35t-86 -12.5q-40 0 -76 6.5t-79 21.5l7 141h39l5 -69q24 -28 50.5 -40t61.5 -12q42 0 67 21t25 56q0 26 -14 40.5t-49 22.5l-86 21q-106 26 -106 125q0 75 53 114.5t155 39.5q40 0 67 -5t56 -18l-8 -122h-36z" />
    <glyph glyph-name="Tunderdot" unicode="&#x1e6c;" horiz-adv-x="667" 
d="M338 -78q27 0 46.5 -20t19.5 -47q0 -28 -19.5 -47.5t-47.5 -19.5t-47.5 19.5t-19.5 48.5q0 27 19.5 46.5t48.5 19.5zM404 135q0 -33 1 -51.5t5.5 -27.5t14 -12t27.5 -4l37 -3v-40q-45 1 -70.5 1.5t-40 1t-23.5 0.5h-22h-21.5t-23 -0.5t-40 -1t-70.5 -1.5v40l37 3
q18 1 27.5 4t14 12t5.5 27.5t1 51.5v484h-117q-32 0 -45.5 -2.5t-17.5 -7.5q-2 -4 -5 -11t-3 -12l-5 -69h-40q-1 28 -2 50t-2.5 40t-3.5 34.5t-5 34.5l6 5q103 -1 160 -1.5t86 -1t40.5 -0.5h24.5h15.5h19t30 0.5t50 0.5t79 0.5t116.5 1.5l6 -5q-3 -18 -5 -34.5t-3.5 -34.5
t-2.5 -40t-2 -50h-40l-5 69l-9 24q-7 5 -18.5 7t-43.5 2h-117v-484z" />
    <glyph glyph-name="tunderdot" unicode="&#x1e6d;" horiz-adv-x="333" 
d="M180 -78q27 0 46.5 -20t19.5 -47q0 -28 -19.5 -47.5t-47.5 -19.5t-47.5 19.5t-19.5 48.5q0 27 19.5 46.5t48.5 19.5zM275 1q-7 -8 -24.5 -13t-40.5 -5q-66 0 -95 30t-29 97v259l-64 -4v22l66 43v60q0 16 -1 34.5t-3 57.5q38 14 65 25t57 25l14 -10q-3 -19 -5.5 -35
t-4 -32t-2 -32.5t-0.5 -36.5v-58l114 6l-8 -65h-106v-238q0 -37 13.5 -51t48.5 -14q12 0 21.5 2.5t24.5 10.5l8 -19z" />
    <glyph glyph-name="endash" unicode="&#x2013;" 
d="M500 208h-500v83h500v-83v0z" />
    <glyph glyph-name="emdash" unicode="&#x2014;" horiz-adv-x="1000" 
d="M1000 208h-1000v83h1000v-83v0z" />
    <glyph glyph-name="quoteleft" unicode="&#x2018;" horiz-adv-x="278" 
d="M235 695l14 -16q-26 -60 -46 -123.5t-28 -117.5q-74 -9 -132 -33l-14 13q23 51 60.5 117.5t79.5 132.5z" />
    <glyph glyph-name="quoteright" unicode="&#x2019;" horiz-adv-x="278" 
d="M43 405l-14 16q26 60 46 123.5t28 117.5q36 5 69.5 13t62.5 20l14 -13q-23 -51 -60 -117t-80 -133z" />
    <glyph glyph-name="quotesinglbase" unicode="&#x201a;" horiz-adv-x="333" 
d="M70 -160l-14 16q26 60 46 123.5t28 117.5q36 5 69.5 13t62.5 20l14 -13q-23 -51 -60 -117t-80 -133z" />
    <glyph glyph-name="quotedblleft" unicode="&#x201c;" 
d="M240 695l14 -16q-26 -60 -46 -123.5t-28 -117.5q-74 -9 -132 -33l-14 13q23 51 60.5 117.5t79.5 132.5zM452 695l14 -16q-26 -60 -46 -123.5t-28 -117.5q-74 -9 -132 -33l-14 13q23 51 60.5 117.5t79.5 132.5z" />
    <glyph glyph-name="quotedblright" unicode="&#x201d;" 
d="M48 405l-14 16q26 60 46 123.5t28 117.5q36 5 69.5 13t62.5 20l14 -13q-23 -51 -60 -117t-80 -133zM260 405l-14 16q26 60 46 123.5t28 117.5q36 5 69.5 13t62.5 20l14 -13q-23 -51 -60 -117t-80 -133z" />
    <glyph glyph-name="quotedblbase" unicode="&#x201e;" 
d="M48 -160l-14 16q26 60 46 123.5t28 117.5q36 5 69.5 13t62.5 20l14 -13q-23 -51 -60 -117t-80 -133zM260 -160l-14 16q26 60 46 123.5t28 117.5q36 5 69.5 13t62.5 20l14 -13q-23 -51 -60 -117t-80 -133z" />
    <glyph glyph-name="dagger" unicode="&#x2020;" 
d="M180 675l6 7q33 -2 45 -2.5t20 -0.5t20 0.5t45 2.5l5 -7l-16 -213l164 8l3 -6q-2 -25 -2.5 -33t-0.5 -13v-5t0.5 -6.5t1 -12.5t1.5 -23l-3 -6l-164 8l18 -374l-5 -5q-32 2 -45.5 2.5t-21.5 0.5t-21.5 -0.5t-45.5 -2.5l-6 5l18 374l-164 -8l-3 6l1 16q1 12 1.5 19.5
t0.5 11.5t-0.5 11.5t-1.5 19.5l-1 15l3 6l164 -8z" />
    <glyph glyph-name="daggerdbl" unicode="&#x2021;" 
d="M203 403l-164 -9l-7 5l1 8l1 11v10t1 14v5l-3 42l7 5l164 -10l-16 193l8 5l11 -1q17 -1 27.5 -1.5t15.5 -0.5h5.5t8 0.5t15 1t27.5 1.5l8 -5l-16 -193l164 10l7 -5l-1 -12l-1 -15q-1 -8 -1 -12.5v-5.5l3 -45l-7 -5l-164 9l14 -183l-14 -189l164 10l7 -5q-3 -32 -3 -45
l3 -45l-7 -5l-164 9l16 -190l-8 -5q-18 1 -27.5 1.5t-14.5 1t-7.5 0.5h-5.5h-5.5t-7.5 -0.5t-14.5 -1t-27.5 -1.5l-8 5l16 190l-164 -9l-7 5l1 12q1 11 1.5 20t0.5 12v2l-3 44l7 5l164 -10l-14 189z" />
    <glyph glyph-name="bullet" unicode="&#x2022;" horiz-adv-x="606" 
d="M303 516q35 0 66.5 -13.5t55 -37t37 -55t13.5 -66.5t-13.5 -66.5t-37 -55t-54.5 -37t-66 -13.5q-36 0 -67.5 13.5t-55 37.5t-37 55.5t-13.5 67.5q0 34 14 65t37.5 54.5t54.5 37t66 13.5z" />
    <glyph glyph-name="ellipsis" unicode="&#x2026;" horiz-adv-x="1000" 
d="M168 144q15 0 29 -6.5t24.5 -17.5t17 -25.5t6.5 -29.5q0 -31 -23.5 -54t-55.5 -23q-31 0 -54 22.5t-23 54.5t23.5 55.5t55.5 23.5zM501 144q15 0 29 -6.5t24.5 -17.5t17 -25.5t6.5 -29.5q0 -31 -23.5 -54t-55.5 -23q-31 0 -54 22.5t-23 54.5t23.5 55.5t55.5 23.5z
M834 144q15 0 29 -6.5t24.5 -17.5t17 -25.5t6.5 -29.5q0 -31 -23.5 -54t-55.5 -23q-31 0 -54 22.5t-23 54.5t23.5 55.5t55.5 23.5z" />
    <glyph glyph-name="perthousand" unicode="&#x2030;" horiz-adv-x="1000" 
d="M182 700q66 0 105.5 -45t39.5 -121q0 -35 -10.5 -64t-30 -49.5t-46.5 -32t-60 -11.5t-60 11.5t-46.5 32t-30 49.5t-10.5 64q0 77 40 121.5t109 44.5zM181 671q-30 0 -42.5 -30t-12.5 -103q0 -65 14 -98.5t40 -33.5q54 0 54 135q0 69 -12.5 99.5t-40.5 30.5zM508 323
q66 0 105.5 -45t39.5 -121q0 -35 -10.5 -64t-30 -49.5t-46.5 -32t-60 -11.5t-60 11.5t-46.5 32t-30 49.5t-10.5 64q0 77 40 121.5t109 44.5zM507 294q-30 0 -42.5 -30t-12.5 -103q0 -65 14 -98.5t40 -33.5q54 0 54 135q0 69 -12.5 99.5t-40.5 30.5zM837 323q66 0 105.5 -45
t39.5 -121q0 -35 -10.5 -64t-30 -49.5t-46.5 -32t-60 -11.5t-60 11.5t-46.5 32t-30 49.5t-10.5 64q0 77 40 121.5t109 44.5zM836 294q-30 0 -42.5 -30t-12.5 -103q0 -65 14 -98.5t40 -33.5q54 0 54 135q0 69 -12.5 99.5t-40.5 30.5zM119 -9l403 733h51l-403 -733h-51z" />
    <glyph glyph-name="guilsinglleft" unicode="&#x2039;" horiz-adv-x="389" 
d="M307 416l-110 -173l110 -179l-27 -20q-68 69 -114 112.5t-84 74.5v25q40 35 68.5 60.5t51 46t41 38t37.5 37.5z" />
    <glyph glyph-name="guilsinglright" unicode="&#x203a;" horiz-adv-x="389" 
d="M109 438q31 -32 80 -77t118 -105v-25q-37 -30 -84.5 -74.5t-113.5 -112.5l-27 20l110 179l-110 173z" />
    <glyph glyph-name="Euro" unicode="&#x20ac;" 
d="M3 254l27 41h34q-1 17 -1.5 28.5t-0.5 22.5h-61l27 41h36q4 72 23.5 129t52.5 97t78 61t100 21q40 0 72 -10.5t74 -36.5l6 -11q-3 -14 -5 -26t-4 -28t-4.5 -39t-5.5 -60h-39v10q0 38 -4.5 60t-18.5 43q-27 42 -63 42q-51 0 -81 -67.5t-32 -184.5h173l-27 -41h-146
q0 -15 0.5 -26.5t1.5 -24.5h121l-27 -41h-90q14 -99 49.5 -152.5t86.5 -53.5q47 0 93 51l18 -12q-7 -14 -13 -24.5t-12 -19t-12.5 -15t-15.5 -12.5q-47 -33 -109 -33q-96 0 -156.5 70t-78.5 201h-66z" />
    <glyph glyph-name="trademark" unicode="&#x2122;" horiz-adv-x="998" 
d="M961 274h-173v26q18 0 28 1.5t15 6.5t6.5 14.5t1.5 25.5v283l-145 -357h-10l-151 357v-299q0 -20 9 -25.5t41 -6.5v-26h-131v26q33 1 41.5 6.5t8.5 27.5v288q0 23 -4 27.5t-23 4.5h-15v24h132l118 -279l118 279h133v-24h-19q-20 0 -25 -6t-5 -30v-269q0 -16 1 -25t6 -14
t15 -7t27 -3v-26zM121 274v26q35 1 49.5 11.5t14.5 33.5v301h-44q-41 0 -56.5 -14.5t-16.5 -55.5h-30v102h367v-102h-30q-2 41 -17 55.5t-56 14.5h-44v-310q0 -19 13.5 -27t46.5 -9v-26h-197z" />
    <glyph glyph-name="minus" unicode="&#x2212;" horiz-adv-x="606" 
d="M51 212v86h504v-86h-504v0z" />
    <glyph glyph-name="Mcandrabindu" unicode="&#xf140;" horiz-adv-x="1000" 
d="M396 818q16 -87 104 -87q57 0 87 36q11 11 17.5 25t6.5 24v2h44q-3 -36 -8.5 -57.5t-17.5 -41.5q-41 -64 -125 -64q-94 0 -133 74q-10 20 -13.5 38.5t-5.5 50.5h44zM501 941q27 0 46.5 -20t19.5 -47q0 -28 -19.5 -47.5t-47.5 -19.5t-47.5 19.5t-19.5 48.5q0 27 19.5 46.5
t48.5 19.5zM536 122q-14 -29 -22.5 -46.5t-14.5 -31t-11 -25.5t-12 -29h-34q-14 33 -22.5 52.5t-13.5 30.5l-230 479v-417q0 -33 1 -52t6 -29t14.5 -13t26.5 -4l37 -3v-37q-36 2 -67.5 2.5t-46.5 0.5h-12.5t-16 -0.5t-30.5 -1t-56 -1.5v37l37 3q17 1 26.5 4.5t14.5 13
t6 28.5t1 52v408q0 33 -1 52t-6 28.5t-14.5 12.5t-26.5 5l-37 3v37q26 -1 33 -1h18q23 -1 40 -1.5t29 -0.5l120 3q16 -35 28 -61t21 -45t15 -32.5t11 -22.5l158 -330l183 378l8 18t9.5 21.5t13 30t18.5 43.5q39 -1 60.5 -1.5t32 -1t14.5 -0.5h8h8t15 0.5t32.5 1t60.5 1.5
v-37l-37 -3q-17 -2 -26.5 -5t-14.5 -12.5t-6 -28.5t-1 -52v-408q0 -33 1 -51.5t5.5 -27.5t14 -12t27.5 -4l37 -3v-40q-45 1 -70.5 1.5t-40 1t-23.5 0.5h-22h-21.5t-23 -0.5t-40 -1t-70.5 -1.5v40l37 3q18 1 27.5 4t14 12t5.5 27.5t1 51.5v416z" />
    <glyph glyph-name="mcandrabindu" unicode="&#xf141;" horiz-adv-x="889" 
d="M327 669q16 -87 104 -87q57 0 87 36q11 11 17.5 25t6.5 24v2h44q-3 -36 -8.5 -57.5t-17.5 -41.5q-41 -64 -125 -64q-94 0 -133 74q-10 20 -13.5 38.5t-5.5 50.5h44zM432 792q27 0 46.5 -20t19.5 -47q0 -28 -19.5 -47.5t-47.5 -19.5t-47.5 19.5t-19.5 48.5q0 27 19.5 46.5
t48.5 19.5zM24 428q21 1 38 3t37 6.5t46.5 12.5t65.5 21l6 -6v-75l80 62q25 19 71 19q52 0 83.5 -19t48.5 -62l80 62q25 19 72 19q40 0 67.5 -9.5t44 -31.5t24 -57t7.5 -87v-186q0 -20 1.5 -32.5t5 -19t10.5 -9t19 -3.5l33 -2v-37q-15 1 -25.5 1.5t-20 0.5t-21.5 0.5
t-31 0.5l-93 -3v272q0 116 -86 116q-15 0 -29.5 -6t-26 -15.5t-18.5 -22t-7 -24.5v-217q0 -20 1.5 -32.5t5 -19t10.5 -9t19 -3.5l35 -2v-37q-40 1 -62 1.5t-34.5 1t-19 0.5h-15.5h-16t-19 -0.5t-33.5 -1t-60.5 -1.5v37l31 2q12 1 19 3.5t11 9t5 19t1 32.5v169q0 116 -86 116
q-15 0 -29.5 -6t-26 -15.5t-18.5 -22t-7 -24.5v-217q0 -20 1 -32.5t5 -19t11 -9t19 -3.5l27 -2v-37q-92 3 -127 3l-129 -3v37l35 2q12 1 19 3.5t10.5 9t5 19t1.5 32.5v219q0 22 -1 35.5t-3.5 21t-7.5 10t-14 3.5l-45 3v36z" />
    <glyph glyph-name="Lmacronunder" unicode="&#x1e3a;" horiz-adv-x="611" 
d="M93 -146v71h446v-71h-446zM265 58q39 -2 69 -2.5t62 -0.5q47 0 82 5t37 12l23 102h39l-11 -166l-5 -8q-22 -1 -39.5 -2t-33.5 -1.5t-32.5 -0.5h-35.5h-37.5t-40 0.5t-49 1.5t-65.5 2h-34h-15t-17.5 -0.5t-32 -1t-57.5 -1.5v23l32 18q11 6 15.5 18.5t4.5 38.5v448
q0 33 -1 51.5t-5.5 27.5t-14 11.5t-27.5 4.5l-37 3v40q45 -1 70 -1.5t39.5 -1t23.5 -0.5h22h21.5t23.5 0.5t40 1t71 1.5v-40l-37 -3q-18 -2 -27.5 -4.5t-14 -11.5t-5.5 -27.5t-1 -51.5v-485z" />
    <glyph glyph-name="lmacronunder" unicode="&#x1e3b;" horiz-adv-x="333" 
d="M24 -146v71h282v-71h-282zM225 714v-614q0 -20 1.5 -32.5t5 -19t10.5 -9t19 -3.5l35 -2v-37q-51 2 -85.5 2.5t-49.5 0.5l-129 -3v37l35 2q12 1 19 3.5t10.5 9t5 19t1.5 32.5v468q0 22 -1 35.5t-4 21t-8 10.5t-13 3l-53 3v36q44 5 71.5 9.5t49.5 11.5l72 22z" />
    <glyph glyph-name="quotedbl" unicode="&#x22;" horiz-adv-x="402" 
d="M67 376l-44 239q-1 4 -1 9q0 13 6 26t15.5 23t21.5 16t25 6t25.5 -6t22 -16t15 -23t5.5 -26q0 -6 -1 -9l-44 -239h-46zM289 376l-44 239q-1 4 -1 9q0 13 6 26t15.5 23t21.5 16t25 6t25.5 -6t22 -16t15 -23t5.5 -26q0 -6 -1 -9l-44 -239h-46z" />
    <glyph glyph-name="exclam" unicode="!" horiz-adv-x="278" 
d="M142 144q15 0 29 -6.5t24.5 -17.5t17 -25.5t6.5 -29.5q0 -31 -23.5 -54t-55.5 -23q-31 0 -54 22.5t-23 54.5t23.5 55.5t55.5 23.5zM219 688q0 -26 -1.5 -46.5t-5.5 -49.5l-50 -372l-38 -21l-5 8l-47 358q-1 6 -1.5 12t-1 14.5t-1 20.5t-0.5 32l100 44h51z" />
    <glyph glyph-name="Gdotaccent" unicode="&#x120;" horiz-adv-x="833" 
d="M462 895q27 0 46.5 -20t19.5 -47q0 -28 -19.5 -47.5t-47.5 -19.5t-47.5 19.5t-19.5 48.5q0 27 19.5 46.5t48.5 19.5zM776 242q-28 -6 -34.5 -12t-6.5 -24v-163q-45 -17 -83 -28.5t-73 -18.5t-69 -10t-72 -3q-89 0 -161 26t-123 73t-79 114t-28 150q0 81 28.5 145.5
t82.5 110t130.5 69.5t172.5 24q73 0 133 -11t128 -36l6 -11q-3 -14 -5.5 -26.5t-5 -28.5t-5.5 -39t-7 -59h-39l-5 86q-9 9 -15.5 14.5t-13 10t-13.5 8t-16 7.5q-32 14 -70.5 21.5t-76.5 7.5q-123 0 -191 -74t-68 -207q0 -71 19.5 -130t54.5 -101t85 -65t110 -23
q32 0 60.5 5.5t66.5 19.5v132q0 20 -12.5 27.5t-44.5 9.5l-53 2v41q61 -2 93.5 -2.5t49.5 -0.5h17t21 0.5t39.5 1t72.5 1.5v-34z" />
    <glyph glyph-name="gdotaccent" unicode="&#x121;" horiz-adv-x="556" 
d="M265 671q27 0 46.5 -20t19.5 -47q0 -28 -19.5 -47.5t-47.5 -19.5t-47.5 19.5t-19.5 48.5q0 27 19.5 46.5t48.5 19.5zM452 372q3 -14 4 -24.5t1 -22.5q0 -38 -10.5 -65.5t-33.5 -50.5q-31 -31 -76.5 -47.5t-97.5 -16.5q-9 0 -17.5 0.5t-22.5 1.5q-29 -17 -29 -39
q0 -30 47 -30q8 0 40 1t106 3h24q76 0 112 -30.5t36 -93.5q0 -50 -21 -91t-59.5 -70.5t-92.5 -46t-120 -16.5q-100 0 -158 38t-58 104q0 20 7.5 37.5t18.5 24.5l81 48q-38 10 -53 25t-15 42q0 15 4.5 29t12.5 19l71 54q-26 9 -40.5 17.5t-28.5 23.5q-37 40 -37 96
q0 39 16 72t44.5 57t68.5 37t88 13t84.5 -10t67.5 -33q12 -1 21 -1h15q17 0 34 1t48 4l-5 -64zM252 421q-82 0 -82 -110q0 -57 22.5 -88.5t61.5 -31.5q80 0 80 108q0 60 -21 91t-61 31zM272 -15q-76 0 -101 -11q-23 -11 -37 -34.5t-14 -51.5q0 -47 40.5 -75.5t107.5 -28.5
q33 0 61.5 9t49.5 25.5t33 38.5t12 48q0 24 -6.5 39.5t-23.5 24.5t-46.5 12.5t-75.5 3.5z" />
    <glyph glyph-name="KHmacronunder" unicode="&#xf146;" horiz-adv-x="1531" 
d="M140 -146v71h1252v-71h-1252zM889 678h21.5t23.5 0.5t40 1t71 1.5v-40l-37 -3q-18 -2 -27.5 -4.5t-14 -11.5t-5.5 -27.5t-1 -51.5v-158q17 -2 34.5 -2h46.5h146h46t35 2v158q0 33 -1 51.5t-5.5 27.5t-14 11.5t-27.5 4.5l-37 3v40q45 -1 70 -1.5t39.5 -1t23.5 -0.5h22
h21.5t23.5 0.5t40 1t71 1.5v-40l-37 -3q-18 -2 -27.5 -4.5t-14 -11.5t-5.5 -27.5t-1 -51.5v-408q0 -33 1 -51.5t5.5 -27.5t14 -12t27.5 -4l37 -3v-40q-45 1 -70.5 1.5t-40 1t-23.5 0.5h-22h-21.5t-23 -0.5t-40 -1t-70.5 -1.5v40l37 3q18 1 27.5 4t14 12t5.5 27.5t1 51.5v190
q-20 1 -37.5 1.5t-43.5 0.5h-146q-26 0 -43.5 -0.5t-37.5 -1.5v-190q0 -33 1 -51.5t5.5 -27.5t14 -12t27.5 -4l37 -3v-40q-45 1 -70.5 1.5t-40 1t-23.5 0.5h-22h-139h-24h-67l-102 -3l-208 249q-21 25 -34 39.5t-21.5 23t-15 13t-16.5 10.5v-197q0 -33 1 -51.5t5.5 -27.5
t14 -12t27.5 -4l37 -3v-40q-45 1 -70.5 1.5t-40 1t-23.5 0.5h-22h-21.5t-23 -0.5t-40 -1t-70.5 -1.5v40l37 3q18 1 27.5 4t14 12t5.5 27.5t1 51.5v408q0 33 -1 51.5t-5.5 27.5t-14 11.5t-27.5 4.5l-37 3v40q45 -1 70 -1.5t39.5 -1t23.5 -0.5h22h21.5t23.5 0.5t40 1t71 1.5
v-40l-37 -3q-18 -2 -27.5 -4.5t-14 -11.5t-5.5 -27.5t-1 -51.5v-200l197 193q7 7 23 24t35 38q8 8 10 12q16 17 21 26t5 20v25q43 -2 61.5 -2.5t29.5 -0.5h78h167zM719 638q-35 -1 -55.5 -7t-38.5 -23l-222 -207l266 -313q23 -27 38.5 -37.5t41.5 -12.5h25q16 2 25.5 5
t13.5 12.5t5 28t1 51.5v408q0 33 -1 51.5t-5.5 27.5t-14 11.5t-27.5 4.5h-52v0z" />
    <glyph glyph-name="Khmacronunder" unicode="&#xf147;" horiz-adv-x="1359" 
d="M144 -146v71h1105v-71h-1105zM760 677q53 3 80 9.5t45 11.5l72 22l8 -6v-324l80 62q23 19 70 19q76 0 116 -42q20 -21 27.5 -53t7.5 -90v-186q0 -20 1.5 -32.5t5 -19t10.5 -9t19 -3.5l33 -2v-37q-33 1 -50.5 1.5t-27 1t-14 0.5h-9.5h-13t-17 -0.5t-24.5 -1t-35.5 -1.5
v272q0 61 -22 88.5t-72 27.5q-17 0 -32 -5.5t-27 -15t-19 -22t-7 -25.5v-217q0 -20 1.5 -32.5t5 -19t10.5 -9t19 -3.5l35 -2v-37q-51 2 -85.5 2.5t-49.5 0.5h-136h-103l-102 -3l-208 249q-21 25 -34 39.5t-21.5 23t-15 13t-16.5 10.5v-197q0 -33 1 -51.5t5.5 -27.5t14 -12
t27.5 -4l37 -3v-40q-45 1 -70.5 1.5t-40 1t-23.5 0.5h-22h-21.5t-23 -0.5t-40 -1t-70.5 -1.5v40l37 3q18 1 27.5 4t14 12t5.5 27.5t1 51.5v408q0 33 -1 51.5t-5.5 27.5t-14 11.5t-27.5 4.5l-37 3v40q45 -1 70 -1.5t39.5 -1t23.5 -0.5h22h21.5t23.5 0.5t40 1t71 1.5v-40
l-37 -3q-18 -2 -27.5 -4.5t-14 -11.5t-5.5 -27.5t-1 -51.5v-200l197 193q7 7 23 24t35 38q8 8 10 12q16 17 21 26t5 20v25q43 -2 61.5 -2.5t29.5 -0.5h12h19h31.5t50.5 -1zM760 638q-33 -1 -54.5 -2.5t-36 -5t-23.5 -9t-18 -13.5l-222 -207l266 -313q22 -25 42 -37.5
t51 -14.5h42q12 1 19 3.5t10.5 9t5 19t1.5 32.5v468q0 22 -1 35.5t-3.5 21t-7.5 10t-14 3.5h-57v0z" />
    <glyph glyph-name="khmacronunder" unicode="&#xf148;" horiz-adv-x="1192" 
d="M122 -146v71h964v-71h-964zM425 0q-6 7 -18 22t-25.5 31.5t-25.5 31.5t-18 21l-106 120h-10v-126q0 -20 1.5 -32.5t5 -19t10.5 -9t19 -3.5l35 -2v-37q-51 2 -85.5 2.5t-49.5 0.5l-129 -3v37l35 2q12 1 19 3.5t10.5 9t5 19t1.5 32.5v468q0 22 -1 35.5t-4 21t-8 10.5t-13 3
l-53 3v36q44 5 71.5 9.5t49.5 11.5l72 22l8 -6v-465q42 36 65.5 57.5t40.5 39.5l107 113h130v-38h-31q-24 0 -48 -18l-62 -45q-8 -5 -27.5 -23t-42.5 -41l-8 -8l196 -220q24 -27 49 -31h49q12 1 19 4t10.5 9.5t5 19t1.5 32.5v468q0 22 -1 35.5t-3.5 21t-7.5 10t-14 3.5
l-45 3v36q41 5 67 10t46 11l72 22l8 -6v-324l80 62q23 19 70 19q76 0 116 -42q20 -21 27.5 -53t7.5 -90v-186q0 -20 1.5 -32.5t5 -19t10.5 -9t19 -3.5l33 -2v-37q-33 1 -50.5 1.5t-27 1t-14 0.5h-9.5h-13t-17 -0.5t-24.5 -1t-35.5 -1.5v272q0 61 -22 88.5t-72 27.5
q-17 0 -32 -5.5t-27 -15t-19 -22t-7 -25.5v-217q0 -20 1.5 -32.5t5 -19t10.5 -9t19 -3.5l35 -2v-37q-51 2 -85.5 2.5t-49.5 0.5h-144h-165z" />
    <glyph glyph-name="Rbreve" unicode="&#xf156;" horiz-adv-x="722" 
d="M237 925q16 -87 104 -87q57 0 87 36q11 11 17.5 25t6.5 24v2h44q-3 -36 -8.5 -57.5t-17.5 -41.5q-41 -64 -125 -64q-94 0 -133 74q-10 20 -13.5 38.5t-5.5 50.5h44zM638 82q9 -12 16 -19.5t14.5 -12.5t16.5 -7.5t23 -5.5v-40q-14 1 -23.5 1.5t-19.5 0.5t-22.5 0.5
t-31.5 0.5l-90 -3l-224 347l7 18q33 -1 54 3.5t40 15.5q31 18 48.5 50t17.5 72q0 61 -36.5 94.5t-103.5 33.5q-38 0 -59 -9v-487q0 -33 1 -51.5t5.5 -27.5t14 -12t27.5 -4l37 -3v-40q-45 1 -70.5 1.5t-40 1t-23.5 0.5h-22h-21.5t-23 -0.5t-40 -1t-70.5 -1.5v40l37 3
q18 1 27.5 4t14 12t5.5 27.5t1 51.5v408q0 33 -1 52t-6 28.5t-14.5 12.5t-26.5 5l-37 3v37q56 -1 87 -1.5t47.5 -1t24.5 -0.5h19h26t37.5 0.5t38 1t28.5 0.5q26 1 43.5 1h25.5q190 0 190 -147q0 -64 -43 -110q-10 -11 -20 -20t-22 -16.5t-27.5 -15t-36.5 -16.5z" />
    <glyph glyph-name="rbreve" unicode="&#xf157;" horiz-adv-x="389" 
d="M92 669q16 -87 104 -87q57 0 87 36q11 11 17.5 25t6.5 24v2h44q-3 -36 -8.5 -57.5t-17.5 -41.5q-41 -64 -125 -64q-94 0 -133 74q-10 20 -13.5 38.5t-5.5 50.5h44zM223 465v-95l44 48q28 31 46 42t39 11q22 0 37 -6l-5 -129l-24 -10q-21 36 -57 36q-15 0 -29 -5.5
t-25.5 -14.5t-18.5 -20.5t-7 -23.5v-198q0 -21 1.5 -33.5t6.5 -19t14.5 -8.5t25.5 -3l39 -2v-37q-51 1 -79 1.5t-42.5 1t-19.5 0.5h-10l-129 -3v37l35 2q12 1 19 3.5t10.5 9t5 19t1.5 32.5v219q0 22 -1 35.5t-3.5 21t-7.5 10t-14 3.5l-45 3v36l40 5t28 4.5t22.5 5t22.5 6.5
l70 22z" />
    <glyph glyph-name="Lmacronunderdot" unicode="&#x1e38;" horiz-adv-x="611" 
d="M186 -78q27 0 46.5 -20t19.5 -47q0 -28 -19.5 -47.5t-47.5 -19.5t-47.5 19.5t-19.5 48.5q0 27 19.5 46.5t48.5 19.5zM39 762v71h331v-71h-331zM265 58q39 -2 69 -2.5t62 -0.5q47 0 82 5t37 12l23 102h39l-11 -166l-5 -8q-22 -1 -39.5 -2t-33.5 -1.5t-32.5 -0.5h-35.5
h-37.5t-40 0.5t-49 1.5t-65.5 2h-34h-15t-17.5 -0.5t-32 -1t-57.5 -1.5v23l32 18q11 6 15.5 18.5t4.5 38.5v448q0 33 -1 51.5t-5.5 27.5t-14 11.5t-27.5 4.5l-37 3v40q45 -1 70 -1.5t39.5 -1t23.5 -0.5h22h21.5t23.5 0.5t40 1t71 1.5v-40l-37 -3q-18 -2 -27.5 -4.5
t-14 -11.5t-5.5 -27.5t-1 -51.5v-485z" />
    <glyph glyph-name="lmacronunderdot" unicode="&#x1e39;" horiz-adv-x="333" 
d="M24 762v71h270v-71h-270zM161 -78q27 0 46.5 -20t19.5 -47q0 -28 -19.5 -47.5t-47.5 -19.5t-47.5 19.5t-19.5 48.5q0 27 19.5 46.5t48.5 19.5zM225 714v-614q0 -20 1.5 -32.5t5 -19t10.5 -9t19 -3.5l35 -2v-37q-51 2 -85.5 2.5t-49.5 0.5l-129 -3v37l35 2q12 1 19 3.5
t10.5 9t5 19t1.5 32.5v468q0 22 -1 35.5t-4 21t-8 10.5t-13 3l-53 3v36q44 5 71.5 9.5t49.5 11.5l72 22z" />
    <glyph glyph-name="A.001" horiz-adv-x="778" 
d="M218 206l-42 -112q-5 -13 -5 -25q0 -13 8 -22t21 -10l50 -3v-37q-20 1 -35 1t-22 1q-21 1 -35 1h-21h-21t-35 -1q-6 -1 -21.5 -1t-35.5 -1v37l30 3q31 3 56 60l181 438q8 18 29 76q3 8 10 27.5t18 47.5h71l259 -605q10 -22 22 -31.5t33 -12.5l24 -3v-37q-55 1 -85 1.5
t-45 1t-19.5 0.5h-8.5h-9.5t-18.5 -0.5t-43 -1t-81 -1.5v37l53 3q8 1 14 8.5t6 18.5q0 13 -6 28l-45 114h-251zM242 262h204l-104 254z" />
    <glyph glyph-name="Abreve" unicode="&#x102;" horiz-adv-x="778" 
d="M218 206l-42 -112q-5 -13 -5 -25q0 -13 8 -22t21 -10l50 -3v-37q-20 1 -35 1t-22 1q-21 1 -35 1h-21h-21t-35 -1q-6 -1 -21.5 -1t-35.5 -1v37l30 3q31 3 56 60l181 438q8 18 29 76q3 8 10 27.5t18 47.5h71l259 -605q10 -22 22 -31.5t33 -12.5l24 -3v-37q-55 1 -85 1.5
t-45 1t-19.5 0.5h-8.5h-9.5t-18.5 -0.5t-43 -1t-81 -1.5v37l53 3q8 1 14 8.5t6 18.5q0 13 -6 28l-45 114h-251zM242 262h204l-104 254zM282 893q16 -87 104 -87q57 0 87 36q11 11 17.5 25t6.5 24v2h44q-3 -36 -8.5 -57.5t-17.5 -41.5q-41 -64 -125 -64q-94 0 -133 74
q-10 20 -13.5 38.5t-5.5 50.5h44z" />
    <glyph glyph-name="abreve" unicode="&#x103;" 
d="M206 -5q-15 -12 -49 -12q-57 0 -87 31.5t-30 92.5q0 32 9 55.5t29 41.5t53 30.5t80 22.5l88 18q-2 62 -26.5 90t-75.5 28q-20 0 -38 -4.5t-20 -9.5l-22 -50l-30 7v69l53 32q55 34 120 34q76 0 118.5 -37.5t42.5 -104.5v-12t-1 -17q-1 -29 -1.5 -53t-0.5 -44
q0 -18 0.5 -39t1.5 -45v-21q1 -35 6 -46.5t22 -14.5l30 -3v-37q-45 2 -62 2.5t-26 0.5t-27 -1t-64 -2l-5 8l5 62zM299 233l-45 -12q-27 -7 -44.5 -15t-28 -18t-15 -23.5t-4.5 -31.5q0 -29 13.5 -46t37.5 -17q23 0 47.5 12.5t38.5 32.5v118zM143 669q16 -87 104 -87
q57 0 87 36q11 11 17.5 25t6.5 24v2h44q-3 -36 -8.5 -57.5t-17.5 -41.5q-41 -64 -125 -64q-94 0 -133 74q-10 20 -13.5 38.5t-5.5 50.5h44z" />
    <glyph glyph-name="Ebreve" unicode="&#x114;" horiz-adv-x="611" 
d="M217 925q16 -87 104 -87q57 0 87 36q11 11 17.5 25t6.5 24v2h44q-3 -36 -8.5 -57.5t-17.5 -41.5q-41 -64 -125 -64q-94 0 -133 74q-10 20 -13.5 38.5t-5.5 50.5h44zM265 380q15 -2 28.5 -2h38.5h66q32 0 43.5 4.5t13.5 16.5l6 57h40q-1 -36 -1.5 -55.5t-1 -29.5t-0.5 -14
v-8l3 -108h-40l-6 50q-2 20 -15 28.5t-42 8.5h-66q-17 0 -31.5 -0.5t-35.5 -2.5v-267q38 -2 69 -2.5t62 -0.5q42 0 67.5 3t48.5 11q3 1 3 3l23 94h39l-11 -158l-5 -8q-22 -1 -39.5 -2t-33.5 -1.5t-32.5 -0.5h-35.5h-37.5t-40 0.5t-49 1.5t-65.5 2h-34h-15t-17.5 -0.5t-32 -1
t-57.5 -1.5v23l32 18q11 6 15.5 18.5t4.5 38.5v448q0 33 -1 52t-6 28.5t-14.5 12.5t-26.5 5l-37 3v37q41 -1 70.5 -1.5t51.5 -1t37.5 -0.5h28.5h22.5h26t34.5 0.5t47 1.5q42 1 66.5 1.5t41.5 0.5h26.5t22 -0.5t21.5 -1.5t25 -2l6 -7l-14 -142h-36l-8 75q-1 8 -29 14t-69 6
h-38t-34 -0.5t-34.5 -1.5t-38.5 -2v-240z" />
    <glyph glyph-name="ebreve" unicode="&#x115;" 
d="M168 669q16 -87 104 -87q57 0 87 36q11 11 17.5 25t6.5 24v2h44q-3 -36 -8.5 -57.5t-17.5 -41.5q-41 -64 -125 -64q-94 0 -133 74q-10 20 -13.5 38.5t-5.5 50.5h44zM461 243q-42 -11 -78.5 -15.5t-79.5 -4.5h-131q2 -35 7 -56t17 -42q19 -32 53 -51.5t73 -19.5
q30 0 56 7.5t61 27.5l12 -15l-22 -48q-24 -12 -43.5 -20.5t-38 -13.5t-37 -7t-39.5 -2q-112 0 -170.5 61.5t-58.5 181.5q0 72 22.5 118.5t72.5 75.5l47 28q20 12 41 17.5t47 5.5q86 0 137.5 -47.5t51.5 -128.5v-52zM334 276q-2 75 -21 107t-62 32q-44 0 -63.5 -32
t-21.5 -107l32 -1q11 -1 27 -1.5t21 -0.5h4z" />
    <glyph glyph-name="Obreve" unicode="&#x14e;" horiz-adv-x="833" 
d="M322 925q16 -87 104 -87q57 0 87 36q11 11 17.5 25t6.5 24v2h44q-3 -36 -8.5 -57.5t-17.5 -41.5q-41 -64 -125 -64q-94 0 -133 74q-10 20 -13.5 38.5t-5.5 50.5h44zM430 695q85 0 151 -23.5t112 -68.5t70 -110t24 -147q0 -86 -26 -153t-74.5 -114t-119 -71.5
t-160.5 -24.5q-173 0 -266.5 90.5t-93.5 258.5q0 86 26 153.5t75 114t120 71t162 24.5zM421 639q-96 0 -154 -57q-34 -34 -52 -92t-18 -135q0 -87 22 -155.5t63 -108.5q27 -27 58.5 -39.5t73.5 -12.5q110 0 166.5 72t56.5 214q0 85 -22 153.5t-64 109.5q-53 51 -130 51z" />
    <glyph glyph-name="obreve" unicode="&#x14f;" horiz-adv-x="556" 
d="M178 669q16 -87 104 -87q57 0 87 36q11 11 17.5 25t6.5 24v2h44q-3 -36 -8.5 -57.5t-17.5 -41.5q-41 -64 -125 -64q-94 0 -133 74q-10 20 -13.5 38.5t-5.5 50.5h44zM287 471q112 0 171 -60t59 -175q0 -122 -64.5 -187.5t-185.5 -65.5q-109 0 -168 62.5t-59 178.5
q0 120 63.5 183.5t183.5 63.5zM275 423q-52 0 -75.5 -42t-23.5 -133q0 -217 109 -217q51 0 73.5 41t22.5 133q0 218 -106 218z" />
    <glyph glyph-name="Nmacronunder" unicode="&#x1e48;" horiz-adv-x="833" 
d="M124 -146v71h566v-71h-566zM239 681q24 -32 40 -53.5t27.5 -36t19.5 -24.5t16 -19l312 -364v359q0 33 -1 52t-6 28.5t-14.5 12.5t-26.5 5l-37 3v37q33 -1 53.5 -1.5t33 -1t18.5 -0.5h10l114 3v-37l-37 -3q-17 -2 -26.5 -5t-14.5 -12.5t-6 -28.5t-1 -52v-454
q0 -17 0.5 -38t2.5 -63l-7 -4l-82 13q-27 30 -45.5 50.5t-32 36.5t-24 28t-20.5 24l-326 392v-393q0 -33 1 -52t6 -29t14.5 -13t26.5 -4l37 -3v-37q-36 2 -67.5 2.5t-46.5 0.5h-12.5t-16 -0.5t-30.5 -1t-56 -1.5v37l37 3q17 1 26.5 4.5t14.5 13t6 28.5t1 52v408q0 33 -1 52
t-6 28.5t-14.5 12.5t-26.5 5l-37 3v37q85 -3 99 -3h21z" />
    <glyph glyph-name="nmacronunder" unicode="&#x1e49;" horiz-adv-x="611" 
d="M114 -146v71h390v-71h-390zM24 428q21 1 38 3t37 6.5t46.5 12.5t65.5 21l6 -6v-75l80 62q23 19 70 19q76 0 116 -42q20 -21 27.5 -53t7.5 -90v-186q0 -20 1.5 -32.5t5 -19t10.5 -9t19 -3.5l33 -2v-37q-33 1 -50.5 1.5t-27 1t-14 0.5h-9.5h-13t-17 -0.5t-24.5 -1
t-35.5 -1.5v273q0 60 -22 87.5t-72 27.5q-17 0 -32 -5.5t-27 -15t-19 -22t-7 -25.5v-217q0 -20 1.5 -32.5t5 -19t10.5 -9t19 -3.5l35 -2v-37q-51 2 -85.5 2.5t-49.5 0.5l-129 -3v37l35 2q12 1 19 3.5t10.5 9t5 19t1.5 32.5v219q0 22 -1 35.5t-3.5 21t-7.5 10t-14 3.5l-45 3
v36z" />
    <glyph glyph-name="Rmacronunder" unicode="&#x1e5e;" horiz-adv-x="722" 
d="M126 -146v71h527v-71h-527zM638 82q9 -12 16 -19.5t14.5 -12.5t16.5 -7.5t23 -5.5v-40q-14 1 -23.5 1.5t-19.5 0.5t-22.5 0.5t-31.5 0.5l-90 -3l-224 347l7 18q33 -1 54 3.5t40 15.5q31 18 48.5 50t17.5 72q0 61 -36.5 94.5t-103.5 33.5q-38 0 -59 -9v-487q0 -33 1 -51.5
t5.5 -27.5t14 -12t27.5 -4l37 -3v-40q-45 1 -70.5 1.5t-40 1t-23.5 0.5h-22h-21.5t-23 -0.5t-40 -1t-70.5 -1.5v40l37 3q18 1 27.5 4t14 12t5.5 27.5t1 51.5v408q0 33 -1 52t-6 28.5t-14.5 12.5t-26.5 5l-37 3v37q56 -1 87 -1.5t47.5 -1t24.5 -0.5h19h26t37.5 0.5t38 1
t28.5 0.5q26 1 43.5 1h25.5q190 0 190 -147q0 -64 -43 -110q-10 -11 -20 -20t-22 -16.5t-27.5 -15t-36.5 -16.5z" />
    <glyph glyph-name="rmacronunder" unicode="&#x1e5f;" horiz-adv-x="389" 
d="M30 -146v71h290v-71h-290zM223 465v-95l44 48q28 31 46 42t39 11q22 0 37 -6l-5 -129l-24 -10q-21 36 -57 36q-15 0 -29 -5.5t-25.5 -14.5t-18.5 -20.5t-7 -23.5v-198q0 -21 1.5 -33.5t6.5 -19t14.5 -8.5t25.5 -3l39 -2v-37q-51 1 -79 1.5t-42.5 1t-19.5 0.5h-10l-129 -3
v37l35 2q12 1 19 3.5t10.5 9t5 19t1.5 32.5v219q0 22 -1 35.5t-3.5 21t-7.5 10t-14 3.5l-45 3v36l40 5t28 4.5t22.5 5t22.5 6.5l70 22z" />
    <glyph glyph-name="Ydotaccent" unicode="&#x1e8e;" horiz-adv-x="667" 
d="M396 895q27 0 46.5 -20t19.5 -47q0 -28 -19.5 -47.5t-47.5 -19.5t-47.5 19.5t-19.5 48.5q0 27 19.5 46.5t48.5 19.5zM583 678h77v-19l-176 -261q-14 -20 -26.5 -44t-26.5 -56v-163q0 -33 1 -51.5t5.5 -27.5t14 -12t27.5 -4l37 -3v-40q-45 1 -70.5 1.5t-40 1t-23.5 0.5
h-22h-21.5t-23 -0.5t-40 -1t-70.5 -1.5v40l37 3q18 1 27.5 4t14 12t5.5 27.5t1 51.5v139q-12 27 -22 46t-22 39l-101 163q-22 32 -38 51.5t-30 30.5t-28.5 14.5t-33.5 3.5v37l159 36q17 -10 31.5 -22t27.5 -27.5t26.5 -37t28.5 -49.5l107 -203z" />
    <glyph glyph-name="ydotaccent" unicode="&#x1e8f;" horiz-adv-x="556" 
d="M318 671q27 0 46.5 -20t19.5 -47q0 -28 -19.5 -47.5t-47.5 -19.5t-47.5 19.5t-19.5 48.5q0 27 19.5 46.5t48.5 19.5zM240 419q-11 -1 -18.5 -7t-7.5 -16q0 -8 2.5 -16t8.5 -22q2 -5 4 -9.5t2 -5.5l84 -218l101 252q2 4 3 10.5t1 11.5q0 8 -7.5 13.5t-19.5 6.5l-33 2v38
q88 -3 93 -3l93 3v-38l-26 -5q-22 -5 -41 -47l-199 -463q-38 -89 -80.5 -130.5t-95.5 -41.5q-35 0 -73 17l18 95l11 4q33 -37 70 -37q26 0 50.5 24t41.5 67l23 56l-158 404q-11 29 -21 41.5t-21 13.5l-35 2v38q39 -1 63 -1.5t38 -1t20.5 -0.5h11.5l132 3v-38z" />
  </font>
</defs>
</svg>
