<?xml version="1.0" standalone="no"?>
<!DOCTYPE svg PUBLIC "-//W3C//DTD SVG 1.1//EN" "http://www.w3.org/Graphics/SVG/1.1/DTD/svg11.dtd" >
<svg xmlns="http://www.w3.org/2000/svg" xmlns:xlink="http://www.w3.org/1999/xlink" version="1.1">
<metadata>
Created by FontForge 20190801 at Thu Jan 11 09:15:22 2007
 By root
Copyright (c) by (URW)++ Design &#38; Development, 1999. All rights reserved. Designed by Hermann Zapf. Diacritics added by Ulrich Stiehl.
</metadata>
<defs>
<font id="URWPalladioITU-Italic" horiz-adv-x="500" >
  <font-face 
    font-family="URW Palladio ITU"
    font-weight="400"
    font-style="italic"
    font-stretch="normal"
    units-per-em="1000"
    panose-1="2 0 5 3 6 0 0 9 0 4"
    ascent="800"
    descent="-200"
    x-height="482"
    cap-height="692"
    bbox="-427 -276 1408 1050"
    underline-thickness="50"
    underline-position="-100"
    slope="-12"
    unicode-range="U+0020-F157"
  />
<missing-glyph horiz-adv-x="606" 
d="M497 425h-388v-388h388v388v0zM72 0v463h462v-463h-462v0z" />
    <glyph glyph-name=".notdef" horiz-adv-x="606" 
d="M497 425h-388v-388h388v388v0zM72 0v463h462v-463h-462v0z" />
    <glyph glyph-name=".null" horiz-adv-x="0" 
 />
    <glyph glyph-name="nonmarkingreturn" horiz-adv-x="250" 
 />
    <glyph glyph-name="space" unicode=" " horiz-adv-x="250" 
 />
    <glyph glyph-name="space" unicode="&#xa0;" horiz-adv-x="250" 
 />
    <glyph glyph-name="numbersign" unicode="#" 
d="M470 283v-56h-109l-31 -227h-58l31 227h-134l-33 -227h-58l33 227h-107v56h116l21 140h-110v56h118l31 213h58l-31 -213h133l30 213h58l-30 -213h97v-56h-105l-20 -140h100v0zM332 423h-133l-21 -140h134l20 140v0z" />
    <glyph glyph-name="dollar" unicode="$" 
d="M326 733l-10 -60q44 -1 75 -8.5t59 -25.5l2 -10q-8 -28 -14 -57t-11 -58h-24v72q-15 17 -40.5 28t-54.5 14l-41 -257q50 -8 77 -18t47 -27q43 -35 43 -102q0 -54 -28.5 -104t-81.5 -86q-14 -10 -27 -17t-27 -12.5t-29.5 -9t-35.5 -6.5l-14 -102h-41l20 101q-34 4 -58.5 8
t-42.5 8.5t-31 11t-23 14.5q7 28 12 60t10 85h26v-90q18 -21 44 -33t71 -20l44 273q-41 9 -69.5 21t-46.5 29.5t-26 40.5t-8 53q0 48 20.5 90t61.5 74q12 10 24.5 18t26.5 14.5t32.5 12.5t42.5 13l9 62h37zM212 32q27 2 44.5 7.5t37.5 19.5q31 23 48.5 58.5t17.5 75.5
q0 46 -23 70t-82 38zM274 628q-25 -1 -41 -5.5t-33 -17.5q-28 -20 -44.5 -53.5t-16.5 -71.5q0 -42 22 -65.5t73 -37.5z" />
    <glyph glyph-name="percent" unicode="%" horiz-adv-x="889" 
d="M254 699q28 0 52.5 -10.5t42 -28.5t27.5 -43t10 -55q0 -39 -13 -72t-36.5 -58t-54.5 -39t-67 -14q-30 0 -56 11t-45 30t-29.5 45t-10.5 57q0 35 15 67t39.5 56.5t57 39t68.5 14.5zM254 676q-23 0 -43 -13.5t-35 -37.5t-23.5 -56.5t-8.5 -69.5q0 -45 19 -71t51 -26
q44 0 74 51q14 26 23 63.5t9 72.5q0 42 -17 64.5t-49 22.5zM677 320q28 0 52.5 -10.5t42 -28.5t27.5 -43t10 -55q0 -39 -13 -72t-36.5 -58t-54.5 -39t-67 -14q-30 0 -56 11t-45 30t-29.5 45t-10.5 57q0 35 15 67t39.5 56.5t57 39t68.5 14.5zM677 297q-23 0 -43 -13.5
t-35 -37.5t-23.5 -56.5t-8.5 -69.5q0 -45 19 -71t51 -26q44 0 74 51q14 26 23 63.5t9 72.5q0 42 -17 64.5t-49 22.5zM206 -7l424 717h44l-427 -717h-41z" />
    <glyph glyph-name="ampersand" unicode="&#x26;" horiz-adv-x="778" 
d="M465 548v62q-26 17 -47 24.5t-43 7.5q-26 0 -49 -9.5t-40 -25.5t-27 -38t-10 -47q0 -69 69 -94q8 -3 14.5 -5t14 -2.5t17.5 -1t25 -0.5q-2 -5 -3.5 -8t-4.5 -10q-5 -11 -8.5 -19t-3.5 -11v-2h-36q-45 0 -82.5 -13t-64 -36t-41.5 -55t-15 -71q0 -37 14.5 -67.5t41.5 -52
t64.5 -33.5t82.5 -12q46 0 88 14t73.5 37.5t50.5 54t19 64.5q0 40 -25 64.5t-65 24.5q-18 0 -30 -3.5t-20.5 -13t-14.5 -25.5t-12 -41l-23 2l8 99q12 11 22.5 19t24 13.5t32.5 9.5t46 9l111 18q113 19 113 81q0 19 -7.5 29.5t-30.5 22.5l21 16q29 -14 40.5 -32t11.5 -48
q0 -50 -33 -82.5t-93 -40.5l-85 -12l17 -2q12 -1 23 -9t20 -19.5t14 -26t5 -29.5q0 -54 -45.5 -108t-125.5 -93q-36 -19 -83.5 -29.5t-92.5 -10.5q-55 0 -99.5 13.5t-75.5 38t-48 60t-17 79.5q0 87 60 141q14 12 27.5 21t30.5 18t39 17.5t52 19.5q-42 20 -60.5 43t-18.5 57
q0 25 12 52t33.5 52t50.5 46t64 36q36 16 80 16q27 0 50 -6t47 -19l-26 -119h-23z" />
    <glyph glyph-name="quotesingle" unicode="'" horiz-adv-x="333" 
d="M140 508l62 187q12 38 45 38q17 0 29 -11t12 -28q0 -21 -9 -33l-109 -153h-30z" />
    <glyph glyph-name="parenleft" unicode="(" horiz-adv-x="333" 
d="M331 712q-35 -39 -59.5 -70.5t-42.5 -59t-32 -55t-26 -58.5q-45 -116 -45 -259q0 -72 12 -134.5t36 -113.5l26 -55l-22 -13q-23 37 -39.5 66t-28.5 53t-20 45.5t-15 45.5q-10 35 -15.5 75.5t-5.5 77.5q0 76 21 145t64 137q15 24 31 45t35.5 43.5t44 48t58.5 57.5z" />
    <glyph glyph-name="parenright" unicode=")" horiz-adv-x="333" 
d="M2 -85q34 39 59 70.5t43 59t32 54.5t26 59q23 58 34 123t11 136q0 72 -12.5 134.5t-35.5 113.5l-26 55l22 13q23 -38 39.5 -66.5t28.5 -52.5t20 -45.5t15 -45.5q10 -35 15.5 -75.5t5.5 -77.5q0 -149 -86 -282q-15 -24 -30.5 -45t-35 -43t-44 -47.5t-58.5 -58.5z" />
    <glyph glyph-name="asterisk" unicode="*" horiz-adv-x="389" 
d="M76 608l33 57h10l104 -105l22 141l10 5l63 -18v-8l-71 -131l140 25l7 -5l6 -58l-6 -6l-145 19l65 -120l-4 -8l-58 -28l-7 4l-22 142l-107 -97h-12l-26 57l4 7l127 56l-128 62l-5 9v0z" />
    <glyph glyph-name="plus" unicode="+" horiz-adv-x="606" 
d="M275 280v224h56v-224h224v-56h-224v-224h-56v224h-224v56h224v0z" />
    <glyph glyph-name="comma" unicode="," horiz-adv-x="250" 
d="M8 -133q30 38 50 83t37 112l8 32l91 29l9 -13q-26 -59 -62 -116t-91 -124l-35 -13z" />
    <glyph glyph-name="hyphen" unicode="-" horiz-adv-x="333" 
d="M19 223l19 58h266l-18 -58h-267v0z" />
    <glyph glyph-name="hyphen" unicode="&#xad;" horiz-adv-x="333" 
d="M19 223l19 58h266l-18 -58h-267v0z" />
    <glyph glyph-name="period" unicode="." horiz-adv-x="250" 
d="M113 112q19 0 32 -14t13 -34q0 -28 -18 -48.5t-43 -20.5q-20 0 -32 12.5t-12 34.5q0 29 17.5 49.5t42.5 20.5z" />
    <glyph glyph-name="slash" unicode="/" horiz-adv-x="296" 
d="M392 733l-372 -852h-60l372 852h60v0z" />
    <glyph glyph-name="zero" unicode="0" 
d="M308 699q80 0 126 -61.5t46 -169.5q0 -46 -5.5 -93.5t-16 -92.5t-25.5 -86.5t-33 -74.5q-72 -132 -192 -132q-83 0 -127.5 62.5t-44.5 179.5q0 51 7 102.5t19.5 99.5t30.5 90t40 74q70 102 175 102zM302 670q-54 0 -89 -48t-63 -157q-9 -35 -16 -72.5t-12 -75t-7.5 -73
t-2.5 -66.5q0 -160 100 -160q45 0 78.5 36.5t60.5 116.5q11 33 21 74.5t17 86.5t11 89t4 81q0 168 -102 168z" />
    <glyph glyph-name="one" unicode="1" 
d="M350 573l-74 -437q-3 -16 -4.5 -25.5t-2 -16t-1 -10.5t-0.5 -8q0 -26 12 -36t47 -12l71 -4l-5 -27q-52 2 -90.5 2.5t-78.5 0.5t-79 -0.5t-91 -2.5l5 27l85 10q12 2 19.5 5.5t12.5 11t9 19.5t7 32l86 527q-10 -4 -17 -6.5t-19 -7.5q-24 -10 -45 -18.5t-22 -9.5l-84 -41
l-7 5l11 59l24 6q27 7 47 12t36 9.5t29.5 9.5t27.5 11l100 41l15 -11z" />
    <glyph glyph-name="two" unicode="2" 
d="M311 63q26 0 53 2.5t62 8.5l6 -8l-17 -69q-51 2 -103 2.5t-98 0.5t-98.5 -0.5t-103.5 -2.5v18l49 52q58 63 108 120.5t82 98.5q48 63 74.5 124.5t26.5 112.5q0 50 -30.5 80.5t-80.5 30.5q-43 0 -74.5 -24t-68.5 -84l-22 9l60 120q33 24 63.5 34t68.5 10q78 0 123.5 -43.5
t45.5 -117.5q0 -52 -23 -105.5t-66 -100.5l-247 -269h210z" />
    <glyph glyph-name="three" unicode="3" 
d="M50 178l24 -5q-2 -18 -3 -26.5t-1 -16.5q0 -50 33 -78.5t90 -28.5q63 0 104 43q30 31 47 73.5t17 88.5q0 64 -35.5 99t-99.5 35q-19 0 -35 -3t-43 -13l-6 12l18 43h9h4t9 -1l22 -1q33 0 61.5 11.5t49.5 31t33 46.5t12 57q0 42 -27.5 67.5t-73.5 25.5q-33 0 -55.5 -12
t-51.5 -46l-21 -24l-19 13l58 99q38 17 63.5 24t52.5 7q34 0 62 -9.5t48.5 -26.5t31.5 -41t11 -53q0 -54 -33 -94.5t-112 -81.5q40 -10 61 -18t40 -22q52 -40 52 -118q0 -51 -22 -96t-59.5 -78t-88 -52.5t-107.5 -19.5q-45 0 -78.5 10t-69.5 34z" />
    <glyph glyph-name="four" unicode="4" 
d="M352 684l69 15l8 -5l-83 -446h128l4 -5l-16 -55l-18 1q-13 1 -21.5 1.5t-13.5 0.5h-73l-9 -53q-9 -53 -9 -84q0 -9 8 -13.5t28 -6.5l87 -10l-5 -27q-51 2 -89 2.5t-76 0.5q-39 0 -77 -0.5t-89 -2.5l5 27l86 10q12 1 20.5 4.5t14.5 9.5t10 16t7 26l20 102h-253v31zM75 248
h203l67 373z" />
    <glyph glyph-name="five" unicode="5" 
d="M94 338l64 350l8 5l21 -1q46 -3 80.5 -4.5t65.5 -1.5h23.5t31 0.5t34 1t31.5 1.5l32 1l6 -9l-35 -58q-38 -2 -77 -3.5t-70 -1.5q-29 0 -59.5 1.5t-61.5 3.5l-51 -241q30 27 63.5 39.5t75.5 12.5q78 0 123.5 -45.5t45.5 -122.5q0 -32 -10 -68.5t-28 -69.5
q-35 -66 -98.5 -102.5t-139.5 -36.5q-48 0 -83.5 12t-71.5 40q7 24 14 57t15 82l23 -5q-3 -24 -3 -39q0 -51 34 -81t90 -30q65 0 106 43q32 32 49 79t17 100q0 68 -32 105t-92 37q-35 0 -61.5 -13.5t-58.5 -46.5z" />
    <glyph glyph-name="six" unicode="6" 
d="M453 635h-8q-23 11 -35.5 14.5t-29.5 3.5q-50 0 -93.5 -31t-77.5 -91q-24 -42 -41.5 -93.5t-34.5 -126.5q46 57 87.5 81.5t91.5 24.5q64 0 100 -40.5t36 -113.5q0 -36 -9 -71.5t-26 -66.5q-17 -30 -40.5 -55t-51.5 -43t-58.5 -28t-60.5 -10q-72 0 -112.5 55.5
t-40.5 155.5t34 194.5t99 173.5q56 69 113 100t126 31q14 0 25.5 -1.5t22.5 -3.5zM265 362q-30 0 -56 -14t-44.5 -39t-29 -59.5t-10.5 -75.5q0 -63 29.5 -101t79.5 -38q30 0 55 15t43.5 42t29 63.5t10.5 80.5q0 60 -28 93t-79 33z" />
    <glyph glyph-name="seven" unicode="7" 
d="M74 37q22 34 41 64.5t39 62.5l278 449h-242h-13t-14.5 -0.5t-20.5 -1.5t-31 -2l-20 -1l-6 4l16 80q33 -1 55.5 -1.5t29.5 -0.5l140 -3l69 -1h8q13 0 32 0.5t45 1.5h22v-35l-126 -203q-60 -96 -120 -212t-116 -241q-18 1 -23 1.5l-15 1.5h-10.5t-14.5 -2h-7t-12 -1l-5 8z
" />
    <glyph glyph-name="eight" unicode="8" 
d="M217 352q-52 29 -76 62.5t-24 75.5q0 39 19 76.5t50 67t70 47.5t80 18q61 0 97 -33t36 -90q0 -29 -7.5 -52.5t-24.5 -46.5t-45.5 -47t-71.5 -52q33 -18 54 -34t34 -33t18 -37t5 -46q0 -47 -20 -90.5t-53.5 -76.5t-77.5 -52.5t-92 -19.5q-69 0 -110.5 38.5t-41.5 102.5
q0 77 62 142q12 12 23 22t24.5 19t31 18.5t40.5 20.5zM244 338q-132 -69 -132 -190q0 -55 28.5 -86t80.5 -31q29 0 53.5 12.5t42.5 34t28 51.5t10 66q0 22 -4 39.5t-13 32t-25 27.5t-40 27zM291 394q110 71 110 162q0 45 -26.5 73t-70.5 28q-26 0 -47.5 -10.5t-37.5 -28.5
t-25 -42.5t-9 -53.5q0 -33 18.5 -61t53.5 -48z" />
    <glyph glyph-name="nine" unicode="9" 
d="M53 119q23 -45 50 -63.5t65 -18.5q97 0 156 125q9 19 17 40t15.5 46.5t14.5 57t15 71.5q-44 -56 -82 -78.5t-85 -22.5q-67 0 -107.5 44.5t-40.5 119.5q0 52 19.5 99t52.5 82.5t77 56.5t92 21q77 0 116.5 -55.5t39.5 -162.5q0 -103 -29.5 -197t-83.5 -166
q-47 -62 -102.5 -95.5t-110.5 -33.5q-41 0 -79 19q-2 6 -3 10.5t-4 15.5q-8 29 -12.5 45t-11.5 32zM283 654q-30 0 -55 -13.5t-43 -38.5t-28 -59t-10 -74q0 -66 29 -102.5t83 -36.5q29 0 53.5 13.5t42 37t27.5 56t10 71.5q0 66 -29.5 106t-79.5 40z" />
    <glyph glyph-name="colon" unicode=":" horiz-adv-x="250" 
d="M104 112q19 0 32 -14t13 -34q0 -28 -18 -48.5t-43 -20.5q-20 0 -32 12.5t-12 34.5q0 29 17.5 49.5t42.5 20.5zM162 458q19 0 32 -14t13 -34q0 -29 -17.5 -49t-43.5 -20q-20 0 -32 12.5t-12 34.5q0 29 17.5 49.5t42.5 20.5z" />
    <glyph glyph-name="semicolon" unicode=";" horiz-adv-x="250" 
d="M-9 -136q30 38 50 83t37 112l8 32l91 29l9 -13q-26 -59 -62 -116t-91 -124l-35 -13zM174 456q19 0 32 -14t13 -34q0 -29 -17.5 -49t-43.5 -20q-20 0 -32 12.5t-12 34.5q0 29 17.5 49.5t42.5 20.5z" />
    <glyph glyph-name="less" unicode="&#x3c;" horiz-adv-x="606" 
d="M554 -2l-501 234v58l501 234v-64l-429 -201l429 -197v-64v0z" />
    <glyph glyph-name="equal" unicode="=" horiz-adv-x="606" 
d="M555 378v-56h-504v56h504v0zM555 182v-56h-504v56h504v0z" />
    <glyph glyph-name="greater" unicode="&#x3e;" horiz-adv-x="606" 
d="M53 -2v64l429 197l-429 201v64l501 -234v-58l-501 -234v0z" />
    <glyph glyph-name="question" unicode="?" 
d="M115 571q3 10 10 26l5 11l25 61q33 20 59 28.5t56 8.5q35 0 64 -9.5t49.5 -27.5t32 -42.5t11.5 -54.5q0 -39 -17.5 -73t-56.5 -72l-104 -100q-29 -27 -39.5 -43.5t-10.5 -33.5q0 -23 27 -51l-25 -6q-38 24 -38 63q0 26 13 52t42 59l70 79q57 64 57 116q0 37 -28 61
t-71 24q-31 0 -50 -11.5t-39 -40.5l-20 -30zM174 109q19 0 32 -14t13 -34q0 -28 -18 -48.5t-43 -20.5q-20 0 -32 12.5t-12 34.5q0 29 17.5 49.5t42.5 20.5z" />
    <glyph glyph-name="at" unicode="@" horiz-adv-x="747" 
d="M713 176q-11 -20 -20 -34t-18 -25.5t-18 -21.5t-21 -20q-51 -46 -112.5 -69.5t-129.5 -23.5q-78 0 -145 27.5t-116.5 75.5t-77.5 113t-28 140q0 78 28 145t77 116.5t115 78t142 28.5q70 0 130 -22.5t104 -62t69.5 -93t25.5 -115.5q0 -57 -19 -105.5t-54 -86.5
q-17 -18 -37.5 -33.5t-41.5 -26.5t-41.5 -17t-38.5 -6q-32 0 -50.5 23t-21.5 65q-18 -24 -33 -40t-28.5 -25.5t-28 -13t-32.5 -3.5q-28 0 -52 11.5t-42 31.5t-28 47t-10 58q0 43 18 83.5t48 72t68.5 51t79.5 19.5q38 0 59 -20t30 -65l20 76h75l-79 -291q-2 -8 -2 -16
q0 -16 9 -26.5t22 -10.5q17 0 42 15t47 37q38 40 59 89.5t21 103.5q0 52 -22 98t-61 80t-91 53.5t-112 19.5q-68 0 -126.5 -24.5t-101 -67t-67 -100.5t-24.5 -125q0 -68 25 -126t68.5 -100.5t103.5 -66.5t130 -24q107 0 190 65q22 16 38 33.5t39 50.5h47zM389 494
q-41 0 -74 -35q-18 -19 -32.5 -43t-25 -50t-16 -53.5t-5.5 -52.5q0 -39 19 -65.5t48 -26.5q55 0 95 73q10 18 19 40.5t15.5 46t10 47t3.5 42.5q0 33 -16 55t-41 22z" />
    <glyph glyph-name="A" unicode="A" horiz-adv-x="722" 
d="M508 705l87 -625q3 -17 5.5 -26t8 -14t15 -7t27.5 -5l26 -3v-28q-38 1 -59 1.5t-32.5 1t-17.5 0.5h-13h-13.5t-17 -0.5t-32.5 -1t-59 -1.5v28l44 3q43 3 43 27q0 3 -0.5 9.5t-1.5 12.5q-2 10 -2 9v3l-25 188h-246l-102 -175q-14 -25 -20 -37t-6 -18q0 -7 9.5 -12.5
t21.5 -6.5l52 -3v-28q-32 1 -50 1.5t-28.5 1t-16 0.5h-12.5h-13.5t-16 -0.5t-29.5 -1t-53 -1.5v30l20 5q13 3 23 8t20 14t20.5 23t24.5 35l373 593h46zM270 313h216l-37 288z" />
    <glyph glyph-name="B" unicode="B" horiz-adv-x="611" 
d="M100 692l52 -1q37 -1 61 -1.5t38 -0.5h12.5h17.5t17 0.5t13 0.5l63 1q11 1 18 1h9q75 0 116.5 -34t41.5 -96q0 -79 -69 -137q-12 -11 -23 -18.5t-24 -14.5t-29 -13.5t-37 -13.5q26 -4 45 -7.5t33.5 -8t25.5 -10.5t21 -14q41 -33 41 -98q0 -57 -31.5 -106.5t-91.5 -84.5
q-71 -42 -143 -42q-6 0 -16 0.5t-24 1.5l-20 1l-37 1q-20 1 -37.5 1.5t-25.5 0.5h-21.5t-32.5 -2l-37 -1l5 26q32 5 43.5 11.5t14.5 20.5l87 504q4 23 6.5 44t2.5 32q0 26 -35 27l-53 2zM166 41q26 -2 34 -3q25 -2 46 -3t36 -1q37 0 69 13t55 36.5t36 56t13 71.5
q0 129 -153 129h-85zM223 376h52q94 0 146 44.5t52 123.5q0 111 -121 111q-9 0 -19.5 -0.5t-26.5 -2.5q-16 -1 -21 -1.5t-13 -0.5z" />
    <glyph glyph-name="C" unicode="C" horiz-adv-x="667" 
d="M597 603q-42 27 -83.5 38.5t-95.5 11.5q-120 0 -190 -72q-46 -47 -70.5 -117.5t-24.5 -154.5q0 -134 62.5 -204t180.5 -70q29 0 54.5 3.5t51.5 12.5t54.5 23.5t63.5 35.5l10 -7l-10 -36q-34 -23 -65 -39.5t-61.5 -26.5t-62.5 -14.5t-68 -4.5q-144 0 -221 78t-77 224
q0 230 177 350q53 35 112.5 53.5t121.5 18.5q47 0 92.5 -9.5t102.5 -31.5q-11 -35 -17 -69t-10 -77h-27v84z" />
    <glyph glyph-name="D" unicode="D" horiz-adv-x="778" 
d="M41 25q23 5 33 11.5t12 18.5l87 504q4 23 6.5 44t2.5 32q0 26 -35 27l-53 2l3 28q38 -1 59 -1.5t32 -1t15 -0.5h7h10l204 3q72 1 131.5 -12t94.5 -38q91 -64 91 -211q0 -62 -17.5 -120.5t-50 -110t-79.5 -94t-105 -72.5q-39 -20 -79 -28.5t-94 -8.5h-19.5t-26.5 1
q-32 1 -56 1.5t-38 0.5h-32h-23l-93 -3l5 26zM172 93l-3 -21t-1 -16q51 -8 89.5 -11.5t71.5 -3.5q133 0 214 83q51 52 78.5 127.5t27.5 163.5q0 124 -64 182t-201 58q-14 0 -30 -0.5t-39 -2.5q-20 -1 -28 -1.5t-19 -0.5z" />
    <glyph glyph-name="E" unicode="E" horiz-adv-x="611" 
d="M178 81q-1 -7 -1.5 -13.5t-0.5 -17.5v-4q26 -2 44 -3.5t32.5 -2.5t27.5 -1h28q20 0 43 1t43.5 2t36.5 2.5t24 3.5q17 4 25 15t16 38l16 60h27l-5 -26q-7 -37 -10.5 -60.5t-5.5 -38.5l-4 -36l-33 -1q-25 -1 -43 -1.5t-29 -0.5h-10l-215 3h-22t-30.5 -0.5t-32.5 -1
t-28 -0.5l-41 -1l5 26q33 5 45 11.5t15 20.5l87 504q4 23 6.5 44t2.5 32q0 26 -35 27l-54 2l3 28l45 -1q38 -2 62.5 -2h52.5h15.5h24t24 0.5t14.5 0.5l120 1q18 1 27 1h11q14 0 33.5 -0.5t35.5 -2.5q-17 -57 -21 -152h-24l-8 89q-1 11 -29 17.5t-75 6.5q-17 0 -39.5 -0.5
t-46.5 -1.5l-47 -2q-5 -10 -9 -32l-42 -238h37q29 0 55.5 0.5l53 1t53.5 1.5t57 3l4 -7l-19 -45l-26 1q-36 2 -61 2.5t-45 0.5h-117z" />
    <glyph glyph-name="F" unicode="F" horiz-adv-x="556" 
d="M269 646q-4 -8 -5.5 -14t-3.5 -18l-46 -271h37q29 0 55.5 0.5l53 1t53.5 1.5t57 3l4 -7l-19 -45l-26 1q-36 2 -61 2.5t-45 0.5h-117l-36 -223q-1 -3 -1.5 -9.5t-0.5 -11.5q0 -15 8 -21.5t28 -7.5l64 -3l-3 -28l-52 1q-29 1 -50.5 1.5t-35.5 0.5q-16 0 -39.5 -0.5
t-53.5 -1.5l-34 -1l4 28l36 3q15 1 24 3.5t14 12t9.5 28t10.5 53.5l75 434q4 23 6.5 44t2.5 32q0 26 -35 27l-56 2l3 28l49 -1q29 -1 56.5 -1.5t46.5 -0.5h29l165 2l41 1q13 0 31.5 -0.5t35.5 -2.5q-16 -57 -21 -152h-24l-8 89q-1 11 -28.5 17.5t-74.5 6.5l-106 -4h-17z" />
    <glyph glyph-name="G" unicode="G" horiz-adv-x="722" 
d="M546 153q7 34 7 59q0 9 -2.5 14.5t-11.5 9t-25.5 5t-44.5 3.5l-34 2l5 28q32 -3 61.5 -4t67.5 -1t67 1t58 4l-2 -28l-32 -6q-10 -2 -17.5 -8t-9.5 -13l-23 -135q-1 -4 -1 -11q0 -8 3 -29l-4 -7q-10 -2 -23 -5t-33 -10l-30 -10q-46 -16 -86 -23t-81 -7q-148 0 -226.5 75.5
t-78.5 216.5q0 113 45.5 204t133.5 154q54 38 111 56t126 18q26 0 50 -2t49 -7t52 -13t58 -19q-11 -35 -17 -69t-10 -77h-27v84q-42 27 -85.5 38.5t-101.5 11.5q-124 0 -197 -74q-48 -48 -73.5 -121t-25.5 -161q0 -134 63.5 -202t188.5 -68q41 0 72.5 7.5t65.5 25.5z" />
    <glyph glyph-name="H" unicode="H" horiz-adv-x="778" 
d="M591 385l30 174q4 23 6.5 44t2.5 32q0 26 -35 27l-48 2l3 28l63 -2q33 -1 51 -1h29l91 3h16l-3 -28l-36 -3q-14 -2 -23 -4t-14 -7t-8 -13.5t-6 -23.5l-92 -520q-4 -23 -4 -35q0 -16 8 -22.5t28 -7.5l58 -3l-3 -28l-42 1q-32 1 -55 1.5t-35 0.5q-8 0 -30 -0.5t-55 -1.5
l-56 -1l4 28l50 3q31 3 37 14q7 9 21 83l40 215l-61 1q-48 1 -78.5 1.5t-44.5 0.5t-45 -0.5t-78 -1.5l-61 -1l-42 -247l-3 -21t-1 -14q0 -16 8 -22t28 -8l49 -3l-3 -28h-26l-97 3q-14 0 -34 -0.5t-56 -1.5l-42 -1l4 28l41 3q15 1 23.5 3.5t14 12t10 28t10.5 53.5l74 434
q4 23 6.5 44t2.5 32q0 26 -35 27l-47 2l3 28l64 -2q32 -1 48.5 -1h28.5l90 3h24l-3 -28l-42 -3q-14 -1 -22.5 -3t-14 -7.5t-8.5 -14t-6 -23.5l-42 -228h370z" />
    <glyph glyph-name="I" unicode="I" horiz-adv-x="333" 
d="M106 692l64 -2q32 -1 48.5 -1h29.5l97 3h9l-3 -28l-35 -3q-15 -2 -23.5 -4t-14 -7t-8 -13.5t-5.5 -23.5l-89 -535q-1 -3 -1.5 -9.5t-0.5 -11.5q0 -15 8 -21t28 -8l52 -3l-3 -28h-32l-94 3l-94 -3h-32l3 28l36 3q15 1 24 4t14.5 12.5t9.5 28.5t10 52l72 434q1 6 2.5 18
l3 24t2.5 22t1 13q0 25 -35 26l-47 2z" />
    <glyph glyph-name="J" unicode="J" horiz-adv-x="333" 
d="M313 661q-14 -1 -23 -3.5t-14.5 -7.5t-8.5 -14t-5 -23l-85 -559q-3 -23 -6.5 -41.5t-7.5 -33.5t-9 -29t-11 -28q-26 -61 -62.5 -94.5t-77.5 -33.5q-19 0 -35 10l-3 26q11 -4 29 -4q70 0 92 153l95 643q1 5 1 13q0 26 -35 27l-47 2l3 28l64 -2q32 -1 48.5 -1h28.5l90 3h24
l-3 -28z" />
    <glyph glyph-name="K" unicode="K" horiz-adv-x="667" 
d="M329 661q-14 -1 -22.5 -3.5t-14 -7.5t-8.5 -14t-6 -23l-45 -260q48 38 82 67.5t67 63.5l128 130q21 21 29.5 32t8.5 17v29l20 -1q16 -1 27.5 -1.5t19.5 -0.5q6 0 17.5 0.5t27.5 1.5l23 1v-27h-21q-13 0 -27.5 -7t-26.5 -18l-292 -273l246 -302q31 -38 64 -38h20v-30
q-10 0 -16.5 0.5t-13.5 1t-16 1t-22 0.5l-69 -3q-39 54 -66.5 90t-55.5 71t-64 76.5t-92 105.5l-43 -262q-1 -3 -1.5 -9.5t-0.5 -11.5q0 -15 8 -21t28 -8l49 -3l-3 -28h-26l-97 3q-14 0 -34 -0.5t-56 -1.5l-42 -1l4 28l41 3q15 1 23.5 3.5t14 12t10 28t10.5 53.5l73 434
q5 25 7 45t2 31q0 26 -35 27l-47 2l3 28l64 -2q32 -1 48.5 -1h28.5l90 3h24l-3 -28z" />
    <glyph glyph-name="L" unicode="L" horiz-adv-x="556" 
d="M307 661q-14 -1 -22.5 -3.5t-14 -7.5t-8.5 -14t-6 -23l-92 -532q-1 -7 -1.5 -13.5t-0.5 -17.5v-4q25 -2 43.5 -3.5t34 -2.5t31 -1h33.5q25 0 49 1t43.5 2.5t33 3t18.5 3.5q14 8 27 54l17 62h31q-5 -23 -9.5 -48.5t-7.5 -48t-4.5 -41t-1.5 -27.5l-33 -1q-25 -1 -43 -1.5
t-29 -0.5h-10l-215 3h-22t-30.5 -0.5t-32.5 -1t-28 -0.5l-41 -1l5 26q33 5 45 11.5t15 20.5l86 504q4 23 6.5 44t2.5 32q0 26 -35 27l-47 2l3 28l64 -2q32 -1 48.5 -1h28.5l90 3h24l-3 -28z" />
    <glyph glyph-name="M" unicode="M" horiz-adv-x="944" 
d="M899 662q-43 -3 -46 -31l-41 -531l-1 -37q0 -31 54 -35l37 -3l-3 -28l-46 1q-31 1 -53 1.5t-34 0.5q-11 0 -33 -0.5t-54 -1.5l-47 -1l3 28l31 3q38 3 51 10.5t16 28.5l37 520l-52 -87q-25 -42 -54.5 -92t-61 -104t-63 -109.5t-60.5 -108.5l-57 -104h-23l-149 578
l-124 -464q-7 -25 -7 -41q0 -24 49 -27l38 -3l-3 -28l-35 1q-26 1 -45 1.5t-30 0.5t-29 -0.5t-44 -1.5l-39 -1l3 26q21 2 34.5 6t23 11.5t16 20t12.5 32.5l145 509q3 10 3 20q0 20 -15.5 28.5t-54.5 11.5l-26 2l3 28l59 -3h24h22.5t33.5 2l28 1l150 -578l246 422
q17 30 33 58.5t36 66.5l16 31l59 -3h24h22.5t33.5 2l28 1l-3 -28z" />
    <glyph glyph-name="N" unicode="N" horiz-adv-x="778" 
d="M582 103l80 489q2 10 3.5 25.5t1.5 20.5q0 12 -8 17.5t-28 6.5l-47 2l5 28h19l86 -3l89 3h21l-5 -28l-37 -2q-14 -1 -22 -4t-14 -14.5t-11 -35.5t-13 -66l-94 -553h-50l-338 577l-80 -464q-3 -17 -3 -30q0 -25 9.5 -33.5t39.5 -10.5l42 -3l-5 -28q-36 1 -56 1.5t-30.5 1
t-15 0.5h-8.5l-111 -3l5 28l31 3q13 1 21.5 4.5t14.5 11t9.5 21.5t8.5 37l88 474q1 4 3 18q1 2 1 5q1 3 1 7q0 6 -9.5 18t-20.5 21q-8 7 -22.5 11.5t-27.5 5.5l-35 2l5 28l16 -1q17 -1 28 -1.5t13 -0.5h14h10l81 3z" />
    <glyph glyph-name="O" unicode="O" horiz-adv-x="778" 
d="M464 706q136 0 210 -73.5t74 -207.5q0 -59 -14 -115.5t-40.5 -106t-64.5 -91t-85 -70.5q-49 -31 -103 -45.5t-118 -14.5q-133 0 -201.5 73.5t-68.5 216.5q0 94 31 173.5t85.5 137.5t130 90.5t164.5 32.5zM433 664q-113 0 -183 -71q-52 -52 -80.5 -135t-28.5 -181
q0 -126 55 -189.5t164 -63.5q118 0 192 76q51 53 79.5 133.5t28.5 175.5q0 166 -97 223q-25 15 -59.5 23.5t-70.5 8.5z" />
    <glyph glyph-name="P" unicode="P" horiz-adv-x="611" 
d="M108 692l53 -1l113 -2l138 3q90 2 136 -36.5t46 -114.5q0 -51 -19 -97t-52 -80.5t-76.5 -55t-91.5 -20.5q-22 0 -40 4.5t-46 18.5l-2 31q28 -11 45 -15t34 -4q33 0 62 15.5t51 42t34.5 62t12.5 76.5q0 137 -151 137q-14 0 -29 -1.5t-42 -6.5q-2 -10 -4 -17t-3 -11
q-4 -14 -6.5 -26.5t-2.5 -13.5l-82 -487l-3 -21t-1 -14q0 -16 8 -22.5t28 -7.5l65 -3l-3 -28l-53 1q-30 1 -51.5 1.5t-34.5 0.5q-14 0 -36.5 -0.5t-53.5 -1.5l-42 -1l4 28l41 3q15 1 23.5 3.5t14 12t10 28.5t10.5 53l74 434q4 23 6.5 44t2.5 32q0 26 -35 27l-55 2z" />
    <glyph glyph-name="Q" unicode="Q" horiz-adv-x="778" 
d="M127 -159q-1 6 -1 10.5v6.5q0 57 34.5 92t90.5 35q17 0 32 -3t34 -11l236 -96q39 -15 62 -15q59 0 68 79h25q-8 -73 -36 -106.5t-85 -33.5q-15 0 -27 1.5t-24.5 5.5t-28.5 11t-38 19l-145 76q-29 16 -51.5 22.5t-44.5 6.5q-77 0 -77 -113zM464 706q136 0 210 -73.5
t74 -207.5q0 -59 -14 -115.5t-40.5 -106t-64.5 -91t-85 -70.5q-49 -31 -103 -45.5t-118 -14.5q-133 0 -201.5 73.5t-68.5 216.5q0 94 31 173.5t85.5 137.5t130 90.5t164.5 32.5zM433 664q-113 0 -183 -71q-52 -52 -80.5 -135t-28.5 -181q0 -126 55 -189.5t164 -63.5
q118 0 192 76q51 53 79.5 133.5t28.5 175.5q0 166 -97 223q-25 15 -59.5 23.5t-70.5 8.5z" />
    <glyph glyph-name="R" unicode="R" horiz-adv-x="667" 
d="M108 692q44 -1 71 -1.5t43 -1t23.5 -0.5h13.5l150 3q84 2 129.5 -32.5t45.5 -99.5q0 -94 -89 -158q-27 -20 -53 -30.5t-67 -17.5l184 -275q11 -16 19 -25.5t16.5 -15.5t19 -9t25.5 -5v-27h-13q-14 2 -23.5 2.5t-10.5 0.5h-11h-8l-66 -3q-28 48 -50 84t-47.5 75.5
t-59 88.5t-83.5 122l3 11h44q39 0 72.5 12.5t57.5 34.5t38 52t14 66q0 113 -133 113q-20 0 -37 -1.5t-39 -6.5q-2 -10 -3.5 -16t-3.5 -12q-3 -14 -6 -26t-3 -14l-85 -487q-4 -23 -4 -35q0 -15 8 -21.5t28 -8.5l49 -3l-3 -28h-26l-97 3h-36.5t-53.5 -2l-42 -1l4 28l41 3
q15 1 23.5 4t14.5 12t10 28t10 53l75 434q4 23 6.5 44t2.5 32q0 26 -35 27l-56 2z" />
    <glyph glyph-name="S" unicode="S" horiz-adv-x="556" 
d="M451 613q-23 24 -49 34.5t-63 10.5q-35 0 -64 -11t-50 -31t-33 -47.5t-12 -60.5q0 -50 23 -78t73 -39l65 -14q76 -17 110 -50t34 -93q0 -51 -23 -96.5t-62.5 -80t-92 -55t-110.5 -20.5q-81 0 -155 38q8 39 13.5 74.5t10.5 77.5h30v-99q33 -23 64 -33t72 -10q39 0 71 12
t55 33t35.5 50.5t12.5 65.5q0 85 -81 105l-95 23q-63 15 -92.5 51.5t-29.5 100.5q0 89 64 150q40 41 93.5 63t108.5 22q35 0 66.5 -8t65.5 -26q-11 -32 -16.5 -63t-8.5 -72h-30v76z" />
    <glyph glyph-name="T" unicode="T" horiz-adv-x="611" 
d="M296 93l-3 -21t-1 -14q0 -16 8 -22.5t28 -7.5l59 -3l-3 -28l-44 1q-29 1 -52 1.5t-37 0.5q-12 0 -33.5 -0.5t-51.5 -1.5l-57 -1l4 28l51 3q15 1 23.5 3.5t14.5 12t10 28.5t10 53l86 521h-112q-28 0 -52 -4t-29 -9q-11 -12 -18 -45l-15 -60h-29l18 164l95 -1
q65 -1 112 -1.5t75 -0.5q26 0 75.5 0.5t115.5 1.5l91 1l-27 -164h-28l4 64q1 8 -0.5 19.5t-3.5 17.5q-2 9 -30 13t-87 4h-73z" />
    <glyph glyph-name="U" unicode="U" horiz-adv-x="778" 
d="M759 661q-14 -2 -23 -4t-14.5 -7t-8.5 -14t-5 -23l-85 -507q-4 -27 -5 -36t-1 -20q0 -18 32 -21l60 -4l-5 -28l-32 1q-24 1 -39.5 1.5t-18.5 0.5l-62 -3h-22l-5 5q5 21 8.5 37t6.5 30t6 28.5t6 31.5q-20 -23 -36 -39.5t-32.5 -29.5t-34.5 -23.5t-40 -21.5
q-36 -18 -68 -26t-65 -8q-85 0 -132 43.5t-47 119.5q0 12 1.5 29t4.5 33l64 375q3 16 5 33.5t2 24.5q0 13 -7 17.5t-27 5.5l-52 2l3 28l32 -1q21 -1 35.5 -1.5t22.5 -0.5t23 0.5t35 1.5l31 1l-88 -477q-4 -21 -5.5 -34.5t-1.5 -26.5q0 -53 37.5 -84t101.5 -31q58 0 113 29
q19 9 35 19t31 23t30 29t33 38l71 445q1 4 1 12q0 27 -35 28l-48 2l3 28l63 -2q33 -1 51 -1h29l91 3h16l-3 -28z" />
    <glyph glyph-name="V" unicode="V" horiz-adv-x="722" 
d="M601 588q9 15 12.5 24.5t3.5 17.5q0 27 -57 32l-26 2v28l46 -1q31 -1 50.5 -1.5t27.5 -0.5q12 0 29 0.5t37 1.5l30 1v-28l-18 -2q-11 -2 -18.5 -4.5t-14 -7.5t-13.5 -14.5t-16 -24.5l-378 -619h-49l-88 622q-5 28 -15.5 37t-43.5 11l-25 2v28l41 -1q28 -1 48.5 -1.5
t34.5 -0.5t34.5 0.5t48.5 1.5l41 1v-28l-42 -2q-46 -2 -43 -31l1 -7l71 -528z" />
    <glyph glyph-name="W" unicode="W" horiz-adv-x="944" 
d="M303 664l-37 -2q-24 -2 -34.5 -12.5t-10.5 -33.5l31 -484l224 456q14 27 28.5 59.5t23.5 52.5h18l158 -572l147 462q9 27 9 49t-41 23l-39 2l5 28l33 -1q23 -1 39 -1.5t26 -0.5q11 0 27 0.5t38 1.5l32 1v-28l-20 -2q-33 -3 -43 -31l-171 -507q-10 -29 -16.5 -52.5
t-14.5 -53.5l-7 -26h-51q-10 46 -19 84.5t-20 77.5l-112 392l-224 -444q-14 -27 -26.5 -55.5t-23.5 -54.5h-50q-1 39 -2.5 77.5t-5.5 88.5l-32 430q-2 21 -4.5 34.5t-8 21.5t-15.5 12t-25 6l-18 2v28l39 -1q29 -1 46 -1.5t26 -0.5h34t48 2l39 1v-28z" />
    <glyph glyph-name="X" unicode="X" horiz-adv-x="722" 
d="M454 28l16 1q19 0 25.5 2.5t6.5 8.5q0 12 -14 40l-119 226l-182 -231q-10 -13 -10 -25q0 -16 55 -22l32 -3v-28q-65 3 -119 3q-52 0 -125 -3v28l28 3q18 2 34.5 10.5t27.5 22.5l238 282l-146 270q-8 14 -14.5 22.5t-15 14t-21 8t-30.5 4.5l-26 2v28l45 -1q31 -1 53 -1.5
t35 -0.5q12 0 34 0.5t53 1.5l46 1v-28l-37 -2q-43 -3 -43 -20q0 -10 14 -38l104 -199l161 196q14 17 18.5 25.5t4.5 16.5q0 9 -10.5 13t-34.5 6l-33 2v28q33 -1 53.5 -1.5t32.5 -1t18 -0.5h11l114 3v-28l-28 -2q-10 -1 -17 -3t-14 -6.5t-15 -12.5t-19 -20l-221 -252
l171 -307q11 -18 24 -25t44 -9l25 -2v-28q-72 3 -133 3q-63 0 -135 -3v28z" />
    <glyph glyph-name="Y" unicode="Y" horiz-adv-x="667" 
d="M67 658q14 9 28.5 19.5t22.5 17.5q6 4 9 7l4 3q34 0 61.5 -19t52.5 -64t49 -121t52 -191q21 56 51.5 109.5t76.5 116.5q28 37 52.5 64.5t48.5 46.5t48.5 31t51.5 19l-6 -71q-22 -4 -41.5 -12t-38.5 -21.5t-38 -33t-41 -47.5q-28 -35 -53 -73t-45 -74t-33.5 -67t-16.5 -52
l-26 -168q-2 -10 -2 -21q0 -15 8 -21t28 -8l49 -3l-3 -28h-26l-97 3q-12 0 -31.5 -0.5t-54.5 -1.5l-53 -1l4 28l48 3q15 1 23.5 3.5t14 12t10 28.5t10.5 53l21 126q0 1 0.5 2t0.5 2v2q0 6 -6 31.5t-15.5 59t-20.5 69t-20 60.5q-31 84 -60 121t-64 37q-8 0 -18 -2.5t-27 -9.5
l-3 24z" />
    <glyph glyph-name="Z" unicode="Z" horiz-adv-x="667" 
d="M20 19l502 633h-180q-32 0 -56.5 -0.5t-45 -2t-39 -4t-39.5 -6.5l-6 -20q-9 -29 -14 -49t-7 -37h-26q3 27 5 49t3.5 40.5t2 35t0.5 34.5l118 -1l211 -2h26l162 3v-20l-504 -633h281q33 0 63 3t64 10l8 22q6 17 12.5 35t11.5 33l7 22h26q-20 -106 -23 -167l-66 1
q-23 0 -55 0.5t-67 1t-70 0.5h-64h-61t-56 -0.5t-58 -1t-66 -1.5v22z" />
    <glyph glyph-name="bracketleft" unicode="[" horiz-adv-x="333" 
d="M326 705l-88 -7q-10 -1 -13.5 -7t-7.5 -24l-16 -85q-2 -8 -7 -39t-11.5 -69.5t-12.5 -78.5t-10 -66l-51 -343q-3 -23 -3 -30q0 -18 28 -21l79 -7l-5 -28l-42 2q-15 1 -28 1h-24l-61 -1l-33 -2l-2 5l51 285q7 39 14.5 87t15.5 98.5t15.5 102t13.5 98.5t10.5 86.5t7.5 66.5
l8 4h17h7.5t16.5 -1q5 -1 19.5 -1h25.5h25.5t19.5 1q11 1 17 1h7h17v-28z" />
    <glyph glyph-name="backslash" unicode="\" horiz-adv-x="606" 
d="M453 0l-372 733h60l372 -733h-60v0z" />
    <glyph glyph-name="bracketright" unicode="]" horiz-adv-x="333" 
d="M7 -72l88 7q10 1 13.5 7t7.5 24l16 85q5 28 12.5 74.5t16.5 103t18.5 119.5t18.5 125q5 32 8 56t4 28q5 33 8.5 55t4.5 30q0 2 1 5q2 8 2.5 16.5t0.5 13.5q0 18 -28 21l-79 7l5 28l42 -2q15 -1 28 -1h24l61 1l33 2l2 -5l-51 -285q-7 -38 -14.5 -86t-15.5 -100
t-15.5 -104.5t-13.5 -100t-11 -86t-7 -62.5l-8 -4h-17h-7.5t-16.5 1l-45 1l-46 -1q-10 -1 -16 -1h-7h-17v28z" />
    <glyph glyph-name="asciicircum" unicode="^" horiz-adv-x="606" 
d="M112 283h-61l219 406h66l218 -406h-61l-190 344l-191 -344v0z" />
    <glyph glyph-name="underscore" unicode="_" 
d="M500 -125h-500v50h500v-50v0z" />
    <glyph glyph-name="grave" unicode="`" horiz-adv-x="333" 
d="M114 619q-16 10 -22 18t-6 19q0 13 11.5 22t26.5 9q13 0 33 -18l153 -151h-34z" />
    <glyph glyph-name="a" unicode="a" horiz-adv-x="444" 
d="M310 93q-1 -3 -1 -11q0 -23 15 -23q11 0 24.5 8t37.5 28q3 3 5.5 5l7.5 6l7 -21q-62 -51 -95.5 -72.5t-50.5 -21.5q-24 0 -24 35q0 25 6 51l29 127q-41 -57 -72 -93.5t-63 -65.5q-29 -26 -55 -41t-43 -15q-14 0 -24 22.5t-10 55.5q0 29 5.5 65t15.5 74.5t23.5 76.5
t30.5 71q19 37 46 62t74 48q20 10 37 14t38 4q20 0 37 -4t48 -15l33 18l10 -9zM319 414q-33 11 -50.5 15t-34.5 4q-36 0 -56.5 -15.5t-38.5 -57.5q-13 -30 -24.5 -65.5t-20 -71t-13.5 -68t-5 -56.5q0 -40 18 -40q12 0 29 10.5t36.5 29t41.5 44.5t43 58q13 19 23 39.5
t19 45.5t17 56t16 72z" />
    <glyph glyph-name="b" unicode="b" horiz-adv-x="463" 
d="M149 324q23 30 41.5 51t35.5 36.5t33.5 27t35.5 21.5q44 22 82 22q24 0 35 -14q9 -11 15 -37t6 -55q0 -50 -12 -99t-33 -93.5t-51 -82t-66 -62.5q-32 -23 -67.5 -36.5t-63.5 -13.5q-21 0 -39.5 6t-32.5 15.5t-22.5 22.5t-8.5 28q0 7 1 10l101 551q1 5 1.5 12t0.5 12
q0 24 -34 24h-48l4 21q27 3 48 6t39.5 8t35.5 11.5t37 16.5l12 -11zM322 424q-11 0 -25.5 -5t-30 -13.5t-31 -20t-27.5 -24.5q-30 -32 -49.5 -71t-33.5 -99q-13 -53 -13 -90q0 -65 71 -65q41 0 71.5 24.5t55.5 76.5q11 24 20.5 52t16 56t10.5 55.5t4 51.5q0 72 -39 72z" />
    <glyph glyph-name="c" unicode="c" horiz-adv-x="407" 
d="M342 390q0 18 -23.5 30.5t-57.5 12.5q-45 0 -76 -24q-18 -14 -33.5 -40t-27 -59t-17.5 -72t-6 -79q0 -119 85 -119q26 0 58.5 14.5t86.5 50.5l15 10l8 -20l-50 -41q-42 -34 -79 -49.5t-78 -15.5q-60 0 -91 37.5t-31 109.5q0 39 7 77.5t19 73t29 62.5t38 46q21 19 44.5 35
t47 27.5t45 18t38.5 6.5q58 0 96 -24q-7 -20 -12.5 -49.5t-11.5 -78.5h-23v60z" />
    <glyph glyph-name="d" unicode="d" 
d="M357 128q-5 -22 -6.5 -31t-1.5 -15q0 -23 14 -23q7 0 17.5 4.5t21.5 12.5l44 31l10 -19l-81 -60q-50 -37 -75 -37q-26 0 -26 33q0 38 16 102l23 91q-25 -38 -44.5 -65t-37 -48t-35 -38t-37.5 -33q-26 -20 -52 -32t-46 -12q-44 0 -44 97q0 31 3.5 64t10.5 64t16 59t21 50
q17 33 42 61.5t53.5 50.5t58 34.5t55.5 12.5q35 0 82 -14l28 154q1 5 1.5 11.5t0.5 12.5q0 24 -34 24h-48l4 21q27 3 48 6t39.5 8t35.5 11.5t37 16.5l12 -11zM349 410q-25 13 -49 18t-57 5q-40 0 -59 -15q-18 -14 -35.5 -48t-30.5 -79t-21 -95.5t-8 -97.5q0 -39 25 -39
q14 0 41 16t53 41q47 45 81 107t48 128z" />
    <glyph glyph-name="e" unicode="e" horiz-adv-x="389" 
d="M336 92q-35 -28 -63 -47.5t-52.5 -32t-46.5 -18t-43 -5.5q-54 0 -85 32.5t-31 91.5q0 25 5 58t13.5 66.5t19.5 63t22 48.5q15 24 41 48t56.5 42.5t62 30.5t55.5 12q38 0 61 -21.5t23 -56.5q0 -47 -30 -82t-94 -63q-19 -8 -37.5 -15t-31.5 -10l-82 -20q-8 -46 -8 -81
q0 -45 20.5 -71t55.5 -26q56 0 137 58l24 17zM104 237q34 8 61 16t48 19q39 19 63 51t24 65q0 24 -13 38t-35 14q-18 0 -38.5 -8t-34.5 -20q-22 -20 -37.5 -53t-28.5 -85z" />
    <glyph glyph-name="f" unicode="f" horiz-adv-x="278" 
d="M182 383q-6 -29 -11.5 -54t-7.5 -34q-27 -132 -46.5 -215t-36 -136t-33.5 -84t-40 -58q-29 -35 -66 -56.5t-68 -21.5q-8 0 -18 2t-17 6q2 3 5 13t6.5 22t6.5 24t5 21l14 4q14 -17 24.5 -23t27.5 -6q27 0 48.5 22.5t35.5 67.5q8 26 19 72t22.5 105.5t24 129.5t23.5 143
l9 56h-81l5 22q19 7 37 14.5t49 22.5l15 79q8 43 18 67.5t27 41.5q9 9 26.5 23.5t37.5 29.5t38 27t27 16q6 3 16.5 5t18.5 2q17 0 37.5 -4t32.5 -9l-5 -15q-6 -15 -12.5 -35t-10.5 -32l-10 -4q-11 18 -30 28.5t-42 10.5q-35 0 -56.5 -29.5t-33.5 -94.5l-21 -112h16h30t21 1
t16.5 2.5t16.5 3.5l7 2l4 -7q-5 -11 -9.5 -26.5t-7.5 -29.5h-104z" />
    <glyph glyph-name="g" unicode="g" 
d="M406 375q2 -11 2.5 -18.5t0.5 -14.5q0 -33 -12.5 -64.5t-35 -58t-53.5 -45.5t-68 -28q-2 -2 -3 -3.5l-3 -4.5q-21 -27 -21 -38q0 -14 10.5 -29.5t36.5 -35.5l60 -49q64 -52 64 -107q0 -31 -19.5 -59t-53 -49.5t-77.5 -34t-92 -12.5q-82 0 -130.5 31.5t-48.5 85.5
q0 30 13.5 58t39.5 49q14 12 27.5 21t30 17t37 16t49.5 17q-21 18 -21 33q0 11 7.5 23.5t19.5 23.5l41 38q-8 -1 -16 -1h-14q-58 0 -90 32.5t-32 90.5q0 107 85 171q33 25 68.5 38.5t66.5 13.5q33 0 67 -13q19 -8 29 -16.5t22 -28.5q20 0 34.5 0.5t26 1.5t21 2.5t20.5 4.5
l3 -6l-9 -45q-17 -2 -27 -3t-23 -1h-14t-20 2zM176 1q-38 -11 -59 -20.5t-40 -25.5q-50 -42 -50 -100q0 -46 38.5 -74.5t100.5 -28.5q31 0 58.5 7.5t48.5 20t33 29.5t12 37q0 25 -15 47t-50 49zM250 448q-27 0 -50 -11.5t-39.5 -32.5t-25.5 -50.5t-9 -65.5q0 -120 93 -120
q53 0 85.5 47.5t32.5 125.5q0 107 -87 107z" />
    <glyph glyph-name="h" unicode="h" 
d="M138 265l20 25q17 22 29.5 37.5t23.5 27t21.5 21t23.5 20.5q48 40 90 63t68 23q14 0 21.5 -9.5t7.5 -26.5q0 -13 -3 -33.5t-8 -40.5l-64 -256q-5 -17 -6 -24.5t-1 -15.5t4 -14t9 -6q8 0 23.5 8t37.5 22l26 17l10 -18q-37 -27 -63 -45.5t-44 -29t-30.5 -15t-22.5 -4.5
q-14 0 -22 10.5t-8 28.5q0 14 3 32t10 45l51 196q6 25 10.5 50t4.5 39q0 22 -22 22q-16 0 -41.5 -16.5t-53 -42t-53.5 -57.5t-42 -62q-11 -20 -19.5 -42t-16 -49t-14 -61t-12.5 -77l-69 -16l-7 11q8 24 18.5 66t22.5 94t24 110.5t23 115.5l42 234q1 5 1.5 11.5t0.5 12.5
q0 24 -34 24h-48l4 21q27 3 48 6t39.5 8t35.5 11.5t37 16.5l12 -11z" />
    <glyph glyph-name="i" unicode="i" horiz-adv-x="278" 
d="M62 408q57 40 87 57t47 17q25 0 25 -26q0 -11 -6 -36l-77 -304q-4 -16 -5.5 -24t-1.5 -16t4 -14t9 -6q7 0 23 8t38 22l26 17l10 -18q-37 -27 -63 -45.5t-44 -29t-30.5 -15t-22.5 -4.5q-14 0 -22 10.5t-8 28.5q0 14 3.5 34t9.5 43l66 240q3 11 5.5 25t2.5 19q0 10 -5 16.5
t-13 6.5q-3 0 -5.5 -0.5t-7 -3t-12.5 -7.5t-22 -14l-32 -21l-7 20zM228 712q16 0 26 -11.5t10 -29.5q0 -29 -16 -48t-39 -19q-18 0 -28.5 11t-10.5 30q0 26 18 46.5t40 20.5z" />
    <glyph glyph-name="j" unicode="j" horiz-adv-x="278" 
d="M-62 -212q31 -19 53 -19q14 0 26.5 24t20.5 63l100 495q0 2 0.5 4.5l1.5 7.5q2 8 3.5 16.5t1.5 11.5q0 10 -5 16.5t-13 6.5q-3 0 -5.5 -0.5t-7 -3t-12.5 -7.5t-22 -14l-32 -21l-7 20l28 20q57 40 87 57t47 17q25 0 25 -25q0 -10 -6 -37l-76 -350q-11 -48 -19 -82
t-15 -59.5t-14 -44.5t-14 -36q-55 -124 -116 -124q-24 0 -38 7zM229 712q16 0 26 -11.5t10 -29.5q0 -29 -16 -48t-39 -19q-18 0 -28.5 11t-10.5 30q0 26 18 46.5t40 20.5z" />
    <glyph glyph-name="k" unicode="k" horiz-adv-x="444" 
d="M127 230q94 131 159 191.5t115 60.5q9 0 21.5 -2t26.5 -7l-17 -63q-26 6 -36 6q-38 0 -74.5 -20t-82.5 -66l-14 -14q15 -46 26.5 -80.5t23 -62t22.5 -51t24 -47.5q7 -13 12.5 -18t13.5 -5q6 0 12 2t17 8l43 24l8 -19l-46 -32q-33 -23 -52 -33.5t-29 -10.5
q-9 0 -20.5 13.5t-26 45t-34 83t-45.5 126.5q-26 -26 -43 -58.5t-24 -68.5l-23 -124l-67 -17l-9 10q19 78 32.5 132.5t22.5 94t15.5 69t11.5 57.5l48 268q1 5 1.5 11.5t0.5 12.5q0 24 -34 24h-48l4 21q27 3 48 6t39.5 8t35.5 11.5t37 16.5l12 -11z" />
    <glyph glyph-name="l" unicode="l" horiz-adv-x="278" 
d="M122 113l-2 -9q-4 -20 -4 -28t4 -14t9 -6q8 0 23.5 8t37.5 22l26 17l10 -18q-37 -27 -63 -45.5t-44 -29t-30.5 -15t-22.5 -4.5q-30 0 -30 40q0 16 4.5 39.5t14.5 61.5l14 52q4 12 11 44t15.5 73.5t18 88.5t17 89t13 74.5t7.5 46.5l3 22q2 14 2.5 19t0.5 7q0 22 -34 22
h-48l4 21q27 3 48 6t39.5 8t35.5 11.5t37 16.5l12 -11z" />
    <glyph glyph-name="m" unicode="m" horiz-adv-x="778" 
d="M740 85q-37 -27 -63 -45.5t-44 -29t-30.5 -15t-22.5 -4.5q-30 0 -30 40q0 17 3 36t10 40q8 26 19.5 67.5t23.5 89.5q8 33 13 53t7.5 33t3.5 21.5t1 17.5q0 25 -13 25q-24 0 -59.5 -25t-77.5 -71q-33 -37 -57.5 -90.5t-36.5 -114.5l-21 -107l-69 -15l-5 11l16 67
q31 132 47 215t16 109q0 21 -11 21q-21 0 -52 -20.5t-63 -55.5q-21 -23 -36.5 -46t-28 -50t-22.5 -59.5t-19 -74.5l-22 -102l-68 -15l-3 11q15 54 30 114t26.5 114t18.5 97t7 62q0 25 -18 25q-3 0 -5.5 -0.5t-7 -3t-12.5 -7.5t-22 -14l-32 -21l-7 20l28 20q56 40 86.5 57
t46.5 17q23 0 23 -31q0 -19 -6 -43l-33 -133q24 33 41 54.5t31 37t27 27t30 24.5q84 64 131 64q26 0 26 -31q0 -5 -2 -16t-5 -26l-30 -137q18 26 34.5 46t33.5 37.5t36 33t43 32.5q46 32 76 46.5t52 14.5q26 0 26 -28q0 -6 -2 -17t-5 -24l-75 -297q-4 -16 -5.5 -24t-1.5 -16
t4 -14t9 -6q8 0 23.5 8t37.5 22l26 17z" />
    <glyph glyph-name="n" unicode="n" horiz-adv-x="556" 
d="M52 408q55 39 86 56.5t47 17.5q23 0 23 -33q0 -14 -6 -41l-38 -161q19 27 35 48t29.5 37.5t26.5 30t27 26.5q45 42 91.5 67.5t78.5 25.5q31 0 31 -36q0 -28 -11 -74l-66 -276q-1 -3 -1.5 -9.5t-0.5 -10.5q0 -8 4 -14t9 -6q8 0 23.5 8t37.5 22l26 17l10 -18
q-37 -27 -63 -45.5t-44 -29t-30.5 -15t-22.5 -4.5q-30 0 -30 40q0 23 13 76l52 212q6 24 8.5 40.5t2.5 30.5q0 24 -17 24t-38.5 -11t-45 -30.5t-47 -46.5t-43.5 -58q-17 -26 -30 -52t-23 -56.5t-18 -67.5t-15 -84q-17 -3 -34 -7.5t-36 -9.5l-7 11q15 54 30 114t26.5 114
t18.5 97t7 62q0 25 -18 25q-3 0 -5.5 -0.5t-7 -3t-12.5 -7.5t-22 -14l-32 -21l-7 20z" />
    <glyph glyph-name="o" unicode="o" horiz-adv-x="444" 
d="M278 482q63 0 98 -40t35 -111q0 -38 -8 -77t-22 -75.5t-33.5 -68t-42.5 -53.5q-34 -32 -76 -50t-84 -18q-63 0 -95.5 41.5t-32.5 121.5q0 92 32.5 164.5t93.5 116.5q69 49 135 49zM241 444q-18 0 -34 -4.5t-26 -12.5q-18 -15 -34 -44t-28 -66.5t-19 -80.5t-7 -85
q0 -60 24 -92t68 -32q47 0 75 33q16 20 30 49t24 62.5t15.5 70.5t5.5 73q0 63 -24 96t-70 33z" />
    <glyph glyph-name="p" unicode="p" 
d="M73 -259q-24 -4 -40.5 -8t-32.5 -9l-7 6l8 37q15 68 28 132t21 109l58 343q2 8 3 20t1 18q0 23 -17 23q-7 0 -17 -4.5t-31 -18.5l-32 -21l-7 20l28 20q56 40 86.5 57t46.5 17q22 0 22 -30q0 -16 -5 -44l-24 -119q13 22 24.5 38.5t22.5 30.5t23 26t27 25q39 35 77 54
t70 19q27 0 43 -30t16 -81q0 -28 -6 -61.5t-16 -67t-24 -64t-29 -53.5q-16 -24 -43.5 -48t-58.5 -43.5t-61 -32t-51 -12.5q-8 0 -20 2.5t-32 8.5l-9 3zM125 59q37 -23 82 -23q63 0 93 44q20 28 37 63.5t29.5 72.5t19.5 73.5t7 66.5q0 68 -38 68q-31 0 -65 -22.5t-64 -59
t-52.5 -83t-30.5 -94.5z" />
    <glyph glyph-name="q" unicode="q" horiz-adv-x="463" 
d="M418 480l14 -6q-4 -12 -7 -23t-6 -24.5t-6.5 -30.5t-7.5 -40l-86 -456q-7 -38 -11.5 -78t-7.5 -81q-18 -2 -40.5 -6.5t-45.5 -10.5l-9 14q20 21 27 57l76 414q-28 -50 -73 -99.5t-94 -84.5l-8 -6q-24 -17 -40 -23.5t-33 -6.5q-36 0 -36 89q0 39 6.5 83.5t18 85.5t25.5 75
t29 52q17 19 46 42.5t56 40.5q41 25 79 25q22 0 45.5 -5.5t55.5 -18.5zM351 406q-36 16 -56 21.5t-41 5.5q-24 0 -44 -6.5t-29 -17.5q-16 -19 -31 -54t-27 -77t-19.5 -85.5t-7.5 -79.5q0 -25 5.5 -39.5t16.5 -14.5t27 8.5t35 23t39.5 35t40.5 44.5q54 67 70 141z" />
    <glyph glyph-name="r" unicode="r" horiz-adv-x="389" 
d="M354 365q-15 19 -36 19q-33 0 -83 -65q-17 -21 -29.5 -42.5t-22.5 -44.5t-18 -49t-15 -57l-26 -120l-13 -2q-17 -4 -30 -6.5t-24 -6.5l-10 7q15 48 30 107t26.5 115t19 102t7.5 68t-17 22q-7 0 -17 -4.5t-31 -18.5l-32 -21l-7 20l28 20q56 40 86.5 57t46.5 17
q23 0 23 -32q0 -17 -6 -42l-6 -26q-2 -8 -4.5 -19t-5 -23t-5 -23t-3.5 -20l-8 -41q6 13 11.5 24.5t13 24t17.5 27.5t25 36l27 39q53 75 98 75q4 0 8 -1t12 -5q-6 -31 -10 -56.5t-6 -54.5h-14z" />
    <glyph glyph-name="s" unicode="s" horiz-adv-x="389" 
d="M56 148v-84q41 -35 94 -35q54 0 85.5 30t31.5 79q0 29 -13.5 44t-46.5 21l-63 12q-97 19 -97 101q0 27 8.5 47.5t28.5 40.5q36 36 79 57t82 21q25 0 48 -6.5t52 -20.5q-8 -38 -12 -62.5t-7 -50.5h-23v55q-12 20 -38 32.5t-57 12.5q-43 0 -72.5 -27t-29.5 -67
q0 -31 17 -46t62 -23l43 -8q56 -11 81 -33.5t25 -63.5q0 -38 -17 -67.5t-55 -59.5t-73.5 -44t-72.5 -14q-50 0 -107 27q8 35 13 64.5t9 67.5h25z" />
    <glyph glyph-name="t" unicode="t" horiz-adv-x="333" 
d="M41 390l2 13q14 4 34.5 12.5t53.5 24.5l25 170q23 9 43 18t35 18l11 -15q-7 -20 -12.5 -40t-11 -43.5t-10.5 -51t-11 -62.5q29 0 55 1.5t55 4.5l-11 -50h-107l-13 -62q-43 -215 -43 -252q0 -20 14 -20q16 0 60 30l45 31l10 -18l-16 -13l-15 -12q-29 -24 -51 -39.5
t-39 -25.5t-31 -14t-27 -4q-30 0 -30 40q0 9 1.5 21.5t6.5 33.5q2 9 3 12.5t2 8.5l56 283h-84z" />
    <glyph glyph-name="u" unicode="u" horiz-adv-x="556" 
d="M370 239q-32 -52 -68.5 -97.5t-73 -79.5t-69.5 -53.5t-57 -19.5q-15 0 -25 12t-10 29q0 11 1 25.5t3 21.5l63 297q1 3 1.5 9t0.5 9q0 8 -5 14t-12 6t-17 -4.5t-31 -18.5l-32 -21l-7 20l28 20q56 40 86.5 57t45.5 17q23 0 23 -31q0 -10 -1.5 -20.5t-3.5 -22.5l-57 -271
q-4 -19 -5.5 -30t-1.5 -22q0 -26 13 -26q15 0 36 12.5t45 34.5t49 51.5t47 63.5q23 35 41.5 84.5t29.5 108.5l10 51l68 17l7 -9q-11 -43 -22.5 -89t-22 -92t-20.5 -90.5t-19 -85.5l-1 -6q-2 -11 -3.5 -19.5t-1.5 -14.5q0 -17 13 -17q8 0 25.5 7.5t35.5 19.5l26 17l10 -18
q-37 -27 -63 -45.5t-44 -29t-30.5 -15t-22.5 -4.5q-30 0 -30 40q0 11 3 29.5t8 36.5z" />
    <glyph glyph-name="v" unicode="v" 
d="M382 470q12 12 33 12q27 0 44.5 -27.5t17.5 -70.5q0 -15 -3 -34.5t-8.5 -40.5t-12.5 -42t-15 -40q-23 -52 -57 -99.5t-69 -79.5q-35 -31 -64.5 -45t-61.5 -14q-48 0 -79 37t-31 95q0 37 8.5 72.5t26.5 71.5t47 75t71 84q-20 -2 -33.5 -3t-29.5 -1h-16t-12 1
q-10 1 -16.5 1h-10.5q-18 0 -32 -7.5t-19 -20.5l-17 -42h-22q10 42 18.5 70t19.5 48q15 7 32 7h4t8 -1l12 -1q22 -2 50 -3.5t49 -1.5t33.5 2.5t27.5 9.5l10 -18q-37 -46 -63 -86.5t-42.5 -79t-24 -76t-7.5 -76.5q0 -49 21.5 -78t58.5 -29q33 0 66 28t59.5 72t43 99.5
t16.5 111.5q0 30 -11.5 46.5t-31.5 16.5q-14 0 -27 -9l-11 19z" />
    <glyph glyph-name="w" unicode="w" horiz-adv-x="722" 
d="M604 470q12 12 33 12q27 0 44.5 -27.5t17.5 -70.5q0 -15 -3 -34.5t-8.5 -40.5t-12.5 -42t-15 -40q-23 -51 -53.5 -95t-63.5 -75.5t-67 -49.5t-64 -18q-34 0 -54 29t-20 77q0 17 2.5 38t9.5 54q-28 -54 -52 -91.5t-46.5 -61t-45 -34.5t-46.5 -11q-40 0 -64 37.5t-24 99.5
q0 32 6.5 62t21.5 61.5t38.5 65.5t57.5 73q13 14 17.5 20t9.5 12l3 4q-19 -2 -31 -3t-28 -1h-16.5t-12.5 1q-10 1 -16.5 1h-10.5q-18 0 -32 -7.5t-19 -20.5l-17 -42h-22q10 42 18.5 70t19.5 48q15 7 32 7h4t8 -1l12 -1q22 -2 50 -3.5t49 -1.5t33.5 2.5t27.5 9.5l10 -18
q-74 -84 -107 -161.5t-33 -166.5q0 -44 16 -70.5t42 -26.5q23 0 50.5 29.5t57.5 86.5q11 20 19 38.5t14.5 36.5t11.5 38t10 43l29 149l74 22l7 -8l-52 -184q-5 -16 -8.5 -36t-6.5 -40.5t-4.5 -41t-1.5 -38.5q0 -42 14 -68.5t36 -26.5q32 0 64.5 28t58.5 73t42.5 100.5
t16.5 109.5q0 30 -11.5 46.5t-31.5 16.5q-14 0 -27 -9l-11 19z" />
    <glyph glyph-name="x" unicode="x" 
d="M41 91l11 -28q4 -9 28 -9q41 0 105 99l40 62l-11 62q-13 74 -30 106.5t-42 32.5q-14 0 -30 -11t-39 -37l-17 10l58 83q7 10 22 15.5t35 5.5q44 0 66.5 -30.5t31.5 -104.5l6 -48l37 55q47 69 79.5 98.5t62.5 29.5q13 0 30 -10l-15 -85l-14 -4q-8 23 -33 23
q-23 0 -46.5 -19.5t-58.5 -68.5l-35 -49l18 -101q4 -22 11 -46.5t14 -38.5q15 -30 38 -30t77 45l9 -19l-49 -44q-24 -22 -46.5 -34t-39.5 -12q-27 0 -44.5 30t-27.5 94l-11 69l-76 -117q-23 -35 -50.5 -55.5t-52.5 -20.5q-9 0 -20.5 3t-22.5 9q1 5 1.5 9t2.5 13q5 24 6.5 37
t1.5 28z" />
    <glyph glyph-name="y" unicode="y" 
d="M41 -146l10 -4q-1 -7 -1.5 -12.5t-0.5 -9.5q0 -26 18 -44t44 -18q52 0 92.5 58.5t78.5 191.5l49 171q-28 -42 -57 -78.5t-55.5 -63t-48 -41.5t-35.5 -15q-19 0 -31 19.5t-12 51.5l1 40l17 243q1 6 1 10v5q0 52 -22 52q-6 0 -21 -9l-4 -3l-50 -30l-11 18l82 56
q36 25 50.5 32.5t24.5 7.5q13 0 18.5 -14.5t5.5 -48.5q0 -21 -1 -47.5t-3 -49.5l-15 -194l-1 -13q-1 -19 5 -33.5t15 -14.5q8 0 21 7.5t27.5 20.5t29.5 30.5t28 36.5q12 18 24.5 40.5t23.5 45t19 44t13 39.5l35 132q31 3 74 19l11 -9l-141 -440q-22 -69 -53 -126t-67 -97.5
t-75.5 -63t-79.5 -22.5q-17 0 -32 6t-26 16.5t-17.5 25t-6.5 30.5v8.5t1 9.5z" />
    <glyph glyph-name="z" unicode="z" horiz-adv-x="444" 
d="M352 421q-25 -13 -45.5 -18t-47.5 -5q-32 0 -81 10q-15 3 -24.5 4t-20.5 1q-10 0 -18 -1t-21 -4l-30 -58h-21l32 122q34 10 61 10q11 0 26 -3t36 -8l18 -5q36 -10 72 -15.5t62 -5.5q20 0 34 14l23 23l9 -9l-6 -32l-339 -382q27 11 49 16t46 5q14 0 37.5 -3.5t48.5 -8.5
l18 -4q29 -7 49 -7q31 0 39 25l22 60h22q-8 -35 -15 -66t-15 -77q-22 -6 -31.5 -8t-18.5 -2q-20 0 -46.5 4.5t-71.5 15.5q-39 9 -62.5 13t-42.5 4q-26 0 -47.5 -7.5t-43.5 -24.5l-9 27z" />
    <glyph glyph-name="braceleft" unicode="{" horiz-adv-x="333" 
d="M72 202q2 12 3 23t1 22q0 28 -13 42.5t-48 25.5q46 13 67 37.5t29 74.5l29 172q7 39 19.5 64.5t33 41t51.5 22t75 6.5q-48 -12 -71 -38.5t-33 -81.5l-30 -172q-5 -30 -13 -51.5t-20 -35.5t-30 -23.5t-43 -15.5q37 -11 52 -27.5t15 -46.5q0 -25 -6 -59l-28 -162
q-2 -10 -2.5 -18t-0.5 -19q0 -37 14.5 -55t51.5 -28q-39 1 -59 3.5t-36 9.5q-40 18 -40 77q0 14 1.5 28t3.5 28z" />
    <glyph glyph-name="bar" unicode="|" horiz-adv-x="400" 
d="M172 0v733h56v-733h-56v0z" />
    <glyph glyph-name="braceright" unicode="}" horiz-adv-x="333" 
d="M261 431q-2 -12 -3 -23t-1 -23q0 -27 13 -41.5t48 -25.5q-23 -7 -39.5 -16t-27.5 -22t-18 -31t-11 -43l-29 -172q-7 -39 -19.5 -64.5t-33 -41t-51.5 -22t-75 -6.5q48 12 71 38.5t33 81.5l30 172q5 30 13 51.5t20 35.5t29.5 23.5t43.5 15.5q-37 11 -52 27.5t-15 46.5
q0 24 6 59l28 162q3 18 3 37q0 37 -14.5 55t-51.5 28q39 -1 59 -3.5t36 -9.5q40 -18 40 -78q0 -13 -1.5 -27t-3.5 -28z" />
    <glyph glyph-name="asciitilde" unicode="~" horiz-adv-x="606" 
d="M555 301q-32 -59 -66 -86t-72 -27q-10 0 -20.5 2t-25.5 6.5t-35.5 12.5t-48.5 20q-24 10 -38.5 16t-24 9t-17 4t-16.5 1q-30 0 -53 -19.5t-53 -70.5l-34 27q37 65 69 92.5t70 27.5q11 0 22.5 -1.5t26 -6t33.5 -12t46 -19.5q23 -10 38.5 -16.5t26.5 -10t18.5 -5t14.5 -1.5
q58 0 105 84z" />
    <glyph glyph-name="exclamdown" unicode="&#xa1;" horiz-adv-x="333" 
d="M188 467q19 0 32 -14t13 -34q0 -29 -17.5 -49t-43.5 -20q-20 0 -32 12.5t-12 34.5q0 29 17.5 49.5t42.5 20.5zM26 -276l-11 9q12 45 21 82t18 71t17 69.5t18 77.5t21.5 94.5t27.5 121.5l30 17l6 -3l-21 -154q-3 -25 -8 -62.5t-9.5 -78t-9.5 -79.5t-8 -68l-7 -71z" />
    <glyph glyph-name="cent" unicode="&#xa2;" 
d="M343 551h33l-27 -71q37 0 69 -22q-10 -44 -14.5 -73t-6.5 -55h-23v64q0 10 -9.5 17t-34.5 16l-146 -382q15 -5 26 -5q37 0 77 18t92 57l7 -20l-60 -49q-69 -55 -163 -57l-34 -85h-32l35 94q-23 7 -35 17t-22 30q-10 18 -14.5 42t-4.5 53q0 41 8.5 82.5t24 78t36.5 66
t45 46.5q42 29 77.5 45.5t68.5 21.5zM297 432q-5 1 -8.5 1h-5.5q-28 0 -54 -14t-40 -37q-10 -15 -20.5 -45t-19 -64t-14 -67.5t-5.5 -56.5q0 -54 27 -85z" />
    <glyph glyph-name="sterling" unicode="&#xa3;" 
d="M441 1q-24 -15 -59 -15q-7 0 -16.5 1t-26.5 4t-43 7.5t-66 12.5l-5 1l-6 1l-6 1q-68 12 -97 12q-21 0 -29.5 -2.5t-22.5 -13.5q-8 -7 -19 -14.5t-22 -13.5q-9 4 -15 17.5t-6 27.5q29 15 49.5 36t34.5 52.5t23.5 76t16.5 107.5l3 23h-95l7 35h94q9 53 19 93.5t22.5 73
t29 58.5t37.5 50q35 39 69 57.5t73 18.5q27 0 47.5 -6t46.5 -22q-10 -29 -14 -57t-5 -65h-23v54q0 20 -26.5 35.5t-61.5 15.5q-76 0 -94 -94l-5 -25q-7 -32 -15 -68.5t-16 -75.5l-10 -43h142l-7 -35h-143q-15 -57 -27.5 -98t-25.5 -71t-26.5 -51t-30.5 -38q29 8 47 11.5
t38 3.5q10 0 29 -1.5t31 -3.5l59 -8q10 -2 23.5 -3t20.5 -1h30h16t10 1q24 3 36 36l22 60h24z" />
    <glyph glyph-name="currency" unicode="&#xa4;" 
d="M45 577l57 -56q34 29 69 41.5t79 12.5q43 0 78.5 -12.5t69.5 -41.5l57 56l31 -32l-56 -56q28 -32 40.5 -66t12.5 -77q0 -41 -12 -74t-39 -69l54 -54l-31 -31l-55 53q-37 -30 -71.5 -43t-78.5 -13t-78.5 13t-71.5 43l-55 -53l-31 31l54 54q-27 36 -39 69t-12 74
q0 44 12.5 77.5t40.5 65.5l-56 56zM251 523q-39 0 -72 -13.5t-57.5 -37.5t-38.5 -56.5t-14 -70.5q0 -37 14 -69.5t38.5 -56.5t57.5 -38t71 -14t71 14t57.5 38t38.5 56.5t14 69.5t-14 69.5t-38.5 56.5t-57.5 38t-70 14z" />
    <glyph glyph-name="yen" unicode="&#xa5;" 
d="M254 93q-2 -12 -2.5 -19.5t-0.5 -15.5q0 -16 7 -22t24 -8l41 -3l-2 -28h-23l-82 3q-9 0 -26 -0.5t-46 -1.5l-46 -1l3 28l41 3q27 3 32 15q3 5 7.5 26.5t10.5 55.5l13 78h-115l6 34h114q2 8 2 12.5v9.5q0 19 -7 51h-99l6 34h84l-9 42q-14 66 -27.5 112.5t-27.5 75.5
t-29 42.5t-32 13.5q-6 0 -14 -2.5t-22 -9.5v24q15 13 29 25.5t32 31.5q25 1 46.5 -19.5t41.5 -66t38.5 -118t38.5 -176.5q36 89 68 155t62 111t60 71t61 35l-4 -70q-20 -5 -37 -14.5t-34 -27.5t-35 -45.5t-40 -66.5l-6 -10q-14 -27 -22 -42t-13 -28l-19 -43h96l-6 -34h-102
q-5 -13 -8.5 -29t-6.5 -44h111l-6 -34h-110z" />
    <glyph glyph-name="brokenbar" unicode="&#xa6;" horiz-adv-x="606" 
d="M275 0v293h56v-293h-56v0zM275 733h56v-293h-56v293v0z" />
    <glyph glyph-name="section" unicode="&#xa7;" 
d="M65 -115q27 -32 56 -45.5t70 -13.5q29 0 54.5 10t44 27.5t29.5 41.5t11 51q0 18 -4.5 33t-15.5 28.5t-29 26.5t-45 28l-51 28q-38 21 -64 39.5t-42 36.5t-23 37t-7 42t5.5 42t18 37.5t33.5 37t52 41.5q-41 45 -41 84q0 40 17.5 74.5t56.5 72.5q35 34 67.5 48t77.5 14
q39 0 68.5 -9.5t58.5 -30.5l-31 -129h-25l5 80q-44 44 -108 44q-27 0 -51 -9t-41.5 -25t-27.5 -37.5t-10 -46.5q0 -26 12 -47t34 -35l123 -76q35 -22 51 -34t26 -24q26 -32 26 -75q0 -47 -26 -85t-81 -72q29 -26 40 -47t11 -51q0 -79 -78 -152q-37 -33 -74 -49t-79 -16
q-83 0 -145 52l33 141l24 -2zM177 399q-35 -29 -50 -55t-15 -56q0 -32 21 -58t69 -53l116 -66q36 29 51 53t15 53q0 33 -20 58t-68 54z" />
    <glyph glyph-name="dieresis" unicode="&#xa8;" horiz-adv-x="333" 
d="M128 637q20 0 35 -15t15 -34q0 -20 -15 -35.5t-35 -15.5t-35 15.5t-15 35.5t15 34.5t35 14.5zM328 637q20 0 35 -15t15 -34q0 -20 -15 -35.5t-35 -15.5t-35 15.5t-15 35.5t15 34.5t35 14.5z" />
    <glyph glyph-name="copyright" unicode="&#xa9;" horiz-adv-x="747" 
d="M527 415h-26q-6 107 -107 107q-33 0 -60.5 -12.5t-47 -35t-30 -54t-10.5 -70.5t11 -73t31 -58.5t47 -38.5t59 -14q81 0 122 77l21 -9q-46 -99 -165 -99q-43 0 -78.5 15t-61 42.5t-40 65.5t-14.5 83q0 46 15 84.5t42.5 65.5t65.5 42t85 15q32 0 65 -6t76 -20v-107z
M375 706q74 0 140 -28.5t115 -78t77.5 -115.5t28.5 -140q0 -75 -28.5 -140.5t-78 -115t-115.5 -78t-141 -28.5t-140.5 28.5t-115 78t-78 115t-28.5 140.5t28.5 141t78 115t115.5 77.5t142 28.5zM373 662q-66 0 -124 -25t-101 -68.5t-68 -101.5t-25 -124q0 -65 25 -123
t68 -101t101 -68t123 -25q66 0 124 25t101.5 68.5t69 101t25.5 123.5q0 65 -25 123t-68.5 101.5t-101.5 68.5t-124 25z" />
    <glyph glyph-name="ordfeminine" unicode="&#xaa;" horiz-adv-x="333" 
d="M260 471q-1 -3 -1 -8q0 -17 12 -17q5 0 12 3.5t20 13.5q3 2 5.5 4t4.5 4l4 2l4 -12q-42 -31 -63 -44t-31 -13q-16 0 -16 22q0 5 1 14t3 17l16 78q-18 -24 -32 -41.5t-26.5 -30.5t-24.5 -22.5t-25 -18.5q-29 -18 -41 -18q-9 0 -15.5 14t-6.5 36t6 52t15.5 58.5t21 52
t22.5 33.5q54 49 110 49q14 0 25 -2t31 -9l21 11l7 -5zM124 566q-7 -20 -12 -48.5t-5 -49.5t11 -21q8 0 22 9t29 23t29 31t23 33q7 12 12 23t10 24t10.5 29.5t11.5 39.5q-20 6 -32.5 8.5t-24.5 2.5q-14 0 -24 -2.5t-17.5 -8.5t-13.5 -17t-12 -29z" />
    <glyph glyph-name="guillemotleft" unicode="&#xab;" 
d="M208 70l-151 181v16l194 173l19 -16l-137 -168l95 -171l-20 -15v0zM375 70l-151 181v16l194 173l19 -16l-137 -168l95 -171l-20 -15v0z" />
    <glyph glyph-name="logicalnot" unicode="&#xac;" horiz-adv-x="606" 
d="M499 118v204h-448v56h504v-260h-56v0z" />
    <glyph glyph-name="registered" unicode="&#xae;" horiz-adv-x="747" 
d="M361 554q81 0 118 -23.5t37 -74.5q0 -87 -115 -106q29 -5 49 -28t42 -76l5 -11q8 -19 15 -31t14 -19t16 -9.5t21 -2.5v-16h-27q-24 0 -38.5 2t-25 11t-19.5 27t-22 50l-12 30q-8 19 -15 31.5t-15 19.5t-19 9.5t-27 2.5h-34v-129q0 -22 5.5 -29.5t22.5 -7.5h21v-17h-152
v16h16q20 0 26 6t6 25v303q0 30 -32 30h-17v17h156zM336 360q64 0 94 21.5t30 67.5q0 42 -24.5 64t-69.5 22h-29q-28 0 -28 -29v-146h27zM375 706q74 0 140 -28.5t115 -78t77.5 -115.5t28.5 -140q0 -75 -28.5 -140.5t-78 -115t-115.5 -78t-141 -28.5t-140.5 28.5t-115 78
t-78 115t-28.5 140.5t28.5 141t78 115t115.5 77.5t142 28.5zM373 662q-66 0 -124 -25t-101 -68.5t-68 -101.5t-25 -124q0 -65 25 -123t68 -101t101 -68t123 -25q66 0 124 25t101.5 68.5t69 101t25.5 123.5q0 65 -25 123t-68.5 101.5t-101.5 68.5t-124 25z" />
    <glyph glyph-name="macron" unicode="&#xaf;" horiz-adv-x="333" 
d="M386 589l-11 -51h-301l11 51h301v0z" />
    <glyph glyph-name="macron" unicode="&#x2c9;" horiz-adv-x="333" 
d="M386 589l-11 -51h-301l11 51h301v0z" />
    <glyph glyph-name="degree" unicode="&#xb0;" horiz-adv-x="400" 
d="M240 689q31 0 58.5 -12t47.5 -32.5t32 -48.5t12 -59q0 -30 -12 -57t-32.5 -47t-47.5 -32t-58 -12t-58.5 12t-47.5 32t-32 47.5t-12 59.5q0 31 12 58t32 47t47.5 32t58.5 12zM239 649q-23 0 -42.5 -8.5t-34.5 -23.5t-23.5 -35t-8.5 -42q0 -23 8.5 -43.5t23.5 -35.5
t35 -23.5t43 -8.5q22 0 42 8.5t35 23.5t24 35t9 42q0 23 -9 43t-24 35t-35 24t-43 9z" />
    <glyph glyph-name="plusminus" unicode="&#xb1;" horiz-adv-x="606" 
d="M275 289v223h56v-223h224v-56h-224v-136h-56v136h-224v56h224v0zM555 0h-504v56h504v-56v0z" />
    <glyph glyph-name="twosuperior" unicode="&#xb2;" horiz-adv-x="300" 
d="M94 673q21 14 41 20t45 6q51 0 80.5 -26.5t29.5 -71.5q0 -31 -15 -62.5t-43 -59.5l-160 -158h136q20 0 37 2t37 7l4 -11l-11 -41l-62 1q-14 1 -36 1h-32h-33.5t-36.5 -1l-62 -1v21q62 61 103 105.5t65.5 78t34.5 60t10 50.5q0 59 -64 59q-30 0 -48.5 -13t-40.5 -48
l-18 10z" />
    <glyph glyph-name="threesuperior" unicode="&#xb3;" horiz-adv-x="300" 
d="M46 386l22 -3q-3 -14 -3 -26q0 -28 20 -43t57 -15q20 0 38.5 9.5t32 25.5t21.5 37.5t8 45.5q0 35 -21.5 54.5t-61.5 19.5q-11 0 -21.5 -2t-27.5 -8l-4 13l11 30h16q5 -1 8.5 -1h5.5q40 0 67 25t27 62q0 20 -18 34t-45 14q-37 0 -64 -34l-13 -17l-15 10l38 63
q25 11 41.5 15t34.5 4q44 0 71.5 -21.5t27.5 -56.5q0 -33 -22 -57.5t-74 -48.5q55 -11 78 -32.5t23 -61.5q0 -31 -14 -58t-39 -47t-58 -31.5t-70 -11.5q-29 0 -50.5 6t-44.5 20z" />
    <glyph glyph-name="acute" unicode="&#xb4;" horiz-adv-x="333" 
d="M275 669q18 18 33 18t26.5 -9.5t11.5 -21.5q0 -11 -6 -19t-22 -18l-162 -101h-34z" />
    <glyph glyph-name="mu" unicode="&#xb5;" horiz-adv-x="556" 
d="M60 408q56 40 86.5 57t46.5 17q22 0 22 -32q0 -17 -5 -42l-57 -271q-4 -19 -5.5 -30t-1.5 -22q0 -26 13 -26q15 0 36 12.5t45 34.5t49 51.5t47 63.5q23 35 41.5 84.5t29.5 108.5l10 51l68 17l7 -9q-11 -43 -22.5 -89t-22 -92t-20.5 -90.5t-19 -85.5l-1 -6
q-2 -11 -3.5 -19.5t-1.5 -14.5q0 -17 13 -17q8 0 25.5 7.5t35.5 19.5l26 17l10 -18q-37 -27 -63 -45.5t-44 -29t-30.5 -15t-22.5 -4.5q-30 0 -30 40q0 24 13 76l35 132q-11 -19 -21 -34t-20 -28.5t-21.5 -27.5t-26.5 -31q-25 -29 -50 -52.5t-46.5 -40.5t-39 -26.5
t-28.5 -9.5q-2 0 -7.5 0.5t-10.5 2.5l-5 1l-7 -175q-1 -10 -8.5 -17.5t-24.5 -14.5l-30 -12l-9 8l119 592q2 10 2 18t-5 14t-12 6t-17 -4.5t-31 -18.5l-32 -21l-7 20z" />
    <glyph glyph-name="mu" unicode="&#x3bc;" horiz-adv-x="556" 
d="M60 408q56 40 86.5 57t46.5 17q22 0 22 -32q0 -17 -5 -42l-57 -271q-4 -19 -5.5 -30t-1.5 -22q0 -26 13 -26q15 0 36 12.5t45 34.5t49 51.5t47 63.5q23 35 41.5 84.5t29.5 108.5l10 51l68 17l7 -9q-11 -43 -22.5 -89t-22 -92t-20.5 -90.5t-19 -85.5l-1 -6
q-2 -11 -3.5 -19.5t-1.5 -14.5q0 -17 13 -17q8 0 25.5 7.5t35.5 19.5l26 17l10 -18q-37 -27 -63 -45.5t-44 -29t-30.5 -15t-22.5 -4.5q-30 0 -30 40q0 24 13 76l35 132q-11 -19 -21 -34t-20 -28.5t-21.5 -27.5t-26.5 -31q-25 -29 -50 -52.5t-46.5 -40.5t-39 -26.5
t-28.5 -9.5q-2 0 -7.5 0.5t-10.5 2.5l-5 1l-7 -175q-1 -10 -8.5 -17.5t-24.5 -14.5l-30 -12l-9 8l119 592q2 10 2 18t-5 14t-12 6t-17 -4.5t-31 -18.5l-32 -21l-7 20z" />
    <glyph glyph-name="paragraph" unicode="&#xb6;" 
d="M117 -194q15 0 25.5 3t17.5 11.5t11.5 23t8.5 37.5l63 369q-36 5 -60 15.5t-50 32.5q-48 39 -74 96t-26 122q0 87 44.5 131.5t131.5 44.5h20t21 -1q22 -1 36 -1h22h57l45 -1h47.5t85.5 2l68 1l-5 -30h-23q-20 0 -32.5 -3t-21 -10.5t-13.5 -21.5t-9 -35l-125 -729
q-1 -5 -1.5 -10t-0.5 -8q0 -22 11.5 -30.5t40.5 -8.5h43l-5 -30l-73 1q-47 1 -79 1.5t-48 0.5q-19 0 -52 -0.5t-81 -1.5l-55 -1l5 30h30zM383 657l-147 -846h68l147 846h-68zM312 652q-19 2 -32 3.5t-24 1.5q-58 0 -85.5 -39.5t-27.5 -124.5q0 -87 27 -139t79 -66z" />
    <glyph glyph-name="periodcentered" unicode="&#xb7;" horiz-adv-x="250" 
d="M113 312q19 0 32 -14t13 -34q0 -29 -17.5 -49t-43.5 -20q-20 0 -32 12.5t-12 34.5q0 29 17.5 49.5t42.5 20.5z" />
    <glyph glyph-name="periodcentered" unicode="&#x2219;" horiz-adv-x="250" 
d="M113 312q19 0 32 -14t13 -34q0 -29 -17.5 -49t-43.5 -20q-20 0 -32 12.5t-12 34.5q0 29 17.5 49.5t42.5 20.5z" />
    <glyph glyph-name="cedilla" unicode="&#xb8;" horiz-adv-x="333" 
d="M41 -96l61 96h38l-44 -64q8 1 13.5 1.5t10.5 0.5q38 0 60 -19t22 -51q0 -38 -33 -61t-90 -23q-20 0 -38.5 4t-49.5 16l17 29q26 -8 40.5 -11t28.5 -3q23 0 38 12.5t15 32.5q0 17 -13 27.5t-34 10.5q-13 0 -26 -4l-7 -2z" />
    <glyph glyph-name="onesuperior" unicode="&#xb9;" horiz-adv-x="300" 
d="M269 679q-2 -11 -5 -23.5t-5 -22.5l-52 -280q-2 -10 -2 -20q0 -15 7.5 -20.5t30.5 -7.5l42 -3l-4 -24l-52 1q-4 0 -12 0.5t-17 0.5h-17.5h-11.5h-11.5h-17.5t-17 -0.5t-12 -0.5l-52 -1l5 24l49 6q15 2 20.5 10t10.5 31l54 300q-10 -5 -18 -8t-12 -4q-13 -5 -21 -8.5
t-10 -4.5l-54 -24l-5 3l7 43q19 4 33.5 7.5t26.5 6.5t23 6.5t24 8.5l69 24l10 -6z" />
    <glyph glyph-name="ordmasculine" unicode="&#xba;" horiz-adv-x="333" 
d="M235 699q42 0 64.5 -23.5t22.5 -66.5q0 -42 -14 -79.5t-37.5 -65t-55 -44t-66.5 -16.5q-40 0 -61.5 25t-21.5 71q0 41 13 77.5t36 63.5t54 42.5t66 15.5zM212 676q-21 0 -39 -12.5t-31 -35t-20 -54t-7 -68.5q0 -79 60 -79q41 0 68 46q13 23 21.5 59t8.5 69q0 36 -16 55.5
t-45 19.5z" />
    <glyph glyph-name="guillemotright" unicode="&#xbb;" 
d="M125 440l151 -181v-16l-194 -173l-19 16l137 168l-95 171l20 15v0zM292 440l151 -181v-16l-194 -173l-19 16l137 168l-95 171l20 15v0z" />
    <glyph glyph-name="onequarter" unicode="&#xbc;" horiz-adv-x="750" 
d="M629 414l45 9l9 -7l-47 -266h76l3 -8l-11 -32q-21 3 -34 3h-43l-7 -28q-2 -6 -3 -16.5t-1 -18.5q0 -24 21 -25l54 -3l-4 -24h-22h-8.5t-20.5 1q-7 1 -24.5 1h-31.5h-32t-24 -1q-13 -1 -21 -1h-9h-22l3 24l51 3q16 1 23.5 9t12.5 28l13 51h-165v25zM584 150l48 236
l-185 -236h137zM239 679q-2 -11 -5 -23.5t-5 -22.5l-52 -280q-2 -10 -2 -20q0 -15 7.5 -20.5t30.5 -7.5l42 -3l-4 -24l-52 1q-4 0 -12 0.5t-17 0.5h-17.5h-11.5h-11.5h-17.5t-17 -0.5t-12 -0.5l-52 -1l5 24l49 6q15 2 20.5 10t10.5 31l54 300q-10 -5 -18 -8t-12 -4
q-13 -5 -21 -8.5t-10 -4.5l-54 -24l-5 3l7 43q19 4 33.5 7.5t26.5 6.5t23 6.5t24 8.5l69 24l10 -6zM154 0l451 699h56l-451 -699h-56z" />
    <glyph glyph-name="onehalf" unicode="&#xbd;" horiz-adv-x="750" 
d="M130 0l451 699h56l-451 -699h-56zM239 679q-2 -11 -5 -23.5t-5 -22.5l-52 -280q-2 -10 -2 -20q0 -15 7.5 -20.5t30.5 -7.5l42 -3l-4 -24l-52 1q-4 0 -12 0.5t-17 0.5h-17.5h-11.5h-11.5h-17.5t-17 -0.5t-12 -0.5l-52 -1l5 24l49 6q15 2 20.5 10t10.5 31l54 300
q-10 -5 -18 -8t-12 -4q-13 -5 -21 -8.5t-10 -4.5l-54 -24l-5 3l7 43q19 4 33.5 7.5t26.5 6.5t23 6.5t24 8.5l69 24l10 -6zM525 393q21 14 41 20t45 6q51 0 80.5 -26.5t29.5 -71.5q0 -31 -15 -62.5t-43 -59.5l-160 -158h136q20 0 37 2t37 7l4 -11l-11 -41h-26h-11t-25 1
q-8 1 -29.5 1h-38.5h-18.5h-20.5t-18.5 -0.5t-12.5 -0.5q-16 -1 -25 -1h-11h-26v21q62 61 103 105.5t65.5 78t34.5 60t10 50.5q0 59 -64 59q-30 0 -48.5 -13t-40.5 -48l-18 10z" />
    <glyph glyph-name="threequarters" unicode="&#xbe;" horiz-adv-x="750" 
d="M53 386l22 -3q-3 -14 -3 -26q0 -28 20 -43t57 -15q20 0 38.5 9.5t32 25.5t21.5 37.5t8 45.5q0 35 -21.5 54.5t-61.5 19.5q-11 0 -21.5 -2t-27.5 -8l-4 13l11 30h16q5 -1 8.5 -1h5.5q40 0 67 25t27 62q0 20 -18 34t-45 14q-37 0 -64 -34l-13 -17l-15 10l38 63
q25 11 41.5 15t34.5 4q44 0 71.5 -21.5t27.5 -56.5q0 -33 -22 -57.5t-74 -48.5q55 -11 78 -32.5t23 -61.5q0 -31 -14 -58t-39 -47t-58 -31.5t-70 -11.5q-29 0 -50.5 6t-44.5 20zM154 0l451 699h56l-451 -699h-56zM629 414l45 9l9 -7l-47 -266h76l3 -8l-11 -32q-21 3 -34 3
h-43l-7 -28q-2 -6 -3 -16.5t-1 -18.5q0 -24 21 -25l54 -3l-4 -24h-22h-8.5t-20.5 1q-7 1 -24.5 1h-31.5h-32t-24 -1q-13 -1 -21 -1h-9h-22l3 24l51 3q16 1 23.5 9t12.5 28l13 51h-165v25zM584 150l48 236l-185 -236h137z" />
    <glyph glyph-name="questiondown" unicode="&#xbf;" 
d="M369 -111q-2 -5 -4.5 -11.5t-5.5 -14.5l-4 -8l-26 -64q-33 -20 -59 -28.5t-56 -8.5q-35 0 -64 9.5t-49.5 27.5t-32 42.5t-11.5 54.5q0 39 17.5 73t56.5 72l104 100q29 27 39.5 43.5t10.5 33.5q0 13 -6 24.5t-21 26.5l25 6q38 -26 38 -63q0 -26 -13 -52t-42 -59l-70 -79
q-57 -64 -57 -116q0 -37 28 -61t71 -24q31 0 50 11.5t39 40.5l20 30zM325 467q19 0 32 -14t13 -34q0 -29 -17.5 -49t-43.5 -20q-20 0 -32 12.5t-12 34.5q0 29 17.5 49.5t42.5 20.5z" />
    <glyph glyph-name="Agrave" unicode="&#xc0;" horiz-adv-x="722" 
d="M508 705l87 -625q3 -17 5.5 -26t8 -14t15 -7t27.5 -5l26 -3v-28q-38 1 -59 1.5t-32.5 1t-17.5 0.5h-13h-13.5t-17 -0.5t-32.5 -1t-59 -1.5v28l44 3q43 3 43 27q0 3 -0.5 9.5t-1.5 12.5q-2 10 -2 9v3l-25 188h-246l-102 -175q-14 -25 -20 -37t-6 -18q0 -7 9.5 -12.5
t21.5 -6.5l52 -3v-28q-32 1 -50 1.5t-28.5 1t-16 0.5h-12.5h-13.5t-16 -0.5t-29.5 -1t-53 -1.5v30l20 5q13 3 23 8t20 14t20.5 23t24.5 35l373 593h46zM270 313h216l-37 288zM379 829q-16 10 -22 18t-6 19q0 13 11.5 22t26.5 9q13 0 33 -18l153 -151h-34z" />
    <glyph glyph-name="Aacute" unicode="&#xc1;" horiz-adv-x="722" 
d="M508 705l87 -625q3 -17 5.5 -26t8 -14t15 -7t27.5 -5l26 -3v-28q-38 1 -59 1.5t-32.5 1t-17.5 0.5h-13h-13.5t-17 -0.5t-32.5 -1t-59 -1.5v28l44 3q43 3 43 27q0 3 -0.5 9.5t-1.5 12.5q-2 10 -2 9v3l-25 188h-246l-102 -175q-14 -25 -20 -37t-6 -18q0 -7 9.5 -12.5
t21.5 -6.5l52 -3v-28q-32 1 -50 1.5t-28.5 1t-16 0.5h-12.5h-13.5t-16 -0.5t-29.5 -1t-53 -1.5v30l20 5q13 3 23 8t20 14t20.5 23t24.5 35l373 593h46zM270 313h216l-37 288zM546 879q18 18 33 18t26.5 -9.5t11.5 -21.5q0 -11 -6 -19t-22 -18l-162 -101h-34z" />
    <glyph glyph-name="Acircumflex" unicode="&#xc2;" horiz-adv-x="722" 
d="M508 705l87 -625q3 -17 5.5 -26t8 -14t15 -7t27.5 -5l26 -3v-28q-38 1 -59 1.5t-32.5 1t-17.5 0.5h-13h-13.5t-17 -0.5t-32.5 -1t-59 -1.5v28l44 3q43 3 43 27q0 3 -0.5 9.5t-1.5 12.5q-2 10 -2 9v3l-25 188h-246l-102 -175q-14 -25 -20 -37t-6 -18q0 -7 9.5 -12.5
t21.5 -6.5l52 -3v-28q-32 1 -50 1.5t-28.5 1t-16 0.5h-12.5h-13.5t-16 -0.5t-29.5 -1t-53 -1.5v30l20 5q13 3 23 8t20 14t20.5 23t24.5 35l373 593h46zM270 313h216l-37 288zM630 720h-36l-82 104l-137 -104h-39l157 169h49z" />
    <glyph glyph-name="Atilde" unicode="&#xc3;" horiz-adv-x="722" 
d="M508 705l87 -625q3 -17 5.5 -26t8 -14t15 -7t27.5 -5l26 -3v-28q-38 1 -59 1.5t-32.5 1t-17.5 0.5h-13h-13.5t-17 -0.5t-32.5 -1t-59 -1.5v28l44 3q43 3 43 27q0 3 -0.5 9.5t-1.5 12.5q-2 10 -2 9v3l-25 188h-246l-102 -175q-14 -25 -20 -37t-6 -18q0 -7 9.5 -12.5
t21.5 -6.5l52 -3v-28q-32 1 -50 1.5t-28.5 1t-16 0.5h-12.5h-13.5t-16 -0.5t-29.5 -1t-53 -1.5v30l20 5q13 3 23 8t20 14t20.5 23t24.5 35l373 593h46zM270 313h216l-37 288zM323 763q15 55 38 79t60 24q27 0 63 -14l60 -24q12 -5 27 -5t25.5 8.5t25.5 34.5h28
q-9 -49 -34.5 -76t-62.5 -27q-10 0 -28.5 4.5t-35.5 11.5l-38 15l-2 1q-3 0 -7 3q-13 5 -21.5 7t-16.5 2q-19 0 -30 -9t-22 -35h-29z" />
    <glyph glyph-name="Adieresis" unicode="&#xc4;" horiz-adv-x="722" 
d="M508 705l87 -625q3 -17 5.5 -26t8 -14t15 -7t27.5 -5l26 -3v-28q-38 1 -59 1.5t-32.5 1t-17.5 0.5h-13h-13.5t-17 -0.5t-32.5 -1t-59 -1.5v28l44 3q43 3 43 27q0 3 -0.5 9.5t-1.5 12.5q-2 10 -2 9v3l-25 188h-246l-102 -175q-14 -25 -20 -37t-6 -18q0 -7 9.5 -12.5
t21.5 -6.5l52 -3v-28q-32 1 -50 1.5t-28.5 1t-16 0.5h-12.5h-13.5t-16 -0.5t-29.5 -1t-53 -1.5v30l20 5q13 3 23 8t20 14t20.5 23t24.5 35l373 593h46zM270 313h216l-37 288zM383 847q20 0 35 -15t15 -34q0 -20 -15 -35.5t-35 -15.5t-35 15.5t-15 35.5t15 34.5t35 14.5z
M583 847q20 0 35 -15t15 -34q0 -20 -15 -35.5t-35 -15.5t-35 15.5t-15 35.5t15 34.5t35 14.5z" />
    <glyph glyph-name="Aring" unicode="&#xc5;" horiz-adv-x="722" 
d="M508 705l87 -625q3 -17 5.5 -26t8 -14t15 -7t27.5 -5l26 -3v-28q-38 1 -59 1.5t-32.5 1t-17.5 0.5h-13h-13.5t-17 -0.5t-32.5 -1t-59 -1.5v28l44 3q43 3 43 27q0 3 -0.5 9.5t-1.5 12.5q-2 10 -2 9v3l-25 188h-246l-102 -175q-14 -25 -20 -37t-6 -18q0 -7 9.5 -12.5
t21.5 -6.5l52 -3v-28q-32 1 -50 1.5t-28.5 1t-16 0.5h-12.5h-13.5t-16 -0.5t-29.5 -1t-53 -1.5v30l20 5q13 3 23 8t20 14t20.5 23t24.5 35l373 593h46zM270 313h216l-37 288zM495 937q20 0 38 -8t31.5 -21.5t21.5 -31.5t8 -39t-8 -39.5t-21.5 -32t-31.5 -21t-39 -7.5
t-39.5 7.5t-32 21t-21 32t-7.5 39.5t8 39t21.5 31.5t32 21.5t39.5 8zM494 901q-28 0 -45 -17.5t-17 -46.5t17 -46.5t45 -17.5t45 17.5t17 46.5t-17 46.5t-45 17.5z" />
    <glyph glyph-name="AE" unicode="&#xc6;" horiz-adv-x="941" 
d="M264 279l-18 -30l-14 -22l-76 -129q-1 -1 -4 -7q-9 -14 -12.5 -22.5t-3.5 -14.5q0 -27 61 -27h24v-30l-76 3h-31h-27t-43 -2l-48 -1v30l34 5q17 2 36 30l368 545q5 8 9 18.5t4 17.5q0 8 -11.5 13.5t-25.5 5.5h-66v30l60 -1q32 -1 56.5 -1.5t45.5 -0.5h40.5h40.5h19.5h26
t25.5 0.5t17 0.5l120 1q18 1 27 1h11q14 0 33.5 -0.5t35.5 -2.5q-17 -57 -21 -152h-24l-8 89q-1 11 -27 17.5t-67 6.5q-13 0 -33 -0.5t-43 -1.5q-5 0 -17.5 -0.5t-29.5 -1.5q-5 -10 -9 -32l-42 -238h17q29 0 55.5 0.5l53 1t53.5 1.5t57 3l4 -7l-19 -45l-26 1q-36 2 -61 2.5
t-45 0.5h-97l-43 -253q-1 -7 -1.5 -13.5t-0.5 -17.5v-4l26 -2q26 -2 48.5 -3.5t37.5 -1.5q17 0 40 1t44.5 2t39 2.5t23.5 3.5q17 4 25 15t16 38l16 60h27l-5 -26q-7 -37 -10.5 -60.5t-5.5 -38.5l-4 -36l-33 -1q-26 -1 -43 -1.5t-28 -0.5h-11.5t-26 0.5t-45.5 1t-71 0.5
q-16 1 -30 1h-26q-23 0 -49 -0.5t-58 -1.5l-41 -1l5 26q32 5 43 13.5t16 29.5l38 213h-222zM492 319l54 336h-14q-8 0 -15.5 -7.5t-21.5 -27.5l-205 -301h202z" />
    <glyph glyph-name="Ccedilla" unicode="&#xc7;" horiz-adv-x="667" 
d="M303 -64q5 1 12 1.5t12 0.5q38 0 60 -19t22 -51q0 -38 -33 -61t-90 -23q-20 0 -38.5 4t-49.5 16l17 29q26 -8 40.5 -11t28.5 -3q23 0 38 12.5t15 32.5q0 17 -13 27.5t-34 10.5q-6 0 -13 -1t-20 -5l-9 8l51 80l-3 1q-122 12 -186.5 88.5t-64.5 210.5q0 230 177 350
q53 35 112.5 53.5t121.5 18.5q47 0 92.5 -9.5t102.5 -31.5q-11 -35 -17 -69t-10 -77h-27v84q-42 27 -83.5 38.5t-95.5 11.5q-120 0 -190 -72q-46 -47 -70.5 -117.5t-24.5 -154.5q0 -134 62.5 -204t180.5 -70q29 0 54.5 3.5t51.5 12.5t54.5 23.5t63.5 35.5l10 -7l-10 -36
q-34 -23 -65 -39.5t-61.5 -26.5t-62.5 -14.5t-68 -4.5h-5h-3z" />
    <glyph glyph-name="Egrave" unicode="&#xc8;" horiz-adv-x="611" 
d="M178 81q-1 -7 -1.5 -13.5t-0.5 -17.5v-4q26 -2 44 -3.5t32.5 -2.5t27.5 -1h28q20 0 43 1t43.5 2t36.5 2.5t24 3.5q17 4 25 15t16 38l16 60h27l-5 -26q-7 -37 -10.5 -60.5t-5.5 -38.5l-4 -36l-33 -1q-25 -1 -43 -1.5t-29 -0.5h-10l-215 3h-22t-30.5 -0.5t-32.5 -1
t-28 -0.5l-41 -1l5 26q33 5 45 11.5t15 20.5l87 504q4 23 6.5 44t2.5 32q0 26 -35 27l-54 2l3 28l45 -1q38 -2 62.5 -2h52.5h15.5h24t24 0.5t14.5 0.5l120 1q18 1 27 1h11q14 0 33.5 -0.5t35.5 -2.5q-17 -57 -21 -152h-24l-8 89q-1 11 -29 17.5t-75 6.5q-17 0 -39.5 -0.5
t-46.5 -1.5l-47 -2q-5 -10 -9 -32l-42 -238h37q29 0 55.5 0.5l53 1t53.5 1.5t57 3l4 -7l-19 -45l-26 1q-36 2 -61 2.5t-45 0.5h-117zM292 829q-16 10 -22 18t-6 19q0 13 11.5 22t26.5 9q13 0 33 -18l153 -151h-34z" />
    <glyph glyph-name="Eacute" unicode="&#xc9;" horiz-adv-x="611" 
d="M178 81q-1 -7 -1.5 -13.5t-0.5 -17.5v-4q26 -2 44 -3.5t32.5 -2.5t27.5 -1h28q20 0 43 1t43.5 2t36.5 2.5t24 3.5q17 4 25 15t16 38l16 60h27l-5 -26q-7 -37 -10.5 -60.5t-5.5 -38.5l-4 -36l-33 -1q-25 -1 -43 -1.5t-29 -0.5h-10l-215 3h-22t-30.5 -0.5t-32.5 -1
t-28 -0.5l-41 -1l5 26q33 5 45 11.5t15 20.5l87 504q4 23 6.5 44t2.5 32q0 26 -35 27l-54 2l3 28l45 -1q38 -2 62.5 -2h52.5h15.5h24t24 0.5t14.5 0.5l120 1q18 1 27 1h11q14 0 33.5 -0.5t35.5 -2.5q-17 -57 -21 -152h-24l-8 89q-1 11 -29 17.5t-75 6.5q-17 0 -39.5 -0.5
t-46.5 -1.5l-47 -2q-5 -10 -9 -32l-42 -238h37q29 0 55.5 0.5l53 1t53.5 1.5t57 3l4 -7l-19 -45l-26 1q-36 2 -61 2.5t-45 0.5h-117zM427 879q18 18 33 18t26.5 -9.5t11.5 -21.5q0 -11 -6 -19t-22 -18l-162 -101h-34z" />
    <glyph glyph-name="Ecircumflex" unicode="&#xca;" horiz-adv-x="611" 
d="M178 81q-1 -7 -1.5 -13.5t-0.5 -17.5v-4q26 -2 44 -3.5t32.5 -2.5t27.5 -1h28q20 0 43 1t43.5 2t36.5 2.5t24 3.5q17 4 25 15t16 38l16 60h27l-5 -26q-7 -37 -10.5 -60.5t-5.5 -38.5l-4 -36l-33 -1q-25 -1 -43 -1.5t-29 -0.5h-10l-215 3h-22t-30.5 -0.5t-32.5 -1
t-28 -0.5l-41 -1l5 26q33 5 45 11.5t15 20.5l87 504q4 23 6.5 44t2.5 32q0 26 -35 27l-54 2l3 28l45 -1q38 -2 62.5 -2h52.5h15.5h24t24 0.5t14.5 0.5l120 1q18 1 27 1h11q14 0 33.5 -0.5t35.5 -2.5q-17 -57 -21 -152h-24l-8 89q-1 11 -29 17.5t-75 6.5q-17 0 -39.5 -0.5
t-46.5 -1.5l-47 -2q-5 -10 -9 -32l-42 -238h37q29 0 55.5 0.5l53 1t53.5 1.5t57 3l4 -7l-19 -45l-26 1q-36 2 -61 2.5t-45 0.5h-117zM501 720h-36l-82 104l-137 -104h-39l157 169h49z" />
    <glyph glyph-name="Edieresis" unicode="&#xcb;" horiz-adv-x="611" 
d="M178 81q-1 -7 -1.5 -13.5t-0.5 -17.5v-4q26 -2 44 -3.5t32.5 -2.5t27.5 -1h28q20 0 43 1t43.5 2t36.5 2.5t24 3.5q17 4 25 15t16 38l16 60h27l-5 -26q-7 -37 -10.5 -60.5t-5.5 -38.5l-4 -36l-33 -1q-25 -1 -43 -1.5t-29 -0.5h-10l-215 3h-22t-30.5 -0.5t-32.5 -1
t-28 -0.5l-41 -1l5 26q33 5 45 11.5t15 20.5l87 504q4 23 6.5 44t2.5 32q0 26 -35 27l-54 2l3 28l45 -1q38 -2 62.5 -2h52.5h15.5h24t24 0.5t14.5 0.5l120 1q18 1 27 1h11q14 0 33.5 -0.5t35.5 -2.5q-17 -57 -21 -152h-24l-8 89q-1 11 -29 17.5t-75 6.5q-17 0 -39.5 -0.5
t-46.5 -1.5l-47 -2q-5 -10 -9 -32l-42 -238h37q29 0 55.5 0.5l53 1t53.5 1.5t57 3l4 -7l-19 -45l-26 1q-36 2 -61 2.5t-45 0.5h-117zM270 847q20 0 35 -15t15 -34q0 -20 -15 -35.5t-35 -15.5t-35 15.5t-15 35.5t15 34.5t35 14.5zM470 847q20 0 35 -15t15 -34
q0 -20 -15 -35.5t-35 -15.5t-35 15.5t-15 35.5t15 34.5t35 14.5z" />
    <glyph glyph-name="Igrave" unicode="&#xcc;" horiz-adv-x="333" 
d="M106 692l64 -2q32 -1 48.5 -1h29.5l97 3h9l-3 -28l-35 -3q-15 -2 -23.5 -4t-14 -7t-8 -13.5t-5.5 -23.5l-89 -535q-1 -3 -1.5 -9.5t-0.5 -11.5q0 -15 8 -21t28 -8l52 -3l-3 -28h-32l-94 3l-94 -3h-32l3 28l36 3q15 1 24 4t14.5 12.5t9.5 28.5t10 52l72 434q1 6 2.5 18
l3 24t2.5 22t1 13q0 25 -35 26l-47 2zM118 829q-16 10 -22 18t-6 19q0 13 11.5 22t26.5 9q13 0 33 -18l153 -151h-34z" />
    <glyph glyph-name="Iacute" unicode="&#xcd;" horiz-adv-x="333" 
d="M106 692l64 -2q32 -1 48.5 -1h29.5l97 3h9l-3 -28l-35 -3q-15 -2 -23.5 -4t-14 -7t-8 -13.5t-5.5 -23.5l-89 -535q-1 -3 -1.5 -9.5t-0.5 -11.5q0 -15 8 -21t28 -8l52 -3l-3 -28h-32l-94 3l-94 -3h-32l3 28l36 3q15 1 24 4t14.5 12.5t9.5 28.5t10 52l72 434q1 6 2.5 18
l3 24t2.5 22t1 13q0 25 -35 26l-47 2zM335 879q18 18 33 18t26.5 -9.5t11.5 -21.5q0 -11 -6 -19t-22 -18l-162 -101h-34z" />
    <glyph glyph-name="Icircumflex" unicode="&#xce;" horiz-adv-x="333" 
d="M106 692l64 -2q32 -1 48.5 -1h29.5l97 3h9l-3 -28l-35 -3q-15 -2 -23.5 -4t-14 -7t-8 -13.5t-5.5 -23.5l-89 -535q-1 -3 -1.5 -9.5t-0.5 -11.5q0 -15 8 -21t28 -8l52 -3l-3 -28h-32l-94 3l-94 -3h-32l3 28l36 3q15 1 24 4t14.5 12.5t9.5 28.5t10 52l72 434q1 6 2.5 18
l3 24t2.5 22t1 13q0 25 -35 26l-47 2zM390 720h-36l-82 104l-137 -104h-39l157 169h49z" />
    <glyph glyph-name="Idieresis" unicode="&#xcf;" horiz-adv-x="333" 
d="M106 692l64 -2q32 -1 48.5 -1h29.5l97 3h9l-3 -28l-35 -3q-15 -2 -23.5 -4t-14 -7t-8 -13.5t-5.5 -23.5l-89 -535q-1 -3 -1.5 -9.5t-0.5 -11.5q0 -15 8 -21t28 -8l52 -3l-3 -28h-32l-94 3l-94 -3h-32l3 28l36 3q15 1 24 4t14.5 12.5t9.5 28.5t10 52l72 434q1 6 2.5 18
l3 24t2.5 22t1 13q0 25 -35 26l-47 2zM148 847q20 0 35 -15t15 -34q0 -20 -15 -35.5t-35 -15.5t-35 15.5t-15 35.5t15 34.5t35 14.5zM348 847q20 0 35 -15t15 -34q0 -20 -15 -35.5t-35 -15.5t-35 15.5t-15 35.5t15 34.5t35 14.5z" />
    <glyph glyph-name="Eth" unicode="&#xd0;" horiz-adv-x="778" 
d="M173 559q4 23 6.5 44t2.5 32q0 26 -35 27l-53 2l3 28q39 -1 60.5 -1.5t33.5 -1t17.5 -0.5h11.5l204 3q72 1 131.5 -12t94.5 -38q91 -64 91 -211q0 -62 -17.5 -121t-50 -110.5t-79.5 -93.5t-105 -72q-39 -20 -79 -28.5t-94 -8.5h-19.5t-26.5 1q-32 1 -56 1.5t-38 0.5h-32
h-23l-93 -3l5 26l8 2q23 5 33 11.5t12 18.5l50 291h-117l6 32h117zM222 378h187l-6 -32h-187l-44 -253q-2 -14 -3 -21.5t-1 -15.5q52 -8 90 -11.5t71 -3.5q133 0 214 83q51 52 78.5 127.5t27.5 163.5q0 124 -64.5 182t-200.5 58q-14 0 -30 -0.5t-39 -2.5q-20 -1 -28 -1.5
t-19 -0.5z" />
    <glyph glyph-name="Ntilde" unicode="&#xd1;" horiz-adv-x="778" 
d="M582 103l80 489q2 10 3.5 25.5t1.5 20.5q0 12 -8 17.5t-28 6.5l-47 2l5 28h19l86 -3l89 3h21l-5 -28l-37 -2q-14 -1 -22 -4t-14 -14.5t-11 -35.5t-13 -66l-94 -553h-50l-338 577l-80 -464q-3 -17 -3 -30q0 -25 9.5 -33.5t39.5 -10.5l42 -3l-5 -28q-36 1 -56 1.5t-30.5 1
t-15 0.5h-8.5l-111 -3l5 28l31 3q13 1 21.5 4.5t14.5 11t9.5 21.5t8.5 37l88 474q1 4 3 18q1 2 1 5q1 3 1 7q0 6 -9.5 18t-20.5 21q-8 7 -22.5 11.5t-27.5 5.5l-35 2l5 28l16 -1q17 -1 28 -1.5t13 -0.5h14h10l81 3zM318 763q15 55 38 79t60 24q27 0 63 -14l60 -24
q12 -5 27 -5t25.5 8.5t25.5 34.5h28q-9 -49 -34.5 -76t-62.5 -27q-10 0 -28.5 4.5t-35.5 11.5l-38 15l-2 1q-3 0 -7 3q-13 5 -21.5 7t-16.5 2q-19 0 -30 -9t-22 -35h-29z" />
    <glyph glyph-name="Ograve" unicode="&#xd2;" horiz-adv-x="778" 
d="M464 706q136 0 210 -73.5t74 -207.5q0 -59 -14 -115.5t-40.5 -106t-64.5 -91t-85 -70.5q-49 -31 -103 -45.5t-118 -14.5q-133 0 -201.5 73.5t-68.5 216.5q0 94 31 173.5t85.5 137.5t130 90.5t164.5 32.5zM433 664q-113 0 -183 -71q-52 -52 -80.5 -135t-28.5 -181
q0 -126 55 -189.5t164 -63.5q118 0 192 76q51 53 79.5 133.5t28.5 175.5q0 166 -97 223q-25 15 -59.5 23.5t-70.5 8.5zM368 829q-16 10 -22 18t-6 19q0 13 11.5 22t26.5 9q13 0 33 -18l153 -151h-34z" />
    <glyph glyph-name="Oacute" unicode="&#xd3;" horiz-adv-x="778" 
d="M464 706q136 0 210 -73.5t74 -207.5q0 -59 -14 -115.5t-40.5 -106t-64.5 -91t-85 -70.5q-49 -31 -103 -45.5t-118 -14.5q-133 0 -201.5 73.5t-68.5 216.5q0 94 31 173.5t85.5 137.5t130 90.5t164.5 32.5zM433 664q-113 0 -183 -71q-52 -52 -80.5 -135t-28.5 -181
q0 -126 55 -189.5t164 -63.5q118 0 192 76q51 53 79.5 133.5t28.5 175.5q0 166 -97 223q-25 15 -59.5 23.5t-70.5 8.5zM555 879q18 18 33 18t26.5 -9.5t11.5 -21.5q0 -11 -6 -19t-22 -18l-162 -101h-34z" />
    <glyph glyph-name="Ocircumflex" unicode="&#xd4;" horiz-adv-x="778" 
d="M464 706q136 0 210 -73.5t74 -207.5q0 -59 -14 -115.5t-40.5 -106t-64.5 -91t-85 -70.5q-49 -31 -103 -45.5t-118 -14.5q-133 0 -201.5 73.5t-68.5 216.5q0 94 31 173.5t85.5 137.5t130 90.5t164.5 32.5zM433 664q-113 0 -183 -71q-52 -52 -80.5 -135t-28.5 -181
q0 -126 55 -189.5t164 -63.5q118 0 192 76q51 53 79.5 133.5t28.5 175.5q0 166 -97 223q-25 15 -59.5 23.5t-70.5 8.5zM611 720h-36l-82 104l-137 -104h-39l157 169h49z" />
    <glyph glyph-name="Otilde" unicode="&#xd5;" horiz-adv-x="778" 
d="M464 706q136 0 210 -73.5t74 -207.5q0 -59 -14 -115.5t-40.5 -106t-64.5 -91t-85 -70.5q-49 -31 -103 -45.5t-118 -14.5q-133 0 -201.5 73.5t-68.5 216.5q0 94 31 173.5t85.5 137.5t130 90.5t164.5 32.5zM433 664q-113 0 -183 -71q-52 -52 -80.5 -135t-28.5 -181
q0 -126 55 -189.5t164 -63.5q118 0 192 76q51 53 79.5 133.5t28.5 175.5q0 166 -97 223q-25 15 -59.5 23.5t-70.5 8.5zM328 763q15 55 38 79t60 24q27 0 63 -14l60 -24q12 -5 27 -5t25.5 8.5t25.5 34.5h28q-9 -49 -34.5 -76t-62.5 -27q-10 0 -28.5 4.5t-35.5 11.5l-38 15
l-2 1q-3 0 -7 3q-13 5 -21.5 7t-16.5 2q-19 0 -30 -9t-22 -35h-29z" />
    <glyph glyph-name="Odieresis" unicode="&#xd6;" horiz-adv-x="778" 
d="M464 706q136 0 210 -73.5t74 -207.5q0 -59 -14 -115.5t-40.5 -106t-64.5 -91t-85 -70.5q-49 -31 -103 -45.5t-118 -14.5q-133 0 -201.5 73.5t-68.5 216.5q0 94 31 173.5t85.5 137.5t130 90.5t164.5 32.5zM433 664q-113 0 -183 -71q-52 -52 -80.5 -135t-28.5 -181
q0 -126 55 -189.5t164 -63.5q118 0 192 76q51 53 79.5 133.5t28.5 175.5q0 166 -97 223q-25 15 -59.5 23.5t-70.5 8.5zM385 847q20 0 35 -15t15 -34q0 -20 -15 -35.5t-35 -15.5t-35 15.5t-15 35.5t15 34.5t35 14.5zM585 847q20 0 35 -15t15 -34q0 -20 -15 -35.5t-35 -15.5
t-35 15.5t-15 35.5t15 34.5t35 14.5z" />
    <glyph glyph-name="multiply" unicode="&#xd7;" horiz-adv-x="606" 
d="M263 255l-180 180l41 39l179 -179l179 179l41 -39l-181 -180l181 -180l-41 -39l-179 179l-179 -179l-41 39l180 180v0z" />
    <glyph glyph-name="Oslash" unicode="&#xd8;" horiz-adv-x="778" 
d="M688 616q17 -21 28.5 -41t18.5 -41.5t10 -46.5t3 -55q0 -96 -32 -178.5t-88 -143t-132.5 -94.5t-166.5 -34q-62 0 -107 14t-88 47l-74 -82l-28 24l78 83q-32 45 -44.5 91.5t-12.5 113.5q0 93 31 172.5t85.5 137.5t129.5 90.5t164 32.5q60 0 106 -14.5t92 -48.5l72 78
l29 -26zM189 97q34 -39 74 -56t98 -17q117 0 191 76q52 54 80 134.5t28 177.5q0 25 -2 45.5t-6 38.5t-11 35t-17 36zM602 600q-39 35 -77 49.5t-92 14.5q-114 0 -183 -71q-52 -53 -80.5 -135.5t-28.5 -182.5q0 -45 6 -77t21 -67z" />
    <glyph glyph-name="Ugrave" unicode="&#xd9;" horiz-adv-x="778" 
d="M759 661q-14 -2 -23 -4t-14.5 -7t-8.5 -14t-5 -23l-85 -507q-4 -27 -5 -36t-1 -20q0 -18 32 -21l60 -4l-5 -28l-32 1q-24 1 -39.5 1.5t-18.5 0.5l-62 -3h-22l-5 5q5 21 8.5 37t6.5 30t6 28.5t6 31.5q-20 -23 -36 -39.5t-32.5 -29.5t-34.5 -23.5t-40 -21.5
q-36 -18 -68 -26t-65 -8q-85 0 -132 43.5t-47 119.5q0 12 1.5 29t4.5 33l64 375q3 16 5 33.5t2 24.5q0 13 -7 17.5t-27 5.5l-52 2l3 28l32 -1q21 -1 35.5 -1.5t22.5 -0.5t23 0.5t35 1.5l31 1l-88 -477q-4 -21 -5.5 -34.5t-1.5 -26.5q0 -53 37.5 -84t101.5 -31q58 0 113 29
q19 9 35 19t31 23t30 29t33 38l71 445q1 4 1 12q0 27 -35 28l-48 2l3 28l63 -2q33 -1 51 -1h29l91 3h16l-3 -28zM377 829q-16 10 -22 18t-6 19q0 13 11.5 22t26.5 9q13 0 33 -18l153 -151h-34z" />
    <glyph glyph-name="Uacute" unicode="&#xda;" horiz-adv-x="778" 
d="M759 661q-14 -2 -23 -4t-14.5 -7t-8.5 -14t-5 -23l-85 -507q-4 -27 -5 -36t-1 -20q0 -18 32 -21l60 -4l-5 -28l-32 1q-24 1 -39.5 1.5t-18.5 0.5l-62 -3h-22l-5 5q5 21 8.5 37t6.5 30t6 28.5t6 31.5q-20 -23 -36 -39.5t-32.5 -29.5t-34.5 -23.5t-40 -21.5
q-36 -18 -68 -26t-65 -8q-85 0 -132 43.5t-47 119.5q0 12 1.5 29t4.5 33l64 375q3 16 5 33.5t2 24.5q0 13 -7 17.5t-27 5.5l-52 2l3 28l32 -1q21 -1 35.5 -1.5t22.5 -0.5t23 0.5t35 1.5l31 1l-88 -477q-4 -21 -5.5 -34.5t-1.5 -26.5q0 -53 37.5 -84t101.5 -31q58 0 113 29
q19 9 35 19t31 23t30 29t33 38l71 445q1 4 1 12q0 27 -35 28l-48 2l3 28l63 -2q33 -1 51 -1h29l91 3h16l-3 -28zM556 879q18 18 33 18t26.5 -9.5t11.5 -21.5q0 -11 -6 -19t-22 -18l-162 -101h-34z" />
    <glyph glyph-name="Ucircumflex" unicode="&#xdb;" horiz-adv-x="778" 
d="M759 661q-14 -2 -23 -4t-14.5 -7t-8.5 -14t-5 -23l-85 -507q-4 -27 -5 -36t-1 -20q0 -18 32 -21l60 -4l-5 -28l-32 1q-24 1 -39.5 1.5t-18.5 0.5l-62 -3h-22l-5 5q5 21 8.5 37t6.5 30t6 28.5t6 31.5q-20 -23 -36 -39.5t-32.5 -29.5t-34.5 -23.5t-40 -21.5
q-36 -18 -68 -26t-65 -8q-85 0 -132 43.5t-47 119.5q0 12 1.5 29t4.5 33l64 375q3 16 5 33.5t2 24.5q0 13 -7 17.5t-27 5.5l-52 2l3 28l32 -1q21 -1 35.5 -1.5t22.5 -0.5t23 0.5t35 1.5l31 1l-88 -477q-4 -21 -5.5 -34.5t-1.5 -26.5q0 -53 37.5 -84t101.5 -31q58 0 113 29
q19 9 35 19t31 23t30 29t33 38l71 445q1 4 1 12q0 27 -35 28l-48 2l3 28l63 -2q33 -1 51 -1h29l91 3h16l-3 -28zM623 720h-36l-82 104l-137 -104h-39l157 169h49z" />
    <glyph glyph-name="Udieresis" unicode="&#xdc;" horiz-adv-x="778" 
d="M759 661q-14 -2 -23 -4t-14.5 -7t-8.5 -14t-5 -23l-85 -507q-4 -27 -5 -36t-1 -20q0 -18 32 -21l60 -4l-5 -28l-32 1q-24 1 -39.5 1.5t-18.5 0.5l-62 -3h-22l-5 5q5 21 8.5 37t6.5 30t6 28.5t6 31.5q-20 -23 -36 -39.5t-32.5 -29.5t-34.5 -23.5t-40 -21.5
q-36 -18 -68 -26t-65 -8q-85 0 -132 43.5t-47 119.5q0 12 1.5 29t4.5 33l64 375q3 16 5 33.5t2 24.5q0 13 -7 17.5t-27 5.5l-52 2l3 28l32 -1q21 -1 35.5 -1.5t22.5 -0.5t23 0.5t35 1.5l31 1l-88 -477q-4 -21 -5.5 -34.5t-1.5 -26.5q0 -53 37.5 -84t101.5 -31q58 0 113 29
q19 9 35 19t31 23t30 29t33 38l71 445q1 4 1 12q0 27 -35 28l-48 2l3 28l63 -2q33 -1 51 -1h29l91 3h16l-3 -28zM369 847q20 0 35 -15t15 -34q0 -20 -15 -35.5t-35 -15.5t-35 15.5t-15 35.5t15 34.5t35 14.5zM569 847q20 0 35 -15t15 -34q0 -20 -15 -35.5t-35 -15.5
t-35 15.5t-15 35.5t15 34.5t35 14.5z" />
    <glyph glyph-name="Yacute" unicode="&#xdd;" horiz-adv-x="667" 
d="M67 658q14 9 28.5 19.5t22.5 17.5q6 4 9 7l4 3q34 0 61.5 -19t52.5 -64t49 -121t52 -191q21 56 51.5 109.5t76.5 116.5q28 37 52.5 64.5t48.5 46.5t48.5 31t51.5 19l-6 -71q-22 -4 -41.5 -12t-38.5 -21.5t-38 -33t-41 -47.5q-28 -35 -53 -73t-45 -74t-33.5 -67t-16.5 -52
l-26 -168q-2 -10 -2 -21q0 -15 8 -21t28 -8l49 -3l-3 -28h-26l-97 3q-12 0 -31.5 -0.5t-54.5 -1.5l-53 -1l4 28l48 3q15 1 23.5 3.5t14 12t10 28.5t10.5 53l21 126q0 1 0.5 2t0.5 2v2q0 6 -6 31.5t-15.5 59t-20.5 69t-20 60.5q-31 84 -60 121t-64 37q-8 0 -18 -2.5t-27 -9.5
l-3 24zM494 879q18 18 33 18t26.5 -9.5t11.5 -21.5q0 -11 -6 -19t-22 -18l-162 -101h-34z" />
    <glyph glyph-name="Thorn" unicode="&#xde;" horiz-adv-x="611" 
d="M253 476q-3 -16 -6 -29t-3 -15l-58 -339l-3 -21t-1 -14q0 -16 8 -22.5t28 -7.5l65 -3l-3 -28l-53 1q-30 1 -51.5 1.5t-34.5 0.5q-14 0 -36.5 -0.5t-53.5 -1.5l-42 -1l4 28l41 3q15 1 23.5 3.5t14 12t10 28t10.5 53.5l74 434q4 23 6.5 44t2.5 32q0 26 -35 27l-47 2l3 28
l64 -2q32 -1 48.5 -1h28.5l90 3h24l-3 -28l-42 -3q-14 -1 -22.5 -3t-14 -7.5t-8.5 -14t-6 -23.5l-13 -71h51.5t31.5 1q17 1 30 1h19q85 0 130.5 -41t45.5 -117q0 -48 -18.5 -90.5t-50 -74t-74 -50t-90.5 -18.5q-26 0 -46.5 5t-43.5 16l-4 32q22 -10 39.5 -14t40.5 -4
q75 0 117 45.5t42 127.5q0 147 -151 147q-14 0 -29 -1.5t-43 -6.5z" />
    <glyph glyph-name="germandbls" unicode="&#xdf;" 
d="M30 383l4 22l56 23q19 8 25.5 12t7.5 9l15 81q4 22 9.5 38.5t15 30.5t23 27t34.5 29q22 16 46 30.5t47.5 25t44.5 16.5t36 6q19 0 36 -8t30 -22t20.5 -32t7.5 -39t-4.5 -40t-14.5 -39.5t-26.5 -44t-40.5 -52.5q-27 -32 -36 -49t-9 -35q0 -8 1.5 -16.5t6 -20t12 -26
t19.5 -34.5l18 -31q17 -31 24 -48t7 -31q0 -30 -16.5 -62t-42.5 -58.5t-57 -43.5t-60 -17q-35 0 -78 21q3 9 6.5 23t6.5 29.5t5 30.5t3 24h20v-56q13 -14 30 -21t35 -7q36 0 59.5 25.5t23.5 65.5q0 28 -14 55l-54 105q-8 15 -12.5 29.5t-4.5 23.5q0 13 7.5 28.5t24.5 39.5
q3 4 4 5t4 6l9 13q1 2 4 5.5t5 7.5q21 29 35 51.5t22.5 41t12 34.5t3.5 33q0 38 -24.5 63t-61.5 25t-66.5 -22.5t-43.5 -61.5q-3 -8 -8 -28t-11.5 -48.5t-13.5 -63.5t-14 -72l-2 -11l-72 -339q-10 -47 -21 -84t-24.5 -67.5t-30 -55t-36.5 -46.5q-59 -62 -121 -62
q-21 0 -36 4q7 19 12 38t10 45l11 2q26 -30 53 -30q23 0 45 19t34 50q4 10 9.5 27.5t10.5 38.5t10 42.5t8 39.5l68 383h-81z" />
    <glyph glyph-name="agrave" unicode="&#xe0;" horiz-adv-x="444" 
d="M310 93q-1 -3 -1 -11q0 -23 15 -23q11 0 24.5 8t37.5 28q3 3 5.5 5l7.5 6l7 -21q-62 -51 -95.5 -72.5t-50.5 -21.5q-24 0 -24 35q0 25 6 51l29 127q-41 -57 -72 -93.5t-63 -65.5q-29 -26 -55 -41t-43 -15q-14 0 -24 22.5t-10 55.5q0 29 5.5 65t15.5 74.5t23.5 76.5
t30.5 71q19 37 46 62t74 48q20 10 37 14t38 4q20 0 37 -4t48 -15l33 18l10 -9zM319 414q-33 11 -50.5 15t-34.5 4q-36 0 -56.5 -15.5t-38.5 -57.5q-13 -30 -24.5 -65.5t-20 -71t-13.5 -68t-5 -56.5q0 -40 18 -40q12 0 29 10.5t36.5 29t41.5 44.5t43 58q13 19 23 39.5
t19 45.5t17 56t16 72zM180 619q-16 10 -22 18t-6 19q0 13 11.5 22t26.5 9q13 0 33 -18l153 -151h-34z" />
    <glyph glyph-name="aacute" unicode="&#xe1;" horiz-adv-x="444" 
d="M310 93q-1 -3 -1 -11q0 -23 15 -23q11 0 24.5 8t37.5 28q3 3 5.5 5l7.5 6l7 -21q-62 -51 -95.5 -72.5t-50.5 -21.5q-24 0 -24 35q0 25 6 51l29 127q-41 -57 -72 -93.5t-63 -65.5q-29 -26 -55 -41t-43 -15q-14 0 -24 22.5t-10 55.5q0 29 5.5 65t15.5 74.5t23.5 76.5
t30.5 71q19 37 46 62t74 48q20 10 37 14t38 4q20 0 37 -4t48 -15l33 18l10 -9zM319 414q-33 11 -50.5 15t-34.5 4q-36 0 -56.5 -15.5t-38.5 -57.5q-13 -30 -24.5 -65.5t-20 -71t-13.5 -68t-5 -56.5q0 -40 18 -40q12 0 29 10.5t36.5 29t41.5 44.5t43 58q13 19 23 39.5
t19 45.5t17 56t16 72zM377 669q18 18 33 18t26.5 -9.5t11.5 -21.5q0 -11 -6 -19t-22 -18l-162 -101h-34z" />
    <glyph glyph-name="acircumflex" unicode="&#xe2;" horiz-adv-x="444" 
d="M310 93q-1 -3 -1 -11q0 -23 15 -23q11 0 24.5 8t37.5 28q3 3 5.5 5l7.5 6l7 -21q-62 -51 -95.5 -72.5t-50.5 -21.5q-24 0 -24 35q0 25 6 51l29 127q-41 -57 -72 -93.5t-63 -65.5q-29 -26 -55 -41t-43 -15q-14 0 -24 22.5t-10 55.5q0 29 5.5 65t15.5 74.5t23.5 76.5
t30.5 71q19 37 46 62t74 48q20 10 37 14t38 4q20 0 37 -4t48 -15l33 18l10 -9zM319 414q-33 11 -50.5 15t-34.5 4q-36 0 -56.5 -15.5t-38.5 -57.5q-13 -30 -24.5 -65.5t-20 -71t-13.5 -68t-5 -56.5q0 -40 18 -40q12 0 29 10.5t36.5 29t41.5 44.5t43 58q13 19 23 39.5
t19 45.5t17 56t16 72zM406 510h-36l-82 104l-137 -104h-39l157 169h49z" />
    <glyph glyph-name="atilde" unicode="&#xe3;" horiz-adv-x="444" 
d="M310 93q-1 -3 -1 -11q0 -23 15 -23q11 0 24.5 8t37.5 28q3 3 5.5 5l7.5 6l7 -21q-62 -51 -95.5 -72.5t-50.5 -21.5q-24 0 -24 35q0 25 6 51l29 127q-41 -57 -72 -93.5t-63 -65.5q-29 -26 -55 -41t-43 -15q-14 0 -24 22.5t-10 55.5q0 29 5.5 65t15.5 74.5t23.5 76.5
t30.5 71q19 37 46 62t74 48q20 10 37 14t38 4q20 0 37 -4t48 -15l33 18l10 -9zM319 414q-33 11 -50.5 15t-34.5 4q-36 0 -56.5 -15.5t-38.5 -57.5q-13 -30 -24.5 -65.5t-20 -71t-13.5 -68t-5 -56.5q0 -40 18 -40q12 0 29 10.5t36.5 29t41.5 44.5t43 58q13 19 23 39.5
t19 45.5t17 56t16 72zM119 535q15 55 38 79t60 24q27 0 63 -14l60 -24q12 -5 27 -5t25.5 8.5t25.5 34.5h28q-9 -49 -34.5 -76t-62.5 -27q-10 0 -28.5 4.5t-35.5 11.5l-38 15l-2 1q-3 0 -7 3q-13 5 -21.5 7t-16.5 2q-19 0 -30 -9t-22 -35h-29z" />
    <glyph glyph-name="adieresis" unicode="&#xe4;" horiz-adv-x="444" 
d="M310 93q-1 -3 -1 -11q0 -23 15 -23q11 0 24.5 8t37.5 28q3 3 5.5 5l7.5 6l7 -21q-62 -51 -95.5 -72.5t-50.5 -21.5q-24 0 -24 35q0 25 6 51l29 127q-41 -57 -72 -93.5t-63 -65.5q-29 -26 -55 -41t-43 -15q-14 0 -24 22.5t-10 55.5q0 29 5.5 65t15.5 74.5t23.5 76.5
t30.5 71q19 37 46 62t74 48q20 10 37 14t38 4q20 0 37 -4t48 -15l33 18l10 -9zM319 414q-33 11 -50.5 15t-34.5 4q-36 0 -56.5 -15.5t-38.5 -57.5q-13 -30 -24.5 -65.5t-20 -71t-13.5 -68t-5 -56.5q0 -40 18 -40q12 0 29 10.5t36.5 29t41.5 44.5t43 58q13 19 23 39.5
t19 45.5t17 56t16 72zM184 637q20 0 35 -15t15 -34q0 -20 -15 -35.5t-35 -15.5t-35 15.5t-15 35.5t15 34.5t35 14.5zM384 637q20 0 35 -15t15 -34q0 -20 -15 -35.5t-35 -15.5t-35 15.5t-15 35.5t15 34.5t35 14.5z" />
    <glyph glyph-name="aring" unicode="&#xe5;" horiz-adv-x="444" 
d="M310 93q-1 -3 -1 -11q0 -23 15 -23q11 0 24.5 8t37.5 28q3 3 5.5 5l7.5 6l7 -21q-62 -51 -95.5 -72.5t-50.5 -21.5q-24 0 -24 35q0 25 6 51l29 127q-41 -57 -72 -93.5t-63 -65.5q-29 -26 -55 -41t-43 -15q-14 0 -24 22.5t-10 55.5q0 29 5.5 65t15.5 74.5t23.5 76.5
t30.5 71q19 37 46 62t74 48q20 10 37 14t38 4q20 0 37 -4t48 -15l33 18l10 -9zM319 414q-33 11 -50.5 15t-34.5 4q-36 0 -56.5 -15.5t-38.5 -57.5q-13 -30 -24.5 -65.5t-20 -71t-13.5 -68t-5 -56.5q0 -40 18 -40q12 0 29 10.5t36.5 29t41.5 44.5t43 58q13 19 23 39.5
t19 45.5t17 56t16 72zM307 718q20 0 38 -8t31.5 -21.5t21.5 -31.5t8 -39t-8 -39.5t-21.5 -32t-31.5 -21t-39 -7.5t-39.5 7.5t-32 21t-21 32t-7.5 39.5t8 39t21.5 31.5t32 21.5t39.5 8zM306 682q-28 0 -45 -17.5t-17 -46.5t17 -46.5t45 -17.5t45 17.5t17 46.5t-17 46.5
t-45 17.5z" />
    <glyph glyph-name="ae" unicode="&#xe6;" horiz-adv-x="638" 
d="M586 91q-37 -30 -65 -49.5t-51 -31t-44 -16.5t-43 -5q-48 0 -74.5 21t-40.5 71q-26 -26 -48 -43.5t-42.5 -28t-40 -15.5t-40.5 -5q-96 0 -96 103q0 160 215 160h68q4 11 5 22t1 33q0 127 -110 127q-26 0 -53 -9q-8 -7 -11 -14l-20 -58l-18 5l-6 68q7 4 11 7t14 9
q18 12 32 19.5t27 12t26 6.5t30 2q53 0 84.5 -21t54.5 -73q62 51 105 72.5t83 21.5q37 0 60.5 -22t23.5 -57q0 -37 -27 -73t-74 -59q-68 -35 -173 -41q-4 -22 -6.5 -36.5t-4 -25.5t-2 -19t-0.5 -17q0 -45 22.5 -70.5t61.5 -25.5q26 0 51.5 11.5t69.5 40.5q7 5 9.5 6.5
t8.5 5.5l20 13zM244 228q-170 0 -170 -124q0 -32 17.5 -50t49.5 -18q43 0 79 36.5t52 97.5q4 13 6 26.5t4 31.5h-38zM353 255q21 2 32 3t19 3q66 12 105.5 46.5t39.5 80.5q0 52 -56 52q-58 0 -102 -67q-17 -27 -25.5 -52.5t-12.5 -65.5z" />
    <glyph glyph-name="ccedilla" unicode="&#xe7;" horiz-adv-x="407" 
d="M133 -64q7 1 13 1.5t11 0.5q38 0 60 -19t22 -51q0 -38 -33 -61t-90 -23q-20 0 -38.5 4t-49.5 16l17 29q26 -8 40.5 -11t28.5 -3q23 0 38 12.5t15 32.5q0 17 -13 27.5t-34 10.5q-6 0 -13 -1t-20 -5l-9 8l54 86q-107 11 -107 146q0 39 7 77.5t19 73t29 62.5t38 46
q21 19 44.5 35t47 27.5t45 18t38.5 6.5q58 0 96 -24q-7 -20 -12.5 -49.5t-11.5 -78.5h-23v60q0 18 -23.5 30.5t-57.5 12.5q-45 0 -76 -24q-18 -14 -33.5 -40t-27 -59t-17.5 -72t-6 -79q0 -119 85 -119q26 0 58.5 14.5t86.5 50.5l15 10l8 -20l-50 -41q-35 -29 -67.5 -44.5
t-66.5 -19.5z" />
    <glyph glyph-name="egrave" unicode="&#xe8;" horiz-adv-x="389" 
d="M336 92q-35 -28 -63 -47.5t-52.5 -32t-46.5 -18t-43 -5.5q-54 0 -85 32.5t-31 91.5q0 25 5 58t13.5 66.5t19.5 63t22 48.5q15 24 41 48t56.5 42.5t62 30.5t55.5 12q38 0 61 -21.5t23 -56.5q0 -47 -30 -82t-94 -63q-19 -8 -37.5 -15t-31.5 -10l-82 -20q-8 -46 -8 -81
q0 -45 20.5 -71t55.5 -26q56 0 137 58l24 17zM104 237q34 8 61 16t48 19q39 19 63 51t24 65q0 24 -13 38t-35 14q-18 0 -38.5 -8t-34.5 -20q-22 -20 -37.5 -53t-28.5 -85zM152 619q-16 10 -22 18t-6 19q0 13 11.5 22t26.5 9q13 0 33 -18l153 -151h-34z" />
    <glyph glyph-name="eacute" unicode="&#xe9;" horiz-adv-x="389" 
d="M336 92q-35 -28 -63 -47.5t-52.5 -32t-46.5 -18t-43 -5.5q-54 0 -85 32.5t-31 91.5q0 25 5 58t13.5 66.5t19.5 63t22 48.5q15 24 41 48t56.5 42.5t62 30.5t55.5 12q38 0 61 -21.5t23 -56.5q0 -47 -30 -82t-94 -63q-19 -8 -37.5 -15t-31.5 -10l-82 -20q-8 -46 -8 -81
q0 -45 20.5 -71t55.5 -26q56 0 137 58l24 17zM104 237q34 8 61 16t48 19q39 19 63 51t24 65q0 24 -13 38t-35 14q-18 0 -38.5 -8t-34.5 -20q-22 -20 -37.5 -53t-28.5 -85zM323 669q18 18 33 18t26.5 -9.5t11.5 -21.5q0 -11 -6 -19t-22 -18l-162 -101h-34z" />
    <glyph glyph-name="ecircumflex" unicode="&#xea;" horiz-adv-x="389" 
d="M336 92q-35 -28 -63 -47.5t-52.5 -32t-46.5 -18t-43 -5.5q-54 0 -85 32.5t-31 91.5q0 25 5 58t13.5 66.5t19.5 63t22 48.5q15 24 41 48t56.5 42.5t62 30.5t55.5 12q38 0 61 -21.5t23 -56.5q0 -47 -30 -82t-94 -63q-19 -8 -37.5 -15t-31.5 -10l-82 -20q-8 -46 -8 -81
q0 -45 20.5 -71t55.5 -26q56 0 137 58l24 17zM104 237q34 8 61 16t48 19q39 19 63 51t24 65q0 24 -13 38t-35 14q-18 0 -38.5 -8t-34.5 -20q-22 -20 -37.5 -53t-28.5 -85zM398 510h-36l-82 104l-137 -104h-39l157 169h49z" />
    <glyph glyph-name="edieresis" unicode="&#xeb;" horiz-adv-x="389" 
d="M336 92q-35 -28 -63 -47.5t-52.5 -32t-46.5 -18t-43 -5.5q-54 0 -85 32.5t-31 91.5q0 25 5 58t13.5 66.5t19.5 63t22 48.5q15 24 41 48t56.5 42.5t62 30.5t55.5 12q38 0 61 -21.5t23 -56.5q0 -47 -30 -82t-94 -63q-19 -8 -37.5 -15t-31.5 -10l-82 -20q-8 -46 -8 -81
q0 -45 20.5 -71t55.5 -26q56 0 137 58l24 17zM104 237q34 8 61 16t48 19q39 19 63 51t24 65q0 24 -13 38t-35 14q-18 0 -38.5 -8t-34.5 -20q-22 -20 -37.5 -53t-28.5 -85zM156 637q20 0 35 -15t15 -34q0 -20 -15 -35.5t-35 -15.5t-35 15.5t-15 35.5t15 34.5t35 14.5z
M356 637q20 0 35 -15t15 -34q0 -20 -15 -35.5t-35 -15.5t-35 15.5t-15 35.5t15 34.5t35 14.5z" />
    <glyph glyph-name="igrave" unicode="&#xec;" horiz-adv-x="278" 
d="M62 408q57 40 87 57t47 17q25 0 25 -26q0 -12 -6 -36l-77 -304q-4 -16 -5.5 -24t-1.5 -16t4 -14t9 -6q8 0 23.5 8t37.5 22l26 17l10 -18q-37 -27 -63 -45.5t-44 -29t-30.5 -15t-22.5 -4.5q-14 0 -22 10.5t-8 28.5q0 14 3.5 34t9.5 43l66 240q3 11 5.5 25t2.5 19
q0 9 -4.5 15t-12.5 6q-7 0 -17 -4.5t-31 -18.5l-32 -21l-7 20zM75 619q-16 10 -22 18t-6 19q0 13 11.5 22t26.5 9q13 0 33 -18l153 -151h-34z" />
    <glyph glyph-name="iacute" unicode="&#xed;" horiz-adv-x="278" 
d="M62 408q57 40 87 57t47 17q25 0 25 -26q0 -12 -6 -36l-77 -304q-4 -16 -5.5 -24t-1.5 -16t4 -14t9 -6q8 0 23.5 8t37.5 22l26 17l10 -18q-37 -27 -63 -45.5t-44 -29t-30.5 -15t-22.5 -4.5q-14 0 -22 10.5t-8 28.5q0 14 3.5 34t9.5 43l66 240q3 11 5.5 25t2.5 19
q0 9 -4.5 15t-12.5 6q-7 0 -17 -4.5t-31 -18.5l-32 -21l-7 20zM260 669q18 18 33 18t26.5 -9.5t11.5 -21.5q0 -11 -6 -19t-22 -18l-162 -101h-34z" />
    <glyph glyph-name="icircumflex" unicode="&#xee;" horiz-adv-x="278" 
d="M62 408q57 40 87 57t47 17q25 0 25 -26q0 -12 -6 -36l-77 -304q-5 -17 -6 -24.5t-1 -15.5t4 -14t9 -6q8 0 23.5 8t37.5 22l26 17l10 -18q-37 -27 -63 -45.5t-44 -29t-30.5 -15t-22.5 -4.5q-14 0 -22 10.5t-8 28.5q0 32 13 77l66 240q3 11 5.5 25t2.5 19q0 9 -4.5 15
t-12.5 6q-7 0 -16.5 -4.5t-31.5 -18.5l-32 -21l-7 20zM323 510h-36l-82 104l-137 -104h-39l157 169h49z" />
    <glyph glyph-name="idieresis" unicode="&#xef;" horiz-adv-x="278" 
d="M62 408q57 40 87 57t47 17q25 0 25 -26q0 -12 -6 -36l-77 -304q-4 -16 -5.5 -24t-1.5 -16t4 -14t9 -6q8 0 23.5 8t37.5 22l26 17l10 -18q-37 -27 -63 -45.5t-44 -29t-30.5 -15t-22.5 -4.5q-14 0 -22 10.5t-8 28.5q0 14 3.5 34t9.5 43l66 240q3 11 5.5 25t2.5 19
q0 9 -4.5 15t-12.5 6q-7 0 -17 -4.5t-31 -18.5l-32 -21l-7 20zM101 657q20 0 35 -15t15 -34q0 -20 -15 -35.5t-35 -15.5t-35 15.5t-15 35.5t15 34.5t35 14.5zM301 657q20 0 35 -15t15 -34q0 -20 -15 -35.5t-35 -15.5t-35 15.5t-15 35.5t15 34.5t35 14.5z" />
    <glyph glyph-name="eth" unicode="&#xf0;" horiz-adv-x="444" 
d="M285 610q-23 32 -48.5 50.5t-56.5 27.5l20 45q47 -25 76 -48t55 -55l135 66l12 -29l-130 -63q59 -129 59 -252q0 -85 -29.5 -165t-82.5 -135q-29 -30 -67 -46.5t-79 -16.5q-65 0 -98.5 40.5t-33.5 119.5q0 78 27 148.5t76 121.5q29 30 67.5 46.5t79.5 16.5q19 0 33.5 -4
t35.5 -16q-2 60 -33 120l-135 -66l-12 29zM245 444q-65 0 -105 -68q-11 -18 -19.5 -43.5t-14.5 -54t-9.5 -59t-3.5 -60.5q0 -132 92 -132q62 0 101 70q11 19 20 46t16 57t10.5 62.5t3.5 63.5q0 118 -91 118z" />
    <glyph glyph-name="ntilde" unicode="&#xf1;" horiz-adv-x="556" 
d="M52 408q55 39 86 56.5t47 17.5q23 0 23 -33q0 -14 -6 -41l-38 -161q19 27 35 48t29.5 37.5t26.5 30t27 26.5q45 42 91.5 67.5t78.5 25.5q31 0 31 -36q0 -28 -11 -74l-66 -276q-1 -3 -1.5 -9.5t-0.5 -10.5q0 -8 4 -14t9 -6q8 0 23.5 8t37.5 22l26 17l10 -18
q-37 -27 -63 -45.5t-44 -29t-30.5 -15t-22.5 -4.5q-30 0 -30 40q0 23 13 76l52 212q6 24 8.5 40.5t2.5 30.5q0 24 -17 24t-38.5 -11t-45 -30.5t-47 -46.5t-43.5 -58q-17 -26 -30 -52t-23 -56.5t-18 -67.5t-15 -84q-17 -3 -34 -7.5t-36 -9.5l-7 11q15 54 30 114t26.5 114
t18.5 97t7 62q0 25 -18 25q-3 0 -5.5 -0.5t-7 -3t-12.5 -7.5t-22 -14l-32 -21l-7 20zM175 535q15 55 38 79t60 24q27 0 63 -14l60 -24q12 -5 27 -5t25.5 8.5t25.5 34.5h28q-9 -49 -34.5 -76t-62.5 -27q-10 0 -28.5 4.5t-35.5 11.5l-38 15l-2 1q-3 0 -7 3q-13 5 -21.5 7
t-16.5 2q-19 0 -30 -9t-22 -35h-29z" />
    <glyph glyph-name="ograve" unicode="&#xf2;" horiz-adv-x="444" 
d="M278 482q63 0 98 -40t35 -111q0 -38 -8 -77t-22 -75.5t-33.5 -68t-42.5 -53.5q-34 -32 -76 -50t-84 -18q-63 0 -95.5 41.5t-32.5 121.5q0 92 32.5 164.5t93.5 116.5q69 49 135 49zM241 444q-18 0 -34 -4.5t-26 -12.5q-18 -15 -34 -44t-28 -66.5t-19 -80.5t-7 -85
q0 -60 24 -92t68 -32q47 0 75 33q16 20 30 49t24 62.5t15.5 70.5t5.5 73q0 63 -24 96t-70 33zM169 619q-16 10 -22 18t-6 19q0 13 11.5 22t26.5 9q13 0 33 -18l153 -151h-34z" />
    <glyph glyph-name="oacute" unicode="&#xf3;" horiz-adv-x="444" 
d="M278 482q63 0 98 -40t35 -111q0 -38 -8 -77t-22 -75.5t-33.5 -68t-42.5 -53.5q-34 -32 -76 -50t-84 -18q-63 0 -95.5 41.5t-32.5 121.5q0 92 32.5 164.5t93.5 116.5q69 49 135 49zM241 444q-18 0 -34 -4.5t-26 -12.5q-18 -15 -34 -44t-28 -66.5t-19 -80.5t-7 -85
q0 -60 24 -92t68 -32q47 0 75 33q16 20 30 49t24 62.5t15.5 70.5t5.5 73q0 63 -24 96t-70 33zM343 669q18 18 33 18t26.5 -9.5t11.5 -21.5q0 -11 -6 -19t-22 -18l-162 -101h-34z" />
    <glyph glyph-name="ocircumflex" unicode="&#xf4;" horiz-adv-x="444" 
d="M278 482q63 0 98 -40t35 -111q0 -38 -8 -77t-22 -75.5t-33.5 -68t-42.5 -53.5q-34 -32 -76 -50t-84 -18q-63 0 -95.5 41.5t-32.5 121.5q0 92 32.5 164.5t93.5 116.5q69 49 135 49zM241 444q-18 0 -34 -4.5t-26 -12.5q-18 -15 -34 -44t-28 -66.5t-19 -80.5t-7 -85
q0 -60 24 -92t68 -32q47 0 75 33q16 20 30 49t24 62.5t15.5 70.5t5.5 73q0 63 -24 96t-70 33zM406 510h-36l-82 104l-137 -104h-39l157 169h49z" />
    <glyph glyph-name="otilde" unicode="&#xf5;" horiz-adv-x="444" 
d="M278 482q63 0 98 -40t35 -111q0 -38 -8 -77t-22 -75.5t-33.5 -68t-42.5 -53.5q-34 -32 -76 -50t-84 -18q-63 0 -95.5 41.5t-32.5 121.5q0 92 32.5 164.5t93.5 116.5q69 49 135 49zM241 444q-18 0 -34 -4.5t-26 -12.5q-18 -15 -34 -44t-28 -66.5t-19 -80.5t-7 -85
q0 -60 24 -92t68 -32q47 0 75 33q16 20 30 49t24 62.5t15.5 70.5t5.5 73q0 63 -24 96t-70 33zM119 535q15 55 38 79t60 24q27 0 63 -14l60 -24q12 -5 27 -5t25.5 8.5t25.5 34.5h28q-9 -49 -34.5 -76t-62.5 -27q-10 0 -28.5 4.5t-35.5 11.5l-38 15l-2 1q-3 0 -7 3
q-13 5 -21.5 7t-16.5 2q-19 0 -30 -9t-22 -35h-29z" />
    <glyph glyph-name="odieresis" unicode="&#xf6;" horiz-adv-x="444" 
d="M278 482q63 0 98 -40t35 -111q0 -38 -8 -77t-22 -75.5t-33.5 -68t-42.5 -53.5q-34 -32 -76 -50t-84 -18q-63 0 -95.5 41.5t-32.5 121.5q0 92 32.5 164.5t93.5 116.5q69 49 135 49zM241 444q-18 0 -34 -4.5t-26 -12.5q-18 -15 -34 -44t-28 -66.5t-19 -80.5t-7 -85
q0 -60 24 -92t68 -32q47 0 75 33q16 20 30 49t24 62.5t15.5 70.5t5.5 73q0 63 -24 96t-70 33zM184 637q20 0 35 -15t15 -34q0 -20 -15 -35.5t-35 -15.5t-35 15.5t-15 35.5t15 34.5t35 14.5zM384 637q20 0 35 -15t15 -34q0 -20 -15 -35.5t-35 -15.5t-35 15.5t-15 35.5
t15 34.5t35 14.5z" />
    <glyph glyph-name="divide" unicode="&#xf7;" horiz-adv-x="606" 
d="M51 280h504v-56h-504v56zM304 504q22 0 35.5 -14t13.5 -36q0 -23 -13.5 -36.5t-36.5 -13.5t-36.5 13.5t-13.5 36.5t14 36.5t37 13.5zM304 100q22 0 35.5 -14t13.5 -36q0 -23 -13.5 -36.5t-36.5 -13.5t-36.5 13.5t-13.5 36.5t14 36.5t37 13.5z" />
    <glyph glyph-name="oslash" unicode="&#xf8;" horiz-adv-x="444" 
d="M436 510l24 -20l-66 -75q8 -20 12.5 -41t4.5 -44q0 -32 -6.5 -66.5t-17.5 -67.5t-26.5 -63t-34.5 -53q-34 -42 -83 -66.5t-97 -24.5q-32 0 -53.5 9.5t-40.5 30.5l-46 -53l-24 20l53 60q-11 21 -15 42.5t-4 51.5q0 75 26.5 144t74.5 120q31 32 72.5 50t87.5 18
q32 0 55.5 -9t43.5 -31zM103 86q13 -31 32 -45t50 -14q61 0 100 70q10 18 19.5 44t16 55t10.5 59t4 57q0 5 -0.5 10.5t-1.5 12.5v11zM325 384q-14 32 -33 46t-50 14q-63 0 -103 -68q-11 -18 -19.5 -43.5t-14.5 -54t-9.5 -59t-3.5 -60.5q0 -8 0.5 -16t2.5 -19z" />
    <glyph glyph-name="ugrave" unicode="&#xf9;" horiz-adv-x="556" 
d="M370 239q-32 -52 -68.5 -97.5t-73 -79.5t-69.5 -53.5t-57 -19.5q-15 0 -25 12t-10 29q0 11 1 25.5t3 21.5l63 297q1 3 1.5 9t0.5 9q0 8 -5 14t-12 6t-17 -4.5t-31 -18.5l-32 -21l-7 20l28 20q56 40 86.5 57t45.5 17q23 0 23 -31q0 -10 -1.5 -20.5t-3.5 -22.5l-57 -271
q-4 -19 -5.5 -30t-1.5 -22q0 -26 13 -26q15 0 36 12.5t45 34.5t49 51.5t47 63.5q23 35 41.5 84.5t29.5 108.5l10 51l68 17l7 -9q-11 -43 -22.5 -89t-22 -92t-20.5 -90.5t-19 -85.5l-1 -6q-2 -11 -3.5 -19.5t-1.5 -14.5q0 -17 13 -17q8 0 25.5 7.5t35.5 19.5l26 17l10 -18
q-37 -27 -63 -45.5t-44 -29t-30.5 -15t-22.5 -4.5q-30 0 -30 40q0 11 3 29.5t8 36.5zM195 619q-16 10 -22 18t-6 19q0 13 11.5 22t26.5 9q13 0 33 -18l153 -151h-34z" />
    <glyph glyph-name="uacute" unicode="&#xfa;" horiz-adv-x="556" 
d="M370 239q-32 -52 -68.5 -97.5t-73 -79.5t-69.5 -53.5t-57 -19.5q-15 0 -25 12t-10 29q0 11 1 25.5t3 21.5l63 297q1 3 1.5 9t0.5 9q0 8 -5 14t-12 6t-17 -4.5t-31 -18.5l-32 -21l-7 20l28 20q56 40 86.5 57t45.5 17q23 0 23 -31q0 -10 -1.5 -20.5t-3.5 -22.5l-57 -271
q-4 -19 -5.5 -30t-1.5 -22q0 -26 13 -26q15 0 36 12.5t45 34.5t49 51.5t47 63.5q23 35 41.5 84.5t29.5 108.5l10 51l68 17l7 -9q-11 -43 -22.5 -89t-22 -92t-20.5 -90.5t-19 -85.5l-1 -6q-2 -11 -3.5 -19.5t-1.5 -14.5q0 -17 13 -17q8 0 25.5 7.5t35.5 19.5l26 17l10 -18
q-37 -27 -63 -45.5t-44 -29t-30.5 -15t-22.5 -4.5q-30 0 -30 40q0 11 3 29.5t8 36.5zM455 669q18 18 33 18t26.5 -9.5t11.5 -21.5q0 -11 -6 -19t-22 -18l-162 -101h-34z" />
    <glyph glyph-name="ucircumflex" unicode="&#xfb;" horiz-adv-x="556" 
d="M370 239q-32 -52 -68.5 -97.5t-73 -79.5t-69.5 -53.5t-57 -19.5q-15 0 -25 12t-10 29q0 11 1 25.5t3 21.5l63 297q1 3 1.5 9t0.5 9q0 8 -5 14t-12 6t-17 -4.5t-31 -18.5l-32 -21l-7 20l28 20q56 40 86.5 57t45.5 17q23 0 23 -31q0 -10 -1.5 -20.5t-3.5 -22.5l-57 -271
q-4 -19 -5.5 -30t-1.5 -22q0 -26 13 -26q15 0 36 12.5t45 34.5t49 51.5t47 63.5q23 35 41.5 84.5t29.5 108.5l10 51l68 17l7 -9q-11 -43 -22.5 -89t-22 -92t-20.5 -90.5t-19 -85.5l-1 -6q-2 -11 -3.5 -19.5t-1.5 -14.5q0 -17 13 -17q8 0 25.5 7.5t35.5 19.5l26 17l10 -18
q-37 -27 -63 -45.5t-44 -29t-30.5 -15t-22.5 -4.5q-30 0 -30 40q0 11 3 29.5t8 36.5zM462 510h-36l-82 104l-137 -104h-39l157 169h49z" />
    <glyph glyph-name="udieresis" unicode="&#xfc;" horiz-adv-x="556" 
d="M370 239q-32 -52 -68.5 -97.5t-73 -79.5t-69.5 -53.5t-57 -19.5q-15 0 -25 12t-10 29q0 11 1 25.5t3 21.5l63 297q1 3 1.5 9t0.5 9q0 8 -5 14t-12 6t-17 -4.5t-31 -18.5l-32 -21l-7 20l28 20q56 40 86.5 57t45.5 17q23 0 23 -31q0 -10 -1.5 -20.5t-3.5 -22.5l-57 -271
q-4 -19 -5.5 -30t-1.5 -22q0 -26 13 -26q15 0 36 12.5t45 34.5t49 51.5t47 63.5q23 35 41.5 84.5t29.5 108.5l10 51l68 17l7 -9q-11 -43 -22.5 -89t-22 -92t-20.5 -90.5t-19 -85.5l-1 -6q-2 -11 -3.5 -19.5t-1.5 -14.5q0 -17 13 -17q8 0 25.5 7.5t35.5 19.5l26 17l10 -18
q-37 -27 -63 -45.5t-44 -29t-30.5 -15t-22.5 -4.5q-30 0 -30 40q0 11 3 29.5t8 36.5zM239 637q20 0 35 -15t15 -34q0 -20 -15 -35.5t-35 -15.5t-35 15.5t-15 35.5t15 34.5t35 14.5zM439 637q20 0 35 -15t15 -34q0 -20 -15 -35.5t-35 -15.5t-35 15.5t-15 35.5t15 34.5
t35 14.5z" />
    <glyph glyph-name="yacute" unicode="&#xfd;" 
d="M41 -146l10 -4q-1 -7 -1.5 -12.5t-0.5 -9.5q0 -26 18 -44t44 -18q52 0 92.5 58.5t78.5 191.5l49 171q-28 -42 -57 -78.5t-55.5 -63t-48 -41.5t-35.5 -15q-19 0 -31 19.5t-12 51.5l1 40l17 243q1 6 1 10v5q0 52 -22 52q-6 0 -21 -9l-4 -3l-50 -30l-11 18l82 56
q36 25 50.5 32.5t24.5 7.5q13 0 18.5 -14.5t5.5 -48.5q0 -21 -1 -47.5t-3 -49.5l-15 -194l-1 -13q-1 -19 5 -33.5t15 -14.5q8 0 21 7.5t27.5 20.5t29.5 30.5t28 36.5q12 18 24.5 40.5t23.5 45t19 44t13 39.5l35 132q31 3 74 19l11 -9l-141 -440q-22 -69 -53 -126t-67 -97.5
t-75.5 -63t-79.5 -22.5q-17 0 -32 6t-26 16.5t-17.5 25t-6.5 30.5v8.5t1 9.5zM359 669q18 18 33 18t26.5 -9.5t11.5 -21.5q0 -11 -6 -19t-22 -18l-162 -101h-34z" />
    <glyph glyph-name="thorn" unicode="&#xfe;" 
d="M-32 -276l-7 6l8 37q4 20 11 52t14 66.5t13.5 67.5t10.5 55l112 614q1 5 1.5 11.5t0.5 12.5q0 24 -34 24h-48l4 21q27 3 48 6t39.5 8t35.5 11.5t37 16.5l12 -11l-94 -434q13 22 23.5 38t20.5 29.5t21.5 25l25.5 25.5q40 36 79.5 56t71.5 20q27 0 43 -30t16 -81
q0 -28 -6 -61.5t-16 -67t-24 -64t-29 -53.5q-16 -24 -43.5 -48t-58.5 -43.5t-61 -32t-51 -12.5q-8 0 -20 2.5t-32 8.5l-9 3l-42 -262zM93 59q37 -23 82 -23q63 0 93 44q20 28 37 63.5t29.5 72.5t19.5 73.5t7 66.5q0 68 -38 68q-31 0 -65 -22.5t-64 -59t-52.5 -83
t-30.5 -94.5z" />
    <glyph glyph-name="ydieresis" unicode="&#xff;" 
d="M41 -146l10 -4q-1 -7 -1.5 -12.5t-0.5 -9.5q0 -26 18 -44t44 -18q52 0 92.5 58.5t78.5 191.5l49 171q-28 -42 -57 -78.5t-55.5 -63t-48 -41.5t-35.5 -15q-19 0 -31 19.5t-12 51.5l1 40l17 243q1 6 1 10v5q0 52 -22 52q-6 0 -21 -9l-4 -3l-50 -30l-11 18l82 56
q36 25 50.5 32.5t24.5 7.5q13 0 18.5 -14.5t5.5 -48.5q0 -21 -1 -47.5t-3 -49.5l-15 -194l-1 -13q-1 -19 5 -33.5t15 -14.5q8 0 21 7.5t27.5 20.5t29.5 30.5t28 36.5q12 18 24.5 40.5t23.5 45t19 44t13 39.5l35 132q31 3 74 19l11 -9l-141 -440q-22 -69 -53 -126t-67 -97.5
t-75.5 -63t-79.5 -22.5q-17 0 -32 6t-26 16.5t-17.5 25t-6.5 30.5v8.5t1 9.5zM211 637q20 0 35 -15t15 -34q0 -20 -15 -35.5t-35 -15.5t-35 15.5t-15 35.5t15 34.5t35 14.5zM411 637q20 0 35 -15t15 -34q0 -20 -15 -35.5t-35 -15.5t-35 15.5t-15 35.5t15 34.5t35 14.5z" />
    <glyph glyph-name="Amacron" unicode="&#x100;" horiz-adv-x="722" 
d="M508 705l87 -625q3 -17 5.5 -26t8 -14t15 -7t27.5 -5l26 -3v-28q-38 1 -59 1.5t-32.5 1t-17.5 0.5h-13h-13.5t-17 -0.5t-32.5 -1t-59 -1.5v28l44 3q43 3 43 27q0 3 -0.5 9.5t-1.5 12.5q-2 10 -2 9v3l-25 188h-246l-102 -175q-14 -25 -20 -37t-6 -18q0 -7 9.5 -12.5
t21.5 -6.5l52 -3v-28q-32 1 -50 1.5t-28.5 1t-16 0.5h-12.5h-13.5t-16 -0.5t-29.5 -1t-53 -1.5v30l20 5q13 3 23 8t20 14t20.5 23t24.5 35l373 593h46zM270 313h216l-37 288zM630 748h-301l11 51h301z" />
    <glyph glyph-name="amacron" unicode="&#x101;" horiz-adv-x="444" 
d="M310 93q-1 -3 -1 -11q0 -23 15 -23q11 0 24.5 8t37.5 28q3 3 5.5 5l7.5 6l7 -21q-62 -51 -95.5 -72.5t-50.5 -21.5q-24 0 -24 35q0 25 6 51l29 127q-41 -57 -72 -93.5t-63 -65.5q-29 -26 -55 -41t-43 -15q-14 0 -24 22.5t-10 55.5q0 29 5.5 65t15.5 74.5t23.5 76.5
t30.5 71q19 37 46 62t74 48q20 10 37 14t38 4q20 0 37 -4t48 -15l33 18l10 -9zM319 414q-33 11 -50.5 15t-34.5 4q-36 0 -56.5 -15.5t-38.5 -57.5q-13 -30 -24.5 -65.5t-20 -71t-13.5 -68t-5 -56.5q0 -40 18 -40q12 0 29 10.5t36.5 29t41.5 44.5t43 58q13 19 23 39.5
t19 45.5t17 56t16 72zM431 538h-301l11 51h301z" />
    <glyph glyph-name="Imacron" unicode="&#x12a;" horiz-adv-x="333" 
d="M106 692l64 -2q32 -1 48.5 -1h29.5l97 3h9l-3 -28l-35 -3q-15 -2 -23.5 -4t-14 -7t-8 -13.5t-5.5 -23.5l-89 -535q-1 -3 -1.5 -9.5t-0.5 -11.5q0 -15 8 -21t28 -8l52 -3l-3 -28h-32l-94 3l-94 -3h-32l3 28l36 3q15 1 24 4t14.5 12.5t9.5 28.5t10 52l72 434q1 6 2.5 18
l3 24t2.5 22t1 13q0 25 -35 26l-47 2zM388 748h-301l11 51h301z" />
    <glyph glyph-name="imacron" unicode="&#x12b;" horiz-adv-x="278" 
d="M62 408q57 40 87 57t47 17q25 0 25 -26q0 -12 -6 -36l-77 -304q-4 -16 -5.5 -24t-1.5 -16t4 -14t9 -6q8 0 23.5 8t37.5 22l26 17l10 -18q-37 -27 -63 -45.5t-44 -29t-30.5 -15t-22.5 -4.5q-14 0 -22 10.5t-8 28.5q0 14 3.5 34t9.5 43l66 240q3 11 5.5 25t2.5 19
q0 9 -4.5 15t-12.5 6q-7 0 -17 -4.5t-31 -18.5l-32 -21l-7 20zM301 538h-261l11 51h261z" />
    <glyph glyph-name="OE" unicode="&#x152;" horiz-adv-x="1028" 
d="M617 81q-1 -7 -1.5 -13.5t-0.5 -17.5v-4q23 -4 50 -5.5t59 -1.5q19 0 42.5 1t45 2t39 2.5t23.5 3.5q17 4 25 15t16 38l16 60h27l-5 -26q-7 -37 -10.5 -60.5t-5.5 -38.5l-4 -36l-33 -1q-26 -1 -43 -1.5t-28 -0.5h-11.5t-26 0.5t-45.5 1t-71 0.5q-11 0 -17.5 0.5t-12.5 0.5
h-13.5h-19.5h-16l-24 -1l-16 -1q-5 -1 -9.5 -1h-8.5q-12 0 -12 7q0 4 3 16l15 70q-16 -17 -29 -29.5t-25 -22t-24.5 -16.5t-27.5 -14q-60 -26 -128 -26q-121 0 -187.5 73.5t-66.5 208.5q0 97 34 185t96 150q106 108 262 108q32 0 58 -4.5t47.5 -14t41.5 -25.5t40 -40l7 50
q2 13 4.5 17t9.5 3l11 -1h9q10 -1 16.5 -1.5t11.5 -0.5h10.5h13.5h51l89 2l51 1q15 0 34 -0.5t36 -2.5q-17 -57 -21 -153h-24l-8 89q-1 12 -29.5 18.5t-77.5 6.5q-38 0 -92 -3l-21 -1q-6 -13 -9 -33l-39 -238h17q29 0 55.5 0.5l53 1t53.5 1.5t57 3l4 -7l-19 -45l-26 1
q-36 2 -61 2.5t-45 0.5h-97zM600 439q2 14 3.5 28.5t1.5 28.5q0 83 -45.5 126t-132.5 43q-106 0 -172 -69q-53 -55 -82 -137t-29 -174q0 -60 12.5 -108.5t36 -82.5t57 -52t75.5 -18q43 0 83.5 19t73.5 52t56.5 78t32.5 97z" />
    <glyph glyph-name="oe" unicode="&#x153;" horiz-adv-x="669" 
d="M619 88q-34 -28 -61 -47t-51 -30.5t-45 -16.5t-43 -5q-44 0 -72 21t-37 61q-44 -46 -80 -64t-82 -18q-131 0 -131 163q0 72 22 134.5t64 109.5q35 40 81.5 63t89.5 23t73.5 -20.5t52.5 -65.5q33 25 58 41.5t45.5 26.5t37 14t33.5 4q35 0 57.5 -23t22.5 -58
q0 -68 -76 -117q-15 -10 -33 -18.5t-40.5 -17.5t-52 -18t-68.5 -20q-5 -29 -7 -47.5t-2 -35.5q0 -42 21 -66.5t58 -24.5q29 0 62 14.5t75 44.5l22 16zM238 444q-38 0 -63.5 -23t-45.5 -75q-36 -92 -36 -193q0 -126 94 -126q57 0 86 49q13 22 23.5 51.5t18.5 62.5t12.5 68
t4.5 68q0 118 -94 118zM388 234q94 21 143 60t49 93q0 53 -45 53q-32 0 -61.5 -20t-48.5 -54q-6 -11 -10.5 -23t-9 -27t-8.5 -35t-9 -47z" />
    <glyph glyph-name="Sacute" unicode="&#x15a;" horiz-adv-x="556" 
d="M451 613q-23 24 -49 34.5t-63 10.5q-35 0 -64 -11t-50 -31t-33 -47.5t-12 -60.5q0 -50 23 -78t73 -39l65 -14q76 -17 110 -50t34 -93q0 -51 -23 -96.5t-62.5 -80t-92 -55t-110.5 -20.5q-81 0 -155 38q8 39 13.5 74.5t10.5 77.5h30v-99q33 -23 64 -33t72 -10q39 0 71 12
t55 33t35.5 50.5t12.5 65.5q0 85 -81 105l-95 23q-63 15 -92.5 51.5t-29.5 100.5q0 89 64 150q40 41 93.5 63t108.5 22q35 0 66.5 -8t65.5 -26q-11 -32 -16.5 -63t-8.5 -72h-30v76zM485 879q18 18 33 18t26.5 -9.5t11.5 -21.5q0 -11 -6 -19t-22 -18l-162 -101h-34z" />
    <glyph glyph-name="sacute" unicode="&#x15b;" horiz-adv-x="389" 
d="M56 148v-84q41 -35 94 -35q54 0 85.5 30t31.5 79q0 29 -13.5 44t-46.5 21l-63 12q-97 19 -97 101q0 27 8.5 47.5t28.5 40.5q36 36 79 57t82 21q25 0 48 -6.5t52 -20.5q-8 -38 -12 -62.5t-7 -50.5h-23v55q-12 20 -38 32.5t-57 12.5q-43 0 -72.5 -27t-29.5 -67
q0 -31 17 -46t62 -23l43 -8q56 -11 81 -33.5t25 -63.5q0 -38 -17 -67.5t-55 -59.5t-73.5 -44t-72.5 -14q-50 0 -107 27q8 35 13 64.5t9 67.5h25zM348 669q18 18 33 18t26.5 -9.5t11.5 -21.5q0 -11 -6 -19t-22 -18l-162 -101h-34z" />
    <glyph glyph-name="Scaron" unicode="&#x160;" horiz-adv-x="556" 
d="M451 613q-23 24 -49 34.5t-63 10.5q-35 0 -64 -11t-50 -31t-33 -47.5t-12 -60.5q0 -50 23 -78t73 -39l65 -14q76 -17 110 -50t34 -93q0 -51 -23 -96.5t-62.5 -80t-92 -55t-110.5 -20.5q-81 0 -155 38q8 39 13.5 74.5t10.5 77.5h30v-99q33 -23 64 -33t72 -10q39 0 71 12
t55 33t35.5 50.5t12.5 65.5q0 85 -81 105l-95 23q-63 15 -92.5 51.5t-29.5 100.5q0 89 64 150q40 41 93.5 63t108.5 22q35 0 66.5 -8t65.5 -26q-11 -32 -16.5 -63t-8.5 -72h-30v76zM350 738l-96 169h37l90 -105l142 105h36l-163 -169h-46z" />
    <glyph glyph-name="scaron" unicode="&#x161;" horiz-adv-x="389" 
d="M56 148v-84q41 -35 94 -35q54 0 85.5 30t31.5 79q0 29 -13.5 44t-46.5 21l-63 12q-97 19 -97 101q0 27 8.5 47.5t28.5 40.5q36 36 79 57t82 21q25 0 48 -6.5t52 -20.5q-8 -38 -12 -62.5t-7 -50.5h-23v55q-12 20 -38 32.5t-57 12.5q-43 0 -72.5 -27t-29.5 -67
q0 -31 17 -46t62 -23l43 -8q56 -11 81 -33.5t25 -63.5q0 -38 -17 -67.5t-55 -59.5t-73.5 -44t-72.5 -14q-50 0 -107 27q8 35 13 64.5t9 67.5h25zM210 510l-96 169h37l90 -105l142 105h36l-163 -169h-46z" />
    <glyph glyph-name="Umacron" unicode="&#x16a;" horiz-adv-x="778" 
d="M759 661q-14 -2 -23 -4t-14.5 -7t-8.5 -14t-5 -23l-85 -507q-4 -27 -5 -36t-1 -20q0 -18 32 -21l60 -4l-5 -28l-32 1q-24 1 -39.5 1.5t-18.5 0.5l-62 -3h-22l-5 5q5 21 8.5 37t6.5 30t6 28.5t6 31.5q-20 -23 -36 -39.5t-32.5 -29.5t-34.5 -23.5t-40 -21.5
q-36 -18 -68 -26t-65 -8q-85 0 -132 43.5t-47 119.5q0 12 1.5 29t4.5 33l64 375q3 16 5 33.5t2 24.5q0 13 -7 17.5t-27 5.5l-52 2l3 28l32 -1q21 -1 35.5 -1.5t22.5 -0.5t23 0.5t35 1.5l31 1l-88 -477q-4 -21 -5.5 -34.5t-1.5 -26.5q0 -53 37.5 -84t101.5 -31q58 0 113 29
q19 9 35 19t31 23t30 29t33 38l71 445q1 4 1 12q0 27 -35 28l-48 2l3 28l63 -2q33 -1 51 -1h29l91 3h16l-3 -28zM594 748h-301l11 51h301z" />
    <glyph glyph-name="umacron" unicode="&#x16b;" horiz-adv-x="556" 
d="M370 239q-32 -52 -68.5 -97.5t-73 -79.5t-69.5 -53.5t-57 -19.5q-15 0 -25 12t-10 29q0 11 1 25.5t3 21.5l63 297q1 3 1.5 9t0.5 9q0 8 -5 14t-12 6t-17 -4.5t-31 -18.5l-32 -21l-7 20l28 20q56 40 86.5 57t45.5 17q23 0 23 -31q0 -10 -1.5 -20.5t-3.5 -22.5l-57 -271
q-4 -19 -5.5 -30t-1.5 -22q0 -26 13 -26q15 0 36 12.5t45 34.5t49 51.5t47 63.5q23 35 41.5 84.5t29.5 108.5l10 51l68 17l7 -9q-11 -43 -22.5 -89t-22 -92t-20.5 -90.5t-19 -85.5l-1 -6q-2 -11 -3.5 -19.5t-1.5 -14.5q0 -17 13 -17q8 0 25.5 7.5t35.5 19.5l26 17l10 -18
q-37 -27 -63 -45.5t-44 -29t-30.5 -15t-22.5 -4.5q-30 0 -30 40q0 11 3 29.5t8 36.5zM487 538h-301l11 51h301z" />
    <glyph glyph-name="Ydieresis" unicode="&#x178;" horiz-adv-x="667" 
d="M67 658q14 9 28.5 19.5t22.5 17.5q6 4 9 7l4 3q34 0 61.5 -19t52.5 -64t49 -121t52 -191q21 56 51.5 109.5t76.5 116.5q28 37 52.5 64.5t48.5 46.5t48.5 31t51.5 19l-6 -71q-22 -4 -41.5 -12t-38.5 -21.5t-38 -33t-41 -47.5q-28 -35 -53 -73t-45 -74t-33.5 -67t-16.5 -52
l-26 -168q-2 -10 -2 -21q0 -15 8 -21t28 -8l49 -3l-3 -28h-26l-97 3q-12 0 -31.5 -0.5t-54.5 -1.5l-53 -1l4 28l48 3q15 1 23.5 3.5t14 12t10 28.5t10.5 53l21 126q0 1 0.5 2t0.5 2v2q0 6 -6 31.5t-15.5 59t-20.5 69t-20 60.5q-31 84 -60 121t-64 37q-8 0 -18 -2.5t-27 -9.5
l-3 24zM326 847q20 0 35 -15t15 -34q0 -20 -15 -35.5t-35 -15.5t-35 15.5t-15 35.5t15 34.5t35 14.5zM526 847q20 0 35 -15t15 -34q0 -20 -15 -35.5t-35 -15.5t-35 15.5t-15 35.5t15 34.5t35 14.5z" />
    <glyph glyph-name="Zcaron" unicode="&#x17d;" horiz-adv-x="667" 
d="M20 19l502 633h-180q-32 0 -56.5 -0.5t-45 -2t-39 -4t-39.5 -6.5l-6 -20q-9 -29 -14 -49t-7 -37h-26q3 27 5 49t3.5 40.5t2 35t0.5 34.5l118 -1l211 -2h26l162 3v-20l-504 -633h281q33 0 63 3t64 10l8 22q6 17 12.5 35t11.5 33l7 22h26q-20 -106 -23 -167l-66 1
q-23 0 -55 0.5t-67 1t-70 0.5h-64h-61t-56 -0.5t-58 -1t-66 -1.5v22zM352 738l-96 169h37l90 -105l142 105h36l-163 -169h-46z" />
    <glyph glyph-name="zcaron" unicode="&#x17e;" horiz-adv-x="444" 
d="M352 421q-25 -13 -45.5 -18t-47.5 -5q-32 0 -81 10q-15 3 -24.5 4t-20.5 1q-10 0 -18 -1t-21 -4l-30 -58h-21l32 122q34 10 61 10q11 0 26 -3t36 -8l18 -5q36 -10 72 -15.5t62 -5.5q20 0 34 14l23 23l9 -9l-6 -32l-339 -382q27 11 49 16t46 5q14 0 37.5 -3.5t48.5 -8.5
l18 -4q29 -7 49 -7q31 0 39 25l22 60h22q-8 -35 -15 -66t-15 -77q-22 -6 -31.5 -8t-18.5 -2q-20 0 -46.5 4.5t-71.5 15.5q-39 9 -62.5 13t-42.5 4q-26 0 -47.5 -7.5t-43.5 -24.5l-9 27zM238 510l-96 169h37l90 -105l142 105h36l-163 -169h-46z" />
    <glyph glyph-name="florin" unicode="&#x192;" 
d="M17 -196l11 4q10 -11 20.5 -15.5t25.5 -4.5q19 0 34.5 17.5t24.5 48.5l1 6q7 22 9.5 31t4.5 22l84 457h-113l9 34h109q7 33 15 59t17 49t20 44t26 44q34 52 67.5 81.5t57.5 27.5h1q1 0 1.5 -0.5t2.5 -0.5l25 -5l-12 -79q-26 23 -54 23q-15 0 -29 -9.5t-20 -23.5
q-8 -18 -15.5 -50.5t-18.5 -96.5l-11 -63h112l-8 -34h-109l-51 -247q-9 -45 -23.5 -95.5t-31 -96.5t-33.5 -83.5t-31 -57.5q-8 -12 -23 -24t-33.5 -21.5t-38 -15t-35.5 -5.5z" />
    <glyph glyph-name="circumflex" unicode="&#x2c6;" horiz-adv-x="333" 
d="M262 679l88 -169h-36l-82 104l-137 -104h-39l157 169h49v0z" />
    <glyph glyph-name="tilde" unicode="&#x2dc;" horiz-adv-x="333" 
d="M63 535q15 55 38 79t60 24q27 0 63 -14l60 -24q12 -5 27 -5t25.5 8.5t25.5 34.5h28q-9 -49 -34.5 -76t-62.5 -27q-10 0 -28.5 4.5t-35.5 11.5l-38 15l-2 1q-3 0 -7 3q-13 5 -21.5 7t-16.5 2q-19 0 -30 -9t-22 -35h-29z" />
    <glyph glyph-name="verticallineabovecmb" unicode="&#x30d;" horiz-adv-x="1" 
d="M50 1050l-83 -250h-51l84 250h50v0z" />
    <glyph glyph-name="dblverticallineabovecmb" unicode="&#x30e;" horiz-adv-x="1" 
d="M109 1050l-82 -250h-48l80 250h50v0zM-41 1050l-81 -250h-46l78 250h49v0z" />
    <glyph glyph-name="macronbelowcmb" unicode="&#x331;" horiz-adv-x="1" 
d="M-115 -225l-11 -51h-301l11 51h301v0z" />
    <glyph glyph-name="Dunderdot" unicode="&#x1e0c;" horiz-adv-x="778" 
d="M324 -78q21 0 37 -16t16 -37q0 -22 -16 -38.5t-38 -16.5t-38 16.5t-16 38.5q0 21 16 37t39 16zM41 25q23 5 33 11.5t12 18.5l87 504q4 23 6.5 44t2.5 32q0 26 -35 27l-53 2l3 28q38 -1 59 -1.5t32 -1t15 -0.5h7h10l204 3q72 1 131.5 -12t94.5 -38q91 -64 91 -211
q0 -62 -17.5 -120.5t-50 -110t-79.5 -94t-105 -72.5q-39 -20 -79 -28.5t-94 -8.5h-19.5t-26.5 1q-32 1 -56 1.5t-38 0.5h-32h-23l-93 -3l5 26zM172 93l-3 -21t-1 -16q51 -8 89.5 -11.5t71.5 -3.5q133 0 214 83q51 52 78.5 127.5t27.5 163.5q0 124 -64 182t-201 58
q-14 0 -30 -0.5t-39 -2.5q-20 -1 -28 -1.5t-19 -0.5z" />
    <glyph glyph-name="dunderdot" unicode="&#x1e0d;" 
d="M181 -78q21 0 37 -16t16 -37q0 -22 -16 -38.5t-38 -16.5t-38 16.5t-16 38.5q0 21 16 37t39 16zM357 128q-5 -22 -6.5 -31t-1.5 -15q0 -23 14 -23q7 0 17.5 4.5t21.5 12.5l44 31l10 -19l-81 -60q-50 -37 -75 -37q-26 0 -26 33q0 38 16 102l23 91q-25 -38 -44.5 -65
t-37 -48t-35 -38t-37.5 -33q-26 -20 -52 -32t-46 -12q-44 0 -44 97q0 31 3.5 64t10.5 64t16 59t21 50q17 33 42 61.5t53.5 50.5t58 34.5t55.5 12.5q35 0 82 -14l28 154q1 5 1.5 11.5t0.5 12.5q0 24 -34 24h-48l4 21q27 3 48 6t39.5 8t35.5 11.5t37 16.5l12 -11zM349 410
q-25 13 -49 18t-57 5q-40 0 -59 -15q-18 -14 -35.5 -48t-30.5 -79t-21 -95.5t-8 -97.5q0 -39 25 -39q14 0 41 16t53 41q47 45 81 107t48 128z" />
    <glyph glyph-name="Hunderdot" unicode="&#x1e24;" horiz-adv-x="778" 
d="M315 -78q21 0 37 -16t16 -37q0 -22 -16 -38.5t-38 -16.5t-38 16.5t-16 38.5q0 21 16 37t39 16zM591 385l30 174q4 23 6.5 44t2.5 32q0 26 -35 27l-48 2l3 28l63 -2q33 -1 51 -1h29l91 3h16l-3 -28l-36 -3q-14 -2 -23 -4t-14 -7t-8 -13.5t-6 -23.5l-92 -520q-4 -23 -4 -35
q0 -16 8 -22.5t28 -7.5l58 -3l-3 -28l-42 1q-32 1 -55 1.5t-35 0.5q-8 0 -30 -0.5t-55 -1.5l-56 -1l4 28l50 3q31 3 37 14q7 9 21 83l40 215l-61 1q-48 1 -78.5 1.5t-44.5 0.5t-45 -0.5t-78 -1.5l-61 -1l-42 -247l-3 -21t-1 -14q0 -16 8 -22t28 -8l49 -3l-3 -28h-26l-97 3
q-14 0 -34 -0.5t-56 -1.5l-42 -1l4 28l41 3q15 1 23.5 3.5t14 12t10 28t10.5 53.5l74 434q4 23 6.5 44t2.5 32q0 26 -35 27l-47 2l3 28l64 -2q32 -1 48.5 -1h28.5l90 3h24l-3 -28l-42 -3q-14 -1 -22.5 -3t-14 -7.5t-8.5 -14t-6 -23.5l-42 -228h370z" />
    <glyph glyph-name="hunderdot" unicode="&#x1e25;" 
d="M163 -78q21 0 37 -16t16 -37q0 -22 -16 -38.5t-38 -16.5t-38 16.5t-16 38.5q0 21 16 37t39 16zM138 265l20 25q17 22 29.5 37.5t23.5 27t21.5 21t23.5 20.5q48 40 90 63t68 23q14 0 21.5 -9.5t7.5 -26.5q0 -13 -3 -33.5t-8 -40.5l-64 -256q-5 -17 -6 -24.5t-1 -15.5
t4 -14t9 -6q8 0 23.5 8t37.5 22l26 17l10 -18q-37 -27 -63 -45.5t-44 -29t-30.5 -15t-22.5 -4.5q-14 0 -22 10.5t-8 28.5q0 14 3 32t10 45l51 196q6 25 10.5 50t4.5 39q0 22 -22 22q-16 0 -41.5 -16.5t-53 -42t-53.5 -57.5t-42 -62q-11 -20 -19.5 -42t-16 -49t-14 -61
t-12.5 -77l-69 -16l-7 11q8 24 18.5 66t22.5 94t24 110.5t23 115.5l42 234q1 5 1.5 11.5t0.5 12.5q0 24 -34 24h-48l4 21q27 3 48 6t39.5 8t35.5 11.5t37 16.5l12 -11z" />
    <glyph glyph-name="Lunderdot" unicode="&#x1e36;" horiz-adv-x="556" 
d="M109 -78q21 0 37 -16t16 -37q0 -22 -16 -38.5t-38 -16.5t-38 16.5t-16 38.5q0 21 16 37t39 16zM307 661q-14 -1 -22.5 -3.5t-14 -7.5t-8.5 -14t-6 -23l-92 -532q-1 -7 -1.5 -13.5t-0.5 -17.5v-4q25 -2 43.5 -3.5t34 -2.5t31 -1h33.5q25 0 49 1t43.5 2.5t33 3t18.5 3.5
q14 8 27 54l17 62h31q-5 -23 -9.5 -48.5t-7.5 -48t-4.5 -41t-1.5 -27.5l-33 -1q-25 -1 -43 -1.5t-29 -0.5h-10l-215 3h-22t-30.5 -0.5t-32.5 -1t-28 -0.5l-41 -1l5 26q33 5 45 11.5t15 20.5l86 504q4 23 6.5 44t2.5 32q0 26 -35 27l-47 2l3 28l64 -2q32 -1 48.5 -1h28.5
l90 3h24l-3 -28z" />
    <glyph glyph-name="lunderdot" unicode="&#x1e37;" horiz-adv-x="278" 
d="M91 -78q21 0 37 -16t16 -37q0 -22 -16 -38.5t-38 -16.5t-38 16.5t-16 38.5q0 21 16 37t39 16zM122 113l-2 -9q-4 -20 -4 -28t4 -14t9 -6q8 0 23.5 8t37.5 22l26 17l10 -18q-37 -27 -63 -45.5t-44 -29t-30.5 -15t-22.5 -4.5q-30 0 -30 40q0 16 4.5 39.5t14.5 61.5l14 52
q4 12 11 44t15.5 73.5t18 88.5t17 89t13 74.5t7.5 46.5l3 22q2 14 2.5 19t0.5 7q0 22 -34 22h-48l4 21q27 3 48 6t39.5 8t35.5 11.5t37 16.5l12 -11z" />
    <glyph glyph-name="Moverdot" unicode="&#x1e40;" horiz-adv-x="944" 
d="M556 855q21 0 37 -16t16 -37q0 -22 -16 -38.5t-38 -16.5t-38 16.5t-16 38.5q0 21 16 37t39 16zM899 662q-43 -3 -46 -31l-41 -531l-1 -37q0 -31 54 -35l37 -3l-3 -28l-46 1q-31 1 -53 1.5t-34 0.5q-11 0 -33 -0.5t-54 -1.5l-47 -1l3 28l31 3q38 3 51 10.5t16 28.5l37 520
l-52 -87q-25 -42 -54.5 -92t-61 -104t-63 -109.5t-60.5 -108.5l-57 -104h-23l-149 578l-124 -464q-7 -25 -7 -41q0 -24 49 -27l38 -3l-3 -28l-35 1q-26 1 -45 1.5t-30 0.5t-29 -0.5t-44 -1.5l-39 -1l3 26q21 2 34.5 6t23 11.5t16 20t12.5 32.5l145 509q3 10 3 20
q0 20 -15.5 28.5t-54.5 11.5l-26 2l3 28l59 -3h24h22.5t33.5 2l28 1l150 -578l246 422q17 30 33 58.5t36 66.5l16 31l59 -3h24h22.5t33.5 2l28 1l-3 -28z" />
    <glyph glyph-name="moverdot" unicode="&#x1e41;" horiz-adv-x="778" 
d="M448 645q21 0 37 -16t16 -37q0 -22 -16 -38.5t-38 -16.5t-38 16.5t-16 38.5q0 21 16 37t39 16zM740 85q-37 -27 -63 -45.5t-44 -29t-30.5 -15t-22.5 -4.5q-30 0 -30 40q0 17 3 36t10 40q8 26 19.5 67.5t23.5 89.5q8 33 13 53t7.5 33t3.5 21.5t1 17.5q0 25 -13 25
q-24 0 -59.5 -25t-77.5 -71q-33 -37 -57.5 -90.5t-36.5 -114.5l-21 -107l-69 -15l-5 11l16 67q31 132 47 215t16 109q0 21 -11 21q-21 0 -52 -20.5t-63 -55.5q-21 -23 -36.5 -46t-28 -50t-22.5 -59.5t-19 -74.5l-22 -102l-68 -15l-3 11q15 54 30 114t26.5 114t18.5 97t7 62
q0 25 -18 25q-3 0 -5.5 -0.5t-7 -3t-12.5 -7.5t-22 -14l-32 -21l-7 20l28 20q56 40 86.5 57t46.5 17q23 0 23 -31q0 -19 -6 -43l-33 -133q24 33 41 54.5t31 37t27 27t30 24.5q84 64 131 64q26 0 26 -31q0 -5 -2 -16t-5 -26l-30 -137q18 26 34.5 46t33.5 37.5t36 33t43 32.5
q46 32 76 46.5t52 14.5q26 0 26 -28q0 -6 -2 -17t-5 -24l-75 -297q-4 -16 -5.5 -24t-1.5 -16t4 -14t9 -6q8 0 23.5 8t37.5 22l26 17z" />
    <glyph glyph-name="Munderdot" unicode="&#x1e42;" horiz-adv-x="944" 
d="M400 -78q21 0 37 -16t16 -37q0 -22 -16 -38.5t-38 -16.5t-38 16.5t-16 38.5q0 21 16 37t39 16zM899 662q-43 -3 -46 -31l-41 -531l-1 -37q0 -31 54 -35l37 -3l-3 -28l-46 1q-31 1 -53 1.5t-34 0.5q-11 0 -33 -0.5t-54 -1.5l-47 -1l3 28l31 3q38 3 51 10.5t16 28.5l37 520
l-52 -87q-25 -42 -54.5 -92t-61 -104t-63 -109.5t-60.5 -108.5l-57 -104h-23l-149 578l-124 -464q-7 -25 -7 -41q0 -24 49 -27l38 -3l-3 -28l-35 1q-26 1 -45 1.5t-30 0.5t-29 -0.5t-44 -1.5l-39 -1l3 26q21 2 34.5 6t23 11.5t16 20t12.5 32.5l145 509q3 10 3 20
q0 20 -15.5 28.5t-54.5 11.5l-26 2l3 28l59 -3h24h22.5t33.5 2l28 1l150 -578l246 422q17 30 33 58.5t36 66.5l16 31l59 -3h24h22.5t33.5 2l28 1l-3 -28z" />
    <glyph glyph-name="munderdot" unicode="&#x1e43;" horiz-adv-x="778" 
d="M314 -78q21 0 37 -16t16 -37q0 -22 -16 -38.5t-38 -16.5t-38 16.5t-16 38.5q0 21 16 37t39 16zM740 85q-37 -27 -63 -45.5t-44 -29t-30.5 -15t-22.5 -4.5q-30 0 -30 40q0 17 3 36t10 40q8 26 19.5 67.5t23.5 89.5q8 33 13 53t7.5 33t3.5 21.5t1 17.5q0 25 -13 25
q-24 0 -59.5 -25t-77.5 -71q-33 -37 -57.5 -90.5t-36.5 -114.5l-21 -107l-69 -15l-5 11l16 67q31 132 47 215t16 109q0 21 -11 21q-21 0 -52 -20.5t-63 -55.5q-21 -23 -36.5 -46t-28 -50t-22.5 -59.5t-19 -74.5l-22 -102l-68 -15l-3 11q15 54 30 114t26.5 114t18.5 97t7 62
q0 25 -18 25q-3 0 -5.5 -0.5t-7 -3t-12.5 -7.5t-22 -14l-32 -21l-7 20l28 20q56 40 86.5 57t46.5 17q23 0 23 -31q0 -19 -6 -43l-33 -133q24 33 41 54.5t31 37t27 27t30 24.5q84 64 131 64q26 0 26 -31q0 -5 -2 -16t-5 -26l-30 -137q18 26 34.5 46t33.5 37.5t36 33t43 32.5
q46 32 76 46.5t52 14.5q26 0 26 -28q0 -6 -2 -17t-5 -24l-75 -297q-4 -16 -5.5 -24t-1.5 -16t4 -14t9 -6q8 0 23.5 8t37.5 22l26 17z" />
    <glyph glyph-name="Noverdot" unicode="&#x1e44;" horiz-adv-x="778" 
d="M452 855q21 0 37 -16t16 -37q0 -22 -16 -38.5t-38 -16.5t-38 16.5t-16 38.5q0 21 16 37t39 16zM582 103l80 489q2 10 3.5 25.5t1.5 20.5q0 12 -8 17.5t-28 6.5l-47 2l5 28h19l86 -3l89 3h21l-5 -28l-37 -2q-14 -1 -22 -4t-14 -14.5t-11 -35.5t-13 -66l-94 -553h-50
l-338 577l-80 -464q-3 -17 -3 -30q0 -25 9.5 -33.5t39.5 -10.5l42 -3l-5 -28q-36 1 -56 1.5t-30.5 1t-15 0.5h-8.5l-111 -3l5 28l31 3q13 1 21.5 4.5t14.5 11t9.5 21.5t8.5 37l88 474q1 4 3 18q1 2 1 5q1 3 1 7q0 6 -9.5 18t-20.5 21q-8 7 -22.5 11.5t-27.5 5.5l-35 2l5 28
l16 -1q17 -1 28 -1.5t13 -0.5h14h10l81 3z" />
    <glyph glyph-name="noverdot" unicode="&#x1e45;" horiz-adv-x="556" 
d="M297 645q21 0 37 -16t16 -37q0 -22 -16 -38.5t-38 -16.5t-38 16.5t-16 38.5q0 21 16 37t39 16zM52 408q55 39 86 56.5t47 17.5q23 0 23 -33q0 -14 -6 -41l-38 -161q19 27 35 48t29.5 37.5t26.5 30t27 26.5q45 42 91.5 67.5t78.5 25.5q31 0 31 -36q0 -28 -11 -74l-66 -276
q-1 -3 -1.5 -9.5t-0.5 -10.5q0 -8 4 -14t9 -6q8 0 23.5 8t37.5 22l26 17l10 -18q-37 -27 -63 -45.5t-44 -29t-30.5 -15t-22.5 -4.5q-30 0 -30 40q0 23 13 76l52 212q6 24 8.5 40.5t2.5 30.5q0 24 -17 24t-38.5 -11t-45 -30.5t-47 -46.5t-43.5 -58q-17 -26 -30 -52t-23 -56.5
t-18 -67.5t-15 -84q-17 -3 -34 -7.5t-36 -9.5l-7 11q15 54 30 114t26.5 114t18.5 97t7 62q0 25 -18 25q-3 0 -5.5 -0.5t-7 -3t-12.5 -7.5t-22 -14l-32 -21l-7 20z" />
    <glyph glyph-name="Nunderdot" unicode="&#x1e46;" horiz-adv-x="778" 
d="M352 -78q21 0 37 -16t16 -37q0 -22 -16 -38.5t-38 -16.5t-38 16.5t-16 38.5q0 21 16 37t39 16zM582 103l80 489q2 10 3.5 25.5t1.5 20.5q0 12 -8 17.5t-28 6.5l-47 2l5 28h19l86 -3l89 3h21l-5 -28l-37 -2q-14 -1 -22 -4t-14 -14.5t-11 -35.5t-13 -66l-94 -553h-50
l-338 577l-80 -464q-3 -17 -3 -30q0 -25 9.5 -33.5t39.5 -10.5l42 -3l-5 -28q-36 1 -56 1.5t-30.5 1t-15 0.5h-8.5l-111 -3l5 28l31 3q13 1 21.5 4.5t14.5 11t9.5 21.5t8.5 37l88 474q1 4 3 18q1 2 1 5q1 3 1 7q0 6 -9.5 18t-20.5 21q-8 7 -22.5 11.5t-27.5 5.5l-35 2l5 28
l16 -1q17 -1 28 -1.5t13 -0.5h14h10l81 3z" />
    <glyph glyph-name="nunderdot" unicode="&#x1e47;" horiz-adv-x="556" 
d="M225 -78q21 0 37 -16t16 -37q0 -22 -16 -38.5t-38 -16.5t-38 16.5t-16 38.5q0 21 16 37t39 16zM52 408q55 39 86 56.5t47 17.5q23 0 23 -33q0 -14 -6 -41l-38 -161q19 27 35 48t29.5 37.5t26.5 30t27 26.5q45 42 91.5 67.5t78.5 25.5q31 0 31 -36q0 -28 -11 -74l-66 -276
q-1 -3 -1.5 -9.5t-0.5 -10.5q0 -8 4 -14t9 -6q8 0 23.5 8t37.5 22l26 17l10 -18q-37 -27 -63 -45.5t-44 -29t-30.5 -15t-22.5 -4.5q-30 0 -30 40q0 23 13 76l52 212q6 24 8.5 40.5t2.5 30.5q0 24 -17 24t-38.5 -11t-45 -30.5t-47 -46.5t-43.5 -58q-17 -26 -30 -52t-23 -56.5
t-18 -67.5t-15 -84q-17 -3 -34 -7.5t-36 -9.5l-7 11q15 54 30 114t26.5 114t18.5 97t7 62q0 25 -18 25q-3 0 -5.5 -0.5t-7 -3t-12.5 -7.5t-22 -14l-32 -21l-7 20z" />
    <glyph glyph-name="Runderdot" unicode="&#x1e5a;" horiz-adv-x="667" 
d="M330 -78q21 0 37 -16t16 -37q0 -22 -16 -38.5t-38 -16.5t-38 16.5t-16 38.5q0 21 16 37t39 16zM108 692q44 -1 71 -1.5t43 -1t23.5 -0.5h13.5l150 3q84 2 129.5 -32.5t45.5 -99.5q0 -94 -89 -158q-27 -20 -53 -30.5t-67 -17.5l184 -275q11 -16 19 -25.5t16.5 -15.5t19 -9
t25.5 -5v-27h-13q-14 2 -23.5 2.5t-10.5 0.5h-11h-8l-66 -3q-28 48 -50 84t-47.5 75.5t-59 88.5t-83.5 122l3 11h44q39 0 72.5 12.5t57.5 34.5t38 52t14 66q0 113 -133 113q-20 0 -37 -1.5t-39 -6.5q-2 -10 -3.5 -16t-3.5 -12q-3 -14 -6 -26t-3 -14l-85 -487q-4 -23 -4 -35
q0 -15 8 -21.5t28 -8.5l49 -3l-3 -28h-26l-97 3h-36.5t-53.5 -2l-42 -1l4 28l41 3q15 1 23.5 4t14.5 12t10 28t10 53l75 434q4 23 6.5 44t2.5 32q0 26 -35 27l-56 2z" />
    <glyph glyph-name="runderdot" unicode="&#x1e5b;" horiz-adv-x="389" 
d="M81 -78q21 0 37 -16t16 -37q0 -22 -16 -38.5t-38 -16.5t-38 16.5t-16 38.5q0 21 16 37t39 16zM354 365q-15 19 -36 19q-33 0 -83 -65q-17 -21 -29.5 -42.5t-22.5 -44.5t-18 -49t-15 -57l-26 -120l-13 -2q-17 -4 -30 -6.5t-24 -6.5l-10 7q15 48 30 107t26.5 115t19 102
t7.5 68t-17 22q-7 0 -17 -4.5t-31 -18.5l-32 -21l-7 20l28 20q56 40 86.5 57t46.5 17q23 0 23 -32q0 -17 -6 -42l-6 -26q-2 -8 -4.5 -19t-5 -23t-5 -23t-3.5 -20l-8 -41q6 13 11.5 24.5t13 24t17.5 27.5t25 36l27 39q53 75 98 75q4 0 8 -1t12 -5q-6 -31 -10 -56.5t-6 -54.5
h-14z" />
    <glyph glyph-name="Rmacronunderdot" unicode="&#x1e5c;" horiz-adv-x="667" 
d="M481 748h-301l11 51h301zM333 -78q21 0 37 -16t16 -37q0 -22 -16 -38.5t-38 -16.5t-38 16.5t-16 38.5q0 21 16 37t39 16zM108 692q44 -1 71 -1.5t43 -1t23.5 -0.5h13.5l150 3q84 2 129.5 -32.5t45.5 -99.5q0 -94 -89 -158q-27 -20 -53 -30.5t-67 -17.5l184 -275
q11 -16 19 -25.5t16.5 -15.5t19 -9t25.5 -5v-27h-13q-14 2 -23.5 2.5t-10.5 0.5h-11h-8l-66 -3q-28 48 -50 84t-47.5 75.5t-59 88.5t-83.5 122l3 11h44q39 0 72.5 12.5t57.5 34.5t38 52t14 66q0 113 -133 113q-20 0 -37 -1.5t-39 -6.5q-2 -10 -3.5 -16t-3.5 -12
q-3 -14 -6 -26t-3 -14l-85 -487q-4 -23 -4 -35q0 -15 8 -21.5t28 -8.5l49 -3l-3 -28h-26l-97 3h-36.5t-53.5 -2l-42 -1l4 28l41 3q15 1 23.5 4t14.5 12t10 28t10 53l75 434q4 23 6.5 44t2.5 32q0 26 -35 27l-56 2z" />
    <glyph glyph-name="rmacronunderdot" unicode="&#x1e5d;" horiz-adv-x="389" 
d="M370 538h-301l11 51h301zM81 -78q21 0 37 -16t16 -37q0 -22 -16 -38.5t-38 -16.5t-38 16.5t-16 38.5q0 21 16 37t39 16zM354 365q-15 19 -36 19q-33 0 -83 -65q-17 -21 -29.5 -42.5t-22.5 -44.5t-18 -49t-15 -57l-26 -120l-13 -2q-17 -4 -30 -6.5t-24 -6.5l-10 7
q15 48 30 107t26.5 115t19 102t7.5 68t-17 22q-7 0 -17 -4.5t-31 -18.5l-32 -21l-7 20l28 20q56 40 86.5 57t46.5 17q23 0 23 -32q0 -17 -6 -42l-6 -26q-2 -8 -4.5 -19t-5 -23t-5 -23t-3.5 -20l-8 -41q6 13 11.5 24.5t13 24t17.5 27.5t25 36l27 39q53 75 98 75q4 0 8 -1
t12 -5q-6 -31 -10 -56.5t-6 -54.5h-14z" />
    <glyph glyph-name="Sunderdot" unicode="&#x1e62;" horiz-adv-x="556" 
d="M197 -78q21 0 37 -16t16 -37q0 -22 -16 -38.5t-38 -16.5t-38 16.5t-16 38.5q0 21 16 37t39 16zM451 613q-23 24 -49 34.5t-63 10.5q-35 0 -64 -11t-50 -31t-33 -47.5t-12 -60.5q0 -50 23 -78t73 -39l65 -14q76 -17 110 -50t34 -93q0 -51 -23 -96.5t-62.5 -80t-92 -55
t-110.5 -20.5q-81 0 -155 38q8 39 13.5 74.5t10.5 77.5h30v-99q33 -23 64 -33t72 -10q39 0 71 12t55 33t35.5 50.5t12.5 65.5q0 85 -81 105l-95 23q-63 15 -92.5 51.5t-29.5 100.5q0 89 64 150q40 41 93.5 63t108.5 22q35 0 66.5 -8t65.5 -26q-11 -32 -16.5 -63t-8.5 -72
h-30v76z" />
    <glyph glyph-name="sunderdot" unicode="&#x1e63;" horiz-adv-x="389" 
d="M150 -78q21 0 37 -16t16 -37q0 -22 -16 -38.5t-38 -16.5t-38 16.5t-16 38.5q0 21 16 37t39 16zM56 148v-84q41 -35 94 -35q54 0 85.5 30t31.5 79q0 29 -13.5 44t-46.5 21l-63 12q-97 19 -97 101q0 27 8.5 47.5t28.5 40.5q36 36 79 57t82 21q25 0 48 -6.5t52 -20.5
q-8 -38 -12 -62.5t-7 -50.5h-23v55q-12 20 -38 32.5t-57 12.5q-43 0 -72.5 -27t-29.5 -67q0 -31 17 -46t62 -23l43 -8q56 -11 81 -33.5t25 -63.5q0 -38 -17 -67.5t-55 -59.5t-73.5 -44t-72.5 -14q-50 0 -107 27q8 35 13 64.5t9 67.5h25z" />
    <glyph glyph-name="Tunderdot" unicode="&#x1e6c;" horiz-adv-x="611" 
d="M231 -78q21 0 37 -16t16 -37q0 -22 -16 -38.5t-38 -16.5t-38 16.5t-16 38.5q0 21 16 37t39 16zM296 93l-3 -21t-1 -14q0 -16 8 -22.5t28 -7.5l59 -3l-3 -28l-44 1q-29 1 -52 1.5t-37 0.5q-12 0 -33.5 -0.5t-51.5 -1.5l-57 -1l4 28l51 3q15 1 23.5 3.5t14.5 12t10 28.5
t10 53l86 521h-112q-28 0 -52 -4t-29 -9q-11 -12 -18 -45l-15 -60h-29l18 164l95 -1q65 -1 112 -1.5t75 -0.5q26 0 75.5 0.5t115.5 1.5l91 1l-27 -164h-28l4 64q1 8 -0.5 19.5t-3.5 17.5q-2 9 -30 13t-87 4h-73z" />
    <glyph glyph-name="tunderdot" unicode="&#x1e6d;" horiz-adv-x="333" 
d="M96 -78q21 0 37 -16t16 -37q0 -22 -16 -38.5t-38 -16.5t-38 16.5t-16 38.5q0 21 16 37t39 16zM41 390l2 13q14 4 34.5 12.5t53.5 24.5l25 170q23 9 43 18t35 18l11 -15q-7 -20 -12.5 -40t-11 -43.5t-10.5 -51t-11 -62.5q29 0 55 1.5t55 4.5l-11 -50h-107l-13 -62
q-43 -215 -43 -252q0 -20 14 -20q16 0 60 30l45 31l10 -18l-16 -13l-15 -12q-29 -24 -51 -39.5t-39 -25.5t-31 -14t-27 -4q-30 0 -30 40q0 9 1.5 21.5t6.5 33.5q2 9 3 12.5t2 8.5l56 283h-84z" />
    <glyph glyph-name="endash" unicode="&#x2013;" 
d="M500 228h-510l10 50h510l-10 -50v0z" />
    <glyph glyph-name="emdash" unicode="&#x2014;" horiz-adv-x="1000" 
d="M1000 228h-1010l10 50h1010l-10 -50v0z" />
    <glyph glyph-name="quoteleft" unicode="&#x2018;" horiz-adv-x="278" 
d="M78 506q37 71 70 120.5t71 93.5l32 13l7 -9q-35 -55 -54.5 -104.5t-27.5 -106.5q-38 -7 -89 -25z" />
    <glyph glyph-name="quoteright" unicode="&#x2019;" horiz-adv-x="278" 
d="M258 715q-37 -71 -70 -120.5t-71 -93.5l-32 -13l-7 9q35 55 54.5 104.5t27.5 106.5q20 3 42 9.5t47 15.5z" />
    <glyph glyph-name="quotesinglbase" unicode="&#x201a;" horiz-adv-x="278" 
d="M200 120l11 -12q-33 -67 -67.5 -119t-75.5 -99l-32 -12l-9 7q59 82 85 210z" />
    <glyph glyph-name="quotedblleft" unicode="&#x201c;" 
d="M98 506q37 71 70 120.5t71 93.5l32 13l7 -9q-35 -55 -54.5 -104.5t-27.5 -106.5q-38 -7 -89 -25zM295 506q37 71 70 120.5t71 93.5l32 13l7 -9q-35 -55 -54.5 -104.5t-27.5 -106.5q-38 -7 -89 -25z" />
    <glyph glyph-name="quotedblright" unicode="&#x201d;" 
d="M278 715q-37 -71 -70 -120.5t-71 -93.5l-32 -13l-7 9q35 55 54.5 104.5t27.5 106.5q20 3 42 9.5t47 15.5zM475 715q-37 -71 -70 -120.5t-71 -93.5l-32 -13l-7 9q35 55 54.5 104.5t27.5 106.5q20 3 42 9.5t47 15.5z" />
    <glyph glyph-name="quotedblbase" unicode="&#x201e;" 
d="M216 120l11 -12q-33 -67 -67.5 -119t-75.5 -99l-32 -12l-9 7q59 82 85 210zM413 120l11 -12q-33 -67 -67.5 -119t-75.5 -99l-32 -12l-9 7q59 82 85 210z" />
    <glyph glyph-name="dagger" unicode="&#x2020;" 
d="M231 466q5 31 8.5 53t6 45t5 52t6.5 73l2 3q14 -2 22 -2h19h19t22 2l3 -3q-5 -16 -7.5 -27.5t-6 -26.5t-8 -37.5t-12.5 -61.5l-14 -70l169 5l4 -4l-8 -57l-5 -4l-170 6l-10 -68q-5 -33 -9.5 -65t-10 -70t-11.5 -87.5t-15 -116.5l-5 -5q-14 1 -22 1h-20h-20t-22 -1l-3 3
q9 37 20 84t21 93t18 86t11 63l13 83l-169 -5l-4 4l8 57l5 4z" />
    <glyph glyph-name="daggerdbl" unicode="&#x2021;" 
d="M264 484l6 40q10 72 18 163l5 5q13 -2 20.5 -2h17.5h17.5t20.5 2l1 -5q-11 -49 -20.5 -90t-12.5 -57l-3 -16l-8 -38l160 6l8 -8l-6 -50l-9 -5l-162 7l-12 -75q-5 -34 -7 -53.5t-2 -42.5q-9 -19 -15 -40.5t-14 -60.5l-14 -70l160 6l8 -8l-6 -50l-9 -5l-162 7l-12 -68
q-1 -2 -2 -9.5t-2 -19.5t-2.5 -26.5t-2.5 -29.5q0 -13 -3 -43l-8 -10q-14 2 -22 2h-16h-16t-22 -2l-2 10l47 196l-162 -7l-9 5l10 50l11 6l159 -6l13 75q6 35 8.5 55.5t2.5 46.5q4 9 7.5 17t6.5 20t7 29.5t9 44.5l11 56l-162 -7l-9 5l10 50l11 6z" />
    <glyph glyph-name="bullet" unicode="&#x2022;" 
d="M258 526q35 0 66.5 -13.5t55 -37t37 -55t13.5 -66.5t-13.5 -66.5t-37 -55t-55 -37t-66.5 -13.5q-36 0 -67 13.5t-54.5 37t-37 55t-13.5 67.5q0 35 14 66t37.5 54.5t54.5 37t66 13.5z" />
    <glyph glyph-name="ellipsis" unicode="&#x2026;" horiz-adv-x="1000" 
d="M162 112q19 0 32 -14t13 -34q0 -28 -18 -48.5t-43 -20.5q-20 0 -32 12.5t-12 34.5q0 29 17.5 49.5t42.5 20.5zM495 112q19 0 32 -14t13 -34q0 -28 -18 -48.5t-43 -20.5q-20 0 -32 12.5t-12 34.5q0 29 17.5 49.5t42.5 20.5zM828 112q19 0 32 -14t13 -34q0 -28 -18 -48.5
t-43 -20.5q-20 0 -32 12.5t-12 34.5q0 29 17.5 49.5t42.5 20.5z" />
    <glyph glyph-name="perthousand" unicode="&#x2030;" horiz-adv-x="1000" 
d="M231 699q52 0 84 -34.5t32 -91.5q0 -36 -13 -68t-34.5 -55.5t-51 -37.5t-62.5 -14q-52 0 -83 35.5t-31 96.5q0 34 12.5 64.5t34.5 54t51 37t61 13.5zM230 676q-37 0 -61 -43q-14 -26 -23.5 -67.5t-9.5 -80.5q0 -64 52 -64q38 0 62 43q14 26 23.5 67.5t9.5 81.5
q0 63 -53 63zM490 301q52 0 84 -34.5t32 -91.5q0 -36 -13 -68t-34.5 -55.5t-51 -37.5t-62.5 -14q-52 0 -83 35.5t-31 96.5q0 34 12.5 64.5t34.5 54t51 37t61 13.5zM489 278q-37 0 -61 -43q-14 -26 -23.5 -67.5t-9.5 -80.5q0 -64 52 -64q38 0 62 43q14 26 23.5 67.5t9.5 81.5
q0 63 -53 63zM813 301q52 0 84 -34.5t32 -91.5q0 -36 -13 -68t-34.5 -55.5t-51 -37.5t-62.5 -14q-52 0 -83 36t-31 96q0 34 12.5 64.5t34.5 54t51 37t61 13.5zM812 278q-37 0 -61 -43q-14 -26 -23.5 -67.5t-9.5 -80.5q0 -64 52 -64q38 0 62 43q14 26 23.5 67.5t9.5 81.5
q0 63 -53 63zM550 717h41l-452 -723h-45z" />
    <glyph glyph-name="guilsinglleft" unicode="&#x2039;" horiz-adv-x="333" 
d="M208 70l-151 181v16l194 173l19 -16l-137 -168l95 -171l-20 -15v0z" />
    <glyph glyph-name="guilsinglright" unicode="&#x203a;" horiz-adv-x="333" 
d="M125 440l151 -181v-16l-194 -173l-19 16l137 168l-95 171l20 15v0z" />
    <glyph glyph-name="Euro" unicode="&#x20ac;" 
d="M486 63l-4 -29q-79 -55 -163 -55q-61 0 -109 28.5t-75 80.5q-17 33 -25 72t-8 91l-60 -2l16 45l46 -1q2 20 4 35t5 28l-54 -2l16 44l47 -2q20 69 46 119.5t64 89.5q50 51 108 77.5t120 26.5q74 0 155 -41q-9 -24 -16 -44t-12.5 -37.5t-9.5 -34.5t-7 -36h-31l12 72
q1 3 1 7q0 13 -9.5 26t-24.5 23.5t-34 16.5t-39 6q-37 0 -71 -20t-63 -56t-50.5 -86.5t-33.5 -110.5h34l199 6l-12 -47q-45 2 -82 2.5t-52 1.5q-21 1 -33 1h-23h-22h-16q-3 -18 -4.5 -34.5t-2.5 -33.5h16l183 6l-12 -48q-61 2 -94 3t-50 1.5t-23 0.5h-13h-5h-4
q1 -34 5 -58.5t12 -48.5q18 -54 55.5 -83.5t87.5 -29.5q26 0 51.5 8t54.5 27l3 2z" />
    <glyph glyph-name="trademark" unicode="&#x2122;" horiz-adv-x="1000" 
d="M804 305q25 0 32.5 8.5t7.5 37.5v303l-152 -369h-8l-153 366v-313q0 -18 8.5 -24t39.5 -9v-20h-121v20q30 3 39 9t9 24v296q0 22 -5.5 29.5t-20.5 7.5h-14v18h109l129 -308l132 308h112v-18h-21q-27 0 -27 -20v-300q0 -29 7.5 -37.5t32.5 -8.5h11v-20h-158v20h11z
M136 305q19 0 30 1.5t17 5.5t8 11.5t2 20.5v321h-41q-23 0 -37.5 -3t-23.5 -11t-12.5 -22t-3.5 -36h-23v96h338v-96h-23q-1 22 -4.5 36t-12 22t-23 11t-37.5 3h-41v-323q0 -14 2 -20t9 -11q8 -3 18 -4.5t27 -1.5h7v-20h-182v20h6z" />
    <glyph glyph-name="minus" unicode="&#x2212;" horiz-adv-x="606" 
d="M555 224h-504v56h504v-56v0z" />
    <glyph glyph-name="Mcandrabindu" unicode="&#xf140;" horiz-adv-x="944" 
d="M433 821q9 -100 109 -100q22 0 40.5 5.5t34.5 17.5t30.5 31t28.5 46h29q-5 -20 -10 -34t-10 -25.5t-11 -21t-14 -19.5q-47 -59 -125 -59q-79 0 -111 58q-11 20 -15.5 41.5t-4.5 59.5h29zM547 895q21 0 37 -16t16 -37q0 -22 -16 -38.5t-38 -16.5t-38 16.5t-16 38.5
q0 21 16 37t39 16zM899 662q-43 -3 -46 -31l-41 -531l-1 -37q0 -31 54 -35l37 -3l-3 -28l-46 1q-31 1 -53 1.5t-34 0.5q-11 0 -33 -0.5t-54 -1.5l-47 -1l3 28l31 3q38 3 51 10.5t16 28.5l37 520l-52 -87q-25 -42 -54.5 -92t-61 -104t-63 -109.5t-60.5 -108.5l-57 -104h-23
l-149 578l-124 -464q-7 -25 -7 -41q0 -24 49 -27l38 -3l-3 -28l-35 1q-26 1 -45 1.5t-30 0.5t-29 -0.5t-44 -1.5l-39 -1l3 26q21 2 34.5 6t23 11.5t16 20t12.5 32.5l145 509q3 10 3 20q0 20 -15.5 28.5t-54.5 11.5l-26 2l3 28l59 -3h24h22.5t33.5 2l28 1l150 -578l246 422
q17 30 33 58.5t36 66.5l16 31l59 -3h24h22.5t33.5 2l28 1l-3 -28z" />
    <glyph glyph-name="mcandrabindu" unicode="&#xf141;" horiz-adv-x="778" 
d="M334 693q9 -100 109 -100q22 0 40.5 5.5t34.5 17.5t30.5 31t28.5 46h29q-5 -20 -10 -34t-10 -25.5t-11 -21t-14 -19.5q-47 -59 -125 -59q-79 0 -111 58q-11 20 -15.5 41.5t-4.5 59.5h29zM448 767q21 0 37 -16t16 -37q0 -22 -16 -38.5t-38 -16.5t-38 16.5t-16 38.5
q0 21 16 37t39 16zM740 85q-37 -27 -63 -45.5t-44 -29t-30.5 -15t-22.5 -4.5q-30 0 -30 40q0 17 3 36t10 40q8 26 19.5 67.5t23.5 89.5q8 33 13 53t7.5 33t3.5 21.5t1 17.5q0 25 -13 25q-24 0 -59.5 -25t-77.5 -71q-33 -37 -57.5 -90.5t-36.5 -114.5l-21 -107l-69 -15l-5 11
l16 67q31 132 47 215t16 109q0 21 -11 21q-21 0 -52 -20.5t-63 -55.5q-21 -23 -36.5 -46t-28 -50t-22.5 -59.5t-19 -74.5l-22 -102l-68 -15l-3 11q15 54 30 114t26.5 114t18.5 97t7 62q0 25 -18 25q-3 0 -5.5 -0.5t-7 -3t-12.5 -7.5t-22 -14l-32 -21l-7 20l28 20
q56 40 86.5 57t46.5 17q23 0 23 -31q0 -19 -6 -43l-33 -133q24 33 41 54.5t31 37t27 27t30 24.5q84 64 131 64q26 0 26 -31q0 -5 -2 -16t-5 -26l-30 -137q18 26 34.5 46t33.5 37.5t36 33t43 32.5q46 32 76 46.5t52 14.5q26 0 26 -28q0 -6 -2 -17t-5 -24l-75 -297
q-4 -16 -5.5 -24t-1.5 -16t4 -14t9 -6q8 0 23.5 8t37.5 22l26 17z" />
    <glyph glyph-name="Lmacronunder" unicode="&#x1e3a;" horiz-adv-x="556" 
d="M447 -126h-411l11 51h411zM307 661q-14 -1 -22.5 -3.5t-14 -7.5t-8.5 -14t-6 -23l-92 -532q-1 -7 -1.5 -13.5t-0.5 -17.5v-4q25 -2 43.5 -3.5t34 -2.5t31 -1h33.5q25 0 49 1t43.5 2.5t33 3t18.5 3.5q14 8 27 54l17 62h31q-5 -23 -9.5 -48.5t-7.5 -48t-4.5 -41t-1.5 -27.5
l-33 -1q-25 -1 -43 -1.5t-29 -0.5h-10l-215 3h-22t-30.5 -0.5t-32.5 -1t-28 -0.5l-41 -1l5 26q33 5 45 11.5t15 20.5l86 504q4 23 6.5 44t2.5 32q0 26 -35 27l-47 2l3 28l64 -2q32 -1 48.5 -1h28.5l90 3h24l-3 -28z" />
    <glyph glyph-name="lmacronunder" unicode="&#x1e3b;" horiz-adv-x="278" 
d="M203 -126h-198l11 51h198zM122 113l-2 -9q-4 -20 -4 -28t4 -14t9 -6q8 0 23.5 8t37.5 22l26 17l10 -18q-37 -27 -63 -45.5t-44 -29t-30.5 -15t-22.5 -4.5q-30 0 -30 40q0 16 4.5 39.5t14.5 61.5l14 52q4 12 11 44t15.5 73.5t18 88.5t17 89t13 74.5t7.5 46.5l3 22
q2 14 2.5 19t0.5 7q0 22 -34 22h-48l4 21q27 3 48 6t39.5 8t35.5 11.5t37 16.5l12 -11z" />
    <glyph glyph-name="quotedbl" unicode="&#x22;" 
d="M140 508l62 187q12 38 45 38q17 0 29 -11t12 -28q0 -21 -9 -33l-109 -153h-30zM307 508l62 187q12 38 45 38q17 0 29 -11t12 -28q0 -21 -9 -33l-109 -153h-30z" />
    <glyph glyph-name="exclam" unicode="!" horiz-adv-x="333" 
d="M136 109q19 0 32 -14t13 -34q0 -28 -18 -48.5t-43 -20.5q-20 0 -32 12.5t-12 34.5q0 29 17.5 49.5t42.5 20.5zM281 733l11 -9q-12 -45 -21.5 -82t-18 -71t-16.5 -69.5t-18 -77.5t-22 -94.5t-27 -121.5l-30 -17l-6 3l21 154q3 25 8 62.5t10 78t9.5 79.5t7.5 68l7 71z" />
    <glyph glyph-name="KHmacronunder" unicode="&#xf146;" horiz-adv-x="1386" 
d="M1179 -126h-1085l11 51h1085zM776 690q32 -1 48.5 -1h28.5l90 3h24l-3 -28l-42 -3q-14 -1 -22.5 -3t-14 -7.5t-8.5 -14t-6 -23.5l-42 -228h370l30 174q4 23 6.5 44t2.5 32q0 26 -35 27l-48 2l3 28l63 -2q33 -1 51 -1h29l91 3h16l-3 -28l-36 -3q-14 -2 -23 -4t-14 -7
t-8 -13.5t-6 -23.5l-92 -520q-4 -23 -4 -35q0 -16 8 -22.5t28 -7.5l58 -3l-3 -28l-42 1q-32 1 -55 1.5t-35 0.5q-8 0 -30 -0.5t-55 -1.5l-56 -1l4 28l50 3q31 3 37 14q7 9 21 83l40 215l-61 1q-48 1 -78.5 1.5t-44.5 0.5t-45 -0.5t-78 -1.5l-61 -1l-42 -247l-3 -21t-1 -14
q0 -16 8 -22t28 -8l49 -3l-3 -28h-26l-97 3q-14 0 -34 -0.5t-56 0.5h-13h-56l-69 -3q-39 54 -66.5 90t-55.5 71t-64 76.5t-92 105.5l-43 -262q-1 -3 -1.5 -9.5t-0.5 -11.5q0 -15 8 -21t28 -8l49 -3l-3 -28h-26l-97 3q-14 0 -34 -0.5t-56 -1.5l-42 -1l4 28l41 3
q15 1 23.5 3.5t14 12t10 28t10.5 53.5l73 434q5 25 7 45t2 31q0 26 -35 27l-47 2l3 28l64 -2q32 -1 48.5 -1h28.5l90 3h24l-3 -28l-42 -3q-14 -1 -22.5 -3.5t-14 -7.5t-8.5 -14t-6 -23l-45 -260q48 38 82 67.5t67 63.5l128 130q21 21 29.5 32t8.5 17v29l20 -1
q16 -1 27.5 -1.5t19.5 -0.5q6 0 17.5 0.5t28.5 0.5h42h73zM662 664q-13 1 -27.5 -6t-26.5 -18l-292 -273l246 -302q31 -38 64 -38l6 1h18q15 1 23.5 3.5t14 12t10 28t10.5 53.5l74 434q4 23 6.5 44t2.5 32q0 25 -35 29h-57h-37z" />
    <glyph glyph-name="Khmacronunder" unicode="&#xf147;" horiz-adv-x="1131" 
d="M961 -126h-861l11 51h861zM661 669q-17 -3 -29.5 -10.5t-23.5 -18.5l-292 -273l246 -302q31 -38 64 -38h21h16q8 30 17.5 71t20 89t21.5 99.5t20 101.5l42 234q1 5 1.5 11.5t0.5 12.5q0 24 -34 23h-48h-43zM708 691q27 3 48 6t39.5 8t35.5 11.5t37 16.5l12 -11l-98 -457
l20 25q17 22 29.5 37.5t23.5 27t21.5 21t23.5 20.5q48 40 90 63t68 23q14 0 21.5 -9.5t7.5 -26.5q0 -13 -3 -33.5t-8 -40.5l-64 -256q-5 -17 -6 -24.5t-1 -15.5t4 -14t9 -6q8 0 23.5 8t37.5 22l26 17l10 -18q-37 -27 -63 -45.5t-44 -29t-30.5 -15t-22.5 -4.5q-14 0 -22 10.5
t-8 28.5q0 14 3 32t10 45l51 196q6 25 10.5 50t4.5 39q0 22 -22 22q-16 0 -41.5 -16.5t-53 -42t-53.5 -57.5t-42 -62q-11 -20 -19.5 -42t-16 -49t-14 -61t-12.5 -77l-63 -8h-11h-10h-16.5h-13.5t-16 0.5t-22 0.5l-69 -3q-39 54 -66.5 90t-55.5 71t-64 76.5t-92 105.5
l-43 -262q-1 -3 -1.5 -9.5t-0.5 -11.5q0 -15 8 -21t28 -8l49 -3l-3 -28h-26l-97 3q-14 0 -34 -0.5t-56 -1.5l-42 -1l4 28l41 3q15 1 23.5 3.5t14 12t10 28t10.5 53.5l73 434q5 25 7 45t2 31q0 26 -35 27l-47 2l3 28l64 -2q32 -1 48.5 -1h28.5l90 3h24l-3 -28l-42 -3
q-14 -1 -22.5 -3.5t-14 -7.5t-8.5 -14t-6 -23l-45 -260q48 38 82 67.5t67 63.5l128 130q21 21 29.5 32t8.5 17v29l20 -1q16 -1 27.5 -1.5t19.5 -0.5q6 0 17.5 0.5t27.5 1.5h48v0z" />
    <glyph glyph-name="khmacronunder" unicode="&#xf148;" horiz-adv-x="897" 
d="M729 -126h-701l11 51h701zM381 35q-33 -23 -52 -33.5t-29 -10.5q-9 0 -20.5 13.5t-26 45t-34 83t-45.5 126.5q-26 -26 -43 -58.5t-24 -68.5l-23 -124l-67 -17l-9 10q19 78 32.5 132.5t22.5 94t15.5 69t11.5 57.5l48 268q1 5 1.5 11.5t0.5 12.5q0 24 -34 24h-48l4 21
q27 3 48 6t39.5 8t35.5 11.5t37 16.5l12 -11l-107 -492q94 131 159 191.5t115 60.5q9 0 21.5 -2t26.5 -7l-17 -63q-26 6 -36 6q-38 0 -74.5 -20t-82.5 -66l-14 -14q15 -46 26.5 -80.5t23 -62t22.5 -51t24 -47.5q7 -13 12.5 -18t13.5 -5q6 0 12 2t17 8l67 39q15 60 31 136
t30 151l42 234q1 5 1.5 11.5t0.5 12.5q0 24 -34 24h-48l4 21q27 3 48 6t39.5 8t35.5 11.5t37 16.5l12 -11l-98 -457l20 25q17 22 29.5 37.5t23.5 27t21.5 21t23.5 20.5q48 40 90 63t68 23q14 0 21.5 -9.5t7.5 -26.5q0 -13 -3 -33.5t-8 -40.5l-64 -256q-5 -17 -6 -24.5
t-1 -15.5t4 -14t9 -6q8 0 23.5 8t37.5 22l26 17l10 -18q-37 -27 -63 -45.5t-44 -29t-30.5 -15t-22.5 -4.5q-14 0 -22 10.5t-8 28.5q0 14 3 32t10 45l51 196q6 25 10.5 50t4.5 39q0 22 -22 22q-16 0 -41.5 -16.5t-53 -42t-53.5 -57.5t-42 -62q-11 -20 -19.5 -42t-16 -49
t-14 -61t-12.5 -77l-69 -16l-7 11q5 13 9.5 30.5t10.5 40.5z" />
    <glyph glyph-name="Rbreve" unicode="&#xf156;" horiz-adv-x="667" 
d="M266 907q9 -100 109 -100q22 0 40.5 5.5t34.5 17.5t30.5 31t28.5 46h29q-5 -20 -10 -34t-10 -25.5t-11 -21t-14 -19.5q-47 -59 -125 -59q-79 0 -111 58q-11 20 -15.5 41.5t-4.5 59.5h29zM108 692q44 -1 71 -1.5t43 -1t23.5 -0.5h13.5l150 3q84 2 129.5 -32.5t45.5 -99.5
q0 -94 -89 -158q-27 -20 -53 -30.5t-67 -17.5l184 -275q11 -16 19 -25.5t16.5 -15.5t19 -9t25.5 -5v-27h-13q-14 2 -23.5 2.5t-10.5 0.5h-11h-8l-66 -3q-28 48 -50 84t-47.5 75.5t-59 88.5t-83.5 122l3 11h44q39 0 72.5 12.5t57.5 34.5t38 52t14 66q0 113 -133 113
q-20 0 -37 -1.5t-39 -6.5q-2 -10 -3.5 -16t-3.5 -12q-3 -14 -6 -26t-3 -14l-85 -487q-4 -23 -4 -35q0 -15 8 -21.5t28 -8.5l49 -3l-3 -28h-26l-97 3h-36.5t-53.5 -2l-42 -1l4 28l41 3q15 1 23.5 4t14.5 12t10 28t10 53l75 434q4 23 6.5 44t2.5 32q0 26 -35 27l-56 2z" />
    <glyph glyph-name="rbreve" unicode="&#xf157;" horiz-adv-x="389" 
d="M158 677q9 -100 109 -100q22 0 40.5 5.5t34.5 17.5t30.5 31t28.5 46h29q-5 -20 -10 -34t-10 -25.5t-11 -21t-14 -19.5q-47 -59 -125 -59q-79 0 -111 58q-11 20 -15.5 41.5t-4.5 59.5h29zM354 365q-15 19 -36 19q-33 0 -83 -65q-17 -21 -29.5 -42.5t-22.5 -44.5t-18 -49
t-15 -57l-26 -120l-13 -2q-17 -4 -30 -6.5t-24 -6.5l-10 7q15 48 30 107t26.5 115t19 102t7.5 68t-17 22q-7 0 -17 -4.5t-31 -18.5l-32 -21l-7 20l28 20q56 40 86.5 57t46.5 17q23 0 23 -32q0 -17 -6 -42l-6 -26q-2 -8 -4.5 -19t-5 -23t-5 -23t-3.5 -20l-8 -41
q6 13 11.5 24.5t13 24t17.5 27.5t25 36l27 39q53 75 98 75q4 0 8 -1t12 -5q-6 -31 -10 -56.5t-6 -54.5h-14z" />
    <glyph glyph-name="Lmacronunderdot" unicode="&#x1e38;" horiz-adv-x="556" 
d="M88 -78q21 0 37 -16t16 -37q0 -22 -16 -38.5t-38 -16.5t-38 16.5t-16 38.5q0 21 16 37t39 16zM380 748h-301l11 51h301zM307 661q-14 -1 -22.5 -3.5t-14 -7.5t-8.5 -14t-6 -23l-92 -532q-1 -7 -1.5 -13.5t-0.5 -17.5v-4q25 -2 43.5 -3.5t34 -2.5t31 -1h33.5q25 0 49 1
t43.5 2.5t33 3t18.5 3.5q14 8 27 54l17 62h31q-5 -23 -9.5 -48.5t-7.5 -48t-4.5 -41t-1.5 -27.5l-33 -1q-25 -1 -43 -1.5t-29 -0.5h-10l-215 3h-22t-30.5 -0.5t-32.5 -1t-28 -0.5l-41 -1l5 26q33 5 45 11.5t15 20.5l86 504q4 23 6.5 44t2.5 32q0 26 -35 27l-47 2l3 28l64 -2
q32 -1 48.5 -1h28.5l90 3h24l-3 -28z" />
    <glyph glyph-name="lmacronunderdot" unicode="&#x1e39;" horiz-adv-x="278" 
d="M68 -78q21 0 37 -16t16 -37q0 -22 -16 -38.5t-38 -16.5t-38 16.5t-16 38.5q0 21 16 37t39 16zM296 774h-231l11 51h231zM122 113l-2 -9q-4 -20 -4 -28t4 -14t9 -6q8 0 23.5 8t37.5 22l26 17l10 -18q-37 -27 -63 -45.5t-44 -29t-30.5 -15t-22.5 -4.5q-30 0 -30 40
q0 16 4.5 39.5t14.5 61.5l14 52q4 12 11 44t15.5 73.5t18 88.5t17 89t13 74.5t7.5 46.5l3 22q2 14 2.5 19t0.5 7q0 22 -34 22h-48l4 21q27 3 48 6t39.5 8t35.5 11.5t37 16.5l12 -11z" />
    <glyph glyph-name="Gdotaccent" unicode="&#x120;" horiz-adv-x="722" 
d="M471 855q21 0 37 -16t16 -37q0 -22 -16 -38.5t-38 -16.5t-38 16.5t-16 38.5q0 21 16 37t39 16zM546 153q7 34 7 59q0 9 -2.5 14.5t-11.5 9t-25.5 5t-44.5 3.5l-34 2l5 28q32 -3 61.5 -4t67.5 -1t67 1t58 4l-2 -28l-32 -6q-10 -2 -17.5 -8t-9.5 -13l-23 -135q-1 -4 -1 -11
q0 -8 3 -29l-4 -7q-10 -2 -23 -5t-33 -10l-30 -10q-46 -16 -86 -23t-81 -7q-148 0 -226.5 75.5t-78.5 216.5q0 113 45.5 204t133.5 154q54 38 111 56t126 18q26 0 50 -2t49 -7t52 -13t58 -19q-11 -35 -17 -69t-10 -77h-27v84q-42 27 -85.5 38.5t-101.5 11.5q-124 0 -197 -74
q-48 -48 -73.5 -121t-25.5 -161q0 -134 63.5 -202t188.5 -68q41 0 72.5 7.5t65.5 25.5z" />
    <glyph glyph-name="gdotaccent" unicode="&#x121;" 
d="M278 645q21 0 37 -16t16 -37q0 -22 -16 -38.5t-38 -16.5t-38 16.5t-16 38.5q0 21 16 37t39 16zM406 375q2 -11 2.5 -18.5t0.5 -14.5q0 -33 -12.5 -64.5t-35 -58t-53.5 -45.5t-68 -28q-2 -2 -3 -3.5l-3 -4.5q-21 -27 -21 -38q0 -14 10.5 -29.5t36.5 -35.5l60 -49
q64 -52 64 -107q0 -31 -19.5 -59t-53 -49.5t-77.5 -34t-92 -12.5q-82 0 -130.5 31.5t-48.5 85.5q0 30 13.5 58t39.5 49q14 12 27.5 21t30 17t37 16t49.5 17q-21 18 -21 33q0 11 7.5 23.5t19.5 23.5l41 38q-8 -1 -16 -1h-14q-58 0 -90 32.5t-32 90.5q0 107 85 171
q33 25 68.5 38.5t66.5 13.5q33 0 67 -13q19 -8 29 -16.5t22 -28.5q20 0 34.5 0.5t26 1.5t21 2.5t20.5 4.5l3 -6l-9 -45q-17 -2 -27 -3t-23 -1h-14t-20 2zM176 1q-38 -11 -59 -20.5t-40 -25.5q-50 -42 -50 -100q0 -46 38.5 -74.5t100.5 -28.5q31 0 58.5 7.5t48.5 20t33 29.5
t12 37q0 25 -15 47t-50 49zM250 448q-27 0 -50 -11.5t-39.5 -32.5t-25.5 -50.5t-9 -65.5q0 -120 93 -120q53 0 85.5 47.5t32.5 125.5q0 107 -87 107z" />
    <glyph glyph-name="A.001" horiz-adv-x="722" 
d="M508 705l87 -625q3 -17 5.5 -26t8 -14t15 -7t27.5 -5l26 -3v-28q-38 1 -59 1.5t-32.5 1t-17.5 0.5h-13h-13.5t-17 -0.5t-32.5 -1t-59 -1.5v28l44 3q43 3 43 27q0 3 -0.5 9.5t-1.5 12.5q-2 10 -2 9v3l-25 188h-246l-102 -175q-14 -25 -20 -37t-6 -18q0 -7 9.5 -12.5
t21.5 -6.5l52 -3v-28q-32 1 -50 1.5t-28.5 1t-16 0.5h-12.5h-13.5t-16 -0.5t-29.5 -1t-53 -1.5v30l20 5q13 3 23 8t20 14t20.5 23t24.5 35l373 593h46zM270 313h216l-37 288z" />
    <glyph glyph-name="Abreve" unicode="&#x102;" horiz-adv-x="722" 
d="M508 705l87 -625q3 -17 5.5 -26t8 -14t15 -7t27.5 -5l26 -3v-28q-38 1 -59 1.5t-32.5 1t-17.5 0.5h-13h-13.5t-17 -0.5t-32.5 -1t-59 -1.5v28l44 3q43 3 43 27q0 3 -0.5 9.5t-1.5 12.5q-2 10 -2 9v3l-25 188h-246l-102 -175q-14 -25 -20 -37t-6 -18q0 -7 9.5 -12.5
t21.5 -6.5l52 -3v-28q-32 1 -50 1.5t-28.5 1t-16 0.5h-12.5h-13.5t-16 -0.5t-29.5 -1t-53 -1.5v30l20 5q13 3 23 8t20 14t20.5 23t24.5 35l373 593h46zM270 313h216l-37 288zM386 887q9 -100 109 -100q22 0 40.5 5.5t34.5 17.5t30.5 31t28.5 46h29q-5 -20 -10 -34t-10 -25.5
t-11 -21t-14 -19.5q-47 -59 -125 -59q-79 0 -111 58q-11 20 -15.5 41.5t-4.5 59.5h29z" />
    <glyph glyph-name="abreve" unicode="&#x103;" horiz-adv-x="444" 
d="M310 93q-1 -3 -1 -11q0 -23 15 -23q11 0 24.5 8t37.5 28q3 3 5.5 5l7.5 6l7 -21q-62 -51 -95.5 -72.5t-50.5 -21.5q-24 0 -24 35q0 25 6 51l29 127q-41 -57 -72 -93.5t-63 -65.5q-29 -26 -55 -41t-43 -15q-14 0 -24 22.5t-10 55.5q0 29 5.5 65t15.5 74.5t23.5 76.5
t30.5 71q19 37 46 62t74 48q20 10 37 14t38 4q20 0 37 -4t48 -15l33 18l10 -9zM319 414q-33 11 -50.5 15t-34.5 4q-36 0 -56.5 -15.5t-38.5 -57.5q-13 -30 -24.5 -65.5t-20 -71t-13.5 -68t-5 -56.5q0 -40 18 -40q12 0 29 10.5t36.5 29t41.5 44.5t43 58q13 19 23 39.5
t19 45.5t17 56t16 72zM177 677q9 -100 109 -100q22 0 40.5 5.5t34.5 17.5t30.5 31t28.5 46h29q-5 -20 -10 -34t-10 -25.5t-11 -21t-14 -19.5q-47 -59 -125 -59q-79 0 -111 58q-11 20 -15.5 41.5t-4.5 59.5h29z" />
    <glyph glyph-name="Ebreve" unicode="&#x114;" horiz-adv-x="611" 
d="M256 907q9 -100 109 -100q22 0 40.5 5.5t34.5 17.5t30.5 31t28.5 46h29q-5 -20 -10 -34t-10 -25.5t-11 -21t-14 -19.5q-47 -59 -125 -59q-79 0 -111 58q-11 20 -15.5 41.5t-4.5 59.5h29zM178 81q-1 -7 -1.5 -13.5t-0.5 -17.5v-4q26 -2 44 -3.5t32.5 -2.5t27.5 -1h28
q20 0 43 1t43.5 2t36.5 2.5t24 3.5q17 4 25 15t16 38l16 60h27l-5 -26q-7 -37 -10.5 -60.5t-5.5 -38.5l-4 -36l-33 -1q-25 -1 -43 -1.5t-29 -0.5h-10l-215 3h-22t-30.5 -0.5t-32.5 -1t-28 -0.5l-41 -1l5 26q33 5 45 11.5t15 20.5l87 504q4 23 6.5 44t2.5 32q0 26 -35 27
l-54 2l3 28l45 -1q38 -2 62.5 -2h52.5h15.5h24t24 0.5t14.5 0.5l120 1q18 1 27 1h11q14 0 33.5 -0.5t35.5 -2.5q-17 -57 -21 -152h-24l-8 89q-1 11 -29 17.5t-75 6.5q-17 0 -39.5 -0.5t-46.5 -1.5l-47 -2q-5 -10 -9 -32l-42 -238h37q29 0 55.5 0.5l53 1t53.5 1.5t57 3l4 -7
l-19 -45l-26 1q-36 2 -61 2.5t-45 0.5h-117z" />
    <glyph glyph-name="ebreve" unicode="&#x115;" horiz-adv-x="389" 
d="M157 677q9 -100 109 -100q22 0 40.5 5.5t34.5 17.5t30.5 31t28.5 46h29q-5 -20 -10 -34t-10 -25.5t-11 -21t-14 -19.5q-47 -59 -125 -59q-79 0 -111 58q-11 20 -15.5 41.5t-4.5 59.5h29zM336 92q-35 -28 -63 -47.5t-52.5 -32t-46.5 -18t-43 -5.5q-54 0 -85 32.5t-31 91.5
q0 25 5 58t13.5 66.5t19.5 63t22 48.5q15 24 41 48t56.5 42.5t62 30.5t55.5 12q38 0 61 -21.5t23 -56.5q0 -47 -30 -82t-94 -63q-19 -8 -37.5 -15t-31.5 -10l-82 -20q-8 -46 -8 -81q0 -45 20.5 -71t55.5 -26q56 0 137 58l24 17zM104 237q34 8 61 16t48 19q39 19 63 51t24 65
q0 24 -13 38t-35 14q-18 0 -38.5 -8t-34.5 -20q-22 -20 -37.5 -53t-28.5 -85z" />
    <glyph glyph-name="Obreve" unicode="&#x14e;" horiz-adv-x="778" 
d="M362 907q9 -100 109 -100q22 0 40.5 5.5t34.5 17.5t30.5 31t28.5 46h29q-5 -20 -10 -34t-10 -25.5t-11 -21t-14 -19.5q-47 -59 -125 -59q-79 0 -111 58q-11 20 -15.5 41.5t-4.5 59.5h29zM464 706q136 0 210 -73.5t74 -207.5q0 -59 -14 -115.5t-40.5 -106t-64.5 -91
t-85 -70.5q-49 -31 -103 -45.5t-118 -14.5q-133 0 -201.5 73.5t-68.5 216.5q0 94 31 173.5t85.5 137.5t130 90.5t164.5 32.5zM433 664q-113 0 -183 -71q-52 -52 -80.5 -135t-28.5 -181q0 -126 55 -189.5t164 -63.5q118 0 192 76q51 53 79.5 133.5t28.5 175.5q0 166 -97 223
q-25 15 -59.5 23.5t-70.5 8.5z" />
    <glyph glyph-name="obreve" unicode="&#x14f;" horiz-adv-x="444" 
d="M177 677q9 -100 109 -100q22 0 40.5 5.5t34.5 17.5t30.5 31t28.5 46h29q-5 -20 -10 -34t-10 -25.5t-11 -21t-14 -19.5q-47 -59 -125 -59q-79 0 -111 58q-11 20 -15.5 41.5t-4.5 59.5h29zM278 482q63 0 98 -40t35 -111q0 -38 -8 -77t-22 -75.5t-33.5 -68t-42.5 -53.5
q-34 -32 -76 -50t-84 -18q-63 0 -95.5 41.5t-32.5 121.5q0 92 32.5 164.5t93.5 116.5q69 49 135 49zM241 444q-18 0 -34 -4.5t-26 -12.5q-18 -15 -34 -44t-28 -66.5t-19 -80.5t-7 -85q0 -60 24 -92t68 -32q47 0 75 33q16 20 30 49t24 62.5t15.5 70.5t5.5 73q0 63 -24 96
t-70 33z" />
    <glyph glyph-name="Nmacronunder" unicode="&#x1e48;" horiz-adv-x="778" 
d="M580 -126h-515l11 51h515zM582 103l80 489q2 10 3.5 25.5t1.5 20.5q0 12 -8 17.5t-28 6.5l-47 2l5 28h19l86 -3l89 3h21l-5 -28l-37 -2q-14 -1 -22 -4t-14 -14.5t-11 -35.5t-13 -66l-94 -553h-50l-338 577l-80 -464q-3 -17 -3 -30q0 -25 9.5 -33.5t39.5 -10.5l42 -3
l-5 -28q-36 1 -56 1.5t-30.5 1t-15 0.5h-8.5l-111 -3l5 28l31 3q13 1 21.5 4.5t14.5 11t9.5 21.5t8.5 37l88 474q1 4 3 18q1 2 1 5q1 3 1 7q0 6 -9.5 18t-20.5 21q-8 7 -22.5 11.5t-27.5 5.5l-35 2l5 28l16 -1q17 -1 28 -1.5t13 -0.5h14h10l81 3z" />
    <glyph glyph-name="nmacronunder" unicode="&#x1e49;" horiz-adv-x="556" 
d="M395 -126h-361l11 51h361zM52 408q55 39 86 56.5t47 17.5q23 0 23 -33q0 -14 -6 -41l-38 -161q19 27 35 48t29.5 37.5t26.5 30t27 26.5q45 42 91.5 67.5t78.5 25.5q31 0 31 -36q0 -28 -11 -74l-66 -276q-1 -3 -1.5 -9.5t-0.5 -10.5q0 -8 4 -14t9 -6q8 0 23.5 8t37.5 22
l26 17l10 -18q-37 -27 -63 -45.5t-44 -29t-30.5 -15t-22.5 -4.5q-30 0 -30 40q0 23 13 76l52 212q6 24 8.5 40.5t2.5 30.5q0 24 -17 24t-38.5 -11t-45 -30.5t-47 -46.5t-43.5 -58q-17 -26 -30 -52t-23 -56.5t-18 -67.5t-15 -84q-17 -3 -34 -7.5t-36 -9.5l-7 11q15 54 30 114
t26.5 114t18.5 97t7 62q0 25 -18 25q-3 0 -5.5 -0.5t-7 -3t-12.5 -7.5t-22 -14l-32 -21l-7 20z" />
    <glyph glyph-name="Rmacronunder" unicode="&#x1e5e;" horiz-adv-x="667" 
d="M576 -126h-492l11 51h492zM108 692q44 -1 71 -1.5t43 -1t23.5 -0.5h13.5l150 3q84 2 129.5 -32.5t45.5 -99.5q0 -94 -89 -158q-27 -20 -53 -30.5t-67 -17.5l184 -275q11 -16 19 -25.5t16.5 -15.5t19 -9t25.5 -5v-27h-13q-14 2 -23.5 2.5t-10.5 0.5h-11h-8l-66 -3
q-28 48 -50 84t-47.5 75.5t-59 88.5t-83.5 122l3 11h44q39 0 72.5 12.5t57.5 34.5t38 52t14 66q0 113 -133 113q-20 0 -37 -1.5t-39 -6.5q-2 -10 -3.5 -16t-3.5 -12q-3 -14 -6 -26t-3 -14l-85 -487q-4 -23 -4 -35q0 -15 8 -21.5t28 -8.5l49 -3l-3 -28h-26l-97 3h-36.5
t-53.5 -2l-42 -1l4 28l41 3q15 1 23.5 4t14.5 12t10 28t10 53l75 434q4 23 6.5 44t2.5 32q0 26 -35 27l-56 2z" />
    <glyph glyph-name="rmacronunder" unicode="&#x1e5f;" horiz-adv-x="389" 
d="M158 -126h-167l11 51h167zM354 365q-15 19 -36 19q-33 0 -83 -65q-17 -21 -29.5 -42.5t-22.5 -44.5t-18 -49t-15 -57l-26 -120l-13 -2q-17 -4 -30 -6.5t-24 -6.5l-10 7q15 48 30 107t26.5 115t19 102t7.5 68t-17 22q-7 0 -17 -4.5t-31 -18.5l-32 -21l-7 20l28 20
q56 40 86.5 57t46.5 17q23 0 23 -32q0 -17 -6 -42l-6 -26q-2 -8 -4.5 -19t-5 -23t-5 -23t-3.5 -20l-8 -41q6 13 11.5 24.5t13 24t17.5 27.5t25 36l27 39q53 75 98 75q4 0 8 -1t12 -5q-6 -31 -10 -56.5t-6 -54.5h-14z" />
    <glyph glyph-name="Ydotaccent" unicode="&#x1e8e;" horiz-adv-x="667" 
d="M420 855q21 0 37 -16t16 -37q0 -22 -16 -38.5t-38 -16.5t-38 16.5t-16 38.5q0 21 16 37t39 16zM67 658q14 9 28.5 19.5t22.5 17.5q6 4 9 7l4 3q34 0 61.5 -19t52.5 -64t49 -121t52 -191q21 56 51.5 109.5t76.5 116.5q28 37 52.5 64.5t48.5 46.5t48.5 31t51.5 19l-6 -71
q-22 -4 -41.5 -12t-38.5 -21.5t-38 -33t-41 -47.5q-28 -35 -53 -73t-45 -74t-33.5 -67t-16.5 -52l-26 -168q-2 -10 -2 -21q0 -15 8 -21t28 -8l49 -3l-3 -28h-26l-97 3q-12 0 -31.5 -0.5t-54.5 -1.5l-53 -1l4 28l48 3q15 1 23.5 3.5t14 12t10 28.5t10.5 53l21 126q0 1 0.5 2
t0.5 2v2q0 6 -6 31.5t-15.5 59t-20.5 69t-20 60.5q-31 84 -60 121t-64 37q-8 0 -18 -2.5t-27 -9.5l-3 24z" />
    <glyph glyph-name="ydotaccent" unicode="&#x1e8f;" 
d="M315 645q21 0 37 -16t16 -37q0 -22 -16 -38.5t-38 -16.5t-38 16.5t-16 38.5q0 21 16 37t39 16zM41 -146l10 -4q-1 -7 -1.5 -12.5t-0.5 -9.5q0 -26 18 -44t44 -18q52 0 92.5 58.5t78.5 191.5l49 171q-28 -42 -57 -78.5t-55.5 -63t-48 -41.5t-35.5 -15q-19 0 -31 19.5
t-12 51.5l1 40l17 243q1 6 1 10v5q0 52 -22 52q-6 0 -21 -9l-4 -3l-50 -30l-11 18l82 56q36 25 50.5 32.5t24.5 7.5q13 0 18.5 -14.5t5.5 -48.5q0 -21 -1 -47.5t-3 -49.5l-15 -194l-1 -13q-1 -19 5 -33.5t15 -14.5q8 0 21 7.5t27.5 20.5t29.5 30.5t28 36.5q12 18 24.5 40.5
t23.5 45t19 44t13 39.5l35 132q31 3 74 19l11 -9l-141 -440q-22 -69 -53 -126t-67 -97.5t-75.5 -63t-79.5 -22.5q-17 0 -32 6t-26 16.5t-17.5 25t-6.5 30.5v8.5t1 9.5z" />
  </font>
</defs>
</svg>
