<svg width="72" height="72" viewBox="0 0 72 72" fill="none" xmlns="http://www.w3.org/2000/svg">
<rect width="72" height="72" fill="#E6FA05"/>
<path d="M48.4231 56.1374L48.2005 56.1016L48.1041 56.3054C46.0408 60.6712 41.6198 63.6933 36.5 63.7C31.3759 63.6933 26.9592 60.6754 24.8959 56.3055L24.8006 56.1036L24.5799 56.1369C24.1697 56.1989 23.595 56.2446 23.1567 56.2446C16.0564 56.2446 10.3 50.4498 10.3 43.3034C10.3 40.4327 11.262 37.7357 12.8345 35.5853L12.9647 35.4072L12.8335 35.2298C11.2419 33.0773 10.3 30.3726 10.3 27.4788C10.3 20.3324 16.0565 14.5376 23.1524 14.5376C23.6759 14.5376 24.1895 14.5669 24.6893 14.6293L24.8673 14.6515L24.9711 14.5052L25.0135 14.4454L25.0267 14.4269L25.0369 14.4065C27.154 10.1953 31.492 7.30652 36.5 7.30001C41.5081 7.30652 45.8459 10.1953 47.9587 14.4063L47.969 14.4268L47.9822 14.4454L48.0246 14.5052L48.1283 14.6513L48.3061 14.6293C48.8105 14.5669 49.3242 14.5376 49.8433 14.5376C56.9436 14.5376 62.7 20.3282 62.7 27.4788C62.7 30.3726 61.7582 33.0773 60.1665 35.2298L60.0352 35.4074L60.1657 35.5855C61.7379 37.7314 62.7 40.4326 62.7 43.3034C62.7 50.4539 56.9394 56.2446 49.8433 56.2446C49.4032 56.2446 48.8295 56.2029 48.4231 56.1374Z" stroke="black" stroke-width="0.6" stroke-miterlimit="10"/>
<path d="M50.6676 26.5635C50.2257 26.6609 49.6491 26.7881 49.0472 26.733C48.5505 26.6906 48.1422 26.6652 47.3173 26.0761C44.2952 23.9231 36.5843 17.8115 36.5843 17.8115C36.298 18.0404 28.8691 23.9273 25.847 26.0761C25.0221 26.6652 24.6138 26.6864 24.1171 26.733C23.5152 26.7881 22.9386 26.6567 22.4967 26.5635L22.2062 27.8265C23.5405 28.1274 24.7906 28.1655 25.9733 27.5171C26.6089 27.1695 28.8944 25.4403 31.1841 23.673C32.6194 24.0248 34.7491 24.224 36.5758 24.224C38.4068 24.224 40.5365 24.0248 41.9718 23.673H41.976C44.2699 25.4446 46.5554 27.178 47.1826 27.5213C48.3653 28.1698 49.6154 28.1316 50.9497 27.8307L50.6676 26.5635ZM40.6123 22.6177C39.6611 22.7957 37.9185 22.9737 36.5632 22.9483C35.2121 22.9737 33.4948 22.7872 32.5436 22.6134H32.5352C32.5394 22.6134 32.5436 22.6134 32.5436 22.6134C34.6439 20.9775 36.4538 19.5407 36.5801 19.4432C36.5801 19.4432 38.4446 20.9224 40.6207 22.6177H40.6123Z" fill="black"/>
<path d="M47.4814 43.6865V29.8105L43.7059 32.7985V42.271L46.185 44.2756V46.3269L42.6747 43.6441V29.8105L38.8992 32.7985V42.271L41.3783 44.2756V46.3269L37.9311 43.6441V29.8105L34.1556 32.7985V42.271L36.6348 44.2756V46.3269L33.1707 43.6441V29.8105L29.3952 32.7985V42.271L31.8744 44.2756V46.3269L28.3977 43.6441V29.8105L24.6222 32.7985V42.271L27.1013 44.2756V46.3269L24.879 44.4833L24.1129 45.4878L28.423 49.175V45.2801L33.196 49.175V45.2801L37.9564 49.175V45.2801L42.7 49.175V45.2801L47.5067 49.175V45.4242L49.5312 47.1025L50.2972 46.0981L47.4814 43.6865ZM27.135 42.6058L25.9186 41.6352V33.4512L27.135 32.4806V42.6058ZM31.908 42.6058L30.6916 41.6352V33.4512L31.908 32.4806V42.6058ZM36.6684 42.6058L35.452 41.6352V33.4512L36.6684 32.4806V42.6058ZM41.412 42.6058L40.1956 41.6352V33.4512L41.412 32.4806V42.6058ZM46.2187 42.6058L45.0023 41.6352V33.4512L46.2187 32.4806V42.6058Z" fill="black"/>
<path d="M59.9064 22.1431C58.1849 18.7991 54.4557 15.3195 47.2751 16.023C45.1706 11.4246 41.1594 8.80957 36.5042 8.80957L36.5758 8.81381C31.9206 8.81381 27.9094 11.4288 25.8007 16.023C18.6201 15.3237 14.8909 18.8033 13.1694 22.1431C11.5489 25.2921 11.0817 29.454 14.5879 35.4087C12.1087 38.8968 10.7703 44.7922 13.4809 49.183C15.9642 53.2051 20.0554 55.3284 25.6281 54.6927C28.3051 59.715 31.988 62.1859 36.5758 62.1859L36.5042 62.1817C41.0921 62.1817 44.775 59.7108 47.4519 54.6885C53.0247 55.3242 57.1158 53.2008 59.5991 49.1788C62.3098 44.7879 60.9713 38.8883 58.4922 35.4045C61.9983 29.454 61.5311 25.2921 59.9064 22.1431ZM58.8331 48.7973C57.1453 51.5606 53.3235 54.7987 46.8963 53.7137C44.2025 59.4861 40.2755 61.3255 36.5042 61.3255L36.5758 61.3298C32.8045 61.3298 28.8775 59.4946 26.1837 53.7179C19.7565 54.8029 15.9347 51.5649 14.2469 48.8015C12.1971 45.4406 12.336 39.7402 15.7243 35.4087C13.2073 31.9079 11.7636 26.8941 13.9691 22.5881C16.1957 18.2481 20.6783 16.2011 26.3479 16.9978C28.4103 12.4036 31.9669 9.71655 36.6053 9.6996C36.5463 9.6996 36.4916 9.69536 36.4369 9.69536L36.6473 9.6996C36.6347 9.6996 36.6221 9.6996 36.6053 9.6996C41.1805 9.76317 44.6908 12.4375 46.7364 16.9936C52.4059 16.1968 56.8885 18.2439 59.1151 22.5838C61.3206 26.8899 59.8769 31.9037 57.3599 35.4045C60.744 39.736 60.8829 45.4364 58.8331 48.7973Z" fill="black"/>
</svg>
