<svg width="213" height="108" viewBox="0 0 213 108" fill="none" xmlns="http://www.w3.org/2000/svg">
<g clip-path="url(#clip0)">
<path d="M73.3588 93.3674L73.1372 93.332L73.0407 93.5346C69.0566 101.896 60.5175 107.687 50.6251 107.7C40.7245 107.687 32.1936 101.904 28.2095 93.5347L28.114 93.334L27.8942 93.367C27.0977 93.4862 25.9859 93.574 25.1342 93.574C11.4153 93.574 0.3 82.4702 0.3 68.7854C0.3 63.2868 2.15768 58.1221 5.19375 54.0041L5.32573 53.8251L5.19279 53.6467C2.11824 49.5228 0.3 44.3428 0.3 38.802C0.3 25.1172 11.4153 14.0134 25.1261 14.0134C26.1364 14.0134 27.129 14.0694 28.0963 14.1891L28.2733 14.211L28.3771 14.066L28.4582 13.9527L28.4715 13.9341L28.4818 13.9137C32.5698 5.84843 40.9487 0.312361 50.6251 0.300021C60.3015 0.312361 68.6803 5.84845 72.7602 13.9135L72.7705 13.934L72.7839 13.9527L72.8649 14.066L72.9686 14.2108L73.1455 14.1891C74.1211 14.0694 75.1139 14.0134 76.1159 14.0134C89.835 14.0134 100.95 25.1092 100.95 38.802C100.95 44.3428 99.1319 49.5228 96.0574 53.6467L95.9243 53.8252L96.0566 54.0043C99.0924 58.114 100.95 63.2867 100.95 68.7854C100.95 82.4781 89.8269 93.574 76.1159 93.574C75.2624 93.574 74.1517 93.494 73.3588 93.3674Z" stroke="white" stroke-width="0.6" stroke-miterlimit="10"/>
<path d="M77.6905 37.0685C76.8462 37.2532 75.7446 37.4941 74.5948 37.3897C73.6459 37.3094 72.866 37.2612 71.29 36.145C65.5167 32.0656 50.7858 20.4858 50.7858 20.4858C50.2391 20.9195 36.047 32.0736 30.2737 36.145C28.6977 37.2612 27.9177 37.3013 26.9689 37.3897C25.8191 37.4941 24.7175 37.2451 23.8732 37.0685L23.3184 39.4615C25.8673 40.0317 28.2554 40.1039 30.5149 38.8753C31.7291 38.2168 36.0952 34.9404 40.4695 31.5918C43.2114 32.2583 47.28 32.6357 50.7698 32.6357C54.2675 32.6357 58.3362 32.2583 61.0781 31.5918H61.0862C65.4684 34.9485 69.8346 38.2329 71.0327 38.8833C73.2921 40.112 75.6803 40.0397 78.2292 39.4695L77.6905 37.0685ZM58.4809 29.5922C56.6637 29.9295 53.3348 30.2668 50.7456 30.2186C48.1645 30.2668 44.8839 29.9134 43.0666 29.5842H43.0506C43.0586 29.5842 43.0666 29.5842 43.0666 29.5842C47.079 26.4845 50.5366 23.7622 50.7778 23.5775C50.7778 23.5775 54.3399 26.3801 58.497 29.5922H58.4809Z" fill="white"/>
<path d="M71.6041 69.5106V43.2192L64.3915 48.8806V66.8284L69.1276 70.6268V74.5135L62.4215 69.4303V43.2192L55.2089 48.8806V66.8284L59.9449 70.6268V74.5135L53.3595 69.4303V43.2192L46.1469 48.8806V66.8284L50.8829 70.6268V74.5135L44.2653 69.4303V43.2192L37.0527 48.8806V66.8284L41.7887 70.6268V74.5135L35.147 69.4303V43.2192L27.9344 48.8806V66.8284L32.6704 70.6268V74.5135L28.4249 71.0203L26.9614 72.9235L35.1952 79.9099V72.53L44.3135 79.9099V72.53L53.4077 79.9099V72.53L62.4697 79.9099V72.53L71.6524 79.9099V72.803L75.52 75.983L76.9835 74.0798L71.6041 69.5106ZM32.7347 67.4628L30.4109 65.6239V50.1173L32.7347 48.2783V67.4628ZM41.853 67.4628L39.5292 65.6239V50.1173L41.853 48.2783V67.4628ZM50.9472 67.4628L48.6234 65.6239V50.1173L50.9472 48.2783V67.4628ZM60.0093 67.4628L57.6854 65.6239V50.1173L60.0093 48.2783V67.4628ZM69.1919 67.4628L66.8681 65.6239V50.1173L69.1919 48.2783V67.4628Z" fill="white"/>
<path d="M95.3399 28.6926C92.0512 22.3567 84.9271 15.7638 71.2094 17.0968C67.189 8.38392 59.5261 3.4292 50.6329 3.4292L50.7696 3.43723C41.8764 3.43723 34.2135 8.39195 30.1851 17.0968C16.4674 15.7718 9.34323 22.3647 6.05453 28.6926C2.95881 34.6592 2.06628 42.545 8.76429 53.8276C4.02824 60.4366 1.47126 71.6068 6.64955 79.9262C11.3936 87.547 19.2093 91.5702 29.8554 90.3656C34.9694 99.8816 42.0051 104.563 50.7696 104.563L50.6329 104.555C59.3974 104.555 66.4331 99.8736 71.5471 90.3576C82.1932 91.5622 90.0089 87.539 94.753 79.9182C99.9313 71.5987 97.3743 60.4205 92.6382 53.8196C99.3362 42.545 98.4437 34.6592 95.3399 28.6926ZM93.2895 79.1954C90.0651 84.4312 82.7641 90.5664 70.4857 88.5106C65.3396 99.448 57.8375 102.933 50.6329 102.933L50.7696 102.941C43.565 102.941 36.0629 99.464 30.9168 88.5187C18.6384 90.5744 11.3374 84.4393 8.11298 79.2035C4.1971 72.8354 4.46245 62.0346 10.9353 53.8276C6.1269 47.1945 3.36889 37.6947 7.58229 29.5358C11.8359 21.3128 20.3994 17.4341 31.2304 18.9438C35.1704 10.2389 41.9649 5.14769 50.8259 5.11557C50.7133 5.11557 50.6088 5.10754 50.5043 5.10754L50.9063 5.11557C50.8822 5.11557 50.8581 5.11557 50.8259 5.11557C59.5663 5.23603 66.2723 10.3032 70.1802 18.9358C81.0112 17.4261 89.5747 21.3047 93.8283 29.5278C98.0417 37.6866 95.2837 47.1865 90.4752 53.8196C96.9401 62.0266 97.2054 72.8274 93.2895 79.1954Z" fill="white"/>
</g>
<path d="M133.197 13.9925C132.691 15.1513 132.214 16.3004 131.766 17.4399C131.319 18.5601 130.881 19.7092 130.452 20.8873H135.796C135.368 19.7092 134.939 18.5601 134.511 17.4399C134.102 16.3004 133.664 15.1513 133.197 13.9925ZM143.534 28.4485C143.067 28.4099 142.619 28.3906 142.191 28.3906C141.782 28.3906 141.373 28.3906 140.964 28.3906C140.556 28.3906 140.137 28.3906 139.709 28.3906C139.3 28.3906 138.891 28.4099 138.482 28.4485C138.171 27.5021 137.85 26.5365 137.519 25.5515C137.188 24.5665 136.837 23.5815 136.468 22.5966C135.845 22.5773 135.222 22.5676 134.599 22.5676C133.976 22.5483 133.353 22.5386 132.73 22.5386C132.224 22.5386 131.718 22.5483 131.211 22.5676C130.705 22.5676 130.199 22.5773 129.693 22.5966C129.304 23.5815 128.944 24.5665 128.613 25.5515C128.282 26.5365 127.98 27.5021 127.707 28.4485C127.474 28.4099 127.24 28.3906 127.007 28.3906C126.792 28.3906 126.569 28.3906 126.335 28.3906C126.101 28.3906 125.868 28.3906 125.634 28.3906C125.401 28.3906 125.148 28.4099 124.875 28.4485C125.109 27.9464 125.42 27.2511 125.809 26.3627C126.199 25.4743 126.627 24.47 127.094 23.3498C127.561 22.2296 128.058 21.0322 128.583 19.7575C129.129 18.4635 129.664 17.1599 130.189 15.8466C130.735 14.5333 131.26 13.2393 131.766 11.9646C132.292 10.6899 132.769 9.50215 133.197 8.40129C133.392 8.43991 133.577 8.47854 133.752 8.51717C133.927 8.53648 134.112 8.54614 134.307 8.54614C134.501 8.54614 134.686 8.53648 134.862 8.51717C135.037 8.47854 135.222 8.43991 135.416 8.40129C136.039 10.0429 136.701 11.8004 137.402 13.6738C138.122 15.5472 138.842 17.3916 139.563 19.2071C140.283 21.0032 140.984 22.7124 141.665 24.3348C142.347 25.9571 142.969 27.3283 143.534 28.4485Z" fill="white"/>
<path d="M145.957 24.8852C146.074 25.1942 146.22 25.4936 146.395 25.7833C146.59 26.0536 146.824 26.3047 147.096 26.5365C147.369 26.7489 147.69 26.9227 148.06 27.0579C148.449 27.1931 148.897 27.2607 149.403 27.2607C150.084 27.2607 150.61 27.0869 150.98 26.7393C151.35 26.3916 151.535 26.015 151.535 25.6094C151.535 25.1652 151.369 24.8079 151.038 24.5376C150.707 24.2672 150.289 24.0258 149.783 23.8133C149.296 23.5815 148.761 23.3498 148.177 23.118C147.593 22.8863 147.048 22.5966 146.541 22.2489C146.055 21.882 145.646 21.4281 145.315 20.8873C144.984 20.3466 144.819 19.6513 144.819 18.8015C144.819 17.9903 144.965 17.2951 145.257 16.7157C145.568 16.117 145.967 15.6341 146.454 15.2672C146.94 14.8809 147.486 14.6009 148.089 14.427C148.712 14.2339 149.325 14.1373 149.929 14.1373C150.746 14.1373 151.467 14.2532 152.089 14.485C152.732 14.7167 153.384 15.0547 154.046 15.4989C153.871 15.8852 153.725 16.3004 153.608 16.7446C153.491 17.1888 153.403 17.6234 153.345 18.0483H152.527C152.469 17.8165 152.372 17.5655 152.235 17.2951C152.099 17.0054 151.914 16.735 151.681 16.4839C151.447 16.2328 151.165 16.03 150.834 15.8755C150.503 15.7017 150.104 15.6148 149.637 15.6148C149.053 15.6148 148.556 15.7693 148.147 16.0783C147.758 16.3873 147.563 16.7929 147.563 17.2951C147.563 17.7586 147.729 18.1352 148.06 18.4249C148.41 18.6953 148.838 18.9367 149.345 19.1491C149.851 19.3616 150.406 19.574 151.009 19.7865C151.613 19.9989 152.167 20.279 152.673 20.6266C153.18 20.9549 153.598 21.3895 153.929 21.9303C154.279 22.471 154.455 23.1663 154.455 24.0161C154.455 24.8659 154.299 25.5998 153.987 26.2178C153.676 26.8165 153.257 27.3187 152.732 27.7242C152.206 28.1105 151.603 28.3906 150.921 28.5644C150.26 28.7382 149.559 28.8251 148.819 28.8251C147.943 28.8251 147.155 28.6996 146.454 28.4485C145.753 28.1974 145.198 27.9367 144.789 27.6663C145.023 26.7393 145.169 25.8122 145.227 24.8852H145.957Z" fill="white"/>
<path d="M157.044 9.03863C157.044 8.40129 157.268 7.86052 157.716 7.41631C158.163 6.9721 158.708 6.75 159.351 6.75C159.993 6.75 160.538 6.9721 160.986 7.41631C161.434 7.86052 161.658 8.40129 161.658 9.03863C161.658 9.67597 161.434 10.2167 160.986 10.6609C160.538 11.1051 159.993 11.3273 159.351 11.3273C158.708 11.3273 158.163 11.1051 157.716 10.6609C157.268 10.2167 157.044 9.67597 157.044 9.03863ZM157.394 20.9453C157.394 19.7672 157.375 18.6663 157.336 17.6427C157.316 16.5998 157.258 15.5569 157.161 14.5139C157.433 14.5526 157.754 14.5912 158.124 14.6298C158.494 14.6491 158.903 14.6588 159.351 14.6588C160.266 14.6588 160.996 14.6105 161.541 14.5139C161.443 15.5569 161.375 16.5998 161.336 17.6427C161.317 18.6663 161.307 19.7672 161.307 20.9453V22.1041C161.307 23.2822 161.317 24.3927 161.336 25.4356C161.375 26.4785 161.443 27.4828 161.541 28.4485C161.288 28.4099 160.967 28.3906 160.577 28.3906C160.207 28.3906 159.798 28.3906 159.351 28.3906C158.903 28.3906 158.494 28.3906 158.124 28.3906C157.754 28.3906 157.433 28.4099 157.161 28.4485C157.258 27.4828 157.316 26.4785 157.336 25.4356C157.375 24.3927 157.394 23.2822 157.394 22.1041V20.9453Z" fill="white"/>
<path d="M172.033 24.0451C172.033 23.2146 172.033 22.5869 172.033 22.162C172.053 21.7178 172.062 21.3315 172.062 21.0032C171.653 21.235 171.215 21.4281 170.748 21.5826C170.3 21.7178 169.882 21.9013 169.493 22.133C169.123 22.3455 168.811 22.6449 168.558 23.0311C168.325 23.4174 168.208 23.9775 168.208 24.7114C168.208 25.426 168.354 25.9764 168.646 26.3627C168.957 26.7296 169.366 26.9131 169.872 26.9131C170.515 26.9131 171.031 26.6717 171.42 26.1888C171.829 25.706 172.033 24.9914 172.033 24.0451ZM165.113 16.1652C165.93 15.5086 166.806 15.0064 167.741 14.6588C168.694 14.3112 169.639 14.1373 170.573 14.1373C171.352 14.1373 172.062 14.2242 172.705 14.3981C173.367 14.5719 173.931 14.8519 174.398 15.2382C174.885 15.6052 175.255 16.088 175.508 16.6867C175.78 17.2854 175.917 18.0097 175.917 18.8594C175.917 20.0955 175.897 21.2446 175.858 22.3069C175.839 23.3498 175.829 24.3927 175.829 25.4356C175.829 25.8991 175.858 26.2661 175.917 26.5365C175.995 26.7876 176.102 26.9807 176.238 27.1159C176.374 27.2511 176.549 27.338 176.763 27.3766C176.997 27.4152 177.26 27.4345 177.552 27.4345V28.1298C176.987 28.3616 176.51 28.5354 176.121 28.6513C175.732 28.7672 175.313 28.8251 174.865 28.8251C174.145 28.8251 173.561 28.6513 173.113 28.3036C172.666 27.956 172.325 27.4539 172.091 26.7972C171.644 27.4152 171.118 27.9077 170.515 28.2747C169.931 28.6416 169.191 28.8251 168.295 28.8251C167.556 28.8251 166.923 28.7285 166.397 28.5354C165.872 28.3423 165.434 28.0719 165.083 27.7242C164.752 27.3573 164.509 26.9517 164.353 26.5075C164.198 26.044 164.12 25.5805 164.12 25.117C164.12 24.4796 164.217 23.9292 164.412 23.4657C164.626 23.0021 164.918 22.6062 165.288 22.2779C165.677 21.9496 166.135 21.6792 166.66 21.4667C167.186 21.235 167.78 21.0418 168.441 20.8873C169.259 20.6942 169.901 20.53 170.369 20.3948C170.855 20.2403 171.215 20.0955 171.449 19.9603C171.683 19.8058 171.829 19.6416 171.887 19.4678C171.965 19.294 172.004 19.0815 172.004 18.8305C172.004 18.1352 171.751 17.5461 171.245 17.0633C170.758 16.5612 170.077 16.3101 169.201 16.3101C168.87 16.3101 168.529 16.3584 168.179 16.4549C167.828 16.5322 167.488 16.6481 167.157 16.8026C166.845 16.9571 166.553 17.1309 166.281 17.324C166.028 17.4979 165.833 17.691 165.697 17.9034H165.492L165.113 16.1652Z" fill="white"/>
<path d="M183.713 16.6867C184.258 15.8755 184.891 15.2479 185.611 14.8036C186.351 14.3594 187.188 14.1373 188.122 14.1373C189.582 14.1373 190.702 14.5622 191.48 15.412C192.279 16.2425 192.678 17.5944 192.678 19.4678C192.678 20.4528 192.658 21.3219 192.619 22.0751C192.58 22.8283 192.561 23.5815 192.561 24.3348C192.561 24.9528 192.571 25.6288 192.59 26.3627C192.629 27.0773 192.668 27.7725 192.707 28.4485C192.454 28.4099 192.133 28.3906 191.743 28.3906C191.354 28.3906 190.945 28.3906 190.517 28.3906C190.089 28.3906 189.68 28.3906 189.29 28.3906C188.901 28.3906 188.58 28.4099 188.327 28.4485C188.463 27.4442 188.551 26.2661 188.59 24.9142C188.629 23.5429 188.648 21.9785 188.648 20.221C188.648 19.0043 188.434 18.1159 188.006 17.5558C187.597 16.9764 187.013 16.6867 186.254 16.6867C185.378 16.6867 184.735 17.0633 184.326 17.8165C183.918 18.5697 183.713 19.6127 183.713 20.9453V22.1041C183.713 23.2822 183.723 24.3927 183.742 25.4356C183.781 26.4785 183.849 27.4828 183.947 28.4485C183.694 28.4099 183.373 28.3906 182.983 28.3906C182.613 28.3906 182.204 28.3906 181.757 28.3906C181.309 28.3906 180.9 28.3906 180.53 28.3906C180.16 28.3906 179.839 28.4099 179.567 28.4485C179.664 27.4828 179.722 26.4785 179.742 25.4356C179.781 24.3927 179.8 23.2822 179.8 22.1041V20.9453C179.8 19.7672 179.781 18.6663 179.742 17.6427C179.722 16.5998 179.664 15.5569 179.567 14.5139C179.917 14.5526 180.258 14.5912 180.589 14.6298C180.939 14.6491 181.29 14.6588 181.64 14.6588C181.99 14.6588 182.331 14.6491 182.662 14.6298C183.012 14.5912 183.382 14.5526 183.772 14.5139L183.655 16.6867H183.713Z" fill="white"/>
<path d="M125.24 45.5408C125.24 43.9378 125.221 42.5182 125.182 41.2822C125.143 40.0268 125.084 38.7715 125.006 37.5161C125.337 37.5547 125.697 37.5933 126.087 37.632C126.476 37.6513 126.914 37.6609 127.401 37.6609C127.887 37.6609 128.326 37.6513 128.715 37.632C129.104 37.5933 129.464 37.5547 129.795 37.5161C129.717 38.7715 129.659 40.0268 129.62 41.2822C129.581 42.5182 129.562 43.9378 129.562 45.5408V49.4807C129.562 50.5815 129.562 51.6438 129.562 52.6674C129.581 53.691 129.601 54.5794 129.62 55.3326C130.73 55.3326 131.839 55.3036 132.949 55.2457C134.058 55.1878 135.178 55.0912 136.307 54.956C136.268 55.1685 136.239 55.3616 136.219 55.5354C136.2 55.7092 136.19 55.9506 136.19 56.2597C136.19 56.5687 136.2 56.8101 136.219 56.9839C136.239 57.1577 136.268 57.3026 136.307 57.4185C135.781 57.3991 135.129 57.3798 134.351 57.3605C133.591 57.3605 132.54 57.3605 131.197 57.3605C130.009 57.3605 129.046 57.3605 128.306 57.3605C127.586 57.3605 127.002 57.3605 126.554 57.3605C126.126 57.3605 125.795 57.3605 125.561 57.3605C125.347 57.3798 125.162 57.3991 125.006 57.4185C125.084 56.221 125.143 55.0043 125.182 53.7682C125.221 52.5129 125.24 51.0837 125.24 49.4807V45.5408Z" fill="white"/>
<path d="M142.527 50.4946C142.527 51.2672 142.604 51.9914 142.76 52.6674C142.916 53.3433 143.15 53.9324 143.461 54.4346C143.792 54.9174 144.201 55.3036 144.687 55.5933C145.194 55.8637 145.778 55.9989 146.439 55.9989C147.783 55.9989 148.98 55.5644 150.031 54.6953L150.381 54.956L149.739 56.5783C149.252 56.9453 148.668 57.235 147.987 57.4474C147.306 57.6792 146.41 57.7951 145.301 57.7951C144.347 57.7951 143.442 57.6599 142.585 57.3895C141.728 57.1384 140.969 56.7135 140.307 56.1148C139.665 55.5161 139.149 54.7629 138.76 53.8551C138.39 52.9281 138.205 51.8273 138.205 50.5526C138.205 49.2972 138.37 48.206 138.701 47.279C139.052 46.3519 139.529 45.5794 140.132 44.9614C140.736 44.3433 141.446 43.8798 142.264 43.5708C143.101 43.2618 144.006 43.1073 144.979 43.1073C146.907 43.1073 148.376 43.6674 149.389 44.7876C150.42 45.9077 150.936 47.4914 150.936 49.5386V50.147C150.936 50.3208 150.927 50.4367 150.907 50.4946H142.527ZM147.023 49.191C146.985 47.7425 146.8 46.5837 146.469 45.7146C146.157 44.8455 145.622 44.4109 144.863 44.4109C144.434 44.4109 144.074 44.5558 143.782 44.8455C143.49 45.1352 143.257 45.5118 143.081 45.9753C142.906 46.4195 142.77 46.9313 142.673 47.5107C142.595 48.0708 142.546 48.6309 142.527 49.191H147.023Z" fill="white"/>
<path d="M158.966 44.2951C157.643 44.2951 156.981 45.5697 156.981 48.1191C156.981 48.7564 157.039 49.2972 157.156 49.7414C157.273 50.1663 157.419 50.5139 157.594 50.7843C157.789 51.0547 157.993 51.2479 158.207 51.3637C158.441 51.4796 158.674 51.5376 158.908 51.5376C159.55 51.5376 160.027 51.2575 160.339 50.6974C160.65 50.1373 160.806 49.191 160.806 47.8584C160.806 46.5451 160.631 45.6277 160.28 45.1062C159.93 44.5655 159.492 44.2951 158.966 44.2951ZM163.317 44.5848C163.804 44.9324 164.183 45.3766 164.456 45.9174C164.748 46.4388 164.894 47.0665 164.894 47.8004C164.894 48.515 164.758 49.1717 164.485 49.7704C164.213 50.3498 163.823 50.8519 163.317 51.2768C162.831 51.7017 162.237 52.03 161.536 52.2618C160.855 52.4936 160.086 52.6094 159.229 52.6094C159.015 52.6094 158.801 52.6094 158.587 52.6094C158.392 52.5901 158.168 52.5805 157.915 52.5805C157.682 52.5805 157.477 52.6867 157.302 52.8991C157.146 53.1116 157.068 53.353 157.068 53.6234C157.068 54.0869 157.244 54.4539 157.594 54.7243C157.964 54.9946 158.538 55.1395 159.317 55.1588L161.478 55.1878C163.113 55.2071 164.31 55.5161 165.069 56.1148C165.848 56.6942 166.237 57.6309 166.237 58.9249C166.237 60.0837 165.994 61.0494 165.507 61.8219C165.04 62.6137 164.427 63.2511 163.668 63.7339C162.928 64.236 162.101 64.5933 161.186 64.8058C160.271 65.0182 159.385 65.1245 158.528 65.1245C156.698 65.1245 155.268 64.7672 154.236 64.0526C153.224 63.3573 152.717 62.4303 152.717 61.2715C152.717 60.3444 152.971 59.5912 153.477 59.0118C154.002 58.4517 154.703 58.0075 155.579 57.6792V57.6212C155.073 57.4474 154.664 57.1867 154.353 56.8391C154.061 56.4721 153.915 56.0182 153.915 55.4775C153.915 54.8401 154.158 54.2221 154.645 53.6234C155.151 53.0247 155.813 52.6191 156.63 52.4067V52.3487C155.443 52.059 154.528 51.5376 153.886 50.7843C153.224 50.0118 152.893 49.0075 152.893 47.7715C152.893 47.0375 153.039 46.3809 153.331 45.8015C153.642 45.2221 154.07 44.7393 154.616 44.353C155.161 43.9474 155.813 43.6384 156.572 43.426C157.331 43.2135 158.168 43.1073 159.083 43.1073C159.434 43.1073 159.794 43.1266 160.164 43.1652C160.533 43.1845 160.894 43.2039 161.244 43.2232C161.497 43.2425 161.75 43.2618 162.003 43.2811C162.276 43.2811 162.568 43.2811 162.879 43.2811C163.366 43.2811 163.872 43.2811 164.398 43.2811C164.923 43.2618 165.449 43.2521 165.974 43.2521C165.955 43.368 165.936 43.4839 165.916 43.5998C165.916 43.7157 165.916 43.8315 165.916 43.9474C165.916 44.0633 165.916 44.1792 165.916 44.2951C165.936 44.4109 165.955 44.5268 165.974 44.6427L163.405 44.5268L163.317 44.5848ZM162.85 60.4893C162.85 59.9292 162.753 59.4657 162.558 59.0987C162.363 58.7511 162.081 58.4807 161.711 58.2876C161.361 58.0944 160.923 57.9592 160.397 57.882C159.872 57.824 159.278 57.7951 158.616 57.7951C157.604 57.7951 156.903 57.8916 156.514 58.0848C156.28 58.2006 156.027 58.4807 155.754 58.9249C155.501 59.3691 155.375 59.9292 155.375 60.6051C155.375 61.1652 155.472 61.6481 155.667 62.0536C155.881 62.4785 156.163 62.8262 156.514 63.0966C156.864 63.367 157.263 63.5697 157.711 63.7049C158.178 63.8594 158.674 63.9367 159.2 63.9367C159.765 63.9367 160.271 63.8401 160.718 63.647C161.166 63.4732 161.546 63.2221 161.857 62.8938C162.188 62.5848 162.431 62.2178 162.587 61.7929C162.762 61.3873 162.85 60.9528 162.85 60.4893Z" fill="white"/>
<path d="M175.056 53.015C175.056 52.1846 175.056 51.5569 175.056 51.132C175.075 50.6878 175.085 50.3015 175.085 49.9732C174.676 50.2049 174.238 50.3981 173.771 50.5526C173.323 50.6878 172.905 50.8712 172.515 51.103C172.145 51.3155 171.834 51.6148 171.581 52.0011C171.347 52.3873 171.23 52.9474 171.23 53.6813C171.23 54.3959 171.376 54.9464 171.668 55.3326C171.98 55.6996 172.389 55.883 172.895 55.883C173.537 55.883 174.053 55.6416 174.443 55.1588C174.851 54.676 175.056 53.9614 175.056 53.015ZM168.135 45.1352C168.953 44.4785 169.829 43.9764 170.763 43.6288C171.717 43.2811 172.661 43.1073 173.596 43.1073C174.374 43.1073 175.085 43.1942 175.727 43.368C176.389 43.5418 176.954 43.8219 177.421 44.2082C177.908 44.5751 178.278 45.0579 178.531 45.6567C178.803 46.2554 178.939 46.9796 178.939 47.8294C178.939 49.0654 178.92 50.2146 178.881 51.2768C178.862 52.3197 178.852 53.3627 178.852 54.4056C178.852 54.8691 178.881 55.2361 178.939 55.5064C179.017 55.7575 179.124 55.9506 179.261 56.0858C179.397 56.221 179.572 56.3079 179.786 56.3466C180.02 56.3852 180.283 56.4045 180.575 56.4045V57.0998C180.01 57.3316 179.533 57.5054 179.144 57.6212C178.754 57.7371 178.336 57.7951 177.888 57.7951C177.168 57.7951 176.584 57.6212 176.136 57.2736C175.688 56.926 175.348 56.4238 175.114 55.7672C174.666 56.3852 174.141 56.8777 173.537 57.2446C172.953 57.6116 172.214 57.7951 171.318 57.7951C170.578 57.7951 169.946 57.6985 169.42 57.5054C168.894 57.3122 168.456 57.0418 168.106 56.6942C167.775 56.3273 167.532 55.9217 167.376 55.4775C167.22 55.0139 167.142 54.5504 167.142 54.0869C167.142 53.4496 167.24 52.8991 167.434 52.4356C167.649 51.9721 167.941 51.5762 168.31 51.2479C168.7 50.9195 169.157 50.6491 169.683 50.4367C170.208 50.2049 170.802 50.0118 171.464 49.8573C172.282 49.6642 172.924 49.5 173.391 49.3648C173.878 49.2103 174.238 49.0655 174.472 48.9303C174.705 48.7758 174.851 48.6116 174.91 48.4378C174.988 48.2639 175.027 48.0515 175.027 47.8004C175.027 47.1051 174.773 46.5161 174.267 46.0333C173.781 45.5311 173.099 45.28 172.223 45.28C171.892 45.28 171.552 45.3283 171.201 45.4249C170.851 45.5021 170.51 45.618 170.179 45.7725C169.868 45.927 169.576 46.1009 169.303 46.294C169.05 46.4678 168.856 46.6609 168.719 46.8734H168.515L168.135 45.1352Z" fill="white"/>
<path d="M193.218 47.4818C193.063 46.6127 192.751 45.9174 192.284 45.3959C191.836 44.8552 191.165 44.5848 190.269 44.5848C189.101 44.5848 188.225 45.1159 187.641 46.1781C187.057 47.221 186.765 48.6792 186.765 50.5526C186.765 52.3101 187.135 53.662 187.875 54.6084C188.614 55.5354 189.695 55.9989 191.116 55.9989C191.719 55.9989 192.303 55.8637 192.868 55.5933C193.432 55.3036 193.851 54.985 194.124 54.6373L194.474 54.927C194.338 55.1974 194.221 55.4775 194.124 55.7672C194.026 56.0569 193.929 56.3466 193.832 56.6363C193.403 56.9646 192.858 57.235 192.196 57.4474C191.554 57.6792 190.785 57.7951 189.889 57.7951C188.468 57.7951 187.271 57.5923 186.298 57.1867C185.325 56.7811 184.536 56.2307 183.933 55.5354C183.349 54.8401 182.93 54.0579 182.677 53.1888C182.424 52.3004 182.297 51.412 182.297 50.5236C182.297 49.4614 182.473 48.4764 182.823 47.5687C183.193 46.6609 183.709 45.8788 184.371 45.2221C185.052 44.5654 185.87 44.0536 186.823 43.6867C187.777 43.3004 188.838 43.1073 190.006 43.1073C191.116 43.1073 192.05 43.2328 192.81 43.4839C193.588 43.735 194.328 44.0633 195.029 44.4689C194.795 44.8551 194.571 45.3283 194.357 45.8884C194.162 46.4485 194.016 46.9796 193.919 47.4818H193.218Z" fill="white"/>
<path d="M203.31 52.5805C203.66 51.6921 203.981 50.8712 204.273 50.118C204.565 49.3455 204.838 48.6019 205.091 47.8873C205.363 47.1727 205.616 46.4582 205.85 45.7436C206.103 45.029 206.356 44.2757 206.609 43.4839C206.823 43.5225 207.018 43.5612 207.193 43.5998C207.388 43.6191 207.583 43.6288 207.777 43.6288C207.972 43.6288 208.167 43.6191 208.361 43.5998C208.556 43.5612 208.77 43.5225 209.004 43.4839C208.906 43.735 208.673 44.2758 208.303 45.1062C207.952 45.9174 207.514 46.9313 206.989 48.1481C206.483 49.3455 205.918 50.6781 205.295 52.1459C204.672 53.6137 204.04 55.1009 203.397 56.6073C202.774 58.0944 202.161 59.5719 201.558 61.0397C200.974 62.5075 200.458 63.8401 200.01 65.0376C199.796 64.9989 199.591 64.9603 199.397 64.9217C199.202 64.9024 198.998 64.8927 198.784 64.8927C198.569 64.8927 198.365 64.9024 198.17 64.9217C197.976 64.9603 197.771 64.9989 197.557 65.0376C198.199 63.7629 198.832 62.4979 199.455 61.2425C200.078 60.0064 200.682 58.7511 201.266 57.4764C200.798 56.3755 200.273 55.1298 199.689 53.7393C199.124 52.3487 198.56 50.9871 197.995 49.6545C197.45 48.3219 196.944 47.1052 196.477 46.0043C196.029 44.9034 195.688 44.0633 195.455 43.4839C195.825 43.5225 196.185 43.5612 196.535 43.5998C196.905 43.6191 197.275 43.6288 197.645 43.6288C198.015 43.6288 198.375 43.6191 198.725 43.5998C199.076 43.5612 199.436 43.5225 199.806 43.4839C200.37 45.0097 200.935 46.5257 201.499 48.0322C202.083 49.5386 202.687 51.0547 203.31 52.5805Z" fill="white"/>
<path d="M125.24 81.7532C125.24 80.1502 125.221 78.7307 125.182 77.4946C125.143 76.2393 125.084 74.9839 125.006 73.7285C125.337 73.7672 125.697 73.8058 126.087 73.8444C126.476 73.8637 126.914 73.8734 127.401 73.8734C127.887 73.8734 128.326 73.8637 128.715 73.8444C129.104 73.8058 129.464 73.7672 129.795 73.7285C129.717 74.9839 129.659 76.2393 129.62 77.4946C129.581 78.7307 129.562 80.1502 129.562 81.7532V85.6931C129.562 86.794 129.562 87.8562 129.562 88.8798C129.581 89.9034 129.601 90.7918 129.62 91.5451C130.73 91.5451 131.839 91.5161 132.949 91.4582C134.058 91.4002 135.178 91.3036 136.307 91.1684C136.268 91.3809 136.239 91.574 136.219 91.7479C136.2 91.9217 136.19 92.1631 136.19 92.4721C136.19 92.7811 136.2 93.0225 136.219 93.1964C136.239 93.3702 136.268 93.515 136.307 93.6309C135.781 93.6116 135.129 93.5923 134.351 93.573C133.591 93.573 132.54 93.573 131.197 93.573C130.009 93.573 129.046 93.573 128.306 93.573C127.586 93.573 127.002 93.573 126.554 93.573C126.126 93.573 125.795 93.573 125.561 93.573C125.347 93.5923 125.162 93.6116 125.006 93.6309C125.084 92.4335 125.143 91.2167 125.182 89.9807C125.221 88.7253 125.24 87.2961 125.24 85.6931V81.7532Z" fill="white"/>
<path d="M138.993 74.221C138.993 73.5837 139.217 73.0429 139.665 72.5987C140.113 72.1545 140.658 71.9324 141.3 71.9324C141.943 71.9324 142.488 72.1545 142.935 72.5987C143.383 73.0429 143.607 73.5837 143.607 74.221C143.607 74.8584 143.383 75.3991 142.935 75.8433C142.488 76.2875 141.943 76.5097 141.3 76.5097C140.658 76.5097 140.113 76.2875 139.665 75.8433C139.217 75.3991 138.993 74.8584 138.993 74.221ZM139.344 86.1277C139.344 84.9496 139.324 83.8487 139.285 82.8251C139.266 81.7822 139.207 80.7393 139.11 79.6963C139.383 79.735 139.704 79.7736 140.074 79.8122C140.444 79.8316 140.852 79.8412 141.3 79.8412C142.215 79.8412 142.945 79.7929 143.49 79.6963C143.393 80.7393 143.325 81.7822 143.286 82.8251C143.266 83.8487 143.257 84.9496 143.257 86.1277V87.2865C143.257 88.4646 143.266 89.5751 143.286 90.618C143.325 91.6609 143.393 92.6652 143.49 93.6309C143.237 93.5923 142.916 93.573 142.527 93.573C142.157 93.573 141.748 93.573 141.3 93.573C140.852 93.573 140.444 93.573 140.074 93.573C139.704 93.573 139.383 93.5923 139.11 93.6309C139.207 92.6652 139.266 91.6609 139.285 90.618C139.324 89.5751 139.344 88.4646 139.344 87.2865V86.1277Z" fill="white"/>
<path d="M151.062 86.794C151.062 87.6438 151.092 88.4356 151.15 89.1695C151.228 89.9034 151.354 90.5408 151.53 91.0815C151.724 91.603 151.977 92.0182 152.289 92.3272C152.62 92.6363 153.048 92.7908 153.574 92.7908C154.411 92.7908 155.073 92.279 155.559 91.2554C156.065 90.2124 156.318 88.5129 156.318 86.1566C156.318 82.7961 155.481 81.1159 153.807 81.1159C153.398 81.1159 153.019 81.2124 152.668 81.4056C152.338 81.5987 152.046 81.927 151.792 82.3906C151.559 82.8348 151.374 83.4238 151.238 84.1577C151.121 84.8723 151.062 85.7511 151.062 86.794ZM147.15 81.8111C147.15 79.9184 147.13 78.1803 147.091 76.5966C147.052 75.0129 146.994 73.4099 146.916 71.7875C147.169 71.8262 147.49 71.8648 147.88 71.9034C148.269 71.9227 148.678 71.9324 149.106 71.9324C149.534 71.9324 149.943 71.9227 150.332 71.9034C150.722 71.8648 151.043 71.8262 151.296 71.7875C151.218 73.4099 151.16 75.0129 151.121 76.5966C151.082 78.1803 151.062 79.9184 151.062 81.8111H151.121C151.452 81 151.958 80.382 152.639 79.9571C153.34 79.5322 154.128 79.3197 155.004 79.3197C155.842 79.3197 156.601 79.5032 157.282 79.8702C157.983 80.2371 158.577 80.7296 159.063 81.3476C159.569 81.9657 159.959 82.6996 160.231 83.5494C160.504 84.3798 160.64 85.2779 160.64 86.2436C160.64 87.6921 160.436 88.9184 160.027 89.9227C159.638 90.9077 159.122 91.7092 158.479 92.3272C157.856 92.9453 157.156 93.3798 156.377 93.6309C155.598 93.882 154.829 94.0075 154.07 94.0075C153.136 94.0075 152.347 93.8337 151.705 93.486C151.062 93.1191 150.537 92.6459 150.128 92.0665C149.719 92.2983 149.301 92.5687 148.872 92.8777C148.464 93.1867 148.045 93.4764 147.617 93.7468H146.916C146.994 92.1245 147.052 90.5215 147.091 88.9378C147.13 87.3348 147.15 85.5869 147.15 83.6942V81.8111Z" fill="white"/>
<path d="M167.346 83.2886C167.853 81.956 168.466 80.9807 169.186 80.3627C169.906 79.7253 170.763 79.4066 171.756 79.4066C171.853 79.4066 171.931 79.4163 171.989 79.4356C172.067 79.4356 172.145 79.4356 172.223 79.4356C172.164 79.7253 172.116 80.0343 172.077 80.3627C172.057 80.691 172.048 81.0773 172.048 81.5215V82.4485C172.048 82.603 172.048 82.7672 172.048 82.941C172.048 83.1148 172.057 83.279 172.077 83.4335L171.814 83.6652C171.619 83.5493 171.396 83.4528 171.142 83.3755C170.909 83.2983 170.636 83.2597 170.325 83.2597C169.449 83.2597 168.758 83.5494 168.252 84.1288C167.745 84.6888 167.492 85.3551 167.492 86.1277V87.2865C167.492 88.4646 167.502 89.5751 167.522 90.618C167.561 91.6609 167.629 92.6652 167.726 93.6309C167.473 93.5923 167.152 93.573 166.762 93.573C166.393 93.573 165.984 93.573 165.536 93.573C165.088 93.573 164.679 93.573 164.31 93.573C163.94 93.573 163.618 93.5923 163.346 93.6309C163.443 92.6652 163.502 91.6609 163.521 90.618C163.56 89.5751 163.58 88.4646 163.58 87.2865V86.1277C163.58 84.9496 163.56 83.8487 163.521 82.8251C163.502 81.7822 163.443 80.7393 163.346 79.6963C163.677 79.735 164.008 79.7736 164.339 79.8122C164.689 79.8316 165.03 79.8412 165.361 79.8412C165.692 79.8412 166.023 79.8316 166.354 79.8122C166.704 79.7736 167.045 79.735 167.376 79.6963L167.288 83.2307L167.346 83.2886Z" fill="white"/>
<path d="M181.215 89.2275C181.215 88.397 181.215 87.7693 181.215 87.3444C181.235 86.9002 181.244 86.5139 181.244 86.1856C180.836 86.4174 180.398 86.6105 179.93 86.765C179.483 86.9002 179.064 87.0837 178.675 87.3154C178.305 87.5279 177.993 87.8273 177.74 88.2135C177.507 88.5998 177.39 89.1599 177.39 89.8938C177.39 90.6084 177.536 91.1588 177.828 91.5451C178.139 91.912 178.548 92.0955 179.054 92.0955C179.697 92.0955 180.213 91.8541 180.602 91.3712C181.011 90.8884 181.215 90.1738 181.215 89.2275ZM174.295 81.3476C175.112 80.691 175.988 80.1888 176.923 79.8412C177.877 79.4936 178.821 79.3197 179.755 79.3197C180.534 79.3197 181.244 79.4066 181.887 79.5805C182.549 79.7543 183.113 80.0343 183.58 80.4206C184.067 80.7876 184.437 81.2704 184.69 81.8691C184.963 82.4678 185.099 83.1921 185.099 84.0418C185.099 85.2779 185.079 86.427 185.04 87.4893C185.021 88.5322 185.011 89.5751 185.011 90.618C185.011 91.0815 185.04 91.4485 185.099 91.7189C185.177 91.97 185.284 92.1631 185.42 92.2983C185.556 92.4335 185.731 92.5204 185.946 92.559C186.179 92.5976 186.442 92.617 186.734 92.617V93.3122C186.169 93.544 185.693 93.7178 185.303 93.8337C184.914 93.9496 184.495 94.0075 184.048 94.0075C183.327 94.0075 182.743 93.8337 182.296 93.486C181.848 93.1384 181.507 92.6363 181.274 91.9796C180.826 92.5976 180.3 93.0901 179.697 93.4571C179.113 93.824 178.373 94.0075 177.478 94.0075C176.738 94.0075 176.105 93.9109 175.58 93.7178C175.054 93.5247 174.616 93.2543 174.266 92.9066C173.935 92.5397 173.691 92.1341 173.535 91.6899C173.38 91.2264 173.302 90.7629 173.302 90.2994C173.302 89.662 173.399 89.1116 173.594 88.6481C173.808 88.1845 174.1 87.7886 174.47 87.4603C174.859 87.132 175.317 86.8616 175.842 86.6491C176.368 86.4174 176.962 86.2242 177.624 86.0697C178.441 85.8766 179.084 85.7124 179.551 85.5772C180.037 85.4227 180.398 85.2779 180.631 85.1427C180.865 84.9882 181.011 84.824 181.069 84.6502C181.147 84.4764 181.186 84.2639 181.186 84.0129C181.186 83.3176 180.933 82.7285 180.427 82.2457C179.94 81.7436 179.259 81.4925 178.383 81.4925C178.052 81.4925 177.711 81.5408 177.361 81.6373C177.01 81.7146 176.67 81.8305 176.339 81.985C176.027 82.1395 175.735 82.3133 175.463 82.5064C175.21 82.6803 175.015 82.8734 174.879 83.0858H174.674L174.295 81.3476Z" fill="white"/>
<path d="M192.954 83.2886C193.46 81.956 194.073 80.9807 194.793 80.3627C195.514 79.7253 196.37 79.4066 197.363 79.4066C197.46 79.4066 197.538 79.4163 197.597 79.4356C197.674 79.4356 197.752 79.4356 197.83 79.4356C197.772 79.7253 197.723 80.0343 197.684 80.3627C197.665 80.691 197.655 81.0773 197.655 81.5215V82.4485C197.655 82.603 197.655 82.7672 197.655 82.941C197.655 83.1148 197.665 83.279 197.684 83.4335L197.421 83.6652C197.227 83.5493 197.003 83.4528 196.75 83.3755C196.516 83.2983 196.244 83.2597 195.932 83.2597C195.056 83.2597 194.365 83.5494 193.859 84.1288C193.353 84.6888 193.1 85.3551 193.1 86.1277V87.2865C193.1 88.4646 193.109 89.5751 193.129 90.618C193.168 91.6609 193.236 92.6652 193.333 93.6309C193.08 93.5923 192.759 93.573 192.37 93.573C192 93.573 191.591 93.573 191.143 93.573C190.696 93.573 190.287 93.573 189.917 93.573C189.547 93.573 189.226 93.5923 188.953 93.6309C189.051 92.6652 189.109 91.6609 189.128 90.618C189.167 89.5751 189.187 88.4646 189.187 87.2865V86.1277C189.187 84.9496 189.167 83.8487 189.128 82.8251C189.109 81.7822 189.051 80.7393 188.953 79.6963C189.284 79.735 189.615 79.7736 189.946 79.8122C190.296 79.8316 190.637 79.8412 190.968 79.8412C191.299 79.8412 191.63 79.8316 191.961 79.8122C192.311 79.7736 192.652 79.735 192.983 79.6963L192.895 83.2307L192.954 83.2886Z" fill="white"/>
<path d="M206.931 88.7929C207.281 87.9045 207.603 87.0837 207.895 86.3305C208.187 85.5579 208.459 84.8144 208.712 84.0998C208.985 83.3852 209.238 82.6706 209.472 81.956C209.725 81.2414 209.978 80.4882 210.231 79.6963C210.445 79.735 210.64 79.7736 210.815 79.8122C211.009 79.8316 211.204 79.8412 211.399 79.8412C211.593 79.8412 211.788 79.8316 211.983 79.8122C212.177 79.7736 212.392 79.735 212.625 79.6963C212.528 79.9474 212.294 80.4882 211.924 81.3187C211.574 82.1298 211.136 83.1438 210.61 84.3605C210.104 85.5579 209.54 86.8905 208.917 88.3584C208.294 89.8262 207.661 91.3133 207.019 92.8197C206.396 94.3069 205.783 95.7843 205.179 97.2521C204.595 98.72 204.079 100.053 203.631 101.25C203.417 101.211 203.213 101.173 203.018 101.134C202.824 101.115 202.619 101.105 202.405 101.105C202.191 101.105 201.986 101.115 201.792 101.134C201.597 101.173 201.393 101.211 201.179 101.25C201.821 99.9753 202.454 98.7103 203.077 97.4549C203.7 96.2189 204.303 94.9635 204.887 93.6888C204.42 92.588 203.894 91.3423 203.31 89.9517C202.746 88.5612 202.181 87.1996 201.617 85.867C201.072 84.5343 200.565 83.3176 200.098 82.2167C199.65 81.1159 199.31 80.2757 199.076 79.6963C199.446 79.735 199.806 79.7736 200.157 79.8122C200.526 79.8316 200.896 79.8412 201.266 79.8412C201.636 79.8412 201.996 79.8316 202.347 79.8122C202.697 79.7736 203.057 79.735 203.427 79.6963C203.992 81.2221 204.556 82.7382 205.121 84.2446C205.705 85.7511 206.308 87.2672 206.931 88.7929Z" fill="white"/>
<defs>
<clipPath id="clip0">
<rect width="101.25" height="108" fill="white"/>
</clipPath>
</defs>
</svg>
