<svg width="21" height="20" viewBox="0 0 21 20" fill="none" xmlns="http://www.w3.org/2000/svg">
<path d="M17.7222 9.98217C17.7222 9.35466 17.6713 8.89674 17.5611 8.42188H10.3955V11.2541H14.6015C14.5168 11.958 14.0588 13.018 13.0412 13.7303L13.027 13.8251L15.2926 15.5802L15.4495 15.5959C16.8911 14.2645 17.7222 12.3057 17.7222 9.98217Z" fill="white"/>
<path d="M10.3955 17.4448C12.4561 17.4448 14.186 16.7663 15.4496 15.5962L13.0412 13.7305C12.3968 14.18 11.5318 14.4937 10.3955 14.4937C8.37731 14.4937 6.66438 13.1624 6.05376 11.3223L5.96426 11.3299L3.60845 13.1531L3.57764 13.2387C4.83265 15.7318 7.41056 17.4448 10.3955 17.4448Z" fill="white"/>
<path d="M6.05434 11.3211C5.89323 10.8462 5.79998 10.3374 5.79998 9.81168C5.79998 9.28589 5.89323 8.77712 6.04587 8.30225L6.0416 8.20111L3.65626 6.34863L3.57821 6.38575C3.06096 7.42032 2.76416 8.58209 2.76416 9.81168C2.76416 11.0413 3.06096 12.203 3.57821 13.2375L6.05434 11.3211Z" fill="white"/>
<path d="M10.3955 5.13117C11.8286 5.13117 12.7953 5.7502 13.3465 6.26752L15.5004 4.16448C14.1776 2.93489 12.4561 2.18018 10.3955 2.18018C7.41056 2.18018 4.83265 3.89311 3.57764 6.38619L6.04529 8.30268C6.66438 6.46254 8.37731 5.13117 10.3955 5.13117Z" fill="white"/>
</svg>
