<svg width="20" height="20" viewBox="0 0 20 20" fill="none" xmlns="http://www.w3.org/2000/svg">
<path d="M10.1898 5.89914C8.02408 5.89914 6.2772 7.64641 6.2772 9.81261C6.2772 11.9788 8.02408 13.7261 10.1898 13.7261C12.3555 13.7261 14.1024 11.9788 14.1024 9.81261C14.1024 7.64641 12.3555 5.89914 10.1898 5.89914ZM10.1898 12.3569C8.79026 12.3569 7.6461 11.2159 7.6461 9.81261C7.6461 8.40934 8.78685 7.26834 10.1898 7.26834C11.5928 7.26834 12.7335 8.40934 12.7335 9.81261C12.7335 11.2159 11.5893 12.3569 10.1898 12.3569ZM15.175 5.73906C15.175 6.24655 14.7664 6.65186 14.2624 6.65186C13.7551 6.65186 13.3498 6.24314 13.3498 5.73906C13.3498 5.23497 13.7585 4.82626 14.2624 4.82626C14.7664 4.82626 15.175 5.23497 15.175 5.73906ZM17.7664 6.66548C17.7085 5.44274 17.4293 4.35964 16.5337 3.46727C15.6416 2.5749 14.5587 2.29561 13.3362 2.23431C12.0763 2.16278 8.2999 2.16278 7.03997 2.23431C5.8209 2.29221 4.73805 2.5715 3.84247 3.46387C2.9469 4.35623 2.67108 5.43933 2.60978 6.66208C2.53828 7.92229 2.53828 11.6995 2.60979 12.9597C2.66767 14.1825 2.9469 15.2656 3.84247 16.1579C4.73805 17.0503 5.8175 17.3296 7.03997 17.3909C8.2999 17.4624 12.0763 17.4624 13.3362 17.3909C14.5587 17.333 15.6416 17.0537 16.5337 16.1579C17.4259 15.2656 17.7051 14.1825 17.7664 12.9597C17.8379 11.6995 17.8379 7.9257 17.7664 6.66548ZM16.1387 14.3119C15.8731 14.9795 15.3589 15.4938 14.6881 15.7628C13.6836 16.1613 11.2999 16.0694 10.1898 16.0694C9.0797 16.0694 6.69264 16.1579 5.69151 15.7628C5.02409 15.4972 4.5099 14.9829 4.24089 14.3119C3.84247 13.3071 3.93442 10.923 3.93442 9.81261C3.93441 8.70226 3.84588 6.31467 4.24088 5.31331C4.50649 4.64574 5.02068 4.13144 5.69151 3.86236C6.69605 3.46387 9.0797 3.55583 10.1898 3.55583C11.2999 3.55583 13.687 3.46727 14.6881 3.86236C15.3555 4.12803 15.8697 4.64233 16.1387 5.31331C16.5371 6.31807 16.4452 8.70226 16.4452 9.81261C16.4452 10.923 16.5371 13.3105 16.1387 14.3119Z" fill="white"/>
</svg>
