<svg width="21" height="20" viewBox="0 0 21 20" fill="none" xmlns="http://www.w3.org/2000/svg">
<path d="M17.8588 5.9847C17.8701 6.15164 17.8701 6.31862 17.8701 6.48556C17.8701 11.5775 14.1978 17.4446 7.48587 17.4446C5.41807 17.4446 3.49717 16.8125 1.88135 15.7155C2.17514 15.7512 2.4576 15.7631 2.7627 15.7631C4.46889 15.7631 6.03954 15.155 7.29378 14.1175C5.68926 14.0817 4.34462 12.9727 3.88133 11.4463C4.10734 11.4821 4.33331 11.5059 4.57062 11.5059C4.8983 11.5059 5.22601 11.4582 5.53107 11.3748C3.85876 11.017 2.60448 9.46678 2.60448 7.59457V7.54689C3.09034 7.83309 3.65536 8.01196 4.25419 8.03578C3.27113 7.34412 2.62709 6.16357 2.62709 4.82797C2.62709 4.11249 2.80785 3.45662 3.12425 2.88422C4.92087 5.2215 7.62145 6.74786 10.6497 6.91484C10.5932 6.62864 10.5593 6.33055 10.5593 6.03242C10.5593 3.90976 12.1864 2.18066 14.209 2.18066C15.2598 2.18066 16.209 2.64573 16.8757 3.397C17.7005 3.23006 18.4915 2.90808 19.1921 2.46686C18.9208 3.36125 18.3446 4.11252 17.5875 4.58949C18.322 4.50605 19.0339 4.29136 19.6892 3.99326C19.1921 4.75643 18.5706 5.43612 17.8588 5.9847Z" fill="white"/>
</svg>
