<svg width="88" height="87" viewBox="0 0 88 87" fill="none" xmlns="http://www.w3.org/2000/svg">
<path d="M76.4586 41.9053C75.9511 41.1803 64.2061 23.9253 43.6161 23.9253C23.0261 23.9253 11.2811 41.1803 10.7736 41.9053C10.1211 42.8478 10.1211 44.1528 10.7736 45.1678C11.2811 45.8928 23.0261 63.1479 43.6161 63.1479C64.2061 63.1479 75.9511 45.8928 76.4586 45.1678C77.1111 44.1528 77.1111 42.8478 76.4586 41.9053ZM43.6161 57.2753C29.6236 57.2753 20.0536 47.4153 16.7911 43.5003C20.0536 39.5128 29.5511 29.7253 43.6161 29.7253C57.6086 29.7253 67.1786 39.5853 70.4411 43.5003C67.1786 47.4878 57.6086 57.2753 43.6161 57.2753ZM45.2836 31.6104C42.0936 31.1754 38.9761 31.9728 36.3661 33.9303C31.0736 37.9178 29.9861 45.4578 33.9736 50.7503C35.9311 53.3603 38.6861 54.9553 41.8761 55.4628C42.4561 55.5353 43.0361 55.6078 43.5436 55.6078C46.1536 55.6078 48.6186 54.7377 50.7211 53.2152C56.0136 49.2277 57.1011 41.6878 53.1136 36.3953C51.3011 33.7128 48.4736 32.0454 45.2836 31.6104ZM48.1836 49.6628C46.5886 50.8953 44.5586 51.4028 42.5286 51.1128C40.4986 50.8228 38.6861 49.7352 37.4536 48.1402C34.9161 44.7327 35.5686 39.9478 38.9761 37.3378C40.5711 36.1053 42.6011 35.5978 44.6311 35.8878C46.6611 36.1778 48.4736 37.2654 49.7061 38.8604C52.2436 42.2679 51.5911 47.1253 48.1836 49.6628ZM47.8936 39.1503C48.4736 39.6578 48.7636 40.4553 48.7636 41.1803C48.7636 41.9053 48.4736 42.7029 47.8936 43.2104C47.3861 43.7179 46.5886 44.0803 45.8636 44.0803C45.0661 44.0803 44.3411 43.7904 43.8336 43.2104C43.2536 42.6304 42.9636 41.9053 42.9636 41.1803C42.9636 40.3828 43.2536 39.6578 43.8336 39.1503C44.3411 38.5703 45.1386 38.2803 45.8636 38.2803C46.6611 38.3528 47.3861 38.6428 47.8936 39.1503Z" fill="black"/>
</svg>
