<svg width="19" height="16" viewBox="0 0 19 16" fill="none" xmlns="http://www.w3.org/2000/svg">
<path d="M16.8588 3.9847C16.8701 4.15164 16.8701 4.31862 16.8701 4.48556C16.8701 9.57747 13.1978 15.4446 6.48587 15.4446C4.41807 15.4446 2.49717 14.8125 0.881348 13.7155C1.17514 13.7512 1.4576 13.7631 1.7627 13.7631C3.46889 13.7631 5.03954 13.155 6.29378 12.1175C4.68926 12.0817 3.34462 10.9727 2.88133 9.44632C3.10734 9.48207 3.33331 9.50593 3.57062 9.50593C3.8983 9.50593 4.22601 9.45821 4.53107 9.37478C2.85876 9.017 1.60448 7.46678 1.60448 5.59457V5.54689C2.09034 5.83309 2.65536 6.01196 3.25419 6.03578C2.27113 5.34412 1.62709 4.16357 1.62709 2.82797C1.62709 2.11249 1.80785 1.45662 2.12425 0.884216C3.92087 3.2215 6.62145 4.74786 9.64967 4.91484C9.59319 4.62864 9.55927 4.33055 9.55927 4.03242C9.55927 1.90976 11.1864 0.180664 13.209 0.180664C14.2598 0.180664 15.209 0.645734 15.8757 1.397C16.7005 1.23006 17.4915 0.908075 18.1921 0.466864C17.9208 1.36125 17.3446 2.11252 16.5875 2.58949C17.322 2.50605 18.0339 2.29136 18.6892 1.99326C18.1921 2.75643 17.5706 3.43612 16.8588 3.9847Z" fill="#96A7B6"/>
</svg>
