<svg width="26" height="26" viewBox="0 0 26 26" fill="none" xmlns="http://www.w3.org/2000/svg">
<circle opacity="0.5" cx="13" cy="13" r="13" fill="black"/>
<path d="M10.1094 17.875V9.69922H7.56641V17.875H10.1094ZM8.85156 8.57812C9.23438 8.57812 9.58984 8.44141 9.89062 8.14062C10.1641 7.86719 10.3281 7.51172 10.3281 7.10156C10.3281 6.71875 10.1641 6.36328 9.89062 6.0625C9.58984 5.78906 9.23438 5.625 8.85156 5.625C8.44141 5.625 8.08594 5.78906 7.8125 6.0625C7.51172 6.36328 7.375 6.71875 7.375 7.10156C7.375 7.51172 7.51172 7.86719 7.8125 8.14062C8.08594 8.44141 8.44141 8.57812 8.85156 8.57812ZM19.625 17.875V13.3906C19.625 12.1328 19.4336 11.2031 19.0781 10.6016C18.5859 9.86328 17.7656 9.48047 16.5898 9.48047C15.9883 9.48047 15.4961 9.64453 15.0586 9.91797C14.6484 10.1641 14.3477 10.4648 14.1836 10.8203H14.1562V9.69922H11.7227V17.875H14.2383V13.8281C14.2383 13.1992 14.3203 12.707 14.5117 12.3789C14.7305 11.9414 15.1406 11.7227 15.7422 11.7227C16.3164 11.7227 16.6992 11.9688 16.918 12.4609C17.0273 12.7617 17.082 13.2266 17.082 13.8828V17.875H19.625Z" fill="white"/>
</svg>
