<svg width="26" height="26" viewBox="0 0 26 26" fill="none" xmlns="http://www.w3.org/2000/svg">
<circle opacity="0.5" cx="13" cy="13" r="13" fill="black"/>
<path d="M15.7061 9.7489C15.2005 9.27442 14.3139 8.70665 12.9994 8.70665C11.1489 8.70665 9.57817 9.92705 9.00992 11.6141L9.00997 11.6153C8.86997 12.0509 8.78445 12.5175 8.78445 12.9998C8.78445 13.482 8.86997 13.9487 9.01775 14.3842C9.57783 16.0719 11.1484 17.2934 12.9994 17.2934C14.0416 17.2934 14.835 17.0056 15.4261 16.5934C16.3594 15.9401 16.78 14.9679 16.8577 14.3224H13V11.7246H19.5722C19.6733 12.1602 19.72 12.5802 19.72 13.1557C19.72 15.2868 18.9577 17.0835 17.6355 18.3046C16.4766 19.3779 14.8894 20.0001 12.9994 20.0001C10.2616 20.0001 7.89719 18.4289 6.74609 16.1423C6.27183 15.1935 6 14.1274 6 12.9998C6 11.8722 6.27214 10.8068 6.74642 9.858C7.89752 7.57135 10.2616 6 12.9994 6C14.8894 6 16.4683 6.69222 17.6816 7.82L15.7061 9.7489Z" fill="white"/>
</svg>
