<svg width="16" height="16" viewBox="0 0 16 16" fill="none" xmlns="http://www.w3.org/2000/svg">
<path d="M8.1898 3.89914C6.02408 3.89914 4.2772 5.64641 4.2772 7.81261C4.2772 9.97881 6.02408 11.7261 8.1898 11.7261C10.3555 11.7261 12.1024 9.97881 12.1024 7.81261C12.1024 5.64641 10.3555 3.89914 8.1898 3.89914ZM8.1898 10.3569C6.79026 10.3569 5.6461 9.21587 5.6461 7.81261C5.6461 6.40934 6.78685 5.26834 8.1898 5.26834C9.59275 5.26834 10.7335 6.40934 10.7335 7.81261C10.7335 9.21587 9.58934 10.3569 8.1898 10.3569ZM13.175 3.73906C13.175 4.24655 12.7664 4.65186 12.2624 4.65186C11.7551 4.65186 11.3498 4.24314 11.3498 3.73906C11.3498 3.23497 11.7585 2.82626 12.2624 2.82626C12.7664 2.82626 13.175 3.23497 13.175 3.73906ZM15.7664 4.66548C15.7085 3.44274 15.4293 2.35964 14.5337 1.46727C13.6416 0.574905 12.5587 0.295615 11.3362 0.234307C10.0763 0.162782 6.2999 0.162782 5.03997 0.234308C3.8209 0.29221 2.73805 0.5715 1.84247 1.46387C0.946901 2.35623 0.671079 3.43933 0.609785 4.66208C0.538275 5.92229 0.538276 9.69952 0.609785 10.9597C0.667674 12.1825 0.946902 13.2656 1.84247 14.1579C2.73805 15.0503 3.8175 15.3296 5.03997 15.3909C6.2999 15.4624 10.0763 15.4624 11.3362 15.3909C12.5587 15.333 13.6416 15.0537 14.5337 14.1579C15.4259 13.2656 15.7051 12.1825 15.7664 10.9597C15.8379 9.69952 15.8379 5.9257 15.7664 4.66548ZM14.1387 12.3119C13.8731 12.9795 13.3589 13.4938 12.6881 13.7628C11.6836 14.1613 9.2999 14.0694 8.1898 14.0694C7.0797 14.0694 4.69264 14.1579 3.69151 13.7628C3.02409 13.4972 2.5099 12.9829 2.24089 12.3119C1.84247 11.3071 1.93442 8.92296 1.93442 7.81261C1.93441 6.70226 1.84588 4.31467 2.24088 3.31331C2.50649 2.64574 3.02068 2.13144 3.69151 1.86236C4.69605 1.46387 7.0797 1.55583 8.1898 1.55583C9.2999 1.55583 11.687 1.46727 12.6881 1.86236C13.3555 2.12803 13.8697 2.64233 14.1387 3.31331C14.5371 4.31807 14.4452 6.70226 14.4452 7.81261C14.4452 8.92296 14.5371 11.3105 14.1387 12.3119Z" fill="#96A7B6"/>
</svg>
