<svg width="16" height="16" viewBox="0 0 16 16" fill="none" xmlns="http://www.w3.org/2000/svg">
<path d="M15.7222 7.98217C15.7222 7.35466 15.6713 6.89674 15.5611 6.42188H8.39551V9.25414H12.6015C12.5168 9.958 12.0588 11.018 11.0412 11.7303L11.027 11.8251L13.2926 13.5802L13.4495 13.5959C14.8911 12.2645 15.7222 10.3057 15.7222 7.98217Z" fill="#96A7B6"/>
<path d="M8.39552 15.4448C10.4561 15.4448 12.186 14.7663 13.4496 13.5962L11.0412 11.7305C10.3968 12.18 9.53181 12.4937 8.39552 12.4937C6.37731 12.4937 4.66438 11.1624 4.05376 9.32227L3.96426 9.32987L1.60845 11.1531L1.57764 11.2387C2.83265 13.7318 5.41056 15.4448 8.39552 15.4448Z" fill="#96A7B6"/>
<path d="M4.05434 9.32111C3.89323 8.84624 3.79998 8.33741 3.79998 7.81168C3.79998 7.28589 3.89323 6.77712 4.04587 6.30225L4.0416 6.20111L1.65626 4.34863L1.57821 4.38575C1.06096 5.42032 0.76416 6.58209 0.76416 7.81168C0.76416 9.04127 1.06096 10.203 1.57821 11.2375L4.05434 9.32111Z" fill="#96A7B6"/>
<path d="M8.39552 3.13117C9.82861 3.13117 10.7953 3.7502 11.3465 4.26752L13.5004 2.16448C12.1776 0.934893 10.4561 0.180176 8.39552 0.180176C5.41056 0.180176 2.83265 1.89311 1.57764 4.38619L4.04529 6.30268C4.66438 4.46254 6.37731 3.13117 8.39552 3.13117Z" fill="#96A7B6"/>
</svg>
