<svg width="26" height="26" viewBox="0 0 26 26" fill="none" xmlns="http://www.w3.org/2000/svg">
<circle opacity="0.5" cx="13" cy="13" r="13" fill="black"/>
<path d="M13.0016 9.41058C11.0152 9.41058 9.41294 11.0132 9.41294 13C9.41294 14.9868 11.0152 16.5894 13.0016 16.5894C14.988 16.5894 16.5902 14.9868 16.5902 13C16.5902 11.0132 14.988 9.41058 13.0016 9.41058ZM13.0016 15.3336C11.7179 15.3336 10.6685 14.2871 10.6685 13C10.6685 11.7129 11.7148 10.6664 13.0016 10.6664C14.2883 10.6664 15.3346 11.7129 15.3346 13C15.3346 14.2871 14.2852 15.3336 13.0016 15.3336ZM17.574 9.26375C17.574 9.72922 17.1992 10.101 16.737 10.101C16.2716 10.101 15.8999 9.7261 15.8999 9.26375C15.8999 8.80141 16.2747 8.42653 16.737 8.42653C17.1992 8.42653 17.574 8.80141 17.574 9.26375ZM19.9508 10.1135C19.8977 8.99197 19.6416 7.99855 18.8202 7.18007C18.0019 6.3616 17.0087 6.10543 15.8875 6.0492C14.7318 5.9836 11.2682 5.9836 10.1125 6.0492C8.99442 6.10231 8.00123 6.35847 7.17981 7.17695C6.35839 7.99543 6.10541 8.98884 6.04919 10.1103C5.9836 11.2662 5.9836 14.7307 6.04919 15.8865C6.10229 17.008 6.35839 18.0015 7.17981 18.8199C8.00123 19.6384 8.9913 19.8946 10.1125 19.9508C11.2682 20.0164 14.7318 20.0164 15.8874 19.9508C17.0087 19.8977 18.0019 19.6415 18.8202 18.8199C19.6385 18.0015 19.8946 17.008 19.9508 15.8865C20.0164 14.7307 20.0164 11.2693 19.9508 10.1135ZM18.4579 17.1267C18.2143 17.739 17.7427 18.2108 17.1274 18.4575C16.206 18.8231 14.0197 18.7387 13.0016 18.7387C11.9834 18.7387 9.79398 18.8199 8.87574 18.4575C8.26358 18.2139 7.79197 17.7422 7.54523 17.1267C7.17981 16.2052 7.26414 14.0184 7.26414 13C7.26414 11.9816 7.18293 9.7917 7.54523 8.87326C7.78885 8.26096 8.26046 7.78924 8.87574 7.54245C9.7971 7.17695 11.9834 7.2613 13.0016 7.2613C14.0197 7.2613 16.2091 7.18007 17.1274 7.54245C17.7395 7.78612 18.2112 8.25784 18.4579 8.87326C18.8233 9.79482 18.739 11.9816 18.739 13C18.739 14.0184 18.8233 16.2083 18.4579 17.1267Z" fill="white"/>
</svg>
