<svg width="26" height="26" viewBox="0 0 26 26" fill="none" xmlns="http://www.w3.org/2000/svg">
<circle opacity="0.5" cx="13" cy="13" r="13" fill="black"/>
<path d="M19.4582 10.2042C19.4677 10.3448 19.4677 10.4855 19.4677 10.6261C19.4677 14.9152 16.3744 19.8571 10.7208 19.8571C8.97906 19.8571 7.36105 19.3248 6 18.4007C6.24747 18.4308 6.48539 18.4409 6.74239 18.4409C8.17955 18.4409 9.50254 17.9286 10.559 17.0547C9.20749 17.0246 8.07487 16.0904 7.68464 14.8047C7.87501 14.8348 8.06535 14.8549 8.26524 14.8549C8.54125 14.8549 8.81729 14.8147 9.07425 14.7444C7.66562 14.4431 6.60911 13.1373 6.60911 11.5603V11.5201C7.01836 11.7612 7.49429 11.9118 7.9987 11.9319C7.17065 11.3493 6.62816 10.3549 6.62816 9.22989C6.62816 8.62722 6.78041 8.07477 7.04693 7.59262C8.56026 9.56137 10.835 10.8471 13.3858 10.9877C13.3382 10.7466 13.3096 10.4955 13.3096 10.2444C13.3096 8.45646 14.6802 7 16.3839 7C17.269 7 18.0685 7.39174 18.6301 8.02455C19.3249 7.88394 19.9911 7.61272 20.5812 7.24107C20.3528 7.99444 19.8674 8.62725 19.2297 9.02901C19.8484 8.95873 20.448 8.77789 21 8.5268C20.5813 9.16963 20.0578 9.74215 19.4582 10.2042Z" fill="white"/>
</svg>
