<svg width="33" height="20" viewBox="0 0 33 20" fill="none" xmlns="http://www.w3.org/2000/svg">
<path d="M32.5659 8.90521C32.3223 8.55719 26.6844 0.274414 16.8008 0.274414C6.91715 0.274414 1.2793 8.55719 1.03569 8.90521C0.722478 9.35763 0.722478 9.98405 1.03569 10.4713C1.2793 10.8193 6.91715 19.1021 16.8008 19.1021C26.6844 19.1021 32.3223 10.8193 32.5659 10.4713C32.8791 9.98405 32.8791 9.35763 32.5659 8.90521ZM16.8008 16.2831C10.0841 16.2831 5.49029 11.5501 3.92422 9.67082C5.49029 7.75674 10.0493 3.05854 16.8008 3.05854C23.5175 3.05854 28.1113 7.79154 29.6773 9.67082C28.1113 11.5849 23.5175 16.2831 16.8008 16.2831ZM17.6012 3.96341C16.0699 3.7546 14.5735 4.1374 13.3206 5.07704C10.7801 6.99112 10.2581 10.6105 12.1722 13.151C13.1118 14.4038 14.4343 15.1695 15.9655 15.4131C16.244 15.4479 16.5224 15.4827 16.766 15.4827C18.0188 15.4827 19.2021 15.065 20.2113 14.3342C22.7518 12.4201 23.2739 8.80077 21.3598 6.26026C20.4897 4.9726 19.1325 4.17222 17.6012 3.96341ZM18.9933 12.629C18.2276 13.2206 17.2532 13.4642 16.2788 13.325C15.3043 13.1858 14.4343 12.6637 13.8427 11.8981C12.6246 10.2624 12.9378 7.96555 14.5735 6.71269C15.3391 6.12107 16.3136 5.87746 17.288 6.01666C18.2624 6.15587 19.1325 6.67793 19.7241 7.44356C20.9422 9.07923 20.6289 11.4109 18.9933 12.629ZM18.8541 7.58273C19.1325 7.82634 19.2717 8.20918 19.2717 8.55719C19.2717 8.90521 19.1325 9.28804 18.8541 9.53165C18.6105 9.77526 18.2276 9.94925 17.8796 9.94925C17.4968 9.94925 17.1488 9.81006 16.9052 9.53165C16.6268 9.25324 16.4876 8.90521 16.4876 8.55719C16.4876 8.17437 16.6268 7.82634 16.9052 7.58273C17.1488 7.30432 17.5316 7.16513 17.8796 7.16513C18.2624 7.19993 18.6105 7.33912 18.8541 7.58273Z" fill="black"/>
</svg>
