<svg width="126" height="64" viewBox="0 0 126 64" fill="none" xmlns="http://www.w3.org/2000/svg">
<g clip-path="url(#clip0)">
<path d="M29.981 63.7622C35.8752 63.7622 40.9641 60.3121 43.3371 55.3297C43.8136 55.4058 44.4759 55.4534 44.9857 55.4534C53.1433 55.4534 59.7618 48.8483 59.7618 40.6967C59.7618 37.4227 58.6563 34.3438 56.8504 31.8978C58.6801 29.4423 59.7618 26.3586 59.7618 23.0608C59.7618 14.9092 53.1481 8.30406 44.9857 8.30406C44.3901 8.30406 43.7993 8.33737 43.2179 8.40876L43.1703 8.34213C40.7402 3.53583 35.7465 0.238037 29.981 0.238037H30.0191C24.2535 0.238037 19.2599 3.53583 16.825 8.34213L16.7774 8.40876C16.2008 8.33737 15.6099 8.30406 15.0096 8.30406C6.852 8.30406 0.238281 14.9139 0.238281 23.0608C0.238281 26.3586 1.31992 29.4423 3.14965 31.8978C1.34375 34.3485 0.238281 37.4227 0.238281 40.6967C0.238281 48.8436 6.852 55.4534 15.0143 55.4534C15.5242 55.4534 16.1865 55.4011 16.663 55.3297C19.0359 60.3168 24.1201 63.7622 30.0191 63.7622H29.981Z" stroke="black" stroke-width="0.680851" stroke-miterlimit="10"/>
<path d="M46.0388 21.9663C45.5385 22.0757 44.8857 22.2185 44.2043 22.1566C43.6421 22.109 43.1799 22.0805 42.2459 21.419C38.8247 19.0016 30.0954 12.1395 30.0954 12.1395C29.7713 12.3965 21.3612 19.0064 17.94 21.419C17.0061 22.0805 16.5439 22.1043 15.9816 22.1566C15.3003 22.2185 14.6475 22.071 14.1471 21.9663L13.8184 23.3844C15.3288 23.7222 16.744 23.7651 18.083 23.037C18.8025 22.6468 21.3898 20.7052 23.982 18.7208C25.6068 19.1158 28.0179 19.3395 30.0858 19.3395C32.1586 19.3395 34.5696 19.1158 36.1945 18.7208H36.1992C38.7961 20.71 41.3835 22.6563 42.0935 23.0417C43.4324 23.7698 44.8476 23.727 46.3581 23.3891L46.0388 21.9663ZM34.6554 17.5359C33.5785 17.7358 31.6058 17.9356 30.0715 17.9071C28.542 17.9356 26.5979 17.7263 25.521 17.5311H25.5115C25.5163 17.5311 25.521 17.5311 25.521 17.5311C27.8987 15.6943 29.9477 14.0811 30.0906 13.9716C30.0906 13.9716 32.2015 15.6324 34.6649 17.5359H34.6554Z" fill="black"/>
<path d="M42.4315 41.1915V25.6115L38.1573 28.9663V39.6021L40.9639 41.853V44.1562L36.9899 41.1439V25.6115L32.7158 28.9663V39.6021L35.5223 41.853V44.1562L31.6198 41.1439V25.6115L27.3457 28.9663V39.6021L30.1522 41.853V44.1562L26.2307 41.1439V25.6115L21.9566 28.9663V39.6021L24.7631 41.853V44.1562L20.8273 41.1439V25.6115L16.5531 28.9663V39.6021L19.3597 41.853V44.1562L16.8438 42.0861L15.9766 43.2139L20.8559 47.354V42.9808L26.2593 47.354V42.9808L31.6484 47.354V42.9808L37.0185 47.354V42.9808L42.46 47.354V43.1426L44.752 45.027L45.6192 43.8992L42.4315 41.1915ZM19.3978 39.978L18.0207 38.8883V29.6992L19.3978 28.6094V39.978ZM24.8012 39.978L23.4241 38.8883V29.6992L24.8012 28.6094V39.978ZM30.1904 39.978L28.8133 38.8883V29.6992L30.1904 28.6094V39.978ZM35.5604 39.978L34.1834 38.8883V29.6992L35.5604 28.6094V39.978ZM41.002 39.978L39.6249 38.8883V29.6992L41.002 28.6094V39.978Z" fill="black"/>
<path d="M56.4977 17.003C54.5488 13.2484 50.3271 9.3415 42.1981 10.1314C39.8156 4.96823 35.2747 2.0321 30.0046 2.0321L30.0856 2.03686C24.8156 2.03686 20.2747 4.97299 17.8874 10.1314C9.75845 9.34626 5.53672 13.2532 3.58787 17.003C1.75337 20.5388 1.22446 25.2118 5.19365 31.8978C2.38711 35.8142 0.871858 42.4336 3.94047 47.3637C6.75178 51.8797 11.3833 54.2638 17.6921 53.55C20.7226 59.1891 24.8919 61.9634 30.0856 61.9634L30.0046 61.9586C35.1984 61.9586 39.3677 59.1843 42.3982 53.5452C48.707 54.259 53.3385 51.8749 56.1498 47.3589C59.2184 42.4289 57.7032 35.8047 54.8966 31.8931C58.8658 25.2118 58.3369 20.5388 56.4977 17.003ZM55.2826 46.9306C53.3719 50.0333 49.0453 53.669 41.7693 52.4507C38.7197 58.9321 34.274 60.9974 30.0046 60.9974L30.0856 61.0021C25.8163 61.0021 21.3706 58.9416 18.321 52.4555C11.045 53.6737 6.71843 50.0381 4.80769 46.9354C2.48717 43.1617 2.64441 36.7612 6.48018 31.8978C3.63075 27.9671 1.99638 22.3376 4.4932 17.5027C7.01385 12.6298 12.0885 10.3313 18.5069 11.2259C20.8417 6.0675 24.868 3.05047 30.119 3.03144C30.0523 3.03144 29.9903 3.02668 29.9284 3.02668L30.1666 3.03144C30.1524 3.03144 30.1381 3.03144 30.119 3.03144C35.2985 3.10282 39.2724 6.10557 41.5882 11.2212C48.0065 10.3266 53.0812 12.625 55.6018 17.4979C58.0987 22.3328 56.4643 27.9624 53.6149 31.8931C57.4459 36.7565 57.6031 43.157 55.2826 46.9306Z" fill="black"/>
</g>
<path d="M78.9316 8.29185C78.6317 8.97854 78.349 9.65951 78.0837 10.3348C77.8184 10.9986 77.5588 11.6795 77.305 12.3777H80.4716C80.2179 11.6795 79.9641 10.9986 79.7103 10.3348C79.468 9.65951 79.2085 8.97854 78.9316 8.29185ZM85.0572 16.8584C84.7803 16.8355 84.515 16.824 84.2612 16.824C84.0189 16.824 83.7767 16.824 83.5344 16.824C83.2922 16.824 83.0442 16.824 82.7904 16.824C82.5481 16.824 82.3059 16.8355 82.0636 16.8584C81.879 16.2976 81.6887 15.7253 81.4926 15.1416C81.2965 14.5579 81.0888 13.9742 80.8696 13.3906C80.5005 13.3791 80.1313 13.3734 79.7622 13.3734C79.393 13.3619 79.0239 13.3562 78.6547 13.3562C78.3548 13.3562 78.0549 13.3619 77.7549 13.3734C77.455 13.3734 77.1551 13.3791 76.8551 13.3906C76.6244 13.9742 76.411 14.5579 76.2149 15.1416C76.0188 15.7253 75.84 16.2976 75.6785 16.8584C75.54 16.8355 75.4016 16.824 75.2632 16.824C75.1363 16.824 75.0036 16.824 74.8652 16.824C74.7268 16.824 74.5883 16.824 74.4499 16.824C74.3115 16.824 74.1615 16.8355 74 16.8584C74.1384 16.5608 74.323 16.1488 74.5537 15.6223C74.7844 15.0959 75.0382 14.5007 75.3151 13.8369C75.592 13.1731 75.8861 12.4635 76.1976 11.7082C76.5206 10.9413 76.8378 10.1688 77.1493 9.39056C77.4723 8.6123 77.7838 7.84549 78.0837 7.09013C78.3952 6.33476 78.6778 5.6309 78.9316 4.97854C79.047 5.00143 79.1566 5.02432 79.2604 5.04721C79.3642 5.05865 79.4738 5.06438 79.5891 5.06438C79.7045 5.06438 79.8141 5.05865 79.9179 5.04721C80.0217 5.02432 80.1313 5.00143 80.2467 4.97854C80.6158 5.95136 81.0081 6.99285 81.4234 8.103C81.8502 9.21316 82.277 10.3062 82.7038 11.382C83.1307 12.4464 83.546 13.4592 83.9497 14.4206C84.3535 15.382 84.7226 16.1946 85.0572 16.8584Z" fill="black"/>
<path d="M86.4933 14.7468C86.5625 14.9299 86.649 15.1073 86.7528 15.279C86.8682 15.4392 87.0066 15.588 87.1681 15.7253C87.3296 15.8512 87.5199 15.9542 87.7391 16.0343C87.9698 16.1144 88.2352 16.1545 88.5351 16.1545C88.9389 16.1545 89.2503 16.0515 89.4695 15.8455C89.6887 15.6395 89.7983 15.4163 89.7983 15.176C89.7983 14.9127 89.7002 14.701 89.5041 14.5408C89.308 14.3805 89.06 14.2375 88.7601 14.1116C88.4717 13.9742 88.1544 13.8369 87.8083 13.6996C87.4623 13.5622 87.1393 13.3906 86.8393 13.1845C86.5509 12.9671 86.3087 12.6981 86.1126 12.3777C85.9165 12.0572 85.8184 11.6452 85.8184 11.1416C85.8184 10.6609 85.9049 10.2489 86.078 9.90558C86.2625 9.55079 86.499 9.26466 86.7874 9.04721C87.0758 8.81831 87.3988 8.65236 87.7564 8.54936C88.1256 8.43491 88.489 8.37768 88.8466 8.37768C89.3311 8.37768 89.7579 8.44635 90.1271 8.58369C90.5077 8.72103 90.8942 8.92132 91.2864 9.18455C91.1826 9.41345 91.0961 9.65951 91.0269 9.92275C90.9576 10.186 90.9057 10.4435 90.8711 10.6953H90.3866C90.352 10.5579 90.2943 10.4092 90.2136 10.2489C90.1328 10.0773 90.0232 9.91702 89.8848 9.76824C89.7464 9.61946 89.5791 9.49928 89.383 9.40773C89.1869 9.30472 88.9504 9.25322 88.6735 9.25322C88.3275 9.25322 88.0333 9.34478 87.791 9.5279C87.5603 9.71102 87.445 9.95136 87.445 10.2489C87.445 10.5236 87.543 10.7468 87.7391 10.9185C87.9468 11.0787 88.2006 11.2217 88.5005 11.3476C88.8004 11.4735 89.1292 11.5994 89.4868 11.7253C89.8444 11.8512 90.1732 12.0172 90.4731 12.2232C90.7731 12.4177 91.0211 12.6753 91.2172 12.9957C91.4249 13.3162 91.5287 13.7282 91.5287 14.2318C91.5287 14.7353 91.4364 15.1702 91.2518 15.5365C91.0672 15.8913 90.8192 16.1888 90.5077 16.4292C90.1963 16.6581 89.8387 16.824 89.4349 16.927C89.0427 17.03 88.6274 17.0815 88.189 17.0815C87.6699 17.0815 87.2027 17.0072 86.7874 16.8584C86.3721 16.7096 86.0434 16.5551 85.8011 16.3949C85.9395 15.8455 86.026 15.2961 86.0607 14.7468H86.4933Z" fill="black"/>
<path d="M93.063 5.35622C93.063 4.97854 93.1957 4.65808 93.461 4.39485C93.7264 4.13162 94.0494 4 94.43 4C94.8107 4 95.1337 4.13162 95.3991 4.39485C95.6644 4.65808 95.7971 4.97854 95.7971 5.35622C95.7971 5.73391 95.6644 6.05436 95.3991 6.3176C95.1337 6.58083 94.8107 6.71245 94.43 6.71245C94.0494 6.71245 93.7264 6.58083 93.461 6.3176C93.1957 6.05436 93.063 5.73391 93.063 5.35622ZM93.2707 12.412C93.2707 11.7139 93.2592 11.0615 93.2361 10.4549C93.2245 9.83691 93.1899 9.21888 93.1323 8.60086C93.2938 8.62375 93.4841 8.64664 93.7033 8.66953C93.9225 8.68097 94.1647 8.6867 94.43 8.6867C94.9722 8.6867 95.4048 8.65808 95.7278 8.60086C95.6702 9.21888 95.6298 9.83691 95.6067 10.4549C95.5952 11.0615 95.5894 11.7139 95.5894 12.412V13.0987C95.5894 13.7969 95.5952 14.4549 95.6067 15.073C95.6298 15.691 95.6702 16.2861 95.7278 16.8584C95.5779 16.8355 95.3875 16.824 95.1568 16.824C94.9376 16.824 94.6954 16.824 94.43 16.824C94.1647 16.824 93.9225 16.824 93.7033 16.824C93.4841 16.824 93.2938 16.8355 93.1323 16.8584C93.1899 16.2861 93.2245 15.691 93.2361 15.073C93.2592 14.4549 93.2707 13.7969 93.2707 13.0987V12.412Z" fill="black"/>
<path d="M101.945 14.2489C101.945 13.7568 101.945 13.3848 101.945 13.133C101.957 12.8698 101.963 12.6409 101.963 12.4464C101.721 12.5837 101.461 12.6981 101.184 12.7897C100.919 12.8698 100.671 12.9785 100.44 13.1159C100.221 13.2418 100.036 13.4192 99.8863 13.6481C99.7479 13.877 99.6787 14.2089 99.6787 14.6438C99.6787 15.0672 99.7652 15.3934 99.9382 15.6223C100.123 15.8398 100.365 15.9485 100.665 15.9485C101.046 15.9485 101.351 15.8054 101.582 15.5193C101.824 15.2332 101.945 14.8097 101.945 14.2489ZM97.8444 9.5794C98.329 9.19027 98.8481 8.8927 99.4018 8.6867C99.9671 8.48069 100.527 8.37768 101.08 8.37768C101.542 8.37768 101.963 8.42918 102.343 8.53219C102.736 8.63519 103.07 8.80114 103.347 9.03004C103.635 9.2475 103.855 9.53362 104.005 9.88841C104.166 10.2432 104.247 10.6724 104.247 11.176C104.247 11.9084 104.235 12.5894 104.212 13.2189C104.201 13.8369 104.195 14.4549 104.195 15.073C104.195 15.3476 104.212 15.5651 104.247 15.7253C104.293 15.8741 104.356 15.9886 104.437 16.0687C104.518 16.1488 104.622 16.2003 104.749 16.2232C104.887 16.2461 105.043 16.2575 105.216 16.2575V16.6695C104.881 16.8069 104.599 16.9099 104.368 16.9785C104.137 17.0472 103.889 17.0815 103.624 17.0815C103.197 17.0815 102.851 16.9785 102.586 16.7725C102.32 16.5665 102.119 16.269 101.98 15.8798C101.715 16.2461 101.403 16.5379 101.046 16.7554C100.7 16.9728 100.261 17.0815 99.7306 17.0815C99.2922 17.0815 98.9173 17.0243 98.6058 16.9099C98.2943 16.7954 98.0348 16.6352 97.8271 16.4292C97.631 16.2117 97.4868 15.9714 97.3945 15.7082C97.3023 15.4335 97.2561 15.1588 97.2561 14.8841C97.2561 14.5064 97.3138 14.1803 97.4292 13.9056C97.5561 13.6309 97.7291 13.3963 97.9483 13.2017C98.179 13.0072 98.4501 12.8469 98.7616 12.721C99.073 12.5837 99.4249 12.4692 99.8171 12.3777C100.302 12.2632 100.682 12.166 100.959 12.0858C101.248 11.9943 101.461 11.9084 101.599 11.8283C101.738 11.7368 101.824 11.6395 101.859 11.5365C101.905 11.4335 101.928 11.3076 101.928 11.1588C101.928 10.7468 101.778 10.3977 101.478 10.1116C101.19 9.81402 100.786 9.66524 100.267 9.66524C100.071 9.66524 99.869 9.69385 99.6614 9.75107C99.4537 9.79685 99.2518 9.86552 99.0557 9.95708C98.8711 10.0486 98.6981 10.1516 98.5366 10.2661C98.3866 10.3691 98.2713 10.4835 98.1905 10.6094H98.0694L97.8444 9.5794Z" fill="black"/>
<path d="M108.867 9.88841C109.19 9.40773 109.565 9.03577 109.992 8.77253C110.43 8.5093 110.926 8.37768 111.48 8.37768C112.345 8.37768 113.008 8.62947 113.47 9.13305C113.943 9.62518 114.179 10.4263 114.179 11.5365C114.179 12.1202 114.168 12.6352 114.145 13.0815C114.122 13.5279 114.11 13.9742 114.11 14.4206C114.11 14.7868 114.116 15.1874 114.127 15.6223C114.15 16.0458 114.174 16.4578 114.197 16.8584C114.047 16.8355 113.856 16.824 113.626 16.824C113.395 16.824 113.153 16.824 112.899 16.824C112.645 16.824 112.403 16.824 112.172 16.824C111.941 16.824 111.751 16.8355 111.601 16.8584C111.682 16.2632 111.734 15.5651 111.757 14.7639C111.78 13.9514 111.791 13.0243 111.791 11.9828C111.791 11.2618 111.664 10.7353 111.411 10.4034C111.168 10.0601 110.822 9.88841 110.372 9.88841C109.853 9.88841 109.473 10.1116 109.23 10.5579C108.988 11.0043 108.867 11.6223 108.867 12.412V13.0987C108.867 13.7969 108.873 14.4549 108.884 15.073C108.907 15.691 108.948 16.2861 109.005 16.8584C108.855 16.8355 108.665 16.824 108.434 16.824C108.215 16.824 107.973 16.824 107.708 16.824C107.442 16.824 107.2 16.824 106.981 16.824C106.762 16.824 106.571 16.8355 106.41 16.8584C106.468 16.2861 106.502 15.691 106.514 15.073C106.537 14.4549 106.548 13.7969 106.548 13.0987V12.412C106.548 11.7139 106.537 11.0615 106.514 10.4549C106.502 9.83691 106.468 9.21888 106.41 8.60086C106.618 8.62375 106.819 8.64664 107.015 8.66953C107.223 8.68097 107.431 8.6867 107.638 8.6867C107.846 8.6867 108.048 8.68097 108.244 8.66953C108.452 8.64664 108.671 8.62375 108.902 8.60086L108.832 9.88841H108.867Z" fill="black"/>
<path d="M74.2163 26.9871C74.2163 26.0372 74.2048 25.196 74.1817 24.4635C74.1586 23.7196 74.124 22.9757 74.0779 22.2318C74.274 22.2547 74.4874 22.2775 74.7181 22.3004C74.9488 22.3119 75.2084 22.3176 75.4968 22.3176C75.7852 22.3176 76.0447 22.3119 76.2755 22.3004C76.5062 22.2775 76.7196 22.2547 76.9157 22.2318C76.8696 22.9757 76.8349 23.7196 76.8119 24.4635C76.7888 25.196 76.7773 26.0372 76.7773 26.9871V29.3219C76.7773 29.9742 76.7773 30.6037 76.7773 31.2103C76.7888 31.8169 76.8003 32.3433 76.8119 32.7897C77.4694 32.7897 78.127 32.7725 78.7845 32.7382C79.4421 32.7039 80.1054 32.6466 80.7745 32.5665C80.7514 32.6924 80.7341 32.8069 80.7226 32.9099C80.711 33.0129 80.7052 33.1559 80.7052 33.3391C80.7052 33.5222 80.711 33.6652 80.7226 33.7682C80.7341 33.8712 80.7514 33.9571 80.7745 34.0258C80.463 34.0143 80.0765 34.0029 79.6151 33.9914C79.1652 33.9914 78.5423 33.9914 77.7463 33.9914C77.0426 33.9914 76.4716 33.9914 76.0332 33.9914C75.6064 33.9914 75.2603 33.9914 74.995 33.9914C74.7412 33.9914 74.5451 33.9914 74.4066 33.9914C74.2797 34.0029 74.1702 34.0143 74.0779 34.0258C74.124 33.3162 74.1586 32.5951 74.1817 31.8627C74.2048 31.1187 74.2163 30.2718 74.2163 29.3219V26.9871Z" fill="black"/>
<path d="M84.4602 29.9227C84.4602 30.3805 84.5063 30.8097 84.5986 31.2103C84.6909 31.6109 84.8293 31.9599 85.0139 32.2575C85.21 32.5436 85.4523 32.7725 85.7407 32.9442C86.0406 33.1044 86.3867 33.1845 86.7789 33.1845C87.5749 33.1845 88.2843 32.927 88.9073 32.412L89.1149 32.5665L88.7342 33.5279C88.4458 33.7453 88.0998 33.917 87.696 34.0429C87.2922 34.1803 86.7616 34.2489 86.1041 34.2489C85.5388 34.2489 85.0024 34.1688 84.4948 34.0086C83.9872 33.8598 83.5373 33.608 83.1451 33.2532C82.7644 32.8984 82.4587 32.4521 82.228 31.9142C82.0088 31.3648 81.8992 30.7124 81.8992 29.9571C81.8992 29.2132 81.9973 28.5665 82.1934 28.0172C82.401 27.4678 82.6837 27.01 83.0413 26.6438C83.3989 26.2775 83.8199 26.0029 84.3044 25.8197C84.8005 25.6366 85.3369 25.5451 85.9137 25.5451C87.0558 25.5451 87.9267 25.877 88.5266 26.5408C89.138 27.2046 89.4437 28.1431 89.4437 29.3562V29.7167C89.4437 29.8197 89.4379 29.8884 89.4264 29.9227H84.4602ZM87.125 29.1502C87.1019 28.2918 86.9923 27.6052 86.7962 27.0901C86.6116 26.5751 86.2944 26.3176 85.8445 26.3176C85.5907 26.3176 85.3773 26.4034 85.2043 26.5751C85.0312 26.7468 84.8928 26.97 84.789 27.2446C84.6851 27.5079 84.6044 27.8112 84.5467 28.1545C84.5006 28.4864 84.4717 28.8183 84.4602 29.1502H87.125Z" fill="black"/>
<path d="M94.2023 26.2489C93.4178 26.2489 93.0256 27.0043 93.0256 28.515C93.0256 28.8927 93.0602 29.2132 93.1294 29.4764C93.1986 29.7282 93.2852 29.9342 93.389 30.0944C93.5043 30.2546 93.6255 30.3691 93.7524 30.4378C93.8908 30.5064 94.0292 30.5408 94.1677 30.5408C94.5483 30.5408 94.831 30.3748 95.0155 30.0429C95.2001 29.711 95.2924 29.1502 95.2924 28.3605C95.2924 27.5823 95.1886 27.0386 94.9809 26.7296C94.7733 26.4092 94.5137 26.2489 94.2023 26.2489ZM96.7805 26.4206C97.0689 26.6266 97.2939 26.8898 97.4554 27.2103C97.6284 27.5193 97.7149 27.8913 97.7149 28.3262C97.7149 28.7496 97.6342 29.1388 97.4727 29.4936C97.3112 29.8369 97.0805 30.1345 96.7805 30.3863C96.4921 30.6381 96.1403 30.8326 95.725 30.97C95.3212 31.1073 94.8656 31.176 94.358 31.176C94.2311 31.176 94.1042 31.176 93.9773 31.176C93.8619 31.1645 93.7293 31.1588 93.5793 31.1588C93.4409 31.1588 93.3198 31.2217 93.2159 31.3476C93.1237 31.4735 93.0775 31.6166 93.0775 31.7768C93.0775 32.0515 93.1813 32.269 93.389 32.4292C93.6082 32.5894 93.9485 32.6752 94.4099 32.6867L95.6904 32.7039C96.6594 32.7153 97.3689 32.8984 97.8188 33.2532C98.2802 33.5966 98.5109 34.1516 98.5109 34.9185C98.5109 35.6051 98.3667 36.1774 98.0783 36.6352C97.8015 37.1044 97.4381 37.4821 96.9882 37.7682C96.5498 38.0658 96.0595 38.2775 95.5174 38.4034C94.9752 38.5293 94.4503 38.5923 93.9427 38.5923C92.8583 38.5923 92.0104 38.3805 91.399 37.9571C90.7992 37.5451 90.4992 36.9957 90.4992 36.309C90.4992 35.7597 90.6492 35.3133 90.9491 34.97C91.2606 34.6381 91.6759 34.3748 92.195 34.1803V34.1459C91.8951 34.0429 91.6528 33.8884 91.4682 33.6824C91.2952 33.465 91.2087 33.196 91.2087 32.8755C91.2087 32.4979 91.3529 32.1316 91.6413 31.7768C91.9412 31.422 92.3334 31.1817 92.8179 31.0558V31.0215C92.1143 30.8498 91.5721 30.5408 91.1914 30.0944C90.7992 29.6366 90.6031 29.0415 90.6031 28.309C90.6031 27.8741 90.6896 27.485 90.8626 27.1416C91.0472 26.7983 91.301 26.5122 91.624 26.2833C91.947 26.0429 92.3334 25.8598 92.7833 25.7339C93.2332 25.608 93.7293 25.5451 94.2715 25.5451C94.4791 25.5451 94.6925 25.5565 94.9117 25.5794C95.1309 25.5908 95.3443 25.6023 95.552 25.6137C95.7019 25.6252 95.8519 25.6366 96.0019 25.6481C96.1634 25.6481 96.3364 25.6481 96.521 25.6481C96.8094 25.6481 97.1093 25.6481 97.4208 25.6481C97.7322 25.6366 98.0437 25.6309 98.3552 25.6309C98.3436 25.6996 98.3321 25.7682 98.3206 25.8369C98.3206 25.9056 98.3206 25.9742 98.3206 26.0429C98.3206 26.1116 98.3206 26.1803 98.3206 26.2489C98.3321 26.3176 98.3436 26.3863 98.3552 26.4549L96.8324 26.3863L96.7805 26.4206ZM96.5037 35.8455C96.5037 35.5136 96.446 35.2389 96.3306 35.0215C96.2153 34.8154 96.048 34.6552 95.8288 34.5408C95.6212 34.4263 95.3616 34.3462 95.0501 34.3004C94.7387 34.2661 94.3868 34.2489 93.9946 34.2489C93.3947 34.2489 92.9795 34.3062 92.7487 34.4206C92.6103 34.4893 92.4603 34.6552 92.2988 34.9185C92.1489 35.1817 92.0739 35.5136 92.0739 35.9142C92.0739 36.2461 92.1316 36.5322 92.2469 36.7725C92.3738 37.0243 92.5411 37.2303 92.7487 37.3906C92.9564 37.5508 93.1929 37.671 93.4582 37.7511C93.7351 37.8426 94.0292 37.8884 94.3407 37.8884C94.6752 37.8884 94.9752 37.8312 95.2405 37.7167C95.5058 37.6137 95.7308 37.4649 95.9153 37.2704C96.1115 37.0873 96.2556 36.8698 96.3479 36.618C96.4518 36.3777 96.5037 36.1202 96.5037 35.8455Z" fill="black"/>
<path d="M103.737 31.4163C103.737 30.9242 103.737 30.5522 103.737 30.3004C103.748 30.0372 103.754 29.8083 103.754 29.6137C103.512 29.7511 103.252 29.8655 102.975 29.9571C102.71 30.0372 102.462 30.1459 102.231 30.2833C102.012 30.4092 101.827 30.5866 101.678 30.8155C101.539 31.0443 101.47 31.3763 101.47 31.8112C101.47 32.2346 101.556 32.5608 101.729 32.7897C101.914 33.0072 102.156 33.1159 102.456 33.1159C102.837 33.1159 103.143 32.9728 103.373 32.6867C103.616 32.4006 103.737 31.9771 103.737 31.4163ZM99.6357 26.7468C100.12 26.3577 100.639 26.0601 101.193 25.8541C101.758 25.6481 102.318 25.5451 102.871 25.5451C103.333 25.5451 103.754 25.5966 104.135 25.6996C104.527 25.8026 104.861 25.9685 105.138 26.1974C105.427 26.4149 105.646 26.701 105.796 27.0558C105.957 27.4106 106.038 27.8398 106.038 28.3433C106.038 29.0758 106.027 29.7568 106.003 30.3863C105.992 31.0043 105.986 31.6223 105.986 32.2403C105.986 32.515 106.003 32.7325 106.038 32.8927C106.084 33.0415 106.148 33.1559 106.228 33.2361C106.309 33.3162 106.413 33.3677 106.54 33.3906C106.678 33.4134 106.834 33.4249 107.007 33.4249V33.8369C106.673 33.9743 106.39 34.0773 106.159 34.1459C105.929 34.2146 105.68 34.2489 105.415 34.2489C104.988 34.2489 104.642 34.1459 104.377 33.9399C104.112 33.7339 103.91 33.4363 103.771 33.0472C103.506 33.4134 103.194 33.7053 102.837 33.9227C102.491 34.1402 102.052 34.2489 101.522 34.2489C101.083 34.2489 100.709 34.1917 100.397 34.0773C100.086 33.9628 99.826 33.8026 99.6184 33.5966C99.4223 33.3791 99.2781 33.1388 99.1858 32.8755C99.0935 32.6009 99.0473 32.3262 99.0473 32.0515C99.0473 31.6738 99.105 31.3476 99.2204 31.073C99.3473 30.7983 99.5203 30.5637 99.7395 30.3691C99.9702 30.1745 100.241 30.0143 100.553 29.8884C100.864 29.7511 101.216 29.6366 101.608 29.5451C102.093 29.4306 102.474 29.3333 102.75 29.2532C103.039 29.1617 103.252 29.0758 103.391 28.9957C103.529 28.9042 103.616 28.8069 103.65 28.7039C103.696 28.6009 103.719 28.475 103.719 28.3262C103.719 27.9142 103.569 27.5651 103.269 27.279C102.981 26.9814 102.577 26.8326 102.058 26.8326C101.862 26.8326 101.66 26.8612 101.453 26.9185C101.245 26.9642 101.043 27.0329 100.847 27.1245C100.662 27.216 100.489 27.319 100.328 27.4335C100.178 27.5365 100.062 27.6509 99.9817 27.7768H99.8606L99.6357 26.7468Z" fill="black"/>
<path d="M114.5 28.1373C114.407 27.6223 114.223 27.2103 113.946 26.9013C113.681 26.5808 113.283 26.4206 112.752 26.4206C112.06 26.4206 111.541 26.7353 111.195 27.3648C110.849 27.9828 110.676 28.8469 110.676 29.9571C110.676 30.9986 110.895 31.7997 111.333 32.3605C111.771 32.9099 112.412 33.1845 113.254 33.1845C113.611 33.1845 113.958 33.1044 114.292 32.9442C114.627 32.7725 114.875 32.5837 115.036 32.3777L115.244 32.5494C115.163 32.7096 115.094 32.8755 115.036 33.0472C114.978 33.2189 114.921 33.3906 114.863 33.5622C114.609 33.7568 114.286 33.917 113.894 34.0429C113.513 34.1803 113.058 34.2489 112.527 34.2489C111.685 34.2489 110.975 34.1288 110.399 33.8884C109.822 33.6481 109.355 33.3219 108.997 32.9099C108.651 32.4979 108.403 32.0343 108.253 31.5193C108.103 30.9928 108.028 30.4664 108.028 29.9399C108.028 29.3104 108.132 28.7267 108.34 28.1888C108.559 27.6509 108.864 27.1874 109.257 26.7983C109.66 26.4092 110.145 26.1059 110.71 25.8884C111.275 25.6595 111.904 25.5451 112.596 25.5451C113.254 25.5451 113.808 25.6195 114.257 25.7682C114.719 25.917 115.157 26.1116 115.573 26.3519C115.434 26.5808 115.301 26.8612 115.175 27.1931C115.059 27.525 114.973 27.8398 114.915 28.1373H114.5Z" fill="black"/>
<path d="M120.48 31.1588C120.687 30.6323 120.878 30.1459 121.051 29.6996C121.224 29.2418 121.385 28.8011 121.535 28.3777C121.697 27.9542 121.847 27.5308 121.985 27.1073C122.135 26.6838 122.285 26.2375 122.435 25.7682C122.562 25.7911 122.677 25.814 122.781 25.8369C122.896 25.8484 123.012 25.8541 123.127 25.8541C123.243 25.8541 123.358 25.8484 123.473 25.8369C123.589 25.814 123.715 25.7911 123.854 25.7682C123.796 25.917 123.658 26.2375 123.439 26.7296C123.231 27.2103 122.971 27.8112 122.66 28.5322C122.36 29.2418 122.025 30.0315 121.656 30.9013C121.287 31.7711 120.912 32.6524 120.532 33.5451C120.162 34.4263 119.799 35.3019 119.441 36.1717C119.095 37.0415 118.79 37.8312 118.524 38.5408C118.397 38.5179 118.276 38.495 118.161 38.4721C118.046 38.4607 117.924 38.4549 117.798 38.4549C117.671 38.4549 117.55 38.4607 117.434 38.4721C117.319 38.495 117.198 38.5179 117.071 38.5408C117.451 37.7854 117.826 37.0358 118.196 36.2918C118.565 35.5594 118.922 34.8154 119.268 34.0601C118.992 33.4077 118.68 32.6695 118.334 31.8455C117.999 31.0215 117.665 30.2146 117.33 29.4249C117.007 28.6352 116.707 27.9142 116.431 27.2618C116.165 26.6094 115.963 26.1116 115.825 25.7682C116.044 25.7911 116.258 25.814 116.465 25.8369C116.684 25.8484 116.904 25.8541 117.123 25.8541C117.342 25.8541 117.555 25.8484 117.763 25.8369C117.971 25.814 118.184 25.7911 118.403 25.7682C118.738 26.6724 119.072 27.5708 119.407 28.4635C119.753 29.3562 120.111 30.2546 120.48 31.1588Z" fill="black"/>
<path d="M74.2163 48.4464C74.2163 47.4964 74.2048 46.6552 74.1817 45.9227C74.1586 45.1788 74.124 44.4349 74.0779 43.691C74.274 43.7139 74.4874 43.7368 74.7181 43.7597C74.9488 43.7711 75.2084 43.7768 75.4968 43.7768C75.7852 43.7768 76.0447 43.7711 76.2755 43.7597C76.5062 43.7368 76.7196 43.7139 76.9157 43.691C76.8696 44.4349 76.8349 45.1788 76.8119 45.9227C76.7888 46.6552 76.7773 47.4964 76.7773 48.4464V50.7811C76.7773 51.4335 76.7773 52.0629 76.7773 52.6695C76.7888 53.2761 76.8003 53.8026 76.8119 54.2489C77.4694 54.2489 78.127 54.2318 78.7845 54.1974C79.4421 54.1631 80.1054 54.1059 80.7745 54.0257C80.7514 54.1516 80.7341 54.2661 80.7226 54.3691C80.711 54.4721 80.7052 54.6152 80.7052 54.7983C80.7052 54.9814 80.711 55.1245 80.7226 55.2275C80.7341 55.3305 80.7514 55.4163 80.7745 55.485C80.463 55.4735 80.0765 55.4621 79.6151 55.4506C79.1652 55.4506 78.5423 55.4506 77.7463 55.4506C77.0426 55.4506 76.4716 55.4506 76.0332 55.4506C75.6064 55.4506 75.2603 55.4506 74.995 55.4506C74.7412 55.4506 74.5451 55.4506 74.4066 55.4506C74.2797 55.4621 74.1702 55.4735 74.0779 55.485C74.124 54.7754 74.1586 54.0544 74.1817 53.3219C74.2048 52.578 74.2163 51.731 74.2163 50.7811V48.4464Z" fill="black"/>
<path d="M82.3664 43.9828C82.3664 43.6051 82.4991 43.2847 82.7644 43.0215C83.0297 42.7582 83.3527 42.6266 83.7334 42.6266C84.1141 42.6266 84.4371 42.7582 84.7024 43.0215C84.9678 43.2847 85.1004 43.6051 85.1004 43.9828C85.1004 44.3605 84.9678 44.681 84.7024 44.9442C84.4371 45.2074 84.1141 45.3391 83.7334 45.3391C83.3527 45.3391 83.0297 45.2074 82.7644 44.9442C82.4991 44.681 82.3664 44.3605 82.3664 43.9828ZM82.5741 51.0386C82.5741 50.3405 82.5625 49.6881 82.5395 49.0815C82.5279 48.4635 82.4933 47.8455 82.4356 47.2275C82.5971 47.2504 82.7875 47.2732 83.0067 47.2961C83.2258 47.3076 83.4681 47.3133 83.7334 47.3133C84.2756 47.3133 84.7082 47.2847 85.0312 47.2275C84.9735 47.8455 84.9332 48.4635 84.9101 49.0815C84.8985 49.6881 84.8928 50.3405 84.8928 51.0386V51.7253C84.8928 52.4235 84.8985 53.0815 84.9101 53.6996C84.9332 54.3176 84.9735 54.9127 85.0312 55.485C84.8812 55.4621 84.6909 55.4506 84.4602 55.4506C84.241 55.4506 83.9987 55.4506 83.7334 55.4506C83.4681 55.4506 83.2258 55.4506 83.0067 55.4506C82.7875 55.4506 82.5971 55.4621 82.4356 55.485C82.4933 54.9127 82.5279 54.3176 82.5395 53.6996C82.5625 53.0815 82.5741 52.4235 82.5741 51.7253V51.0386Z" fill="black"/>
<path d="M89.5185 51.4335C89.5185 51.937 89.5358 52.4063 89.5704 52.8412C89.6165 53.2761 89.6915 53.6538 89.7953 53.9742C89.9107 54.2833 90.0606 54.5293 90.2452 54.7124C90.4413 54.8956 90.6951 54.9871 91.0066 54.9871C91.5026 54.9871 91.8948 54.6838 92.1832 54.0773C92.4832 53.4592 92.6331 52.4521 92.6331 51.0558C92.6331 49.0644 92.1371 48.0687 91.145 48.0687C90.9028 48.0687 90.6778 48.1259 90.4702 48.2403C90.2741 48.3548 90.101 48.5494 89.9511 48.824C89.8126 49.0873 89.703 49.4363 89.6223 49.8712C89.5531 50.2947 89.5185 50.8154 89.5185 51.4335ZM87.1997 48.4807C87.1997 47.3591 87.1882 46.329 87.1651 45.3906C87.1421 44.4521 87.1074 43.5021 87.0613 42.5408C87.2113 42.5637 87.4016 42.5865 87.6323 42.6094C87.8631 42.6209 88.1053 42.6266 88.3591 42.6266C88.6129 42.6266 88.8551 42.6209 89.0859 42.6094C89.3166 42.5865 89.5069 42.5637 89.6569 42.5408C89.6107 43.5021 89.5761 44.4521 89.5531 45.3906C89.53 46.329 89.5185 47.3591 89.5185 48.4807H89.5531C89.7492 48 90.0491 47.6338 90.4529 47.382C90.8682 47.1302 91.3354 47.0043 91.8545 47.0043C92.3505 47.0043 92.8004 47.113 93.2042 47.3305C93.6195 47.5479 93.9713 47.8398 94.2597 48.206C94.5596 48.5722 94.7904 49.0072 94.9519 49.5107C95.1134 50.0029 95.1941 50.535 95.1941 51.1073C95.1941 51.9657 95.073 52.6924 94.8307 53.2876C94.6 53.8712 94.2943 54.3462 93.9136 54.7124C93.5445 55.0787 93.1292 55.3362 92.6678 55.485C92.2063 55.6338 91.7507 55.7082 91.3008 55.7082C90.747 55.7082 90.2798 55.6051 89.8991 55.3991C89.5185 55.1817 89.207 54.9013 88.9647 54.5579C88.7225 54.6953 88.4745 54.8555 88.2207 55.0386C87.9784 55.2217 87.7304 55.3934 87.4766 55.5536H87.0613C87.1074 54.5923 87.1421 53.6423 87.1651 52.7039C87.1882 51.7539 87.1997 50.7182 87.1997 49.5966V48.4807Z" fill="black"/>
<path d="M99.1682 49.3562C99.4681 48.5665 99.8315 47.9886 100.258 47.6223C100.685 47.2446 101.193 47.0558 101.781 47.0558C101.839 47.0558 101.885 47.0615 101.92 47.073C101.966 47.073 102.012 47.073 102.058 47.073C102.023 47.2446 101.994 47.4277 101.971 47.6223C101.96 47.8169 101.954 48.0458 101.954 48.309V48.8584C101.954 48.9499 101.954 49.0472 101.954 49.1502C101.954 49.2532 101.96 49.3505 101.971 49.4421L101.816 49.5794C101.7 49.5107 101.568 49.4535 101.418 49.4077C101.279 49.3619 101.118 49.3391 100.933 49.3391C100.414 49.3391 100.005 49.5107 99.7046 49.8541C99.4047 50.186 99.2547 50.5808 99.2547 51.0386V51.7253C99.2547 52.4235 99.2605 53.0815 99.272 53.6996C99.2951 54.3176 99.3355 54.9127 99.3931 55.485C99.2432 55.4621 99.0528 55.4506 98.8221 55.4506C98.6029 55.4506 98.3607 55.4506 98.0954 55.4506C97.83 55.4506 97.5878 55.4506 97.3686 55.4506C97.1494 55.4506 96.9591 55.4621 96.7976 55.485C96.8552 54.9127 96.8899 54.3176 96.9014 53.6996C96.9245 53.0815 96.936 52.4235 96.936 51.7253V51.0386C96.936 50.3405 96.9245 49.6881 96.9014 49.0815C96.8899 48.4635 96.8552 47.8455 96.7976 47.2275C96.9937 47.2504 97.1898 47.2732 97.3859 47.2961C97.5935 47.3076 97.7954 47.3133 97.9915 47.3133C98.1876 47.3133 98.3838 47.3076 98.5799 47.2961C98.7875 47.2732 98.9894 47.2504 99.1855 47.2275L99.1336 49.3219L99.1682 49.3562Z" fill="black"/>
<path d="M107.387 52.8755C107.387 52.3834 107.387 52.0114 107.387 51.7597C107.398 51.4964 107.404 51.2675 107.404 51.073C107.162 51.2103 106.902 51.3247 106.625 51.4163C106.36 51.4964 106.112 51.6051 105.881 51.7425C105.662 51.8684 105.478 52.0458 105.328 52.2747C105.189 52.5036 105.12 52.8355 105.12 53.2704C105.12 53.6938 105.206 54.02 105.379 54.2489C105.564 54.4664 105.806 54.5751 106.106 54.5751C106.487 54.5751 106.793 54.432 107.023 54.1459C107.266 53.8598 107.387 53.4363 107.387 52.8755ZM103.286 48.206C103.77 47.8169 104.289 47.5193 104.843 47.3133C105.408 47.1073 105.968 47.0043 106.522 47.0043C106.983 47.0043 107.404 47.0558 107.785 47.1588C108.177 47.2618 108.511 47.4278 108.788 47.6567C109.077 47.8741 109.296 48.1602 109.446 48.515C109.607 48.8698 109.688 49.299 109.688 49.8026C109.688 50.535 109.677 51.216 109.654 51.8455C109.642 52.4635 109.636 53.0815 109.636 53.6996C109.636 53.9742 109.654 54.1917 109.688 54.3519C109.734 54.5007 109.798 54.6152 109.878 54.6953C109.959 54.7754 110.063 54.8269 110.19 54.8498C110.328 54.8727 110.484 54.8841 110.657 54.8841V55.2961C110.323 55.4335 110.04 55.5365 109.809 55.6051C109.579 55.6738 109.331 55.7082 109.065 55.7082C108.638 55.7082 108.292 55.6051 108.027 55.3991C107.762 55.1931 107.56 54.8956 107.421 54.5064C107.156 54.8727 106.845 55.1645 106.487 55.382C106.141 55.5994 105.702 55.7082 105.172 55.7082C104.733 55.7082 104.359 55.6509 104.047 55.5365C103.736 55.422 103.476 55.2618 103.268 55.0558C103.072 54.8383 102.928 54.598 102.836 54.3348C102.744 54.0601 102.697 53.7854 102.697 53.5107C102.697 53.133 102.755 52.8069 102.87 52.5322C102.997 52.2575 103.17 52.0229 103.39 51.8283C103.62 51.6338 103.891 51.4735 104.203 51.3476C104.514 51.2103 104.866 51.0958 105.258 51.0043C105.743 50.8898 106.124 50.7926 106.4 50.7124C106.689 50.6209 106.902 50.535 107.041 50.4549C107.179 50.3634 107.266 50.2661 107.3 50.1631C107.346 50.0601 107.369 49.9342 107.369 49.7854C107.369 49.3734 107.219 49.0243 106.92 48.7382C106.631 48.4406 106.227 48.2918 105.708 48.2918C105.512 48.2918 105.31 48.3205 105.103 48.3777C104.895 48.4235 104.693 48.4921 104.497 48.5837C104.312 48.6752 104.139 48.7783 103.978 48.8927C103.828 48.9957 103.713 49.1102 103.632 49.236H103.511L103.286 48.206Z" fill="black"/>
<path d="M114.343 49.3562C114.643 48.5665 115.006 47.9886 115.433 47.6223C115.86 47.2446 116.367 47.0558 116.956 47.0558C117.013 47.0558 117.06 47.0615 117.094 47.073C117.14 47.073 117.186 47.073 117.233 47.073C117.198 47.2446 117.169 47.4277 117.146 47.6223C117.135 47.8169 117.129 48.0458 117.129 48.309V48.8584C117.129 48.9499 117.129 49.0472 117.129 49.1502C117.129 49.2532 117.135 49.3505 117.146 49.4421L116.99 49.5794C116.875 49.5107 116.742 49.4535 116.592 49.4077C116.454 49.3619 116.292 49.3391 116.108 49.3391C115.589 49.3391 115.179 49.5107 114.879 49.8541C114.579 50.186 114.429 50.5808 114.429 51.0386V51.7253C114.429 52.4235 114.435 53.0815 114.447 53.6996C114.47 54.3176 114.51 54.9127 114.568 55.485C114.418 55.4621 114.228 55.4506 113.997 55.4506C113.778 55.4506 113.535 55.4506 113.27 55.4506C113.005 55.4506 112.762 55.4506 112.543 55.4506C112.324 55.4506 112.134 55.4621 111.972 55.485C112.03 54.9127 112.065 54.3176 112.076 53.6996C112.099 53.0815 112.111 52.4235 112.111 51.7253V51.0386C112.111 50.3405 112.099 49.6881 112.076 49.0815C112.065 48.4635 112.03 47.8455 111.972 47.2275C112.168 47.2504 112.364 47.2732 112.561 47.2961C112.768 47.3076 112.97 47.3133 113.166 47.3133C113.362 47.3133 113.558 47.3076 113.755 47.2961C113.962 47.2732 114.164 47.2504 114.36 47.2275L114.308 49.3219L114.343 49.3562Z" fill="black"/>
<path d="M122.626 52.618C122.833 52.0916 123.024 51.6051 123.197 51.1588C123.37 50.701 123.531 50.2604 123.681 49.8369C123.843 49.4134 123.993 48.99 124.131 48.5665C124.281 48.1431 124.431 47.6967 124.581 47.2275C124.708 47.2504 124.823 47.2732 124.927 47.2961C125.043 47.3076 125.158 47.3133 125.273 47.3133C125.389 47.3133 125.504 47.3076 125.619 47.2961C125.735 47.2732 125.862 47.2504 126 47.2275C125.942 47.3762 125.804 47.6967 125.585 48.1888C125.377 48.6695 125.118 49.2704 124.806 49.9914C124.506 50.701 124.172 51.4907 123.802 52.3605C123.433 53.2303 123.058 54.1116 122.678 55.0043C122.309 55.8855 121.945 56.7611 121.588 57.6309C121.241 58.5007 120.936 59.2904 120.67 60C120.544 59.9771 120.422 59.9542 120.307 59.9313C120.192 59.9199 120.071 59.9142 119.944 59.9142C119.817 59.9142 119.696 59.9199 119.58 59.9313C119.465 59.9542 119.344 59.9771 119.217 60C119.598 59.2446 119.972 58.495 120.342 57.7511C120.711 57.0186 121.068 56.2747 121.414 55.5193C121.138 54.867 120.826 54.1288 120.48 53.3047C120.146 52.4807 119.811 51.6738 119.476 50.8841C119.153 50.0944 118.854 49.3734 118.577 48.721C118.311 48.0687 118.109 47.5708 117.971 47.2275C118.19 47.2504 118.404 47.2732 118.611 47.2961C118.83 47.3076 119.05 47.3133 119.269 47.3133C119.488 47.3133 119.701 47.3076 119.909 47.2961C120.117 47.2732 120.33 47.2504 120.549 47.2275C120.884 48.1316 121.218 49.03 121.553 49.9227C121.899 50.8154 122.257 51.7139 122.626 52.618Z" fill="black"/>
<defs>
<clipPath id="clip0">
<rect width="60" height="64" fill="white"/>
</clipPath>
</defs>
</svg>
